<?xml version="1.0" encoding="UTF-8"?>
<svg width="200px" height="256px" viewBox="0 0 200 256" version="1.1" xmlns="http://www.w3.org/2000/svg" xmlns:xlink="http://www.w3.org/1999/xlink">
    <!-- Generator: Sketch 50.2 (55047) - http://www.bohemiancoding.com/sketch -->
    <title>AHA_icon</title>
    <desc>Created with Sketch.</desc>
    <defs>
        <polygon id="path-1" points="0 0.513109315 186.587641 0.513109315 186.587641 164.942609 0 164.942609"></polygon>
        <path d="M1.89826087,118.6832 C1.89586957,118.6616 1.89347826,118.6352 1.89108696,118.6136 C1.37934783,112.16 0.96326087,106.0016 0.630869565,100.1528 C0.965652174,106.0232 1.38173913,112.2008 1.89826087,118.6808 C26.0456522,99.14 41.8330435,84.3752 53.1797826,68.2328 C41.8330435,84.3752 26.0504348,99.1376 1.89826087,118.6832 M1.89826087,118.6808 L1.89826087,118.6832 L1.89826087,118.6808 M0.630869565,100.1504 C0.628478261,100.1264 0.628478261,100.1 0.626086957,100.076 C0.628478261,100.1024 0.628478261,100.124 0.630869565,100.1504 M0.626086957,100.0712 C0.626086957,100.0568 0.623695652,100.0376 0.623695652,100.0232 C0.623695652,100.04 0.626086957,100.0544 0.626086957,100.0712 M18.2930435,1.9112 C18.25,1.58 18.1471739,1.2512 17.9845652,0.9248 C18.1471739,1.2512 18.25,1.58 18.2930435,1.9112" id="path-3"></path>
        <path d="M2.90014286,118.6808 C2.38328571,112.2008 1.96692857,106.0232 1.63192857,100.1528 C1.63192857,100.1504 1.63192857,100.1528 1.63192857,100.1504 C1.62953571,100.124 1.62953571,100.1024 1.62714286,100.076 C1.62714286,100.0736 1.62714286,100.0736 1.62714286,100.0712 C1.62714286,100.0544 1.62475,100.04 1.62475,100.0232 C-0.275178571,66.5888 0.514464286,43.2896 1.16532143,32.2424 C10.5836071,28.952 16.8552857,24.4064 17.2668571,20.0216 L17.4104286,20.0024 L19.3055714,1.9112 C19.2625,1.58 19.1596071,1.2512 18.9968929,0.9248 L65.3154286,48.8264 C64.0926786,51.6368 62.69525,54.4832 61.0705,57.3704 C58.9695714,61.1 56.69875,64.6976 54.2149643,68.2328 C42.8608571,84.3752 27.0632143,99.14 2.90014286,118.6808" id="path-5"></path>
        <linearGradient x1="95.5857155%" y1="50%" x2="1.96785734%" y2="50%" id="linearGradient-7">
            <stop stop-color="#C0242B" offset="0%"></stop>
            <stop stop-color="#850303" offset="97.1730491%"></stop>
        </linearGradient>
        <path d="M0.67,2.0325 C0.625,1.6825 0.51,1.3375 0.335,0.995 L0.3475,1.005 C0.5175,1.345 0.625,1.6875 0.67,2.0325" id="path-8"></path>
        <path d="M0.53,0.17 C0.5275,0.145 0.525,0.1225 0.5225,0.0975 C0.525,0.12 0.5275,0.1475 0.53,0.17" id="path-10"></path>
    </defs>
    <g id="AHA_icon" stroke="none" stroke-width="1" fill="none" fill-rule="evenodd">
        <path d="M76.9099213,247.996954 C76.7295103,247.928426 76.478305,247.894162 76.1517381,247.894162 L75.834306,247.894162 L75.834306,249.342386 L76.3412839,249.342386 C76.6472976,249.342386 76.8848008,249.280711 77.0560771,249.159645 C77.2273535,249.036294 77.3118498,248.837563 77.3118498,248.565736 C77.3118498,248.293909 77.1771124,248.104315 76.9099213,247.996954 Z M74.5280386,252.003553 L74.5280386,247.017005 C74.8386196,247.017005 75.2999239,247.017005 75.9165187,247.019289 C76.5331134,247.021574 76.8756661,247.023858 76.9441766,247.026142 C77.339254,247.055838 77.6681045,247.140355 77.9284446,247.284264 C78.3714793,247.52868 78.5952804,247.926142 78.5952804,248.474365 C78.5952804,248.89467 78.4765288,249.198477 78.243593,249.383503 C78.0083735,249.570812 77.7206293,249.682741 77.3780766,249.717005 C77.6932251,249.785533 77.9284446,249.879188 78.0860188,250.004822 C78.3806141,250.24467 78.5267699,250.617005 78.5267699,251.124112 L78.5267699,251.571827 L78.5359046,251.71802 L78.5724435,251.864213 L78.6181172,252.003553 L77.3735093,252.003553 C77.3324029,251.845939 77.3049987,251.615228 77.2912966,251.313706 C77.2775945,251.014467 77.2479066,250.811168 77.209084,250.703807 L76.8414108,250.338325 L76.3960924,250.258376 L76.1083481,250.240102 L75.834306,250.240102 L75.834306,252.003553 L74.5280386,252.003553 Z M73.8566354,246.893655 C73.1395585,247.626904 72.7833037,248.494924 72.7833037,249.5 C72.7833037,250.543909 73.1464095,251.427919 73.8749048,252.158883 C74.5988328,252.885279 75.4734839,253.250761 76.5011418,253.250761 C77.5219487,253.250761 78.3943162,252.882995 79.1182441,252.15203 C79.8444557,251.414213 80.2052778,250.532487 80.2052778,249.5 C80.2052778,248.499492 79.8467394,247.629188 79.1250952,246.893655 C78.3965998,246.144416 77.5219487,245.769797 76.5011418,245.769797 C75.4666328,245.769797 74.5851307,246.144416 73.8566354,246.893655 Z M79.6503426,252.732234 C78.7756914,253.579695 77.7251967,254 76.5011418,254 C75.233697,254 74.1672164,253.568274 73.3017001,252.700254 C72.4339,251.834518 72,250.765482 72,249.5 C72,248.184264 72.4681553,247.092386 73.4044659,246.222081 C74.2836843,245.406599 75.3159097,245 76.5011418,245 C77.7411824,245 78.800812,245.440863 79.6800304,246.320305 C80.5592489,247.199746 81,248.259645 81,249.5 C81,250.779188 80.5501142,251.85736 79.6503426,252.732234 Z" id="Fill-24" fill="#C0242B"></path>
        <g id="icon" transform="translate(6.496552, 3.500000)">
            <g id="Group-3" transform="translate(0.000000, 84.000000)">
                <mask id="mask-2" fill="white">
                    <use xlink:href="#path-1"></use>
                </mask>
                <g id="Clip-2"></g>
                <path d="M158.259538,5.04804348 C136.598705,-4.96434783 111.382474,2.17847826 97.9616282,20.8426087 C117.615808,19.1567391 133.726577,23.956087 134.419436,29.205 L132.520667,47.2306522 L132.376821,47.2497826 C132.407987,46.891087 132.429564,46.5323913 132.381615,46.1784783 C131.465795,39.2221739 115.151244,35.6256522 95.9429872,38.146087 C76.7371282,40.6665217 61.9089872,48.3497826 62.8272051,55.306087 C62.8727564,55.6623913 62.9878333,55.9995652 63.1125,56.3391304 L62.7648718,56.3821739 L56.4596154,39.435 C55.7667564,34.1956522 70.0410897,25.4243478 89.4171667,21.968913 C76.2144872,2.46782609 50.4204744,-5.16521739 28.3257051,5.04804348 C2.19605128,17.1265217 -10.3089744,48.0221739 10.323359,84.4632609 C24.9860769,110.358696 47.9702949,129.912391 93.2938205,164.942609 C96.8516154,162.190217 100.260769,159.545435 103.545256,156.979565 C93.5239744,98.0195652 79.4486282,57.066087 79.4438333,57.0541304 L79.4438333,57.0517391 C78.9499615,53.3165217 86.9094487,49.193913 97.2232179,47.8380435 C107.53459,46.4869565 116.294821,48.4167391 116.786295,52.1519565 C116.786295,52.1519565 113.23809,86.2591304 117.982615,145.551522 C147.490256,121.820217 164.548013,105.16 176.264282,84.4632609 C196.896615,48.0221739 184.393987,17.1265217 158.259538,5.04804348" id="Fill-1" fill="#C0242B" mask="url(#mask-2)"></path>
            </g>
            <polyline id="Fill-4" fill="#C9242C" points="118 230.002 118 230 118 230.002"></polyline>
            <path d="M117.5675,54.6793444 C109.542842,59.4867919 103.190788,71.087683 106.269627,82.7196053 C117.099555,66.8101528 150.045286,81.1680458 161,44.6443348 C153.697657,50.4901337 144.163577,52.1610439 139.352142,51.6168046 C157.306834,44.2242202 167.582427,17.9575111 151.509114,0 C156.246158,21.1704328 129.172537,23.0084341 107.915833,26.9661044 C67.9893216,34.4422342 61.4812858,71.2332909 79.5943589,90 C77.5090037,67.7410885 95.3365104,54.464513 117.5675,54.6793444" id="Fill-6" fill="#C0242B"></path>
            <path d="M93.2951761,105.804868 C71.7617847,108.640438 55.2808272,118.358622 56.0241848,123.998575 L62.3307348,141 L62.6784344,140.956819 C62.5537421,140.616167 62.4386416,140.277913 62.3930809,139.920468 C61.4746746,132.941896 76.3058579,125.234039 95.5156572,122.705536 C114.727855,120.177033 131.045753,123.785068 131.961761,130.763641 C132.00972,131.118687 131.988139,131.47853 131.956966,131.838374 L132.100841,131.819183 L134,113.735827 C133.25904,108.095874 114.82617,102.971697 93.2951761,105.804868" id="Fill-7" fill="#FFFFFE"></path>
            <path d="M118,230.529789 C113.201407,171.003764 116.790047,136.763577 116.790047,136.763577 C116.292972,133.013792 107.432912,131.076484 97.0040355,132.43284 C86.572734,133.793997 78.5225432,137.932683 79.022043,141.682468 L79.022043,141.684868 C79.0268925,141.696871 93.2626366,182.810063 103.398118,242 C108.577397,237.983746 113.436609,234.171545 118,230.529789" id="Fill-8" fill="#FFFFFE"></path>
            <g id="Group-11" transform="translate(116.000000, 112.000000)">
                <mask id="mask-4" fill="white">
                    <use xlink:href="#path-3"></use>
                </mask>
                <g id="Clip-10"></g>
                <path d="M1.89826087,118.6832 C1.89586957,118.6616 1.89347826,118.6352 1.89108696,118.6136 C1.37934783,112.16 0.96326087,106.0016 0.630869565,100.1528 C0.965652174,106.0232 1.38173913,112.2008 1.89826087,118.6808 C26.0456522,99.14 41.8330435,84.3752 53.1797826,68.2328 C41.8330435,84.3752 26.0504348,99.1376 1.89826087,118.6832 M1.89826087,118.6808 L1.89826087,118.6832 L1.89826087,118.6808 M0.630869565,100.1504 C0.628478261,100.1264 0.628478261,100.1 0.626086957,100.076 C0.628478261,100.1024 0.628478261,100.124 0.630869565,100.1504 M0.626086957,100.0712 C0.626086957,100.0568 0.623695652,100.0376 0.623695652,100.0232 C0.623695652,100.04 0.626086957,100.0544 0.626086957,100.0712 M18.2930435,1.9112 C18.25,1.58 18.1471739,1.2512 17.9845652,0.9248 C18.1471739,1.2512 18.25,1.58 18.2930435,1.9112" id="Fill-9" mask="url(#mask-4)"></path>
            </g>
            <g id="shadow" transform="translate(115.000000, 112.000000)">
                <mask id="mask-6" fill="white">
                    <use xlink:href="#path-5"></use>
                </mask>
                <g id="Clip-13" style="mix-blend-mode: multiply;"></g>
                <path d="M2.90014286,118.6808 C2.38328571,112.2008 1.96692857,106.0232 1.63192857,100.1528 C1.63192857,100.1504 1.63192857,100.1528 1.63192857,100.1504 C1.62953571,100.124 1.62953571,100.1024 1.62714286,100.076 C1.62714286,100.0736 1.62714286,100.0736 1.62714286,100.0712 C1.62714286,100.0544 1.62475,100.04 1.62475,100.0232 C-0.275178571,66.5888 0.514464286,43.2896 1.16532143,32.2424 C10.5836071,28.952 16.8552857,24.4064 17.2668571,20.0216 L17.4104286,20.0024 L19.3055714,1.9112 C19.2625,1.58 19.1596071,1.2512 18.9968929,0.9248 L65.3154286,48.8264 C64.0926786,51.6368 62.69525,54.4832 61.0705,57.3704 C58.9695714,61.1 56.69875,64.6976 54.2149643,68.2328 C42.8608571,84.3752 27.0632143,99.14 2.90014286,118.6808" id="Fill-12" fill="url(#linearGradient-7)" mask="url(#mask-6)"></path>
            </g>
            <g id="Group-17" transform="translate(117.000000, 230.000000)">
                <polyline id="Fill-15" points="0.53 0.17 0.53 0.1675 0.53 0.17"></polyline>
            </g>
            <g id="Group-20" transform="translate(134.000000, 112.000000)">
                <mask id="mask-9" fill="white">
                    <use xlink:href="#path-8"></use>
                </mask>
                <g id="Clip-19"></g>
                <path d="M0.67,2.0325 C0.625,1.6825 0.51,1.3375 0.335,0.995 L0.3475,1.005 C0.5175,1.345 0.625,1.6875 0.67,2.0325" id="Fill-18" mask="url(#mask-9)"></path>
            </g>
            <g id="Group-23" transform="translate(117.000000, 230.000000)">
                <mask id="mask-11" fill="white">
                    <use xlink:href="#path-10"></use>
                </mask>
                <g id="Clip-22"></g>
                <path d="M0.53,0.17 C0.5275,0.145 0.525,0.1225 0.5225,0.0975 C0.525,0.12 0.5275,0.1475 0.53,0.17" id="Fill-21" mask="url(#mask-11)"></path>
            </g>
        </g>
    </g>
</svg>