<?xml version="1.0" encoding="utf-8"?>
<!-- Generator: Adobe Illustrator 24.3.0, SVG Export Plug-In . SVG Version: 6.00 Build 0)  -->
<svg version="1.1" id="Layer_1" xmlns="http://www.w3.org/2000/svg" xmlns:xlink="http://www.w3.org/1999/xlink" x="0px"
	y="0px" viewBox="0 0 2385.3 1409.1" style="enable-background:new 0 0 2385.3 1409.1;" xml:space="preserve">
	<style type="text/css">
		.st0 {
			fill: #FFFFFF;
		}

		.st1 {
			fill: #105EAB;
		}

		.st2 {
			fill: #0033A0;
		}
	</style>
	<g>
		<path class="st0" d="M0,0h2304.5v1409.1H0V0z" />
		<path class="st1" d="M22.6,23h2259.2v1361.7H22.6V23z" />
		<g>
			<path class="st0" d="M950.1,1384.4L2281.4,35.7V22.2h-6.7L930.2,1384.4H950.1z" />
			<path class="st0" d="M110.7,1384.4l90-1362.2h-14.2l-90,1362.2H110.7z" />
			<path class="st0" d="M182.7,1384.4L377,22.2h-14.4L168.4,1384.4H182.7z" />
			<path class="st0" d="M259.7,1384.4l304-1362.2h-14.4L245.2,1384.4H259.7z" />
			<path class="st0" d="M344.3,1384.4l434-1362.2h-14.6L329.5,1384.4H344.3z" />
			<path class="st0" d="M424.1,1384.4L981.6,22.2h-15.3L408.7,1384.4H424.1z" />
			<path class="st0" d="M515.9,1384.4L1213.2,22.2h-15.6L499.9,1384.4H515.9z" />
			<path class="st0" d="M1561.6,22.2h-16.9L641.9,1384.4h16.9L1561.6,22.2z" />
			<path class="st0" d="M1883.6,22.2h-17.8L768.2,1384.4h18.1L1883.6,22.2z" />
			<path class="st0" d="M2281.4,537.7v-17.9L1193,1384.4h22.4L2281.4,537.7z" />
			<path class="st0" d="M2281.4,912.4v-16.6l-781.9,488.7h26.8L2281.4,912.4z" />
			<path class="st0" d="M2281.4,1265.9v-15.7l-287.7,134.2h33.4L2281.4,1265.9z" />
			<path class="st0" d="M697,841.2c-28,26.8-98.2,55.7-149.8,55.2C397.1,896.2,327,768.6,325.7,573.8c1-184.4,76.7-301.7,206.7-302
			c93,0.1,138.2,54,162.9,86.2l27.2,36.2V226.6l-8.7-4c-53.6-24.9-121.6-36.6-183.6-36.7c-233.4,0.5-411.5,167.8-411.8,403.9
			C118.6,832,287,984.2,528.1,984.5h1.3c119.7,0,181.1-36.1,213.5-61l9.6-7.3l-39.9-89.7L697,841.2z M1350.9,273
			c-78.1-57.3-175.9-74.3-259.3-74.3h-285v772.1h303.6c147.3-0.3,374.7-93.8,375.1-388.2C1485.5,428.5,1429.3,330.3,1350.9,273
			L1350.9,273z M994.1,881.3V285.9c137.9,3.7,284.6,20.5,287.2,299.9C1279,857.1,1128.9,877.5,994.1,881.3z M2135.5,826.7
			l-15.5,14.5c-28,26.8-98,55.6-149.6,55.1c-150.1,0-220.3-127.7-221.5-322.5c1-184.5,76.8-301.8,207-302.1
			c92.8,0.1,138.1,54.1,162.3,86.2l27.3,36.7v-168l-8.6-4.1c-53.3-25-121.4-36.5-183.6-36.7c-233.3,0.5-411,167.8-411.4,403.9
			c0.4,242.3,168.3,394.3,409.6,394.7h1.9c119.3,0,180.5-36.2,212.9-61l9.6-7.3L2135.5,826.7z" />
		</g>
	</g>
</svg>
