<svg class="icon-logo" version="1.1" xmlns="http://www.w3.org/2000/svg" viewBox="0 0 5388 1024">
    <title>Logo</title>
    <path fill="#fff" d="M1016.087 434.422h120.604v426.345h-120.604v-426.345z"></path>
    <path fill="#fff"
        d="M1568.485 671.961v188.805h-115.731v-169.941c0-47.502-20.698-67.599-54.21-67.599-37.153 0-65.792 23.135-65.792 77.948v159.565h-115.731v-330.108h110.228v35.921c26.202-27.406 63.355-41.424 104.752-41.424 77.428 0.027 136.484 44.491 136.484 146.833z">
    </path>
    <path fill="#fff"
        d="M1614.81 832.128l34.717-79.18c30.445 18.891 74.909 30.445 115.101 30.445 38.988 0 51.774-8.515 51.774-22.533 0-44.463-194.911 6.078-194.911-126.080 0-62.123 57.249-109.625 160.797-109.625 46.298 0 97.442 9.747 130.351 28.009l-34.717 78.578c-32.882-18.262-65.792-24.367-95.005-24.367-38.988 0-52.978 10.952-52.978 23.135 0 45.668 194.281-3.641 194.281 127.285 0 60.918-56.045 108.421-163.233 108.421-56.045 0.027-113.896-13.991-146.176-34.087z">
    </path>
    <path fill="#fff"
        d="M1961.373 432.587c0-34.717 28.009-61.52 70.638-61.52s70.665 24.97 70.665 59.686c0 36.551-28.009 63.355-70.665 63.355-42.629 0-70.638-26.804-70.638-61.52zM1974.159 530.631h115.731v330.108h-115.731v-330.108z">
    </path>
    <path fill="#fff"
        d="M2515.605 408.822v451.917h-110.255v-32.882c-21.931 26.202-54.21 38.358-96.839 38.358-90.131 0-162.631-65.792-162.631-171.146 0-104.752 72.472-169.941 162.631-169.941 38.358 0 69.433 10.952 91.364 34.114v-150.447h115.731zM2401.709 695.097c0-49.939-29.843-77.948-68.831-77.948-39.59 0-69.433 28.009-69.433 77.948 0 50.542 29.843 79.18 69.433 79.18 38.988 0 68.831-28.638 68.831-79.18z">
    </path>
    <path fill="#fff"
        d="M2925.523 724.94h-239.976c9.747 33.484 38.358 52.978 81.014 52.978 32.28 0 53.608-9.145 76.141-28.638l60.918 63.355c-31.677 35.319-77.948 53.608-140.7 53.608-117.538 0-193.679-72.472-193.679-171.146 0-99.276 77.346-169.941 181.495-169.941 97.442 0 176.622 62.123 176.622 171.146 0 8.542-1.232 19.494-1.834 28.638zM2683.712 664.022h135.225c-6.078-34.717-31.677-56.647-67.599-56.647s-60.918 21.931-67.626 56.647z">
    </path>
    <path fill="#64c800" d="M3058.009 530.029h-130.954v-95.635h381.882v95.635h-130.351v330.71h-120.604v-330.71z"></path>
    <path fill="#64c800"
        d="M3562.932 525.156v104.15c-10.349-1.205-17.659-1.834-26.202-1.834-46.9 0-79.18 23.765-79.18 81.617v151.652h-115.731v-330.108h110.228v39.59c23.792-29.843 62.15-45.066 110.885-45.066z">
    </path>
    <path fill="#64c800"
        d="M3917.407 677.437v183.329h-107.818v-42.629c-16.455 31.677-49.337 48.105-97.442 48.105-79.18 0-123.041-44.463-123.041-101.713 0-60.918 44.463-98.674 146.779-98.674h65.792c-1.834-33.512-24.367-52.376-70.035-52.376-31.677 0-66.996 10.952-89.529 28.638l-38.988-78.578c37.756-24.97 93.8-38.358 145.574-38.358 107.189-0.027 168.709 47.475 168.709 152.254zM3801.676 754.783v-28.638h-49.939c-37.153 0-50.542 13.388-50.542 33.484 0 19.494 15.825 33.512 43.231 33.512 25.599 0 48.132-12.184 57.249-38.358z">
    </path>
    <path fill="#64c800"
        d="M3974.657 695.097c0-99.276 78.578-169.941 189.408-169.941 74.909 0 132.158 33.512 154.691 90.761l-89.529 45.668c-15.825-31.075-38.988-44.463-65.792-44.463-40.192 0-71.87 28.009-71.87 77.948 0 51.171 31.677 79.18 71.87 79.18 26.804 0 49.939-13.388 65.792-44.463l89.529 45.668c-22.533 57.249-79.782 90.761-154.691 90.761-110.83 0.027-189.408-70.638-189.408-171.118z">
    </path>
    <path fill="#64c800"
        d="M4511.256 745.036l-34.114 34.717v81.014h-115.731v-451.944h115.731v236.937l118.168-115.101h137.032l-137.032 141.303 148.613 188.805h-140.098l-92.568-115.731z">
    </path>
    <path fill="#64c800"
        d="M5100.232 724.94h-239.976c9.747 33.484 38.358 52.978 81.014 52.978 32.28 0 53.608-9.145 76.141-28.638l60.918 63.355c-31.677 35.319-77.948 53.608-140.7 53.608-117.538 0-193.679-72.472-193.679-171.146 0-99.276 77.346-169.941 181.495-169.941 97.442 0 176.622 62.123 176.622 171.146 0 8.542-1.232 19.494-1.834 28.638zM4858.422 664.022h135.225c-6.078-34.717-31.677-56.647-67.599-56.647s-60.918 21.931-67.626 56.647z">
    </path>
    <path fill="#64c800"
        d="M5376.76 525.156v104.15c-10.349-1.205-17.659-1.834-26.202-1.834-46.9 0-79.18 23.765-79.18 81.617v151.652h-115.731v-330.108h110.228v39.59c23.792-29.843 62.15-45.066 110.885-45.066z">
    </path>
    <path fill="#64c800"
        d="M470.781 0v92.623c55.661 71.541 291.038 300.73 292.079 449.015 1.396 177.662-144.15 322.141-321.812 322.141-178.018 0-321.812-144.15-322.141-322.141 0-142.398 236.089-366.741 292.079-444.169v-97.469c-98.865 81.562-410.985 356.036-410.985 560.995 0 243.673 197.375 441.047 441.047 441.047 243.344 0 441.047-197.375 441.047-441.047-0.329-205.315-312.449-479.761-411.314-560.995z">
    </path>
    <path fill="#fff"
        d="M436.749 476.859c-75.703 0-137.223 61.52-137.223 137.223s61.52 137.223 137.223 137.223 137.223-61.52 137.223-137.223c0.027-76.031-61.165-137.223-137.223-137.223z">
    </path>
</svg>
