<svg xmlns="http://www.w3.org/2000/svg" xmlns:xlink="http://www.w3.org/1999/xlink" width="215px" height="80px" viewBox="0 0 215 80" version="1.1"  preserveAspectRatio="xMidYMid meet"><rect id="svgEditorBackground" x="0" y="0" width="215" height="80" style="fill:none;stroke:none;"/>
    <!-- Generator: Sketch 63.1 (92452) - https://sketch.com -->
    <title>valorinormali logo</title>
    <desc>Created with Sketch.</desc>
    <defs>
        <polygon id="path-1" points="0 0.00473100177 66.9518444 0.00473100177 66.9518444 30.8208584 0 30.8208584"/>
    </defs>
    <g id="valorinormali-logo" stroke="none" stroke-width="1" fill="none" fill-rule="evenodd" transform="matrix(1 0 0 1 -41.9355 0)">
        <path d="M139.555,38 C139.885,38 140.095,37.835 140.185,37.505 L140.185,37.505 L150.22,7.085 C150.34,6.695 150.22,6.5 149.86,6.5 L149.86,6.5 L144.415,6.5 C144.085,6.5 143.875,6.665 143.785,6.995 L143.785,6.995 L138.43,26.795 C138.4,26.915 138.3475,26.975 138.2725,26.975 C138.1975,26.975 138.16,26.915 138.16,26.795 L138.16,26.795 L137.575,6.995 C137.575,6.665 137.41,6.5 137.08,6.5 L137.08,6.5 L131.455,6.5 C131.095,6.5 130.915,6.665 130.915,6.995 L130.915,6.995 L130.915,7.085 L133.435,37.505 C133.435,37.835 133.6,38 133.93,38 L133.93,38 L139.555,38 Z M154.675,38.36 C156.415,38.36 157.84,37.76 158.95,36.56 C159.01,36.47 159.07,36.44 159.13,36.47 C159.19,36.5 159.205,36.56 159.175,36.65 L159.175,36.65 L159.085,37.46 C159.055,37.61 159.085,37.7375 159.175,37.8425 C159.265,37.9475 159.385,38 159.535,38 L159.535,38 L164.665,38 C164.815,38 164.9425,37.9475 165.0475,37.8425 C165.1525,37.7375 165.22,37.61 165.25,37.46 L165.25,37.46 L167.95,15.41 C167.98,15.26 167.95,15.1325 167.86,15.0275 C167.77,14.9225 167.65,14.87 167.5,14.87 L167.5,14.87 L162.37,14.87 C162.22,14.87 162.0925,14.9225 161.9875,15.0275 C161.8825,15.1325 161.815,15.26 161.785,15.41 L161.785,15.41 L161.695,16.355 C161.665,16.445 161.62,16.4975 161.56,16.5125 C161.5,16.5275 161.455,16.49 161.425,16.4 C160.645,15.14 159.4,14.51 157.69,14.51 C155.65,14.51 154.075,15.1475 152.965,16.4225 C151.855,17.6975 151.12,19.625 150.76,22.205 L150.76,22.205 L150.22,26.435 L150.04,27.875 C149.86,29.555 149.77,30.545 149.77,30.845 C149.71,31.625 149.68,32.18 149.68,32.51 C149.68,34.46 150.07,35.9225 150.85,36.8975 C151.63,37.8725 152.905,38.36 154.675,38.36 Z M157.6,32.96 C157,32.96 156.55,32.7425 156.25,32.3075 C155.95,31.8725 155.83,31.28 155.89,30.53 C156.07,28.61 156.22,27.23 156.34,26.39 C156.58,24.53 156.775,23.165 156.925,22.295 C157.075,21.545 157.3525,20.96 157.7575,20.54 C158.1625,20.12 158.65,19.91 159.22,19.91 C159.82,19.91 160.2625,20.1275 160.5475,20.5625 C160.8325,20.9975 160.945,21.59 160.885,22.34 C160.885,22.7 160.87,22.97 160.84,23.15 L160.84,23.15 L159.94,30.53 C159.79,31.28 159.5125,31.8725 159.1075,32.3075 C158.7025,32.7425 158.2,32.96 157.6,32.96 Z M173.98,38 C174.13,38 174.2575,37.9475 174.3625,37.8425 C174.4675,37.7375 174.535,37.61 174.565,37.46 L174.565,37.46 L178.3,7.04 C178.33,6.89 178.3,6.7625 178.21,6.6575 C178.12,6.5525 178,6.5 177.85,6.5 L177.85,6.5 L172.72,6.5 C172.57,6.5 172.4425,6.5525 172.3375,6.6575 C172.2325,6.7625 172.165,6.89 172.135,7.04 L172.135,7.04 L168.4,37.46 C168.37,37.61 168.4,37.7375 168.49,37.8425 C168.58,37.9475 168.7,38 168.85,38 L168.85,38 L173.98,38 Z M185.59,38.36 C188.2,38.36 190.315,37.6925 191.935,36.3575 C193.555,35.0225 194.515,33.17 194.815,30.8 L194.815,30.8 L195.895,22.07 C195.955,21.59 195.985,21.215 195.985,20.945 C195.985,18.995 195.325,17.435 194.005,16.265 C192.685,15.095 190.855,14.51 188.515,14.51 C185.935,14.51 183.82,15.2 182.17,16.58 C180.52,17.96 179.56,19.79 179.29,22.07 L179.29,22.07 L178.21,30.8 C178.15,31.34 178.12,31.745 178.12,32.015 C178.12,34.025 178.7725,35.585 180.0775,36.695 C181.3825,37.805 183.22,38.36 185.59,38.36 Z M186.265,32.915 C185.635,32.915 185.1475,32.6675 184.8025,32.1725 C184.4575,31.6775 184.33,31.055 184.42,30.305 L184.42,30.305 L185.41,22.52 C185.5,21.77 185.77,21.155 186.22,20.675 C186.67,20.195 187.21,19.955 187.84,19.955 C188.47,19.955 188.9575,20.195 189.3025,20.675 C189.6475,21.155 189.775,21.77 189.685,22.52 L189.685,22.52 L188.695,30.305 C188.605,31.085 188.335,31.715 187.885,32.195 C187.435,32.675 186.895,32.915 186.265,32.915 Z M202.555,38 C202.705,38 202.8325,37.9475 202.9375,37.8425 C203.0425,37.7375 203.11,37.61 203.14,37.46 L203.14,37.46 L204.67,25.04 C204.79,24.14 205.105,23.3375 205.615,22.6325 C206.125,21.9275 206.71,21.5 207.37,21.35 C207.7,21.23 208.09,21.17 208.54,21.17 C209.02,21.17 209.395,21.23 209.665,21.35 C210.055,21.44 210.28,21.32 210.34,20.99 L210.34,20.99 L211.825,15.725 C211.915,15.455 211.87,15.23 211.69,15.05 C211.21,14.72 210.61,14.555 209.89,14.555 C208.18,14.555 206.83,15.485 205.84,17.345 C205.78,17.435 205.72,17.4725 205.66,17.4575 C205.6,17.4425 205.585,17.375 205.615,17.255 L205.615,17.255 L205.84,15.41 C205.87,15.26 205.84,15.1325 205.75,15.0275 C205.66,14.9225 205.54,14.87 205.39,14.87 L205.39,14.87 L200.26,14.87 C200.11,14.87 199.9825,14.9225 199.8775,15.0275 C199.7725,15.1325 199.705,15.26 199.675,15.41 L199.675,15.41 L196.975,37.46 C196.945,37.61 196.975,37.7375 197.065,37.8425 C197.155,37.9475 197.275,38 197.425,38 L197.425,38 L202.555,38 Z M217.54,12.665 C218.71,12.665 219.6775,12.26 220.4425,11.45 C221.2075,10.64 221.59,9.605 221.59,8.345 C221.59,7.385 221.3125,6.6125 220.7575,6.0275 C220.2025,5.4425 219.445,5.15 218.485,5.15 C217.315,5.15 216.34,5.5625 215.56,6.3875 C214.78,7.2125 214.39,8.255 214.39,9.515 C214.39,10.475 214.675,11.24 215.245,11.81 C215.815,12.38 216.58,12.665 217.54,12.665 Z M216.955,38 C217.105,38 217.24,37.9475 217.36,37.8425 C217.48,37.7375 217.555,37.61 217.585,37.46 L217.585,37.46 L220.285,15.41 C220.315,15.26 220.285,15.1325 220.195,15.0275 C220.105,14.9225 219.985,14.87 219.835,14.87 L219.835,14.87 L214.705,14.87 C214.555,14.87 214.4275,14.9225 214.3225,15.0275 C214.2175,15.1325 214.15,15.26 214.12,15.41 L214.12,15.41 L211.42,37.46 C211.39,37.61 211.42,37.7375 211.51,37.8425 C211.6,37.9475 211.72,38 211.87,38 L211.87,38 L216.955,38 Z M133.615,74 C133.765,74 133.9,73.9475 134.02,73.8425 C134.14,73.7375 134.215,73.61 134.245,73.46 L134.245,73.46 L136.225,56.675 C136.255,56.585 136.3075,56.54 136.3825,56.54 C136.4575,56.54 136.495,56.585 136.495,56.675 L136.495,56.675 L140.05,73.55 C140.11,73.85 140.29,74 140.59,74 L140.59,74 L146.125,74 C146.275,74 146.4025,73.9475 146.5075,73.8425 C146.6125,73.7375 146.68,73.61 146.71,73.46 L146.71,73.46 L150.445,43.04 C150.475,42.89 150.445,42.7625 150.355,42.6575 C150.265,42.5525 150.145,42.5 149.995,42.5 L149.995,42.5 L144.955,42.5 C144.805,42.5 144.6775,42.5525 144.5725,42.6575 C144.4675,42.7625 144.4,42.89 144.37,43.04 L144.37,43.04 L142.345,59.735 C142.315,59.825 142.2625,59.8775 142.1875,59.8925 C142.1125,59.9075 142.075,59.87 142.075,59.78 L142.075,59.78 L138.475,42.95 C138.415,42.65 138.25,42.5 137.98,42.5 L137.98,42.5 L132.49,42.5 C132.34,42.5 132.2125,42.5525 132.1075,42.6575 C132.0025,42.7625 131.935,42.89 131.905,43.04 L131.905,43.04 L128.17,73.46 C128.14,73.61 128.17,73.7375 128.26,73.8425 C128.35,73.9475 128.47,74 128.62,74 L128.62,74 L133.615,74 Z M158.185,74.36 C160.795,74.36 162.91,73.6925 164.53,72.3575 C166.15,71.0225 167.11,69.17 167.41,66.8 L167.41,66.8 L168.49,58.07 C168.55,57.59 168.58,57.215 168.58,56.945 C168.58,54.995 167.92,53.435 166.6,52.265 C165.28,51.095 163.45,50.51 161.11,50.51 C158.53,50.51 156.415,51.2 154.765,52.58 C153.115,53.96 152.155,55.79 151.885,58.07 L151.885,58.07 L150.805,66.8 C150.745,67.34 150.715,67.745 150.715,68.015 C150.715,70.025 151.3675,71.585 152.6725,72.695 C153.9775,73.805 155.815,74.36 158.185,74.36 Z M158.86,68.915 C158.23,68.915 157.7425,68.6675 157.3975,68.1725 C157.0525,67.6775 156.925,67.055 157.015,66.305 L157.015,66.305 L158.005,58.52 C158.095,57.77 158.365,57.155 158.815,56.675 C159.265,56.195 159.805,55.955 160.435,55.955 C161.065,55.955 161.5525,56.195 161.8975,56.675 C162.2425,57.155 162.37,57.77 162.28,58.52 L162.28,58.52 L161.29,66.305 C161.2,67.085 160.93,67.715 160.48,68.195 C160.03,68.675 159.49,68.915 158.86,68.915 Z M175.15,74 C175.3,74 175.4275,73.9475 175.5325,73.8425 C175.6375,73.7375 175.705,73.61 175.735,73.46 L175.735,73.46 L177.265,61.04 C177.385,60.14 177.7,59.3375 178.21,58.6325 C178.72,57.9275 179.305,57.5 179.965,57.35 C180.295,57.23 180.685,57.17 181.135,57.17 C181.615,57.17 181.99,57.23 182.26,57.35 C182.65,57.44 182.875,57.32 182.935,56.99 L182.935,56.99 L184.42,51.725 C184.51,51.455 184.465,51.23 184.285,51.05 C183.805,50.72 183.205,50.555 182.485,50.555 C180.775,50.555 179.425,51.485 178.435,53.345 C178.375,53.435 178.315,53.4725 178.255,53.4575 C178.195,53.4425 178.18,53.375 178.21,53.255 L178.21,53.255 L178.435,51.41 C178.465,51.26 178.435,51.1325 178.345,51.0275 C178.255,50.9225 178.135,50.87 177.985,50.87 L177.985,50.87 L172.855,50.87 C172.705,50.87 172.5775,50.9225 172.4725,51.0275 C172.3675,51.1325 172.3,51.26 172.27,51.41 L172.27,51.41 L169.57,73.46 C169.54,73.61 169.57,73.7375 169.66,73.8425 C169.75,73.9475 169.87,74 170.02,74 L170.02,74 L175.15,74 Z M189.325,74 C189.475,74 189.6025,73.9475 189.7075,73.8425 C189.8125,73.7375 189.88,73.61 189.91,73.46 L189.91,73.46 L191.71,58.79 C191.83,57.89 192.1,57.1925 192.52,56.6975 C192.94,56.2025 193.465,55.955 194.095,55.955 C194.605,55.955 195.0025,56.1425 195.2875,56.5175 C195.5725,56.8925 195.715,57.425 195.715,58.115 C195.715,58.415 195.7,58.64 195.67,58.79 L195.67,58.79 L193.87,73.46 C193.84,73.61 193.87,73.7375 193.96,73.8425 C194.05,73.9475 194.17,74 194.32,74 L194.32,74 L199.405,74 C199.555,74 199.6825,73.9475 199.7875,73.8425 C199.8925,73.7375 199.96,73.61 199.99,73.46 L199.99,73.46 L201.79,58.79 C201.91,57.89 202.18,57.1925 202.6,56.6975 C203.02,56.2025 203.545,55.955 204.175,55.955 C204.685,55.955 205.0825,56.1425 205.3675,56.5175 C205.6525,56.8925 205.795,57.425 205.795,58.115 C205.795,58.415 205.78,58.64 205.75,58.79 L205.75,58.79 L203.95,73.46 C203.92,73.61 203.95,73.7375 204.04,73.8425 C204.13,73.9475 204.25,74 204.4,74 L204.4,74 L209.53,74 C209.68,74 209.8075,73.9475 209.9125,73.8425 C210.0175,73.7375 210.085,73.61 210.115,73.46 L210.115,73.46 L211.96,58.385 C212.05,57.695 212.095,57.05 212.095,56.45 C212.095,54.56 211.675,53.0975 210.835,52.0625 C209.995,51.0275 208.72,50.51 207.01,50.51 C206.14,50.51 205.2475,50.6975 204.3325,51.0725 C203.4175,51.4475 202.6,52.115 201.88,53.075 C201.73,53.255 201.625,53.345 201.565,53.345 C201.505,53.345 201.475,53.33 201.475,53.3 C200.695,51.44 199.165,50.51 196.885,50.51 C196.255,50.51 195.58,50.63 194.86,50.87 C194.14,51.11 193.45,51.53 192.79,52.13 C192.61,52.25 192.52,52.205 192.52,51.995 L192.52,51.995 L192.61,51.41 C192.64,51.26 192.61,51.1325 192.52,51.0275 C192.43,50.9225 192.31,50.87 192.16,50.87 L192.16,50.87 L187.03,50.87 C186.88,50.87 186.7525,50.9225 186.6475,51.0275 C186.5425,51.1325 186.475,51.26 186.445,51.41 L186.445,51.41 L183.745,73.46 C183.715,73.61 183.745,73.7375 183.835,73.8425 C183.925,73.9475 184.045,74 184.195,74 L184.195,74 L189.325,74 Z M218.8,74.36 C220.54,74.36 221.965,73.76 223.075,72.56 C223.135,72.47 223.195,72.44 223.255,72.47 C223.315,72.5 223.33,72.56 223.3,72.65 L223.3,72.65 L223.21,73.46 C223.18,73.61 223.21,73.7375 223.3,73.8425 C223.39,73.9475 223.51,74 223.66,74 L223.66,74 L228.79,74 C228.94,74 229.0675,73.9475 229.1725,73.8425 C229.2775,73.7375 229.345,73.61 229.375,73.46 L229.375,73.46 L232.075,51.41 C232.105,51.26 232.075,51.1325 231.985,51.0275 C231.895,50.9225 231.775,50.87 231.625,50.87 L231.625,50.87 L226.495,50.87 C226.345,50.87 226.2175,50.9225 226.1125,51.0275 C226.0075,51.1325 225.94,51.26 225.91,51.41 L225.91,51.41 L225.82,52.355 C225.79,52.445 225.745,52.4975 225.685,52.5125 C225.625,52.5275 225.58,52.49 225.55,52.4 C224.77,51.14 223.525,50.51 221.815,50.51 C219.775,50.51 218.2,51.1475 217.09,52.4225 C215.98,53.6975 215.245,55.625 214.885,58.205 L214.885,58.205 L214.345,62.435 L214.165,63.875 C213.985,65.555 213.895,66.545 213.895,66.845 C213.835,67.625 213.805,68.18 213.805,68.51 C213.805,70.46 214.195,71.9225 214.975,72.8975 C215.755,73.8725 217.03,74.36 218.8,74.36 Z M221.725,68.96 C221.125,68.96 220.675,68.7425 220.375,68.3075 C220.075,67.8725 219.955,67.28 220.015,66.53 C220.195,64.61 220.345,63.23 220.465,62.39 C220.705,60.53 220.9,59.165 221.05,58.295 C221.2,57.545 221.4775,56.96 221.8825,56.54 C222.2875,56.12 222.775,55.91 223.345,55.91 C223.945,55.91 224.3875,56.1275 224.6725,56.5625 C224.9575,56.9975 225.07,57.59 225.01,58.34 C225.01,58.7 224.995,58.97 224.965,59.15 L224.965,59.15 L224.065,66.53 C223.915,67.28 223.6375,67.8725 223.2325,68.3075 C222.8275,68.7425 222.325,68.96 221.725,68.96 Z M238.105,74 C238.255,74 238.3825,73.9475 238.4875,73.8425 C238.5925,73.7375 238.66,73.61 238.69,73.46 L238.69,73.46 L242.425,43.04 C242.455,42.89 242.425,42.7625 242.335,42.6575 C242.245,42.5525 242.125,42.5 241.975,42.5 L241.975,42.5 L236.845,42.5 C236.695,42.5 236.5675,42.5525 236.4625,42.6575 C236.3575,42.7625 236.29,42.89 236.26,43.04 L236.26,43.04 L232.525,73.46 C232.495,73.61 232.525,73.7375 232.615,73.8425 C232.705,73.9475 232.825,74 232.975,74 L232.975,74 L238.105,74 Z M248.185,48.665 C249.355,48.665 250.3225,48.26 251.0875,47.45 C251.8525,46.64 252.235,45.605 252.235,44.345 C252.235,43.385 251.9575,42.6125 251.4025,42.0275 C250.8475,41.4425 250.09,41.15 249.13,41.15 C247.96,41.15 246.985,41.5625 246.205,42.3875 C245.425,43.2125 245.035,44.255 245.035,45.515 C245.035,46.475 245.32,47.24 245.89,47.81 C246.46,48.38 247.225,48.665 248.185,48.665 Z M247.6,74 C247.75,74 247.885,73.9475 248.005,73.8425 C248.125,73.7375 248.2,73.61 248.23,73.46 L248.23,73.46 L250.93,51.41 C250.96,51.26 250.93,51.1325 250.84,51.0275 C250.75,50.9225 250.63,50.87 250.48,50.87 L250.48,50.87 L245.35,50.87 C245.2,50.87 245.0725,50.9225 244.9675,51.0275 C244.8625,51.1325 244.795,51.26 244.765,51.41 L244.765,51.41 L242.065,73.46 C242.035,73.61 242.065,73.7375 242.155,73.8425 C242.245,73.9475 242.365,74 242.515,74 L242.515,74 L247.6,74 Z" id="ValoriNormali" fill="#2A3B58" fill-rule="nonzero"/>
        <g id="Group-8" transform="translate(47.000000, 7.000000)">
            <g>
                <g id="Group-3" transform="translate(0.000000, 35.714286)">
                    <mask id="mask-2" fill="white">
                        <use xlink:href="#path-1"/>
                    </mask>
                    <g id="Clip-2"/>
                    <path d="M61.5744812,0.940144054 L61.4009132,0.761383076 L60.6338649,0.00627204469 L52.5548941,7.9612897 L53.2247507,8.62085607 C57.556907,13.3563269 54.6333275,16.8113451 53.6285427,17.7606275 C52.4625541,18.8655553 50.9303355,19.5237347 49.4262885,19.568425 C47.7422566,19.6222074 46.1443044,18.9241149 44.6762543,17.5032734 L43.7858772,16.594058 L40.9702886,19.3663943 C38.9998461,21.3050262 36.3924139,22.3868384 33.6157959,22.4208954 L36.5894582,25.4505858 C40.2736691,29.051849 44.9517093,30.9565781 49.7738939,30.8134152 C54.1325002,30.6839676 58.3128432,28.9302607 61.543336,25.8759137 C64.8126428,22.7828864 66.7284639,18.7038999 66.9333335,14.3903667 C67.0931287,11.0541628 66.2932136,6.01325735 61.5744812,0.940144054 M25.9797443,19.3617711 L23.1674424,16.594058 L22.2751872,17.5032734 C20.8072937,18.9241149 19.2093415,19.6222074 17.5251531,19.568425 C16.0226712,19.5237347 14.4904526,18.8655553 13.3228989,17.7606275 C12.3181141,16.8113451 9.39469107,13.3578679 13.7266909,8.62085607 L14.3981125,7.95974866 L6.31914178,0.00473100177 L5.46304008,0.847681479 L5.37852547,0.940144054 C0.659949553,6.01325735 -0.139965586,11.0541628 0.0181080379,14.3903667 C0.224699308,18.7038999 2.13879873,22.7828864 5.40998369,25.8759137 C8.64016341,28.9302607 12.8189414,30.6839676 17.1792692,30.8134152 C21.9966021,30.9551911 26.6777724,29.051849 30.3635485,25.4505858 L30.446498,25.3673695 L33.3372107,22.4208954 C30.5544889,22.3868384 27.9472132,21.3036393 25.9797443,19.3617711" id="Fill-1" fill="#2A3B58" mask="url(#mask-2)"/>
                </g>
                <path d="M33.6158429,58.1351199 C33.5688903,58.1366609 33.5235028,58.1366609 33.4765503,58.1366609 C33.4295977,58.1366609 33.3826452,58.1366609 33.3372577,58.1351199 L33.4765503,57.9933439 L33.6158429,58.1351199 Z" id="Fill-4" fill="#000000"/>
                <path d="M13.7274891,22.2004492 L33.4763625,41.6457911 L53.2249228,22.2006033 C57.5575487,17.4640538 54.6339692,14.0098061 53.6291844,13.0597532 C52.4617872,11.95575 50.9301946,11.2969542 49.4270866,11.2521098 C47.7422722,11.1987897 46.1451026,11.8967281 44.6767395,13.3177237 L38.2763228,19.8398797 C37.0248806,21.1144763 35.2757411,21.8450847 33.4763625,21.8450847 C31.6763578,21.8450847 29.9267488,21.1141681 28.6762456,19.8395715 L22.2758289,13.3177237 C20.8074658,11.8967281 19.2088876,11.199252 17.5254818,11.2521098 C16.0223738,11.2969542 14.4907812,11.95575 13.323384,13.0597532 C12.3185992,14.0098061 9.39486323,17.4638997 13.7274891,22.2004492 M33.4763625,54.6692989 C31.5858958,54.6692989 29.8087414,53.9443924 28.472315,52.6280335 L5.46352526,29.9726992 L5.37854112,29.8813154 C0.660121712,24.8072774 -0.14041946,19.7663719 0.0189062314,16.4310928 C0.224871468,12.116789 2.13928391,8.03795659 5.40984283,4.94554576 C8.63970953,1.8915069 12.81927,0.137800058 17.1788154,0.00758193117 C21.9972437,-0.13465633 26.6784141,1.76853168 30.3632511,5.37118182 L30.4462007,5.45408993 L33.4763625,8.54172352 L36.5893173,5.37118182 C40.2741543,1.76853168 44.952351,-0.135426852 49.7737531,0.00758193117 C54.1332984,0.137800058 58.3128589,1.8915069 61.5428821,4.94554576 C64.813128,8.03795659 66.7278535,12.116789 66.9336622,16.4310928 C67.0931444,19.7663719 66.2924467,24.8072774 61.5741838,29.8813154 L61.4003028,30.0602304 L38.4796274,52.6286499 C37.1442966,53.9440841 35.3671421,54.6692989 33.4763625,54.6692989" id="Fill-6" fill="#00DAD6"/>
            </g>
        </g>
    </g>
</svg>