<svg width="253" height="41" viewBox="0 0 253 41" fill="none" xmlns="http://www.w3.org/2000/svg">
  <g clip-path="url(#clip0)">
  <path d="M4.93546 34.0295H10.6934V20.0895L2.46777 13.9395V31.5695C2.46777 32.9225 3.57823 34.0295 4.93546 34.0295Z" fill="#4285F4"></path>
  <path d="M30.4351 34.0295H36.193C37.5502 34.0295 38.6607 32.9225 38.6607 31.5695V13.9395L30.4351 20.0895V34.0295Z" fill="#34A853"></path>
  <path d="M30.4351 9.42959V20.0896L38.6607 13.9396V10.6596C38.6607 7.62559 35.1648 5.86259 32.7382 7.70759L30.4351 9.42959Z" fill="#FBBC04"></path>
  <path fill-rule="evenodd" clip-rule="evenodd" d="M10.6934 20.0897V9.42969L20.5641 16.8097L30.4348 9.42969V20.0897L20.5641 27.4697L10.6934 20.0897Z" fill="#EA4335"></path>
  <path d="M2.46777 10.6603V13.9403L10.6934 20.0903V9.43028L8.39022 7.70828C5.96366 5.90428 2.46777 7.62628 2.46777 10.6603Z" fill="#C5221F"></path>
  </g>
  <g clip-path="url(#clip1)">
  <path d="M85.2471 13.1689H69.2944V29.072H85.2471V13.1689Z" fill="white"></path>
  <path d="M72.5649 25.494C71.9667 25.0964 71.5679 24.5001 71.3286 23.7447L72.7245 23.1881C72.8441 23.6652 73.0834 24.023 73.3626 24.3013C73.6816 24.5796 74.0406 24.6988 74.4793 24.6988C74.918 24.6988 75.3168 24.5796 75.6358 24.3013C75.9549 24.023 76.1144 23.6652 76.1144 23.2676C76.1144 22.8302 75.9549 22.4724 75.596 22.1941C75.237 21.9158 74.8382 21.7965 74.3197 21.7965H73.5221V20.4448H74.24C74.6787 20.4448 75.0376 20.3255 75.3567 20.087C75.6757 19.8484 75.7954 19.5304 75.7954 19.093C75.7954 18.7352 75.6757 18.4172 75.3966 18.2184C75.1174 17.9798 74.7983 17.9003 74.3596 17.9003C73.9608 17.9003 73.6418 18.0196 73.4025 18.2184C73.1632 18.4172 73.0036 18.6955 72.884 19.0135L71.528 18.4569C71.7274 17.9401 72.0465 17.5027 72.5251 17.1052C73.0036 16.7076 73.6418 16.5088 74.3995 16.5088C74.9579 16.5088 75.4763 16.6281 75.915 16.8268C76.3537 17.0256 76.7127 17.3437 76.9519 17.7413C77.1912 18.1388 77.3508 18.5364 77.3508 19.0135C77.3508 19.4906 77.2311 19.9279 76.9918 20.246C76.7525 20.6038 76.4734 20.8424 76.1144 21.0412V21.1207C76.5531 21.3195 76.9519 21.5978 77.2311 21.9953C77.5103 22.3929 77.6698 22.8302 77.6698 23.3868C77.6698 23.9435 77.5502 24.4205 77.271 24.8181C76.9918 25.2555 76.6329 25.5735 76.1144 25.8121C75.6358 26.0506 75.0775 26.1699 74.4793 26.1699C73.8013 26.0904 73.1632 25.8916 72.5649 25.494Z" fill="#4285F4"></path>
  <path d="M81.0589 18.6558L79.5434 19.7691L78.7856 18.6161L81.4976 16.668H82.5345V25.8917H81.0589V18.6558Z" fill="#4285F4"></path>
  <path d="M85.2471 29.0723H69.2944V36.2286H85.2471V29.0723Z" fill="#34A853"></path>
  <path d="M85.2472 6.0127H64.5086C63.1925 6.0127 62.1157 7.08615 62.1157 8.39815V29.0721H69.2944V13.1691H85.2472V6.0127Z" fill="#4285F4"></path>
  <path d="M62.1157 29.0723V33.8432C62.1157 35.1552 63.1925 36.2286 64.5086 36.2286H69.2944V29.0723H62.1157Z" fill="#188038"></path>
  <path d="M92.4258 13.1689H85.2471V29.072H92.4258V13.1689Z" fill="#FBBC04"></path>
  <path d="M92.4258 13.1691V8.39815C92.4258 7.08615 91.349 6.0127 90.0329 6.0127H85.2471V13.1691H92.4258Z" fill="#1967D2"></path>
  <path d="M85.2471 36.2286L92.4258 29.0723H85.2471V36.2286Z" fill="#EA4335"></path>
  </g>
  <g clip-path="url(#clip2)">
  <path d="M114.857 31.8982L116.42 34.6452C116.749 35.2192 117.242 35.6702 117.777 35.9982L123.453 26.2402H112.143C112.143 26.8962 112.307 27.5112 112.636 28.0852L114.857 31.8982Z" fill="#0066DA"></path>
  <path d="M130.074 14.76L124.44 5.00195C123.864 5.32995 123.412 5.78095 123.083 6.35495L112.636 24.395C112.307 24.969 112.143 25.584 112.143 26.24H123.453L130.074 14.76Z" fill="#00AC47"></path>
  <path d="M130.074 14.7598L135.75 5.00177C135.174 4.67377 134.557 4.50977 133.899 4.50977H126.29C125.632 4.50977 125.015 4.71477 124.439 5.00177L130.074 14.7598Z" fill="#00832D"></path>
  <path d="M136.736 26.2402H123.452L117.817 35.9982C118.393 36.3262 119.01 36.4902 119.668 36.4902H140.52C141.178 36.4902 141.795 36.3262 142.371 35.9982L136.736 26.2402Z" fill="#2684FC"></path>
  <path d="M142.371 35.9982C142.947 35.6702 143.399 35.2192 143.728 34.6452L144.387 33.4972L147.553 28.0852C147.882 27.5112 148.047 26.8962 148.047 26.2402H136.778L142.371 35.9982Z" fill="#EA4335"></path>
  <path d="M142.331 15.375L137.108 6.35495C136.779 5.78095 136.326 5.32995 135.75 5.00195L130.075 14.76L136.696 26.24H148.007C148.007 25.584 147.842 24.969 147.513 24.395L142.331 15.375Z" fill="#FFBA00"></path>
  </g>
  <g clip-path="url(#clip3)">
  <path d="M177.972 29.8682H169.198V36.2294C169.198 37.5414 170.275 38.6148 171.591 38.6148H177.972V29.8682Z" fill="#00832D"></path>
  <path d="M177.972 3.62793H171.591C170.275 3.62793 169.198 4.70138 169.198 6.01338V12.3746V21.1213V29.8679H177.972V21.1213V12.3746H185.949V3.62793H177.972Z" fill="#FFBA00"></path>
  <path d="M194.723 29.8682H185.949V38.6148H192.33C193.646 38.6148 194.723 37.5414 194.723 36.2294V29.8682Z" fill="#0066DA"></path>
  <path d="M185.949 29.8682H177.972V38.6148H185.949V29.8682Z" fill="#00AC47"></path>
  <path d="M185.949 12.375V21.1217V29.8683H194.723V21.1217V12.375H185.949Z" fill="#2684FC"></path>
  <path d="M185.949 3.62793V12.3746H194.723L185.949 3.62793Z" fill="#EA4335"></path>
  </g>
  <g clip-path="url(#clip4)">
  <path d="M234.698 20.5004L238.194 24.5184L242.924 27.5114L243.746 20.5414L242.924 13.7354L238.112 16.3594L234.698 20.5004Z" fill="#00832D"></path>
  <path d="M214.34 26.855V32.8C214.34 34.153 215.45 35.26 216.808 35.26H222.771L224.005 30.75L222.771 26.855L218.658 25.625L214.34 26.855Z" fill="#0066DA"></path>
  <path d="M222.771 5.74023L214.34 14.1452L218.658 15.3752L222.771 14.1452L224.005 10.2912L222.771 5.74023Z" fill="#E94235"></path>
  <path d="M222.771 14.1455H214.34V26.8555H222.771V14.1455Z" fill="#2684FC"></path>
  <path d="M248.312 9.30678L242.924 13.6938V27.5108L248.353 31.9388C249.175 32.5538 250.327 31.9798 250.327 30.9548V10.2498C250.327 9.22478 249.134 8.65078 248.312 9.30678Z" fill="#00AC47"></path>
  <path d="M234.698 20.5V26.855H222.771V35.26H240.456C241.813 35.26 242.924 34.153 242.924 32.8V27.511L234.698 20.5Z" fill="#00AC47"></path>
  <path d="M240.456 5.74023H233.999H222.771V14.1452H234.698V20.5002L242.924 13.6942V8.20023C242.924 6.84723 241.813 5.74023 240.456 5.74023Z" fill="#FFBA00"></path>
  </g>
  <defs>
  <clipPath id="clip0">
  <rect width="36.1927" height="27.06" fill="white" transform="translate(2.46777 6.96973)"></rect>
  </clipPath>
  <clipPath id="clip1">
  <rect width="30.3101" height="30.2158" fill="white" transform="translate(62.1157 6.0127)"></rect>
  </clipPath>
  <clipPath id="clip2">
  <rect width="35.9048" height="31.98" fill="white" transform="translate(112.143 4.50977)"></rect>
  </clipPath>
  <clipPath id="clip3">
  <rect width="25.5243" height="34.9867" fill="white" transform="translate(169.198 3.62793)"></rect>
  </clipPath>
  <clipPath id="clip4">
  <rect width="35.9871" height="29.52" fill="white" transform="translate(214.34 5.74023)"></rect>
  </clipPath>
  </defs>
</svg>
