<svg width="382" height="90" viewBox="0 0 382 90" fill="none" xmlns="http://www.w3.org/2000/svg">
<path d="M239.34 66.6523C239.34 66.2461 239.457 65.957 239.691 65.7852C239.926 65.6133 240.312 65.5273 240.852 65.5273C241.039 65.5273 241.203 65.5469 241.344 65.5859C241.484 65.625 241.602 65.6914 241.695 65.7852C241.789 65.8711 241.863 65.9922 241.918 66.1484C241.98 66.2969 242.031 66.4883 242.07 66.7227C242.172 67.418 242.273 68.1484 242.375 68.9141C242.484 69.6719 242.586 70.4297 242.68 71.1875C242.781 71.9375 242.875 72.6719 242.961 73.3906C243.047 74.1016 243.121 74.7656 243.184 75.3828C243.254 75.9922 243.305 76.5352 243.336 77.0117C243.375 77.4805 243.395 77.8516 243.395 78.125C243.395 78.4062 243.367 78.6445 243.312 78.8398C243.266 79.0352 243.18 79.1914 243.055 79.3086C242.938 79.4258 242.781 79.5117 242.586 79.5664C242.398 79.6133 242.164 79.6367 241.883 79.6367C241.609 79.6367 241.391 79.5664 241.227 79.4258C241.07 79.2852 240.992 79.0703 240.992 78.7812C240.992 78.4844 240.969 78.0898 240.922 77.5977C240.875 77.0977 240.812 76.543 240.734 75.9336C240.656 75.3242 240.566 74.6758 240.465 73.9883C240.371 73.3008 240.27 72.6211 240.16 71.9492C240.059 71.2773 239.957 70.6328 239.855 70.0156C239.762 69.3906 239.676 68.8398 239.598 68.3633C239.52 67.8789 239.457 67.4844 239.41 67.1797C239.363 66.8672 239.34 66.6914 239.34 66.6523ZM247.027 68.0469C246.801 68.0469 246.586 68.0156 246.383 67.9531C246.188 67.8828 246.016 67.7891 245.867 67.6719C245.727 67.5469 245.613 67.4023 245.527 67.2383C245.441 67.0742 245.398 66.8945 245.398 66.6992C245.398 66.3711 245.527 66.1055 245.785 65.9023C246.051 65.6992 246.402 65.5977 246.84 65.5977C247.043 65.5977 247.238 65.6367 247.426 65.7148C247.613 65.7852 247.777 65.8828 247.918 66.0078C248.066 66.1328 248.184 66.2812 248.27 66.4531C248.355 66.6172 248.398 66.7891 248.398 66.9688C248.398 67.3047 248.273 67.5703 248.023 67.7656C247.781 67.9531 247.449 68.0469 247.027 68.0469ZM245.422 71.6211C245.422 71.3477 245.539 71.125 245.773 70.9531C246.016 70.7734 246.332 70.6836 246.723 70.6836C247.426 70.6836 247.801 70.9258 247.848 71.4102C247.879 71.7461 247.91 72.125 247.941 72.5469C247.98 72.9688 248.016 73.418 248.047 73.8945C248.086 74.3633 248.117 74.8516 248.141 75.3594C248.172 75.8594 248.199 76.3555 248.223 76.8477C248.246 77.332 248.266 77.8008 248.281 78.2539C248.297 78.707 248.305 79.1211 248.305 79.4961C248.305 79.8867 248.164 80.1797 247.883 80.375C247.609 80.5703 247.207 80.668 246.676 80.668C246.434 80.668 246.242 80.6094 246.102 80.4922C245.969 80.3828 245.902 80.2188 245.902 80C245.902 78.9219 245.875 77.9141 245.82 76.9766C245.773 76.0312 245.719 75.1914 245.656 74.457C245.602 73.7227 245.547 73.1133 245.492 72.6289C245.445 72.1367 245.422 71.8008 245.422 71.6211ZM256.672 70.8594C257.047 70.8594 257.402 70.8906 257.738 70.9531C258.074 71.0078 258.379 71.0703 258.652 71.1406C258.926 71.2031 259.16 71.2656 259.355 71.3281C259.551 71.3828 259.691 71.4102 259.777 71.4102C259.848 71.4102 259.914 71.375 259.977 71.3047C260.039 71.2266 260.117 71.1445 260.211 71.0586C260.305 70.9727 260.43 70.8945 260.586 70.8242C260.742 70.7461 260.949 70.707 261.207 70.707C261.504 70.707 261.738 70.7852 261.91 70.9414C262.082 71.0898 262.168 71.2773 262.168 71.5039C262.168 74.3633 262.07 76.793 261.875 78.793C261.68 80.7852 261.363 82.4062 260.926 83.6562C260.488 84.9062 259.922 85.8125 259.227 86.375C258.531 86.9375 257.688 87.2188 256.695 87.2188C256.242 87.2188 255.77 87.1172 255.277 86.9141C254.793 86.7109 254.348 86.4492 253.941 86.1289C253.535 85.8164 253.199 85.4688 252.934 85.0859C252.676 84.7031 252.547 84.3359 252.547 83.9844C252.547 83.8672 252.609 83.7305 252.734 83.5742C252.859 83.418 253.012 83.2656 253.191 83.1172C253.371 82.9688 253.559 82.8438 253.754 82.7422C253.949 82.6406 254.117 82.5898 254.258 82.5898C254.406 82.5898 254.531 82.6484 254.633 82.7656C254.734 82.8906 254.828 83.043 254.914 83.2227C255.008 83.4023 255.102 83.5977 255.195 83.8086C255.289 84.0273 255.406 84.2266 255.547 84.4062C255.688 84.5859 255.859 84.7344 256.062 84.8516C256.266 84.9766 256.52 85.0391 256.824 85.0391C258.527 85.0391 259.527 82.4375 259.824 77.2344C259.824 77 259.758 76.8828 259.625 76.8828C259.516 76.8828 259.43 76.9375 259.367 77.0469C258.633 78.0391 257.773 78.7852 256.789 79.2852C255.812 79.7773 254.727 80.0234 253.531 80.0234C252.977 80.0234 252.465 79.9414 251.996 79.7773C251.527 79.6055 251.121 79.3711 250.777 79.0742C250.441 78.7695 250.18 78.4102 249.992 77.9961C249.805 77.5742 249.711 77.1133 249.711 76.6133C249.711 76.1211 249.797 75.6367 249.969 75.1602C250.148 74.6758 250.395 74.2227 250.707 73.8008C251.027 73.3711 251.406 72.9766 251.844 72.6172C252.281 72.2578 252.758 71.9492 253.273 71.6914C253.789 71.4258 254.332 71.2227 254.902 71.082C255.48 70.9336 256.07 70.8594 256.672 70.8594ZM253.895 77.8672C254.965 77.8672 255.945 77.5312 256.836 76.8594C257.727 76.1797 258.488 75.1953 259.121 73.9062C259.137 73.8594 259.148 73.8242 259.156 73.8008C259.164 73.7695 259.168 73.7383 259.168 73.707C259.168 73.6289 259.086 73.5469 258.922 73.4609C258.758 73.375 258.543 73.3008 258.277 73.2383C258.012 73.1758 257.707 73.125 257.363 73.0859C257.027 73.0391 256.688 73.0156 256.344 73.0156C255.789 73.0156 255.254 73.1094 254.738 73.2969C254.223 73.4844 253.766 73.7344 253.367 74.0469C252.969 74.3594 252.648 74.7148 252.406 75.1133C252.164 75.5117 252.043 75.9258 252.043 76.3555C252.043 76.8164 252.211 77.1836 252.547 77.457C252.891 77.7305 253.34 77.8672 253.895 77.8672ZM263.809 68.7148C263.809 67.8711 264.355 67.4492 265.449 67.4492C265.637 67.4492 265.801 67.5 265.941 67.6016C266.082 67.7031 266.164 67.8438 266.188 68.0234C266.258 68.5 266.32 68.9727 266.375 69.4414C266.43 69.9102 266.48 70.4375 266.527 71.0234C266.582 71.6016 266.633 72.2734 266.68 73.0391C266.734 73.7969 266.793 74.7031 266.855 75.7578C266.855 75.8672 266.871 75.9453 266.902 75.9922C266.941 76.0391 266.984 76.0625 267.031 76.0625C267.102 76.0625 267.172 75.9922 267.242 75.8516C267.508 75.2656 267.805 74.7422 268.133 74.2812C268.461 73.8125 268.812 73.418 269.188 73.0977C269.562 72.7695 269.957 72.5234 270.371 72.3594C270.793 72.1875 271.223 72.1016 271.66 72.1016C272.238 72.1016 272.762 72.2656 273.23 72.5938C273.699 72.9219 274.098 73.3867 274.426 73.9883C274.754 74.5898 275.008 75.3203 275.188 76.1797C275.367 77.0312 275.457 77.9844 275.457 79.0391C275.457 79.3281 275.434 79.5664 275.387 79.7539C275.348 79.9336 275.277 80.0781 275.176 80.1875C275.074 80.2969 274.934 80.3711 274.754 80.4102C274.574 80.457 274.352 80.4805 274.086 80.4805C273.719 80.4805 273.453 80.4102 273.289 80.2695C273.133 80.1289 273.055 79.9102 273.055 79.6133C273.055 78.8789 273.004 78.1875 272.902 77.5391C272.809 76.8828 272.676 76.3086 272.504 75.8164C272.332 75.3242 272.129 74.9336 271.895 74.6445C271.668 74.3555 271.422 74.2109 271.156 74.2109C270.555 74.2109 269.953 74.6992 269.352 75.6758C268.758 76.6523 268.137 78.125 267.488 80.0938C267.426 80.2734 267.355 80.4219 267.277 80.5391C267.199 80.6562 267.105 80.75 266.996 80.8203C266.895 80.8906 266.77 80.9375 266.621 80.9609C266.473 80.9922 266.297 81.0078 266.094 81.0078C265.68 81.0078 265.383 80.9297 265.203 80.7734C265.031 80.6172 264.938 80.3594 264.922 80C264.875 78.6406 264.789 77.3438 264.664 76.1094C264.547 74.8672 264.422 73.7461 264.289 72.7461C264.164 71.7383 264.051 70.8867 263.949 70.1914C263.855 69.4883 263.809 68.9961 263.809 68.7148ZM278.117 66.4648C278.117 66.0508 278.234 65.7617 278.469 65.5977C278.703 65.4258 279.09 65.3398 279.629 65.3398C279.824 65.3398 279.988 65.3594 280.121 65.3984C280.262 65.4297 280.379 65.4922 280.473 65.5859C280.574 65.6797 280.652 65.8047 280.707 65.9609C280.77 66.1094 280.82 66.3008 280.859 66.5352C280.953 67.2617 281.055 68.0117 281.164 68.7852C281.281 69.5586 281.402 70.3359 281.527 71.1172C281.574 71.4688 281.758 71.6445 282.078 71.6445C282.164 71.6445 282.305 71.6367 282.5 71.6211C282.703 71.5977 282.941 71.5742 283.215 71.5508C283.488 71.5195 283.781 71.4883 284.094 71.457C284.414 71.4258 284.73 71.3984 285.043 71.375C285.363 71.3438 285.664 71.3203 285.945 71.3047C286.234 71.2812 286.488 71.2695 286.707 71.2695C286.879 71.2695 287.016 71.3047 287.117 71.375C287.219 71.4375 287.297 71.5234 287.352 71.6328C287.414 71.7344 287.453 71.8516 287.469 71.9844C287.492 72.1094 287.504 72.2383 287.504 72.3711C287.504 72.4883 287.48 72.6094 287.434 72.7344C287.395 72.8594 287.336 72.9727 287.258 73.0742C287.188 73.168 287.098 73.2461 286.988 73.3086C286.879 73.3711 286.754 73.4023 286.613 73.4023C285.934 73.4023 285.246 73.4258 284.551 73.4727C283.863 73.5117 283.176 73.5664 282.488 73.6367C282.137 73.6836 281.961 73.8594 281.961 74.1641C281.961 74.1875 281.965 74.2188 281.973 74.2578C281.98 74.2891 281.984 74.3164 281.984 74.3398C282.078 75.0195 282.164 75.6562 282.242 76.25C282.328 76.8438 282.398 77.375 282.453 77.8438C282.516 78.3047 282.562 78.6914 282.594 79.0039C282.633 79.3086 282.652 79.5117 282.652 79.6133C282.652 79.8945 282.625 80.1289 282.57 80.3164C282.516 80.5117 282.426 80.668 282.301 80.7852C282.176 80.9102 282.008 80.9961 281.797 81.043C281.594 81.0977 281.336 81.125 281.023 81.125C280.727 81.125 280.508 81.0547 280.367 80.9141C280.227 80.7734 280.148 80.5586 280.133 80.2695C280.086 79.3477 280.012 78.4219 279.91 77.4922C279.809 76.5547 279.691 75.6211 279.559 74.6914C279.488 74.3555 279.312 74.1875 279.031 74.1875C279.008 74.1875 278.98 74.1914 278.949 74.1992C278.918 74.207 278.891 74.2109 278.867 74.2109C278.383 74.3203 277.926 74.4297 277.496 74.5391C277.066 74.6484 276.664 74.7656 276.289 74.8906C276.078 74.9609 275.891 75.0117 275.727 75.043C275.562 75.0664 275.414 75.0781 275.281 75.0781C275.102 75.0781 274.969 75 274.883 74.8438C274.797 74.6797 274.754 74.4766 274.754 74.2344C274.754 74.1484 274.762 74.0508 274.777 73.9414C274.793 73.8242 274.824 73.7109 274.871 73.6016C274.91 73.4844 274.973 73.3789 275.059 73.2852C275.137 73.1836 275.246 73.1016 275.387 73.0391C275.715 72.9062 276.152 72.7695 276.699 72.6289C277.246 72.4805 277.863 72.3438 278.551 72.2188C278.707 72.1797 278.828 72.1172 278.914 72.0312C279.008 71.9375 279.055 71.8008 279.055 71.6211C279.055 71.582 279.055 71.543 279.055 71.5039C279.055 71.457 279.047 71.4102 279.031 71.3633C278.906 70.6445 278.785 69.9922 278.668 69.4062C278.559 68.8125 278.461 68.3047 278.375 67.8828C278.297 67.4609 278.234 67.1289 278.188 66.8867C278.141 66.6445 278.117 66.5039 278.117 66.4648ZM296.797 77.4336C297.023 77.2383 297.246 77.1406 297.465 77.1406C297.59 77.1406 297.703 77.1719 297.805 77.2344C297.906 77.2969 298.02 77.3945 298.145 77.5273C298.262 77.707 298.344 77.8555 298.391 77.9727C298.445 78.082 298.473 78.1914 298.473 78.3008C298.473 78.5352 298.355 78.7578 298.121 78.9688C297.746 79.2812 297.34 79.5625 296.902 79.8125C296.465 80.0547 296.008 80.2617 295.531 80.4336C295.055 80.6055 294.562 80.7344 294.055 80.8203C293.547 80.9141 293.043 80.9609 292.543 80.9609C291.91 80.9609 291.316 80.8789 290.762 80.7148C290.207 80.5586 289.711 80.332 289.273 80.0352C288.844 79.7383 288.48 79.3828 288.184 78.9688C287.887 78.5469 287.676 78.0742 287.551 77.5508C287.48 77.332 287.414 77.1914 287.352 77.1289C287.297 77.0586 287.203 77.0234 287.07 77.0234C286.781 77.0234 286.559 76.9531 286.402 76.8125C286.246 76.6719 286.168 76.4688 286.168 76.2031C286.168 76.0938 286.176 76.0234 286.191 75.9922L286.215 75.7578C286.254 75.4766 286.328 75.2734 286.438 75.1484C286.555 75.0234 286.734 74.9609 286.977 74.9609H287.152C287.48 74.9609 287.711 74.8086 287.844 74.5039C288.086 73.9648 288.395 73.4727 288.77 73.0273C289.145 72.582 289.566 72.2031 290.035 71.8906C290.504 71.5703 291.004 71.3242 291.535 71.1523C292.074 70.9727 292.621 70.8828 293.176 70.8828C293.754 70.8828 294.293 70.9688 294.793 71.1406C295.301 71.3047 295.742 71.5352 296.117 71.832C296.492 72.1289 296.785 72.4766 296.996 72.875C297.215 73.2734 297.324 73.7031 297.324 74.1641C297.324 74.4844 297.262 74.7773 297.137 75.043C297.012 75.3086 296.832 75.543 296.598 75.7461C296.363 75.9414 296.078 76.1016 295.742 76.2266C295.414 76.3516 295.039 76.4336 294.617 76.4727L290.551 76.8828C290.395 76.8828 290.266 76.9219 290.164 77C290.07 77.0781 290.023 77.1836 290.023 77.3164C290.023 77.5195 290.098 77.7148 290.246 77.9023C290.402 78.0898 290.605 78.2578 290.855 78.4062C291.113 78.5469 291.406 78.6602 291.734 78.7461C292.07 78.832 292.414 78.875 292.766 78.875C293.102 78.875 293.445 78.8438 293.797 78.7812C294.156 78.7109 294.508 78.6133 294.852 78.4883C295.203 78.3633 295.543 78.2148 295.871 78.043C296.199 77.8633 296.508 77.6602 296.797 77.4336ZM294.184 74.4102C294.301 74.3867 294.402 74.332 294.488 74.2461C294.574 74.1523 294.617 74.0391 294.617 73.9062C294.617 73.7891 294.574 73.6797 294.488 73.5781C294.402 73.4766 294.285 73.3867 294.137 73.3086C293.988 73.2227 293.816 73.1562 293.621 73.1094C293.426 73.0625 293.219 73.0391 293 73.0391C292.68 73.0391 292.352 73.0859 292.016 73.1797C291.68 73.2734 291.375 73.3984 291.102 73.5547C290.828 73.7031 290.605 73.8711 290.434 74.0586C290.262 74.2383 290.176 74.418 290.176 74.5977C290.176 74.7773 290.285 74.8672 290.504 74.8672C290.637 74.8672 290.852 74.8516 291.148 74.8203C291.445 74.7891 291.773 74.7539 292.133 74.7148C292.492 74.668 292.855 74.6172 293.223 74.5625C293.59 74.5078 293.91 74.457 294.184 74.4102ZM305.574 71.2344C305.285 71.2344 305.031 71.3125 304.812 71.4688C304.594 71.6172 304.406 71.8281 304.25 72.1016C304.094 72.3672 303.965 72.6836 303.863 73.0508C303.762 73.4102 303.68 73.8047 303.617 74.2344C303.555 74.6641 303.512 75.1133 303.488 75.582C303.465 76.0508 303.453 76.5234 303.453 77C303.453 77.625 303.477 78.2422 303.523 78.8516C303.578 79.4531 303.605 80.0117 303.605 80.5273C303.605 80.8633 303.48 81.125 303.23 81.3125C302.98 81.5078 302.625 81.6055 302.164 81.6055C302.078 81.6055 301.98 81.5977 301.871 81.582C301.762 81.5664 301.656 81.5352 301.555 81.4883C301.461 81.4414 301.375 81.375 301.297 81.2891C301.227 81.2109 301.188 81.1016 301.18 80.9609C301.109 80.2734 301.008 79.5703 300.875 78.8516C300.742 78.1328 300.574 77.418 300.371 76.707C300.176 75.9883 299.938 75.2773 299.656 74.5742C299.383 73.8711 299.066 73.1836 298.707 72.5117C298.645 72.3945 298.59 72.2852 298.543 72.1836C298.504 72.082 298.484 71.9844 298.484 71.8906C298.484 71.7734 298.535 71.6484 298.637 71.5156C298.746 71.375 298.879 71.2461 299.035 71.1289C299.199 71.0117 299.375 70.918 299.562 70.8477C299.758 70.7695 299.945 70.7305 300.125 70.7305C300.422 70.7305 300.684 70.9375 300.91 71.3516C301.137 71.7578 301.348 72.4102 301.543 73.3086C301.582 73.4648 301.613 73.5742 301.637 73.6367C301.66 73.6992 301.691 73.7305 301.73 73.7305C301.816 73.7305 301.871 73.5977 301.895 73.332C301.988 72.5898 302.148 71.9531 302.375 71.4219C302.602 70.8828 302.883 70.4414 303.219 70.0977C303.562 69.7461 303.953 69.4883 304.391 69.3242C304.836 69.1602 305.324 69.0781 305.855 69.0781C306.16 69.0781 306.469 69.1055 306.781 69.1602C307.094 69.2148 307.375 69.2969 307.625 69.4062C307.875 69.5156 308.078 69.6484 308.234 69.8047C308.391 69.9609 308.469 70.1367 308.469 70.332C308.469 70.4727 308.438 70.6406 308.375 70.8359C308.32 71.0234 308.246 71.207 308.152 71.3867C308.059 71.5586 307.949 71.707 307.824 71.832C307.707 71.9492 307.586 72.0078 307.461 72.0078C307.32 72.0078 307.184 71.9688 307.051 71.8906C306.918 71.8047 306.773 71.7148 306.617 71.6211C306.469 71.5273 306.309 71.4414 306.137 71.3633C305.973 71.2773 305.785 71.2344 305.574 71.2344ZM312.57 78.582C312.57 78.668 312.512 78.8711 312.395 79.1914C312.277 79.5117 312.121 79.8867 311.926 80.3164C311.738 80.7461 311.52 81.1992 311.27 81.6758C311.02 82.1523 310.766 82.5898 310.508 82.9883C310.25 83.3867 309.996 83.7148 309.746 83.9727C309.504 84.2383 309.285 84.3711 309.09 84.3711C308.996 84.3711 308.879 84.3438 308.738 84.2891C308.598 84.2344 308.461 84.1641 308.328 84.0781C308.203 84 308.094 83.9102 308 83.8086C307.906 83.7148 307.859 83.6211 307.859 83.5273C307.859 83.4492 307.938 83.2539 308.094 82.9414C308.258 82.6367 308.457 82.2383 308.691 81.7461C308.926 81.2617 309.176 80.7031 309.441 80.0703C309.707 79.4375 309.941 78.7578 310.145 78.0312C310.191 77.875 310.258 77.7539 310.344 77.668C310.43 77.5742 310.547 77.5273 310.695 77.5273C310.836 77.5273 311.012 77.5586 311.223 77.6211C311.434 77.6758 311.637 77.7539 311.832 77.8555C312.035 77.9492 312.207 78.0586 312.348 78.1836C312.496 78.3086 312.57 78.4414 312.57 78.582ZM319.977 73.543C319.797 73.5273 319.652 73.4102 319.543 73.1914C319.434 72.9727 319.379 72.7305 319.379 72.4648C319.379 72.3398 319.391 72.2188 319.414 72.1016C319.43 71.9766 319.461 71.8672 319.508 71.7734C319.555 71.6797 319.613 71.6055 319.684 71.5508C319.754 71.4883 319.836 71.457 319.93 71.457C320.219 71.457 320.551 71.4492 320.926 71.4336C321.301 71.4102 321.703 71.3867 322.133 71.3633C322.352 71.3398 322.473 71.2109 322.496 70.9766C322.566 69.8438 322.664 68.8672 322.789 68.0469C322.914 67.2266 323.066 66.5352 323.246 65.9727C323.426 65.4023 323.629 64.9414 323.855 64.5898C324.09 64.2383 324.348 63.9688 324.629 63.7812C324.715 63.7188 324.816 63.6562 324.934 63.5938C325.051 63.5234 325.16 63.4883 325.262 63.4883C325.457 63.4883 325.66 63.5391 325.871 63.6406C326.09 63.7344 326.289 63.8594 326.469 64.0156C326.656 64.1641 326.809 64.3359 326.926 64.5312C327.043 64.7188 327.102 64.9062 327.102 65.0938C327.102 65.1641 327.086 65.2227 327.055 65.2695C327.023 65.3086 326.984 65.3477 326.938 65.3867C326.633 65.6133 326.363 65.8672 326.129 66.1484C325.895 66.4297 325.695 66.7734 325.531 67.1797C325.367 67.5859 325.23 68.0742 325.121 68.6445C325.012 69.2148 324.93 69.9023 324.875 70.707C324.875 70.832 324.895 70.9258 324.934 70.9883C324.98 71.043 325.062 71.0703 325.18 71.0703C325.484 71.0703 325.789 71.0469 326.094 71C326.406 70.9531 326.703 70.9062 326.984 70.8594C327.266 70.8047 327.531 70.7539 327.781 70.707C328.031 70.6602 328.254 70.6367 328.449 70.6367C328.59 70.6367 328.691 70.7227 328.754 70.8945C328.824 71.0586 328.859 71.2617 328.859 71.5039C328.859 71.6445 328.848 71.7891 328.824 71.9375C328.801 72.0859 328.762 72.2188 328.707 72.3359C328.66 72.4531 328.598 72.5547 328.52 72.6406C328.441 72.7188 328.344 72.7656 328.227 72.7812L325.109 73.1094C324.945 73.1328 324.844 73.1992 324.805 73.3086C324.773 73.418 324.758 73.5703 324.758 73.7656C324.758 75.4922 324.801 76.9766 324.887 78.2188C324.973 79.4609 325.066 80.5039 325.168 81.3477C325.277 82.1992 325.375 82.8672 325.461 83.3516C325.547 83.8438 325.59 84.1992 325.59 84.418C325.59 84.582 325.523 84.7305 325.391 84.8633C325.266 84.9961 325.102 85.1094 324.898 85.2031C324.703 85.2969 324.488 85.3672 324.254 85.4141C324.02 85.4688 323.801 85.4961 323.598 85.4961C323.402 85.4961 323.227 85.4609 323.07 85.3906C322.922 85.3281 322.836 85.2188 322.812 85.0625C322.734 84.5156 322.668 83.9141 322.613 83.2578C322.559 82.6094 322.512 81.8867 322.473 81.0898C322.441 80.3008 322.418 79.4375 322.402 78.5C322.387 77.5547 322.379 76.5195 322.379 75.3945C322.379 75.1055 322.379 74.8242 322.379 74.5508C322.379 74.2773 322.387 74.0039 322.402 73.7305C322.402 73.4961 322.273 73.3789 322.016 73.3789L319.977 73.543ZM335.691 69.7578C336.121 69.7578 336.535 69.8242 336.934 69.957C337.332 70.0898 337.684 70.2734 337.988 70.5078C338.293 70.7422 338.535 71.0234 338.715 71.3516C338.902 71.6797 338.996 72.043 338.996 72.4414C338.996 72.6055 338.957 72.7656 338.879 72.9219C338.809 73.0703 338.711 73.2031 338.586 73.3203C338.461 73.4297 338.316 73.5195 338.152 73.5898C337.996 73.6523 337.832 73.6836 337.66 73.6836C337.645 73.6836 337.629 73.6875 337.613 73.6953C337.605 73.6953 337.594 73.6953 337.578 73.6953C337.562 73.7031 337.547 73.707 337.531 73.707L337.578 74.6445C337.609 75.7617 337.766 76.5781 338.047 77.0938C338.336 77.6094 338.711 77.8672 339.172 77.8672C339.336 77.8672 339.48 77.8516 339.605 77.8203C339.738 77.7891 339.859 77.7539 339.969 77.7148C340.086 77.668 340.195 77.6289 340.297 77.5977C340.398 77.5664 340.5 77.5508 340.602 77.5508C340.781 77.5508 340.938 77.6289 341.07 77.7852C341.211 77.9414 341.281 78.1289 341.281 78.3477C341.281 78.5664 341.195 78.7852 341.023 79.0039C340.859 79.2227 340.641 79.4219 340.367 79.6016C340.094 79.7734 339.785 79.9141 339.441 80.0234C339.098 80.1328 338.75 80.1875 338.398 80.1875C337.789 80.1875 337.254 79.9375 336.793 79.4375C336.332 78.9297 336.004 78.1875 335.809 77.2109C335.762 77.0547 335.699 76.9766 335.621 76.9766C335.527 76.9766 335.445 77.0234 335.375 77.1172C334.602 78.0938 333.777 78.8281 332.902 79.3203C332.027 79.8047 331.164 80.0469 330.312 80.0469C329.914 80.0469 329.555 79.9883 329.234 79.8711C328.914 79.7539 328.641 79.5898 328.414 79.3789C328.195 79.1602 328.023 78.8984 327.898 78.5938C327.781 78.2812 327.723 77.9336 327.723 77.5508C327.723 77.0117 327.84 76.4453 328.074 75.8516C328.316 75.2578 328.641 74.6719 329.047 74.0938C329.453 73.5156 329.922 72.9648 330.453 72.4414C330.992 71.918 331.555 71.457 332.141 71.0586C332.734 70.6602 333.336 70.3438 333.945 70.1094C334.555 69.875 335.137 69.7578 335.691 69.7578ZM335.305 73.8125C335.445 73.5469 335.574 73.3555 335.691 73.2383C335.809 73.1133 335.977 73.0312 336.195 72.9922C336.367 72.9688 336.453 72.9141 336.453 72.8281C336.453 72.7656 336.43 72.6992 336.383 72.6289C336.234 72.4258 336.078 72.25 335.914 72.1016C335.75 71.9453 335.531 71.8672 335.258 71.8672C334.961 71.8672 334.629 71.9531 334.262 72.125C333.895 72.2969 333.52 72.5273 333.137 72.8164C332.762 73.0977 332.391 73.4219 332.023 73.7891C331.664 74.1484 331.344 74.5195 331.062 74.9023C330.781 75.2852 330.555 75.6641 330.383 76.0391C330.211 76.4141 330.125 76.75 330.125 77.0469C330.125 77.3125 330.195 77.5195 330.336 77.668C330.484 77.8164 330.684 77.8906 330.934 77.8906C331.574 77.8906 332.273 77.5508 333.031 76.8711C333.789 76.1914 334.547 75.1719 335.305 73.8125ZM344.586 69.8281C345.109 69.8281 345.648 69.8984 346.203 70.0391C346.758 70.1719 347.266 70.3477 347.727 70.5664C348.188 70.7773 348.566 71.0156 348.863 71.2812C349.16 71.5469 349.309 71.8047 349.309 72.0547C349.309 72.1797 349.254 72.3203 349.145 72.4766C349.035 72.625 348.902 72.7695 348.746 72.9102C348.59 73.043 348.418 73.1562 348.23 73.25C348.051 73.3359 347.891 73.3789 347.75 73.3789C347.562 73.3789 347.352 73.3008 347.117 73.1445C346.891 72.9883 346.637 72.8164 346.355 72.6289C346.082 72.4336 345.781 72.2578 345.453 72.1016C345.125 71.9453 344.77 71.8672 344.387 71.8672C344.137 71.8672 343.93 71.9297 343.766 72.0547C343.609 72.1719 343.531 72.3398 343.531 72.5586C343.531 72.7539 343.625 72.9531 343.812 73.1562C344 73.3516 344.246 73.5547 344.551 73.7656C344.863 73.9766 345.215 74.1992 345.605 74.4336C345.996 74.668 346.395 74.918 346.801 75.1836C347.215 75.4492 347.617 75.7383 348.008 76.0508C348.398 76.3633 348.746 76.7031 349.051 77.0703C349.363 77.4375 349.613 77.8398 349.801 78.2773C349.988 78.707 350.082 79.1758 350.082 79.6836C350.082 80.1211 350.004 80.5195 349.848 80.8789C349.691 81.2383 349.469 81.5469 349.18 81.8047C348.891 82.0625 348.547 82.2617 348.148 82.4023C347.75 82.543 347.312 82.6133 346.836 82.6133C346.234 82.6133 345.68 82.5195 345.172 82.332C344.664 82.1523 344.227 81.9023 343.859 81.582C343.492 81.2617 343.203 80.8789 342.992 80.4336C342.789 79.9883 342.688 79.5 342.688 78.9688C342.688 78.2812 342.809 77.7812 343.051 77.4688C343.301 77.1562 343.691 77 344.223 77C344.551 77 344.812 77.0625 345.008 77.1875C345.203 77.3125 345.301 77.4648 345.301 77.6445C345.301 77.7383 345.285 77.8359 345.254 77.9375C345.223 78.0312 345.188 78.1328 345.148 78.2422C345.117 78.3438 345.086 78.4531 345.055 78.5703C345.031 78.6875 345.02 78.8047 345.02 78.9219C345.02 79.125 345.066 79.3203 345.16 79.5078C345.254 79.6953 345.379 79.8594 345.535 80C345.699 80.1484 345.887 80.2656 346.098 80.3516C346.309 80.4375 346.531 80.4805 346.766 80.4805C347.391 80.4805 347.703 80.2227 347.703 79.707C347.703 79.3008 347.543 78.918 347.223 78.5586C346.902 78.1914 346.5 77.8359 346.016 77.4922C345.531 77.1406 345.008 76.7891 344.445 76.4375C343.891 76.0859 343.371 75.7188 342.887 75.3359C342.402 74.9531 342 74.5469 341.68 74.1172C341.359 73.6797 341.199 73.207 341.199 72.6992C341.199 72.2773 341.285 71.8906 341.457 71.5391C341.637 71.1875 341.879 70.8867 342.184 70.6367C342.488 70.3789 342.844 70.1797 343.25 70.0391C343.664 69.8984 344.109 69.8281 344.586 69.8281ZM351.594 66.4648C351.594 66.0508 351.711 65.7617 351.945 65.5977C352.18 65.4258 352.566 65.3398 353.105 65.3398C353.301 65.3398 353.465 65.3594 353.598 65.3984C353.738 65.4297 353.855 65.4922 353.949 65.5859C354.051 65.6797 354.129 65.8047 354.184 65.9609C354.246 66.1094 354.297 66.3008 354.336 66.5352C354.43 67.2617 354.531 68.0117 354.641 68.7852C354.758 69.5586 354.879 70.3359 355.004 71.1172C355.051 71.4688 355.234 71.6445 355.555 71.6445C355.641 71.6445 355.781 71.6367 355.977 71.6211C356.18 71.5977 356.418 71.5742 356.691 71.5508C356.965 71.5195 357.258 71.4883 357.57 71.457C357.891 71.4258 358.207 71.3984 358.52 71.375C358.84 71.3438 359.141 71.3203 359.422 71.3047C359.711 71.2812 359.965 71.2695 360.184 71.2695C360.355 71.2695 360.492 71.3047 360.594 71.375C360.695 71.4375 360.773 71.5234 360.828 71.6328C360.891 71.7344 360.93 71.8516 360.945 71.9844C360.969 72.1094 360.98 72.2383 360.98 72.3711C360.98 72.4883 360.957 72.6094 360.91 72.7344C360.871 72.8594 360.812 72.9727 360.734 73.0742C360.664 73.168 360.574 73.2461 360.465 73.3086C360.355 73.3711 360.23 73.4023 360.09 73.4023C359.41 73.4023 358.723 73.4258 358.027 73.4727C357.34 73.5117 356.652 73.5664 355.965 73.6367C355.613 73.6836 355.438 73.8594 355.438 74.1641C355.438 74.1875 355.441 74.2188 355.449 74.2578C355.457 74.2891 355.461 74.3164 355.461 74.3398C355.555 75.0195 355.641 75.6562 355.719 76.25C355.805 76.8438 355.875 77.375 355.93 77.8438C355.992 78.3047 356.039 78.6914 356.07 79.0039C356.109 79.3086 356.129 79.5117 356.129 79.6133C356.129 79.8945 356.102 80.1289 356.047 80.3164C355.992 80.5117 355.902 80.668 355.777 80.7852C355.652 80.9102 355.484 80.9961 355.273 81.043C355.07 81.0977 354.812 81.125 354.5 81.125C354.203 81.125 353.984 81.0547 353.844 80.9141C353.703 80.7734 353.625 80.5586 353.609 80.2695C353.562 79.3477 353.488 78.4219 353.387 77.4922C353.285 76.5547 353.168 75.6211 353.035 74.6914C352.965 74.3555 352.789 74.1875 352.508 74.1875C352.484 74.1875 352.457 74.1914 352.426 74.1992C352.395 74.207 352.367 74.2109 352.344 74.2109C351.859 74.3203 351.402 74.4297 350.973 74.5391C350.543 74.6484 350.141 74.7656 349.766 74.8906C349.555 74.9609 349.367 75.0117 349.203 75.043C349.039 75.0664 348.891 75.0781 348.758 75.0781C348.578 75.0781 348.445 75 348.359 74.8438C348.273 74.6797 348.23 74.4766 348.23 74.2344C348.23 74.1484 348.238 74.0508 348.254 73.9414C348.27 73.8242 348.301 73.7109 348.348 73.6016C348.387 73.4844 348.449 73.3789 348.535 73.2852C348.613 73.1836 348.723 73.1016 348.863 73.0391C349.191 72.9062 349.629 72.7695 350.176 72.6289C350.723 72.4805 351.34 72.3438 352.027 72.2188C352.184 72.1797 352.305 72.1172 352.391 72.0312C352.484 71.9375 352.531 71.8008 352.531 71.6211C352.531 71.582 352.531 71.543 352.531 71.5039C352.531 71.457 352.523 71.4102 352.508 71.3633C352.383 70.6445 352.262 69.9922 352.145 69.4062C352.035 68.8125 351.938 68.3047 351.852 67.8828C351.773 67.4609 351.711 67.1289 351.664 66.8867C351.617 66.6445 351.594 66.5039 351.594 66.4648ZM370.273 77.4336C370.5 77.2383 370.723 77.1406 370.941 77.1406C371.066 77.1406 371.18 77.1719 371.281 77.2344C371.383 77.2969 371.496 77.3945 371.621 77.5273C371.738 77.707 371.82 77.8555 371.867 77.9727C371.922 78.082 371.949 78.1914 371.949 78.3008C371.949 78.5352 371.832 78.7578 371.598 78.9688C371.223 79.2812 370.816 79.5625 370.379 79.8125C369.941 80.0547 369.484 80.2617 369.008 80.4336C368.531 80.6055 368.039 80.7344 367.531 80.8203C367.023 80.9141 366.52 80.9609 366.02 80.9609C365.387 80.9609 364.793 80.8789 364.238 80.7148C363.684 80.5586 363.188 80.332 362.75 80.0352C362.32 79.7383 361.957 79.3828 361.66 78.9688C361.363 78.5469 361.152 78.0742 361.027 77.5508C360.957 77.332 360.891 77.1914 360.828 77.1289C360.773 77.0586 360.68 77.0234 360.547 77.0234C360.258 77.0234 360.035 76.9531 359.879 76.8125C359.723 76.6719 359.645 76.4688 359.645 76.2031C359.645 76.0938 359.652 76.0234 359.668 75.9922L359.691 75.7578C359.73 75.4766 359.805 75.2734 359.914 75.1484C360.031 75.0234 360.211 74.9609 360.453 74.9609H360.629C360.957 74.9609 361.188 74.8086 361.32 74.5039C361.562 73.9648 361.871 73.4727 362.246 73.0273C362.621 72.582 363.043 72.2031 363.512 71.8906C363.98 71.5703 364.48 71.3242 365.012 71.1523C365.551 70.9727 366.098 70.8828 366.652 70.8828C367.23 70.8828 367.77 70.9688 368.27 71.1406C368.777 71.3047 369.219 71.5352 369.594 71.832C369.969 72.1289 370.262 72.4766 370.473 72.875C370.691 73.2734 370.801 73.7031 370.801 74.1641C370.801 74.4844 370.738 74.7773 370.613 75.043C370.488 75.3086 370.309 75.543 370.074 75.7461C369.84 75.9414 369.555 76.1016 369.219 76.2266C368.891 76.3516 368.516 76.4336 368.094 76.4727L364.027 76.8828C363.871 76.8828 363.742 76.9219 363.641 77C363.547 77.0781 363.5 77.1836 363.5 77.3164C363.5 77.5195 363.574 77.7148 363.723 77.9023C363.879 78.0898 364.082 78.2578 364.332 78.4062C364.59 78.5469 364.883 78.6602 365.211 78.7461C365.547 78.832 365.891 78.875 366.242 78.875C366.578 78.875 366.922 78.8438 367.273 78.7812C367.633 78.7109 367.984 78.6133 368.328 78.4883C368.68 78.3633 369.02 78.2148 369.348 78.043C369.676 77.8633 369.984 77.6602 370.273 77.4336ZM367.66 74.4102C367.777 74.3867 367.879 74.332 367.965 74.2461C368.051 74.1523 368.094 74.0391 368.094 73.9062C368.094 73.7891 368.051 73.6797 367.965 73.5781C367.879 73.4766 367.762 73.3867 367.613 73.3086C367.465 73.2227 367.293 73.1562 367.098 73.1094C366.902 73.0625 366.695 73.0391 366.477 73.0391C366.156 73.0391 365.828 73.0859 365.492 73.1797C365.156 73.2734 364.852 73.3984 364.578 73.5547C364.305 73.7031 364.082 73.8711 363.91 74.0586C363.738 74.2383 363.652 74.418 363.652 74.5977C363.652 74.7773 363.762 74.8672 363.98 74.8672C364.113 74.8672 364.328 74.8516 364.625 74.8203C364.922 74.7891 365.25 74.7539 365.609 74.7148C365.969 74.668 366.332 74.6172 366.699 74.5625C367.066 74.5078 367.387 74.457 367.66 74.4102ZM379.051 71.2344C378.762 71.2344 378.508 71.3125 378.289 71.4688C378.07 71.6172 377.883 71.8281 377.727 72.1016C377.57 72.3672 377.441 72.6836 377.34 73.0508C377.238 73.4102 377.156 73.8047 377.094 74.2344C377.031 74.6641 376.988 75.1133 376.965 75.582C376.941 76.0508 376.93 76.5234 376.93 77C376.93 77.625 376.953 78.2422 377 78.8516C377.055 79.4531 377.082 80.0117 377.082 80.5273C377.082 80.8633 376.957 81.125 376.707 81.3125C376.457 81.5078 376.102 81.6055 375.641 81.6055C375.555 81.6055 375.457 81.5977 375.348 81.582C375.238 81.5664 375.133 81.5352 375.031 81.4883C374.938 81.4414 374.852 81.375 374.773 81.2891C374.703 81.2109 374.664 81.1016 374.656 80.9609C374.586 80.2734 374.484 79.5703 374.352 78.8516C374.219 78.1328 374.051 77.418 373.848 76.707C373.652 75.9883 373.414 75.2773 373.133 74.5742C372.859 73.8711 372.543 73.1836 372.184 72.5117C372.121 72.3945 372.066 72.2852 372.02 72.1836C371.98 72.082 371.961 71.9844 371.961 71.8906C371.961 71.7734 372.012 71.6484 372.113 71.5156C372.223 71.375 372.355 71.2461 372.512 71.1289C372.676 71.0117 372.852 70.918 373.039 70.8477C373.234 70.7695 373.422 70.7305 373.602 70.7305C373.898 70.7305 374.16 70.9375 374.387 71.3516C374.613 71.7578 374.824 72.4102 375.02 73.3086C375.059 73.4648 375.09 73.5742 375.113 73.6367C375.137 73.6992 375.168 73.7305 375.207 73.7305C375.293 73.7305 375.348 73.5977 375.371 73.332C375.465 72.5898 375.625 71.9531 375.852 71.4219C376.078 70.8828 376.359 70.4414 376.695 70.0977C377.039 69.7461 377.43 69.4883 377.867 69.3242C378.312 69.1602 378.801 69.0781 379.332 69.0781C379.637 69.0781 379.945 69.1055 380.258 69.1602C380.57 69.2148 380.852 69.2969 381.102 69.4062C381.352 69.5156 381.555 69.6484 381.711 69.8047C381.867 69.9609 381.945 70.1367 381.945 70.332C381.945 70.4727 381.914 70.6406 381.852 70.8359C381.797 71.0234 381.723 71.207 381.629 71.3867C381.535 71.5586 381.426 71.707 381.301 71.832C381.184 71.9492 381.062 72.0078 380.938 72.0078C380.797 72.0078 380.66 71.9688 380.527 71.8906C380.395 71.8047 380.25 71.7148 380.094 71.6211C379.945 71.5273 379.785 71.4414 379.613 71.3633C379.449 71.2773 379.262 71.2344 379.051 71.2344Z" fill="black"/>
<path d="M29.271 66.6996C29.2042 67.5856 28.9575 68.4468 28.5456 69.2317C26.5751 73.3391 20.3176 76.9464 17.6543 78.34C17.5115 78.4174 17.3517 78.4596 17.1881 78.4632C17.0245 78.4667 16.8619 78.4315 16.7138 78.3605C16.5657 78.2894 16.4365 78.1846 16.3369 78.0548C16.2373 77.9249 16.1702 77.7738 16.1412 77.6141C15.5615 74.6646 14.4592 67.5265 16.4412 63.4246C16.7957 62.6121 17.313 61.8807 17.9622 61.2742C18.6115 60.6677 19.3794 60.1984 20.2201 59.8943C21.0608 59.5903 21.9571 59.4577 22.8555 59.5045C23.754 59.5513 24.6361 59.7764 25.4494 60.1666C26.2627 60.5568 26.9904 61.1039 27.5891 61.7754C28.1879 62.447 28.6453 63.229 28.9343 64.075C29.2233 64.921 29.3378 65.8137 29.271 66.6996Z" fill="black"/>
<path d="M51.6391 5.57687C39.9283 -0.041451 28.1281 0.233431 25.2698 6.19113L12.3366 33.149C9.47841 39.1067 16.6751 48.4955 28.3594 54.1011C40.0437 59.7067 51.8704 59.4445 54.7287 53.4868L67.6619 26.5289C70.5201 20.5712 63.3499 11.1952 51.6391 5.57687ZM49.4297 50.9446C48.783 52.2925 41.1996 53.6287 30.946 48.7095C20.6925 43.7903 16.989 37.0391 17.6356 35.6912L20.5197 29.6796C23.7767 33.8288 28.7851 37.724 34.826 40.6221C40.8668 43.5203 47.0393 44.9892 52.3138 44.933L49.4297 50.9446ZM55.3143 38.6788C50.6413 39.5873 43.8244 38.3066 37.4126 35.2306C31.0008 32.1545 25.7359 27.6389 23.5202 23.4254L27.1545 15.8502C29.9758 19.9563 34.9603 24.1052 41.2926 27.1432C47.6249 30.1811 53.9803 31.4726 58.9485 31.1036L55.3143 38.6788ZM43.8792 21.7516C33.6256 16.8324 29.9222 10.0812 30.5688 8.73335C31.2155 7.38546 38.7989 6.04924 49.0525 10.9684C59.3061 15.8876 63.0095 22.6388 62.3629 23.9867C61.7162 25.3346 54.1328 26.6708 43.8792 21.7516Z" fill="black"/>
<path d="M96.1602 25.4648C97.7305 25.4648 99.3477 25.6758 101.012 26.0977C102.676 26.4961 104.199 27.0234 105.582 27.6797C106.965 28.3125 108.102 29.0273 108.992 29.8242C109.883 30.6211 110.328 31.3945 110.328 32.1445C110.328 32.5195 110.164 32.9414 109.836 33.4102C109.508 33.8555 109.109 34.2891 108.641 34.7109C108.172 35.1094 107.656 35.4492 107.094 35.7305C106.555 35.9883 106.074 36.1172 105.652 36.1172C105.09 36.1172 104.457 35.8828 103.754 35.4141C103.074 34.9453 102.312 34.4297 101.469 33.8672C100.648 33.2812 99.7461 32.7539 98.7617 32.2852C97.7773 31.8164 96.7109 31.582 95.5625 31.582C94.8125 31.582 94.1914 31.7695 93.6992 32.1445C93.2305 32.4961 92.9961 33 92.9961 33.6562C92.9961 34.2422 93.2773 34.8398 93.8398 35.4492C94.4023 36.0352 95.1406 36.6445 96.0547 37.2773C96.9922 37.9102 98.0469 38.5781 99.2188 39.2812C100.391 39.9844 101.586 40.7344 102.805 41.5312C104.047 42.3281 105.254 43.1953 106.426 44.1328C107.598 45.0703 108.641 46.0898 109.555 47.1914C110.492 48.293 111.242 49.5 111.805 50.8125C112.367 52.1016 112.648 53.5078 112.648 55.0312C112.648 56.3438 112.414 57.5391 111.945 58.6172C111.477 59.6953 110.809 60.6211 109.941 61.3945C109.074 62.168 108.043 62.7656 106.848 63.1875C105.652 63.6094 104.34 63.8203 102.91 63.8203C101.105 63.8203 99.4414 63.5391 97.918 62.9766C96.3945 62.4375 95.082 61.6875 93.9805 60.7266C92.8789 59.7656 92.0117 58.6172 91.3789 57.2812C90.7695 55.9453 90.4648 54.4805 90.4648 52.8867C90.4648 50.8242 90.8281 49.3242 91.5547 48.3867C92.3047 47.4492 93.4766 46.9805 95.0703 46.9805C96.0547 46.9805 96.8398 47.168 97.4258 47.543C98.0117 47.918 98.3047 48.375 98.3047 48.9141C98.3047 49.1953 98.2578 49.4883 98.1641 49.793C98.0703 50.0742 97.9648 50.3789 97.8477 50.707C97.7539 51.0117 97.6602 51.3398 97.5664 51.6914C97.4961 52.043 97.4609 52.3945 97.4609 52.7461C97.4609 53.3555 97.6016 53.9414 97.8828 54.5039C98.1641 55.0664 98.5391 55.5586 99.0078 55.9805C99.5 56.4258 100.062 56.7773 100.695 57.0352C101.328 57.293 101.996 57.4219 102.699 57.4219C104.574 57.4219 105.512 56.6484 105.512 55.1016C105.512 53.8828 105.031 52.7344 104.07 51.6562C103.109 50.5547 101.902 49.4883 100.449 48.457C98.9961 47.4023 97.4258 46.3477 95.7383 45.293C94.0742 44.2383 92.5156 43.1367 91.0625 41.9883C89.6094 40.8398 88.4023 39.6211 87.4414 38.332C86.4805 37.0195 86 35.6016 86 34.0781C86 32.8125 86.2578 31.6523 86.7734 30.5977C87.3125 29.543 88.0391 28.6406 88.9531 27.8906C89.8672 27.1172 90.9336 26.5195 92.1523 26.0977C93.3945 25.6758 94.7305 25.4648 96.1602 25.4648Z" fill="black"/>
<path d="M155.117 15.9375C155.117 14.7188 155.469 13.8516 156.172 13.3359C156.875 12.8203 158.035 12.5625 159.652 12.5625C160.215 12.5625 160.707 12.6211 161.129 12.7383C161.551 12.8555 161.902 13.0547 162.184 13.3359C162.465 13.5938 162.688 13.957 162.852 14.4258C163.039 14.8711 163.191 15.4453 163.309 16.1484C163.613 18.2344 163.918 20.4258 164.223 22.7227C164.551 24.9961 164.855 27.2695 165.137 29.543C165.441 31.793 165.723 33.9961 165.98 36.1523C166.238 38.2852 166.461 40.2773 166.648 42.1289C166.859 43.957 167.012 45.5859 167.105 47.0156C167.223 48.4219 167.281 49.5352 167.281 50.3555C167.281 51.1992 167.199 51.9141 167.035 52.5C166.895 53.0859 166.637 53.5547 166.262 53.9062C165.91 54.2578 165.441 54.5156 164.855 54.6797C164.293 54.8203 163.59 54.8906 162.746 54.8906C161.926 54.8906 161.27 54.6797 160.777 54.2578C160.309 53.8359 160.074 53.1914 160.074 52.3242C160.074 51.4336 160.004 50.25 159.863 48.7734C159.723 47.2734 159.535 45.6094 159.301 43.7812C159.066 41.9531 158.797 40.0078 158.492 37.9453C158.211 35.8828 157.906 33.8438 157.578 31.8281C157.273 29.8125 156.969 27.8789 156.664 26.0273C156.383 24.1523 156.125 22.5 155.891 21.0703C155.656 19.6172 155.469 18.4336 155.328 17.5195C155.188 16.582 155.117 16.0547 155.117 15.9375Z" fill="black"/>
<path d="M178.18 20.1211C177.5 20.1211 176.855 20.0273 176.246 19.8398C175.66 19.6289 175.145 19.3477 174.699 18.9961C174.277 18.6211 173.938 18.1875 173.68 17.6953C173.422 17.2031 173.293 16.6641 173.293 16.0781C173.293 15.0938 173.68 14.2969 174.453 13.6875C175.25 13.0781 176.305 12.7734 177.617 12.7734C178.227 12.7734 178.812 12.8906 179.375 13.125C179.938 13.3359 180.43 13.6289 180.852 14.0039C181.297 14.3789 181.648 14.8242 181.906 15.3398C182.164 15.832 182.293 16.3477 182.293 16.8867C182.293 17.8945 181.918 18.6914 181.168 19.2773C180.441 19.8398 179.445 20.1211 178.18 20.1211ZM173.363 30.8438C173.363 30.0234 173.715 29.3555 174.418 28.8398C175.145 28.3008 176.094 28.0312 177.266 28.0312C179.375 28.0312 180.5 28.7578 180.641 30.2109C180.734 31.2188 180.828 32.3555 180.922 33.6211C181.039 34.8867 181.145 36.2344 181.238 37.6641C181.355 39.0703 181.449 40.5352 181.52 42.0586C181.613 43.5586 181.695 45.0469 181.766 46.5234C181.836 47.9766 181.895 49.3828 181.941 50.7422C181.988 52.1016 182.012 53.3438 182.012 54.4688C182.012 55.6406 181.59 56.5195 180.746 57.1055C179.926 57.6914 178.719 57.9844 177.125 57.9844C176.398 57.9844 175.824 57.8086 175.402 57.457C175.004 57.1289 174.805 56.6367 174.805 55.9805C174.805 52.7461 174.723 49.7227 174.559 46.9102C174.418 44.0742 174.254 41.5547 174.066 39.3516C173.902 37.1484 173.738 35.3203 173.574 33.8672C173.434 32.3906 173.363 31.3828 173.363 30.8438Z" fill="black"/>
<path d="M207.113 28.5586C208.238 28.5586 209.305 28.6523 210.312 28.8398C211.32 29.0039 212.234 29.1914 213.055 29.4023C213.875 29.5898 214.578 29.7773 215.164 29.9648C215.75 30.1289 216.172 30.2109 216.43 30.2109C216.641 30.2109 216.84 30.1055 217.027 29.8945C217.215 29.6602 217.449 29.4141 217.73 29.1562C218.012 28.8984 218.387 28.6641 218.855 28.4531C219.324 28.2188 219.945 28.1016 220.719 28.1016C221.609 28.1016 222.312 28.3359 222.828 28.8047C223.344 29.25 223.602 29.8125 223.602 30.4922C223.602 39.0703 223.309 46.3594 222.723 52.3594C222.137 58.3359 221.188 63.1992 219.875 66.9492C218.562 70.6992 216.863 73.418 214.777 75.1055C212.691 76.793 210.16 77.6367 207.184 77.6367C205.824 77.6367 204.406 77.332 202.93 76.7227C201.477 76.1133 200.141 75.3281 198.922 74.3672C197.703 73.4297 196.695 72.3867 195.898 71.2383C195.125 70.0898 194.738 68.9883 194.738 67.9336C194.738 67.582 194.926 67.1719 195.301 66.7031C195.676 66.2344 196.133 65.7773 196.672 65.332C197.211 64.8867 197.773 64.5117 198.359 64.207C198.945 63.9023 199.449 63.75 199.871 63.75C200.316 63.75 200.691 63.9258 200.996 64.2773C201.301 64.6523 201.582 65.1094 201.84 65.6484C202.121 66.1875 202.402 66.7734 202.684 67.4062C202.965 68.0625 203.316 68.6602 203.738 69.1992C204.16 69.7383 204.676 70.1836 205.285 70.5352C205.895 70.9102 206.656 71.0977 207.57 71.0977C212.68 71.0977 215.68 63.293 216.57 47.6836C216.57 46.9805 216.371 46.6289 215.973 46.6289C215.645 46.6289 215.387 46.793 215.199 47.1211C212.996 50.0977 210.418 52.3359 207.465 53.8359C204.535 55.3125 201.277 56.0508 197.691 56.0508C196.027 56.0508 194.492 55.8047 193.086 55.3125C191.68 54.7969 190.461 54.0938 189.43 53.2031C188.422 52.2891 187.637 51.2109 187.074 49.9688C186.512 48.7031 186.23 47.3203 186.23 45.8203C186.23 44.3438 186.488 42.8906 187.004 41.4609C187.543 40.0078 188.281 38.6484 189.219 37.3828C190.18 36.0938 191.316 34.9102 192.629 33.832C193.941 32.7539 195.371 31.8281 196.918 31.0547C198.465 30.2578 200.094 29.6484 201.805 29.2266C203.539 28.7812 205.309 28.5586 207.113 28.5586ZM198.781 49.582C201.992 49.582 204.934 48.5742 207.605 46.5586C210.277 44.5195 212.562 41.5664 214.461 37.6992C214.508 37.5586 214.543 37.4531 214.566 37.3828C214.59 37.2891 214.602 37.1953 214.602 37.1016C214.602 36.8672 214.355 36.6211 213.863 36.3633C213.371 36.1055 212.727 35.8828 211.93 35.6953C211.133 35.5078 210.219 35.3555 209.188 35.2383C208.18 35.0977 207.16 35.0273 206.129 35.0273C204.465 35.0273 202.859 35.3086 201.312 35.8711C199.766 36.4336 198.395 37.1836 197.199 38.1211C196.004 39.0586 195.043 40.125 194.316 41.3203C193.59 42.5156 193.227 43.7578 193.227 45.0469C193.227 46.4297 193.73 47.5312 194.738 48.3516C195.77 49.1719 197.117 49.582 198.781 49.582Z" fill="black"/>
<path d="M228.523 22.125C228.523 19.5938 230.164 18.3281 233.445 18.3281C234.008 18.3281 234.5 18.4805 234.922 18.7852C235.344 19.0898 235.59 19.5117 235.66 20.0508C235.871 21.4805 236.059 22.8984 236.223 24.3047C236.387 25.7109 236.539 27.293 236.68 29.0508C236.844 30.7852 236.996 32.8008 237.137 35.0977C237.301 37.3711 237.477 40.0898 237.664 43.2539C237.664 43.582 237.711 43.8164 237.805 43.957C237.922 44.0977 238.051 44.168 238.191 44.168C238.402 44.168 238.613 43.957 238.824 43.5352C239.621 41.7773 240.512 40.207 241.496 38.8242C242.48 37.418 243.535 36.2344 244.66 35.2734C245.785 34.2891 246.969 33.5508 248.211 33.0586C249.477 32.543 250.766 32.2852 252.078 32.2852C253.812 32.2852 255.383 32.7773 256.789 33.7617C258.195 34.7461 259.391 36.1406 260.375 37.9453C261.359 39.75 262.121 41.9414 262.66 44.5195C263.199 47.0742 263.469 49.9336 263.469 53.0977C263.469 53.9648 263.398 54.6797 263.258 55.2422C263.141 55.7812 262.93 56.2148 262.625 56.543C262.32 56.8711 261.898 57.0938 261.359 57.2109C260.82 57.3516 260.152 57.4219 259.355 57.4219C258.254 57.4219 257.457 57.2109 256.965 56.7891C256.496 56.3672 256.262 55.7109 256.262 54.8203C256.262 52.6172 256.109 50.543 255.805 48.5977C255.523 46.6289 255.125 44.9062 254.609 43.4297C254.094 41.9531 253.484 40.7812 252.781 39.9141C252.102 39.0469 251.363 38.6133 250.566 38.6133C248.762 38.6133 246.957 40.0781 245.152 43.0078C243.371 45.9375 241.508 50.3555 239.562 56.2617C239.375 56.8008 239.164 57.2461 238.93 57.5977C238.695 57.9492 238.414 58.2305 238.086 58.4414C237.781 58.6523 237.406 58.793 236.961 58.8633C236.516 58.957 235.988 59.0039 235.379 59.0039C234.137 59.0039 233.246 58.7695 232.707 58.3008C232.191 57.832 231.91 57.0586 231.863 55.9805C231.723 51.9023 231.465 48.0117 231.09 44.3086C230.738 40.582 230.363 37.2188 229.965 34.2188C229.59 31.1953 229.25 28.6406 228.945 26.5547C228.664 24.4453 228.523 22.9688 228.523 22.125Z" fill="black"/>
<path d="M271.449 15.375C271.449 14.1328 271.801 13.2656 272.504 12.7734C273.207 12.2578 274.367 12 275.984 12C276.57 12 277.062 12.0586 277.461 12.1758C277.883 12.2695 278.234 12.457 278.516 12.7383C278.82 13.0195 279.055 13.3945 279.219 13.8633C279.406 14.3086 279.559 14.8828 279.676 15.5859C279.957 17.7656 280.262 20.0156 280.59 22.3359C280.941 24.6562 281.305 26.9883 281.68 29.332C281.82 30.3867 282.371 30.9141 283.332 30.9141C283.59 30.9141 284.012 30.8906 284.598 30.8438C285.207 30.7734 285.922 30.7031 286.742 30.6328C287.562 30.5391 288.441 30.4453 289.379 30.3516C290.34 30.2578 291.289 30.1758 292.227 30.1055C293.188 30.0117 294.09 29.9414 294.934 29.8945C295.801 29.8242 296.562 29.7891 297.219 29.7891C297.734 29.7891 298.145 29.8945 298.449 30.1055C298.754 30.293 298.988 30.5508 299.152 30.8789C299.34 31.1836 299.457 31.5352 299.504 31.9336C299.574 32.3086 299.609 32.6953 299.609 33.0938C299.609 33.4453 299.539 33.8086 299.398 34.1836C299.281 34.5586 299.105 34.8984 298.871 35.2031C298.66 35.4844 298.391 35.7188 298.062 35.9062C297.734 36.0938 297.359 36.1875 296.938 36.1875C294.898 36.1875 292.836 36.2578 290.75 36.3984C288.688 36.5156 286.625 36.6797 284.562 36.8906C283.508 37.0312 282.98 37.5586 282.98 38.4727C282.98 38.543 282.992 38.6367 283.016 38.7539C283.039 38.8477 283.051 38.9297 283.051 39C283.332 41.0391 283.59 42.9492 283.824 44.7305C284.082 46.5117 284.293 48.1055 284.457 49.5117C284.645 50.8945 284.785 52.0547 284.879 52.9922C284.996 53.9062 285.055 54.5156 285.055 54.8203C285.055 55.6641 284.973 56.3672 284.809 56.9297C284.645 57.5156 284.375 57.9844 284 58.3359C283.625 58.7109 283.121 58.9688 282.488 59.1094C281.879 59.2734 281.105 59.3555 280.168 59.3555C279.277 59.3555 278.621 59.1445 278.199 58.7227C277.777 58.3008 277.543 57.6562 277.496 56.7891C277.355 54.0234 277.133 51.2461 276.828 48.457C276.523 45.6445 276.172 42.8438 275.773 40.0547C275.562 39.0469 275.035 38.543 274.191 38.543C274.121 38.543 274.039 38.5547 273.945 38.5781C273.852 38.6016 273.77 38.6133 273.699 38.6133C272.246 38.9414 270.875 39.2695 269.586 39.5977C268.297 39.9258 267.09 40.2773 265.965 40.6523C265.332 40.8633 264.77 41.0156 264.277 41.1094C263.785 41.1797 263.34 41.2148 262.941 41.2148C262.402 41.2148 262.004 40.9805 261.746 40.5117C261.488 40.0195 261.359 39.4102 261.359 38.6836C261.359 38.4258 261.383 38.1328 261.43 37.8047C261.477 37.4531 261.57 37.1133 261.711 36.7852C261.828 36.4336 262.016 36.1172 262.273 35.8359C262.508 35.5312 262.836 35.2852 263.258 35.0977C264.242 34.6992 265.555 34.2891 267.195 33.8672C268.836 33.4219 270.688 33.0117 272.75 32.6367C273.219 32.5195 273.582 32.332 273.84 32.0742C274.121 31.793 274.262 31.3828 274.262 30.8438C274.262 30.7266 274.262 30.6094 274.262 30.4922C274.262 30.3516 274.238 30.2109 274.191 30.0703C273.816 27.9141 273.453 25.957 273.102 24.1992C272.773 22.418 272.48 20.8945 272.223 19.6289C271.988 18.3633 271.801 17.3672 271.66 16.6406C271.52 15.9141 271.449 15.4922 271.449 15.375Z" fill="black"/>
<path d="M327.488 48.2812C328.168 47.6953 328.836 47.4023 329.492 47.4023C329.867 47.4023 330.207 47.4961 330.512 47.6836C330.816 47.8711 331.156 48.1641 331.531 48.5625C331.883 49.1016 332.129 49.5469 332.27 49.8984C332.434 50.2266 332.516 50.5547 332.516 50.8828C332.516 51.5859 332.164 52.2539 331.461 52.8867C330.336 53.8242 329.117 54.668 327.805 55.418C326.492 56.1445 325.121 56.7656 323.691 57.2812C322.262 57.7969 320.785 58.1836 319.262 58.4414C317.738 58.7227 316.227 58.8633 314.727 58.8633C312.828 58.8633 311.047 58.6172 309.383 58.125C307.719 57.6562 306.23 56.9766 304.918 56.0859C303.629 55.1953 302.539 54.1289 301.648 52.8867C300.758 51.6211 300.125 50.2031 299.75 48.6328C299.539 47.9766 299.34 47.5547 299.152 47.3672C298.988 47.1562 298.707 47.0508 298.309 47.0508C297.441 47.0508 296.773 46.8398 296.305 46.418C295.836 45.9961 295.602 45.3867 295.602 44.5898C295.602 44.2617 295.625 44.0508 295.672 43.957L295.742 43.2539C295.859 42.4102 296.082 41.8008 296.41 41.4258C296.762 41.0508 297.301 40.8633 298.027 40.8633H298.555C299.539 40.8633 300.23 40.4062 300.629 39.4922C301.355 37.875 302.281 36.3984 303.406 35.0625C304.531 33.7266 305.797 32.5898 307.203 31.6523C308.609 30.6914 310.109 29.9531 311.703 29.4375C313.32 28.8984 314.961 28.6289 316.625 28.6289C318.359 28.6289 319.977 28.8867 321.477 29.4023C323 29.8945 324.324 30.5859 325.449 31.4766C326.574 32.3672 327.453 33.4102 328.086 34.6055C328.742 35.8008 329.07 37.0898 329.07 38.4727C329.07 39.4336 328.883 40.3125 328.508 41.1094C328.133 41.9062 327.594 42.6094 326.891 43.2188C326.188 43.8047 325.332 44.2852 324.324 44.6602C323.34 45.0352 322.215 45.2812 320.949 45.3984L308.75 46.6289C308.281 46.6289 307.895 46.7461 307.59 46.9805C307.309 47.2148 307.168 47.5312 307.168 47.9297C307.168 48.5391 307.391 49.125 307.836 49.6875C308.305 50.25 308.914 50.7539 309.664 51.1992C310.438 51.6211 311.316 51.9609 312.301 52.2188C313.309 52.4766 314.34 52.6055 315.395 52.6055C316.402 52.6055 317.434 52.5117 318.488 52.3242C319.566 52.1133 320.621 51.8203 321.652 51.4453C322.707 51.0703 323.727 50.625 324.711 50.1094C325.695 49.5703 326.621 48.9609 327.488 48.2812ZM319.648 39.2109C320 39.1406 320.305 38.9766 320.562 38.7188C320.82 38.4375 320.949 38.0977 320.949 37.6992C320.949 37.3477 320.82 37.0195 320.562 36.7148C320.305 36.4102 319.953 36.1406 319.508 35.9062C319.062 35.6484 318.547 35.4492 317.961 35.3086C317.375 35.168 316.754 35.0977 316.098 35.0977C315.137 35.0977 314.152 35.2383 313.145 35.5195C312.137 35.8008 311.223 36.1758 310.402 36.6445C309.582 37.0898 308.914 37.5938 308.398 38.1562C307.883 38.6953 307.625 39.2344 307.625 39.7734C307.625 40.3125 307.953 40.582 308.609 40.582C309.008 40.582 309.652 40.5352 310.543 40.4414C311.434 40.3477 312.418 40.2422 313.496 40.125C314.574 39.9844 315.664 39.832 316.766 39.668C317.867 39.5039 318.828 39.3516 319.648 39.2109Z" fill="black"/>
<path d="M353.82 29.6836C352.953 29.6836 352.191 29.918 351.535 30.3867C350.879 30.832 350.316 31.4648 349.848 32.2852C349.379 33.082 348.992 34.0312 348.688 35.1328C348.383 36.2109 348.137 37.3945 347.949 38.6836C347.762 39.9727 347.633 41.3203 347.562 42.7266C347.492 44.1328 347.457 45.5508 347.457 46.9805C347.457 48.8555 347.527 50.707 347.668 52.5352C347.832 54.3398 347.914 56.0156 347.914 57.5625C347.914 58.5703 347.539 59.3555 346.789 59.918C346.039 60.5039 344.973 60.7969 343.59 60.7969C343.332 60.7969 343.039 60.7734 342.711 60.7266C342.383 60.6797 342.066 60.5859 341.762 60.4453C341.48 60.3047 341.223 60.1055 340.988 59.8477C340.777 59.6133 340.66 59.2852 340.637 58.8633C340.426 56.8008 340.121 54.6914 339.723 52.5352C339.324 50.3789 338.82 48.2344 338.211 46.1016C337.625 43.9453 336.91 41.8125 336.066 39.7031C335.246 37.5938 334.297 35.5312 333.219 33.5156C333.031 33.1641 332.867 32.8359 332.727 32.5312C332.609 32.2266 332.551 31.9336 332.551 31.6523C332.551 31.3008 332.703 30.9258 333.008 30.5273C333.336 30.1055 333.734 29.7188 334.203 29.3672C334.695 29.0156 335.223 28.7344 335.785 28.5234C336.371 28.2891 336.934 28.1719 337.473 28.1719C338.363 28.1719 339.148 28.793 339.828 30.0352C340.508 31.2539 341.141 33.2109 341.727 35.9062C341.844 36.375 341.938 36.7031 342.008 36.8906C342.078 37.0781 342.172 37.1719 342.289 37.1719C342.547 37.1719 342.711 36.7734 342.781 35.9766C343.062 33.75 343.543 31.8398 344.223 30.2461C344.902 28.6289 345.746 27.3047 346.754 26.2734C347.785 25.2188 348.957 24.4453 350.27 23.9531C351.605 23.4609 353.07 23.2148 354.664 23.2148C355.578 23.2148 356.504 23.2969 357.441 23.4609C358.379 23.625 359.223 23.8711 359.973 24.1992C360.723 24.5273 361.332 24.9258 361.801 25.3945C362.27 25.8633 362.504 26.3906 362.504 26.9766C362.504 27.3984 362.41 27.9023 362.223 28.4883C362.059 29.0508 361.836 29.6016 361.555 30.1406C361.273 30.6562 360.945 31.1016 360.57 31.4766C360.219 31.8281 359.855 32.0039 359.48 32.0039C359.059 32.0039 358.648 31.8867 358.25 31.6523C357.852 31.3945 357.418 31.125 356.949 30.8438C356.504 30.5625 356.023 30.3047 355.508 30.0703C355.016 29.8125 354.453 29.6836 353.82 29.6836Z" fill="black"/>
<path fill-rule="evenodd" clip-rule="evenodd" d="M144.672 52.1484L144.18 46.9805C144.039 46.0664 143.699 45.6094 143.16 45.6094C142.785 45.6094 142.375 45.9023 141.93 46.4883C139.75 49.3008 137.418 51.3633 134.934 52.6758C132.473 53.9648 129.789 54.6094 126.883 54.6094C125.148 54.6094 123.543 54.3633 122.066 53.8711C120.613 53.3789 119.359 52.6992 118.305 51.832C117.25 50.9648 116.418 49.9336 115.809 48.7383C115.223 47.5195 114.93 46.1953 114.93 44.7656C114.93 43.1719 115.258 41.6484 115.914 40.1953C116.57 38.7422 117.461 37.3945 118.586 36.1523C119.711 34.9102 121.012 33.7852 122.488 32.7773C123.988 31.7461 125.559 30.8672 127.199 30.1406C128.863 29.4141 130.551 28.8633 132.262 28.4883C133.996 28.0898 135.66 27.8906 137.254 27.8906C138.941 27.8906 140.359 27.9844 141.508 28.1719C142.68 28.3594 143.641 28.5586 144.391 28.7695C144.719 28.3711 145.047 28.0781 145.375 27.8906C145.727 27.7031 146.066 27.6094 146.395 27.6094C146.84 27.6094 147.309 27.6914 147.801 27.8555C148.316 27.9961 148.785 28.1953 149.207 28.4531C149.652 28.7109 150.016 29.0039 150.297 29.332C150.578 29.6602 150.719 30 150.719 30.3516C150.719 30.6094 150.672 30.8555 150.578 31.0898C150.484 31.3242 150.379 31.5586 150.262 31.793C150.168 32.0039 150.074 32.2383 149.98 32.4961C149.91 32.7539 149.875 33.0234 149.875 33.3047C149.875 33.8672 149.922 34.7227 150.016 35.8711C150.133 37.0195 150.273 38.332 150.438 39.8086C150.625 41.2617 150.812 42.7969 151 44.4141C151.211 46.0312 151.41 47.5781 151.598 49.0547L152.723 58.6523L154.551 73.4883C154.551 74.0039 154.387 74.4844 154.059 74.9297C153.754 75.375 153.355 75.7617 152.863 76.0898C152.371 76.418 151.82 76.6758 151.211 76.8633C150.602 77.0508 150.004 77.1445 149.418 77.1445C148.879 77.1445 148.434 76.9922 148.082 76.6875C147.73 76.4062 147.531 76.0312 147.484 75.5625C147.273 73.2891 147.027 71.0273 146.746 68.7773C146.488 66.5273 146.23 64.2305 145.973 61.8867L144.672 52.1484ZM131.805 47.5781C130.703 47.9062 129.566 48.0703 128.395 48.0703C126.332 48.0703 124.762 47.6719 123.684 46.875C122.605 46.0547 122.066 44.8711 122.066 43.3242C122.066 42.1992 122.512 41.0977 123.402 40.0195C124.293 38.9414 125.465 37.9805 126.918 37.1367C128.371 36.293 130.023 35.6133 131.875 35.0977C133.727 34.582 135.613 34.3242 137.535 34.3242C138.543 34.3242 139.434 34.3945 140.207 34.5352C141.121 34.6758 141.578 35.1328 141.578 35.9062C141.578 36.0469 141.543 36.1992 141.473 36.3633C141.426 36.5273 141.367 36.7031 141.297 36.8906C140.289 39.0938 139.27 40.9219 138.238 42.375C137.207 43.8047 136.152 44.9414 135.074 45.7852C134.02 46.6289 132.93 47.2266 131.805 47.5781Z" fill="black"/>
</svg>
