<svg width="300" height="80" viewBox="0 0 300 80" fill="none" xmlns="http://www.w3.org/2000/svg">
<path d="M17.6553 67.163C17.5886 68.049 17.3419 68.9102 16.93 69.6952C14.9594 73.8025 8.70196 77.4098 6.03861 78.8034C5.89588 78.8808 5.73604 78.923 5.57245 78.9266C5.40885 78.9301 5.24622 78.8949 5.09815 78.8239C4.95008 78.7528 4.82086 78.648 4.72125 78.5182C4.62164 78.3884 4.55454 78.2373 4.52555 78.0775C3.94582 75.128 2.84355 67.9899 4.82551 63.888C5.18002 63.0755 5.69734 62.3441 6.34659 61.7376C6.99584 61.1311 7.76371 60.6618 8.60442 60.3577C9.44513 60.0537 10.3414 59.9211 11.2399 59.9679C12.1383 60.0147 13.0205 60.2398 13.8338 60.63C14.647 61.0202 15.3748 61.5673 15.9735 62.2389C16.5722 62.9104 17.0297 63.6924 17.3187 64.5384C17.6076 65.3844 17.7221 66.2771 17.6553 67.163Z" fill="white"/>
<path d="M40.0235 6.04027C28.3127 0.421958 16.5124 0.696841 13.6542 6.65454L0.720997 33.6124C-2.13724 39.5701 5.05943 48.9589 16.7437 54.5645C28.428 60.1701 40.2548 59.9079 43.113 53.9502L56.0462 26.9923C58.9045 21.0346 51.7343 11.6586 40.0235 6.04027ZM37.814 51.408C37.1674 52.7559 29.584 54.0921 19.3304 49.1729C9.0768 44.2537 5.37334 37.5026 6.02 36.1547L8.9041 30.143C12.161 34.2923 17.1695 38.1874 23.2103 41.0855C29.2512 43.9837 35.4236 45.4526 40.6981 45.3964L37.814 51.408ZM43.6986 39.1422C39.0256 40.0507 32.2088 38.7701 25.797 35.694C19.3852 32.6179 14.1203 28.1023 11.9046 23.8888L15.5388 16.3136C18.3601 20.4197 23.3446 24.5686 29.6769 27.6066C36.0092 30.6446 42.3646 31.936 47.3329 31.567L43.6986 39.1422ZM32.2636 22.215C22.01 17.2958 18.3065 10.5447 18.9532 9.19676C19.5998 7.84887 27.1833 6.51265 37.4368 11.4319C47.6904 16.3511 51.3939 23.1022 50.7472 24.4501C50.1006 25.798 42.5171 27.1342 32.2636 22.215Z" fill="white"/>
<path d="M81.7374 58.672C78.4521 58.672 75.6521 58.0747 73.3374 56.88C71.0601 55.6853 69.1001 54.08 67.4574 52.064L71.8254 47.976C73.2067 49.656 74.7187 50.9253 76.3614 51.784C78.0414 52.6427 79.9454 53.072 82.0734 53.072C84.5747 53.072 86.4601 52.512 87.7294 51.392C88.9987 50.272 89.6334 48.76 89.6334 46.856C89.6334 45.3253 89.1854 44.112 88.2894 43.216C87.3934 42.32 85.8067 41.648 83.5294 41.2L80.0574 40.584C76.2494 39.8747 73.3934 38.624 71.4894 36.832C69.5854 35.04 68.6334 32.576 68.6334 29.44C68.6334 27.7227 68.9507 26.1733 69.5854 24.792C70.2574 23.3733 71.1721 22.1973 72.3294 21.264C73.5241 20.2933 74.9614 19.5467 76.6414 19.024C78.3214 18.5013 80.2067 18.24 82.2974 18.24C85.2467 18.24 87.8041 18.7627 89.9694 19.808C92.1347 20.816 93.9827 22.2907 95.5134 24.232L91.0894 28.152C90.0814 26.8453 88.8494 25.8 87.3934 25.016C85.9374 24.232 84.1267 23.84 81.9614 23.84C79.7214 23.84 77.9854 24.288 76.7534 25.184C75.5214 26.08 74.9054 27.3867 74.9054 29.104C74.9054 30.7467 75.4094 31.9787 76.4174 32.8C77.4254 33.584 78.9934 34.1813 81.1214 34.592L84.5934 35.32C88.5134 36.0667 91.3694 37.336 93.1614 39.128C94.9907 40.92 95.9054 43.384 95.9054 46.52C95.9054 48.3493 95.5881 50.0107 94.9534 51.504C94.3187 52.9973 93.3854 54.2853 92.1534 55.368C90.9587 56.4133 89.4841 57.2347 87.7294 57.832C85.9747 58.392 83.9774 58.672 81.7374 58.672ZM125.734 67.688H120.19C117.987 67.688 116.363 67.128 115.318 66.008C114.31 64.888 113.806 63.376 113.806 61.472V58.504C111.603 58.2427 109.625 57.608 107.87 56.6C106.115 55.592 104.622 54.248 103.39 52.568C102.158 50.888 101.206 48.872 100.534 46.52C99.8622 44.1307 99.5262 41.4427 99.5262 38.456C99.5262 35.1707 99.9182 32.2773 100.702 29.776C101.523 27.2373 102.662 25.128 104.118 23.448C105.611 21.7307 107.385 20.4427 109.438 19.584C111.529 18.688 113.843 18.24 116.382 18.24C118.921 18.24 121.217 18.688 123.27 19.584C125.361 20.4427 127.134 21.7307 128.59 23.448C130.083 25.128 131.222 27.2373 132.006 29.776C132.827 32.2773 133.238 35.1707 133.238 38.456C133.238 44.28 132.025 48.8907 129.598 52.288C127.171 55.648 123.886 57.6827 119.742 58.392V62.424H125.734V67.688ZM116.382 53.016C117.875 53.016 119.238 52.7547 120.47 52.232C121.739 51.7093 122.803 50.9627 123.662 49.992C124.558 48.984 125.249 47.7707 125.734 46.352C126.219 44.9333 126.462 43.328 126.462 41.536V35.376C126.462 33.584 126.219 31.9787 125.734 30.56C125.249 29.1413 124.558 27.9467 123.662 26.976C122.803 25.968 121.739 25.2027 120.47 24.68C119.238 24.1573 117.875 23.896 116.382 23.896C114.851 23.896 113.47 24.1573 112.238 24.68C111.006 25.2027 109.942 25.968 109.046 26.976C108.187 27.9467 107.515 29.1413 107.03 30.56C106.545 31.9787 106.302 33.584 106.302 35.376V41.536C106.302 43.328 106.545 44.9333 107.03 46.352C107.515 47.7707 108.187 48.984 109.046 49.992C109.942 50.9627 111.006 51.7093 112.238 52.232C113.47 52.7547 114.851 53.016 116.382 53.016ZM138.889 58V18.912H145.217V52.4H161.121V58H138.889ZM167.992 23.672C166.723 23.672 165.79 23.3733 165.192 22.776C164.632 22.1787 164.352 21.4133 164.352 20.48V19.528C164.352 18.5947 164.632 17.8293 165.192 17.232C165.79 16.6347 166.723 16.336 167.992 16.336C169.262 16.336 170.176 16.6347 170.736 17.232C171.296 17.8293 171.576 18.5947 171.576 19.528V20.48C171.576 21.4133 171.296 22.1787 170.736 22.776C170.176 23.3733 169.262 23.672 167.992 23.672ZM164.912 28.88H171.016V58H164.912V28.88ZM203.029 60.744C203.029 63.768 201.871 66.0453 199.557 67.576C197.242 69.1067 193.471 69.872 188.245 69.872C185.855 69.872 183.821 69.704 182.141 69.368C180.498 69.0693 179.135 68.6213 178.053 68.024C177.007 67.4267 176.242 66.6987 175.757 65.84C175.271 64.9813 175.029 63.992 175.029 62.872C175.029 61.2667 175.458 60.016 176.317 59.12C177.213 58.224 178.445 57.608 180.013 57.272V56.656C177.81 55.9467 176.709 54.4533 176.709 52.176C176.709 50.6827 177.213 49.544 178.221 48.76C179.229 47.9387 180.442 47.36 181.861 47.024V46.8C180.143 45.9787 178.818 44.84 177.885 43.384C176.989 41.8907 176.541 40.1547 176.541 38.176C176.541 35.1893 177.53 32.7813 179.509 30.952C181.525 29.1227 184.399 28.208 188.133 28.208C190.186 28.208 191.941 28.5067 193.397 29.104V28.32C193.397 27.0133 193.695 26.0053 194.293 25.296C194.927 24.5493 195.898 24.176 197.205 24.176H201.685V29.104H195.749V30.28C197.055 31.1387 198.063 32.2587 198.773 33.64C199.482 34.984 199.837 36.496 199.837 38.176C199.837 41.1253 198.829 43.5147 196.813 45.344C194.797 47.136 191.922 48.032 188.189 48.032C186.77 48.032 185.501 47.8827 184.381 47.584C183.634 47.8453 182.981 48.2187 182.421 48.704C181.861 49.152 181.581 49.7493 181.581 50.496C181.581 51.28 181.935 51.84 182.645 52.176C183.354 52.512 184.362 52.68 185.669 52.68H192.837C196.421 52.68 199.015 53.408 200.621 54.864C202.226 56.2827 203.029 58.2427 203.029 60.744ZM197.317 61.416C197.317 60.408 196.925 59.6053 196.141 59.008C195.394 58.4107 194.013 58.112 191.997 58.112H182.141C180.797 58.896 180.125 60.016 180.125 61.472C180.125 62.6667 180.591 63.6187 181.525 64.328C182.495 65.0747 184.119 65.448 186.397 65.448H190.205C194.946 65.448 197.317 64.104 197.317 61.416ZM188.189 43.608C189.981 43.608 191.362 43.216 192.333 42.432C193.341 41.6107 193.845 40.36 193.845 38.68V37.56C193.845 35.88 193.341 34.648 192.333 33.864C191.362 33.0427 189.981 32.632 188.189 32.632C186.397 32.632 184.997 33.0427 183.989 33.864C183.018 34.648 182.533 35.88 182.533 37.56V38.68C182.533 40.36 183.018 41.6107 183.989 42.432C184.997 43.216 186.397 43.608 188.189 43.608ZM205.331 16.56H211.435V33.696H211.715C212.349 32.128 213.301 30.8213 214.571 29.776C215.877 28.7307 217.651 28.208 219.891 28.208C222.877 28.208 225.192 29.1973 226.835 31.176C228.515 33.1173 229.355 35.8987 229.355 39.52V58H223.251V40.248C223.251 35.7307 221.421 33.472 217.763 33.472C216.979 33.472 216.195 33.584 215.411 33.808C214.664 33.9947 213.992 34.2933 213.395 34.704C212.797 35.1147 212.312 35.6373 211.939 36.272C211.603 36.9067 211.435 37.6347 211.435 38.456V58H205.331V16.56ZM243.639 58C241.511 58 239.906 57.4587 238.823 56.376C237.74 55.256 237.199 53.688 237.199 51.672V33.864H232.663V28.88H235.127C236.135 28.88 236.826 28.656 237.199 28.208C237.61 27.76 237.815 27.032 237.815 26.024V20.928H243.303V28.88H249.407V33.864H243.303V53.016H248.959V58H243.639ZM264.993 58.672C262.903 58.672 261.036 58.3173 259.393 57.608C257.751 56.8987 256.351 55.8907 255.193 54.584C254.036 53.24 253.14 51.6347 252.505 49.768C251.908 47.864 251.609 45.7547 251.609 43.44C251.609 41.1253 251.908 39.0347 252.505 37.168C253.14 35.264 254.036 33.6587 255.193 32.352C256.351 31.008 257.751 29.9813 259.393 29.272C261.036 28.5627 262.903 28.208 264.993 28.208C267.121 28.208 268.988 28.5813 270.593 29.328C272.236 30.0747 273.599 31.12 274.681 32.464C275.764 33.7707 276.567 35.3013 277.089 37.056C277.649 38.8107 277.929 40.696 277.929 42.712V45.008H257.937V45.96C257.937 48.2 258.591 50.048 259.897 51.504C261.241 52.9227 263.145 53.632 265.609 53.632C267.401 53.632 268.913 53.24 270.145 52.456C271.377 51.672 272.423 50.608 273.281 49.264L276.865 52.792C275.783 54.584 274.215 56.0213 272.161 57.104C270.108 58.1493 267.719 58.672 264.993 58.672ZM264.993 32.968C263.948 32.968 262.977 33.1547 262.081 33.528C261.223 33.9013 260.476 34.424 259.841 35.096C259.244 35.768 258.777 36.5707 258.441 37.504C258.105 38.4373 257.937 39.464 257.937 40.584V40.976H271.489V40.416C271.489 38.176 270.911 36.384 269.753 35.04C268.596 33.6587 267.009 32.968 264.993 32.968ZM282.447 58V28.88H288.551V34.48H288.831C289.241 32.9867 290.1 31.68 291.407 30.56C292.713 29.44 294.524 28.88 296.839 28.88H298.463V34.76H296.055C293.628 34.76 291.761 35.152 290.455 35.936C289.185 36.72 288.551 37.8773 288.551 39.408V58H282.447Z" fill="white"/>
</svg>
