<svg width="80" height="80" viewBox="0 0 80 80" fill="none" xmlns="http://www.w3.org/2000/svg">
<path d="M29.271 66.6996C29.2042 67.5856 28.9575 68.4468 28.5456 69.2317C26.5751 73.3391 20.3176 76.9464 17.6543 78.34C17.5115 78.4174 17.3517 78.4596 17.1881 78.4632C17.0245 78.4667 16.8619 78.4315 16.7138 78.3605C16.5657 78.2894 16.4365 78.1846 16.3369 78.0548C16.2373 77.9249 16.1702 77.7738 16.1412 77.6141C15.5615 74.6646 14.4592 67.5265 16.4412 63.4246C16.7957 62.6121 17.313 61.8807 17.9622 61.2742C18.6115 60.6677 19.3794 60.1984 20.2201 59.8943C21.0608 59.5903 21.9571 59.4577 22.8555 59.5045C23.754 59.5513 24.6361 59.7764 25.4494 60.1666C26.2627 60.5568 26.9904 61.1039 27.5891 61.7754C28.1879 62.447 28.6453 63.229 28.9343 64.075C29.2233 64.921 29.3378 65.8137 29.271 66.6996Z" fill="#0072E5"/>
<path d="M51.6391 5.57687C39.9283 -0.041451 28.1281 0.233431 25.2698 6.19113L12.3366 33.149C9.47841 39.1067 16.6751 48.4955 28.3594 54.1011C40.0437 59.7067 51.8704 59.4445 54.7287 53.4868L67.6619 26.5289C70.5201 20.5712 63.3499 11.1952 51.6391 5.57687ZM49.4297 50.9446C48.783 52.2925 41.1996 53.6287 30.946 48.7095C20.6925 43.7903 16.989 37.0391 17.6356 35.6912L20.5197 29.6796C23.7767 33.8288 28.7851 37.724 34.826 40.6221C40.8668 43.5203 47.0393 44.9892 52.3138 44.933L49.4297 50.9446ZM55.3143 38.6788C50.6413 39.5873 43.8244 38.3066 37.4126 35.2306C31.0008 32.1545 25.7359 27.6389 23.5202 23.4254L27.1545 15.8502C29.9758 19.9563 34.9603 24.1052 41.2926 27.1432C47.6249 30.1811 53.9803 31.4726 58.9485 31.1036L55.3143 38.6788ZM43.8792 21.7516C33.6256 16.8324 29.9222 10.0812 30.5688 8.73335C31.2155 7.38546 38.7989 6.04924 49.0525 10.9684C59.3061 15.8876 63.0095 22.6388 62.3629 23.9867C61.7162 25.3346 54.1328 26.6708 43.8792 21.7516Z" fill="#0072E5"/>
</svg>
