<svg width="1280" height="720" viewBox="0 0 1280 720" fill="none" xmlns="http://www.w3.org/2000/svg">
<rect width="1280" height="719" transform="translate(0 0.5)" fill="white"/>
<path d="M735.068 404.183C735.068 403.384 735.299 402.816 735.76 402.477C736.221 402.139 736.981 401.97 738.041 401.97C738.41 401.97 738.733 402.009 739.009 402.086C739.286 402.163 739.516 402.293 739.701 402.477C739.885 402.647 740.031 402.885 740.139 403.192C740.262 403.484 740.361 403.86 740.438 404.321C740.638 405.689 740.838 407.125 741.038 408.631C741.253 410.121 741.452 411.612 741.637 413.102C741.836 414.577 742.021 416.021 742.19 417.435C742.359 418.833 742.505 420.139 742.628 421.353C742.766 422.551 742.866 423.619 742.927 424.556C743.004 425.478 743.043 426.208 743.043 426.746C743.043 427.299 742.989 427.768 742.881 428.152C742.789 428.536 742.62 428.843 742.374 429.074C742.144 429.304 741.836 429.473 741.452 429.581C741.084 429.673 740.623 429.719 740.07 429.719C739.532 429.719 739.102 429.581 738.779 429.304C738.472 429.027 738.318 428.605 738.318 428.036C738.318 427.453 738.272 426.677 738.18 425.709C738.088 424.725 737.965 423.635 737.811 422.436C737.657 421.238 737.481 419.962 737.281 418.61C737.097 417.258 736.897 415.922 736.682 414.6C736.482 413.279 736.282 412.011 736.082 410.797C735.898 409.568 735.729 408.485 735.575 407.548C735.422 406.595 735.299 405.819 735.207 405.22C735.114 404.605 735.068 404.26 735.068 404.183ZM750.187 406.926C749.742 406.926 749.319 406.864 748.92 406.741C748.535 406.603 748.197 406.419 747.905 406.188C747.629 405.942 747.406 405.658 747.237 405.335C747.068 405.013 746.984 404.659 746.984 404.275C746.984 403.63 747.237 403.107 747.744 402.708C748.267 402.308 748.958 402.109 749.818 402.109C750.218 402.109 750.602 402.186 750.971 402.339C751.339 402.477 751.662 402.67 751.939 402.915C752.231 403.161 752.461 403.453 752.63 403.791C752.799 404.114 752.884 404.452 752.884 404.805C752.884 405.466 752.638 405.988 752.146 406.372C751.67 406.741 751.017 406.926 750.187 406.926ZM747.03 413.955C747.03 413.417 747.26 412.979 747.721 412.641C748.197 412.288 748.82 412.111 749.588 412.111C750.971 412.111 751.708 412.587 751.8 413.54C751.862 414.201 751.923 414.946 751.985 415.776C752.062 416.605 752.131 417.489 752.192 418.426C752.269 419.348 752.33 420.308 752.377 421.307C752.438 422.29 752.492 423.266 752.538 424.234C752.584 425.186 752.622 426.108 752.653 426.999C752.684 427.891 752.699 428.705 752.699 429.442C752.699 430.211 752.423 430.787 751.87 431.171C751.332 431.555 750.541 431.747 749.496 431.747C749.019 431.747 748.643 431.632 748.366 431.401C748.105 431.186 747.975 430.864 747.975 430.433C747.975 428.313 747.921 426.331 747.813 424.487C747.721 422.628 747.614 420.976 747.491 419.532C747.383 418.088 747.276 416.889 747.168 415.937C747.076 414.969 747.03 414.308 747.03 413.955ZM769.155 412.457C769.892 412.457 770.591 412.518 771.252 412.641C771.913 412.749 772.512 412.872 773.05 413.01C773.587 413.133 774.048 413.256 774.432 413.379C774.817 413.486 775.093 413.54 775.262 413.54C775.4 413.54 775.531 413.471 775.654 413.333C775.777 413.179 775.93 413.018 776.115 412.849C776.299 412.68 776.545 412.526 776.852 412.388C777.16 412.234 777.567 412.157 778.074 412.157C778.658 412.157 779.119 412.311 779.457 412.618C779.795 412.91 779.964 413.279 779.964 413.724C779.964 419.348 779.772 424.126 779.388 428.06C779.003 431.977 778.381 435.166 777.521 437.624C776.66 440.082 775.546 441.865 774.179 442.971C772.811 444.077 771.152 444.63 769.201 444.63C768.31 444.63 767.38 444.43 766.412 444.031C765.46 443.632 764.584 443.117 763.785 442.487C762.986 441.872 762.325 441.189 761.803 440.436C761.296 439.683 761.042 438.961 761.042 438.269C761.042 438.039 761.165 437.77 761.411 437.463C761.657 437.155 761.956 436.856 762.31 436.564C762.663 436.272 763.032 436.026 763.416 435.826C763.8 435.627 764.13 435.527 764.407 435.527C764.699 435.527 764.945 435.642 765.145 435.872C765.344 436.118 765.529 436.418 765.698 436.771C765.882 437.125 766.066 437.509 766.251 437.924C766.435 438.354 766.666 438.746 766.942 439.099C767.219 439.452 767.557 439.744 767.956 439.975C768.356 440.221 768.855 440.344 769.454 440.344C772.804 440.344 774.77 435.227 775.354 424.994C775.354 424.533 775.224 424.303 774.963 424.303C774.747 424.303 774.578 424.41 774.455 424.626C773.011 426.577 771.321 428.044 769.385 429.027C767.465 429.995 765.329 430.479 762.978 430.479C761.887 430.479 760.881 430.318 759.959 429.995C759.037 429.657 758.238 429.197 757.562 428.613C756.901 428.013 756.387 427.307 756.018 426.492C755.649 425.663 755.465 424.756 755.465 423.773C755.465 422.805 755.634 421.852 755.972 420.915C756.325 419.962 756.809 419.071 757.424 418.242C758.054 417.397 758.799 416.621 759.659 415.914C760.52 415.207 761.457 414.6 762.471 414.093C763.485 413.571 764.553 413.171 765.675 412.895C766.812 412.603 767.972 412.457 769.155 412.457ZM763.693 426.239C765.798 426.239 767.726 425.578 769.477 424.257C771.229 422.92 772.727 420.984 773.972 418.449C774.002 418.357 774.025 418.288 774.041 418.242C774.056 418.18 774.064 418.119 774.064 418.057C774.064 417.904 773.902 417.742 773.58 417.573C773.257 417.404 772.835 417.258 772.312 417.135C771.79 417.012 771.191 416.913 770.514 416.836C769.854 416.744 769.185 416.697 768.509 416.697C767.419 416.697 766.366 416.882 765.352 417.251C764.338 417.619 763.439 418.111 762.655 418.726C761.872 419.34 761.242 420.039 760.766 420.823C760.289 421.606 760.051 422.421 760.051 423.266C760.051 424.172 760.382 424.894 761.042 425.432C761.718 425.97 762.602 426.239 763.693 426.239ZM783.19 408.239C783.19 406.58 784.266 405.75 786.417 405.75C786.786 405.75 787.108 405.85 787.385 406.05C787.661 406.249 787.823 406.526 787.869 406.879C788.007 407.817 788.13 408.746 788.238 409.668C788.345 410.59 788.445 411.627 788.537 412.779C788.645 413.916 788.745 415.238 788.837 416.744C788.944 418.234 789.06 420.016 789.182 422.09C789.182 422.305 789.213 422.459 789.275 422.551C789.351 422.644 789.436 422.69 789.528 422.69C789.666 422.69 789.805 422.551 789.943 422.275C790.465 421.122 791.049 420.093 791.695 419.186C792.34 418.265 793.031 417.489 793.769 416.859C794.506 416.213 795.282 415.729 796.097 415.407C796.926 415.069 797.771 414.9 798.632 414.9C799.769 414.9 800.798 415.222 801.72 415.868C802.642 416.513 803.425 417.427 804.071 418.61C804.716 419.793 805.215 421.23 805.569 422.92C805.922 424.595 806.099 426.469 806.099 428.544C806.099 429.112 806.053 429.581 805.961 429.949C805.884 430.303 805.745 430.587 805.546 430.802C805.346 431.017 805.069 431.163 804.716 431.24C804.363 431.332 803.925 431.378 803.402 431.378C802.68 431.378 802.158 431.24 801.835 430.963C801.528 430.687 801.374 430.257 801.374 429.673C801.374 428.229 801.274 426.869 801.075 425.594C800.89 424.303 800.629 423.174 800.291 422.206C799.953 421.238 799.554 420.469 799.093 419.901C798.647 419.332 798.163 419.048 797.641 419.048C796.458 419.048 795.275 420.008 794.091 421.929C792.924 423.85 791.702 426.746 790.427 430.618C790.304 430.971 790.166 431.263 790.012 431.494C789.858 431.724 789.674 431.908 789.459 432.047C789.259 432.185 789.013 432.277 788.722 432.323C788.43 432.385 788.084 432.415 787.684 432.415C786.87 432.415 786.286 432.262 785.933 431.954C785.595 431.647 785.41 431.14 785.38 430.433C785.288 427.76 785.119 425.209 784.873 422.782C784.642 420.339 784.396 418.134 784.135 416.167C783.889 414.185 783.667 412.511 783.467 411.143C783.282 409.76 783.19 408.792 783.19 408.239ZM811.33 403.814C811.33 403 811.561 402.431 812.022 402.109C812.483 401.771 813.243 401.602 814.304 401.602C814.688 401.602 815.01 401.64 815.272 401.717C815.548 401.778 815.779 401.901 815.963 402.086C816.163 402.27 816.316 402.516 816.424 402.823C816.547 403.115 816.647 403.492 816.723 403.952C816.908 405.381 817.108 406.856 817.323 408.377C817.553 409.899 817.791 411.427 818.037 412.964C818.129 413.655 818.49 414.001 819.12 414.001C819.289 414.001 819.566 413.986 819.95 413.955C820.35 413.909 820.818 413.863 821.356 413.817C821.894 413.755 822.47 413.694 823.084 413.632C823.714 413.571 824.337 413.517 824.951 413.471C825.581 413.409 826.173 413.363 826.726 413.333C827.294 413.286 827.794 413.263 828.224 413.263C828.562 413.263 828.831 413.333 829.03 413.471C829.23 413.594 829.384 413.763 829.491 413.978C829.614 414.178 829.691 414.408 829.722 414.669C829.768 414.915 829.791 415.169 829.791 415.43C829.791 415.66 829.745 415.898 829.653 416.144C829.576 416.39 829.461 416.613 829.307 416.813C829.169 416.997 828.992 417.151 828.777 417.274C828.562 417.397 828.316 417.458 828.039 417.458C826.703 417.458 825.351 417.504 823.983 417.596C822.631 417.673 821.279 417.781 819.927 417.919C819.236 418.011 818.89 418.357 818.89 418.956C818.89 419.002 818.898 419.064 818.913 419.14C818.928 419.202 818.936 419.256 818.936 419.302C819.12 420.638 819.289 421.891 819.443 423.058C819.612 424.226 819.75 425.271 819.858 426.193C819.981 427.099 820.073 427.86 820.134 428.474C820.211 429.074 820.25 429.473 820.25 429.673C820.25 430.226 820.196 430.687 820.088 431.056C819.981 431.44 819.804 431.747 819.558 431.977C819.312 432.223 818.982 432.392 818.567 432.485C818.168 432.592 817.661 432.646 817.046 432.646C816.462 432.646 816.032 432.508 815.755 432.231C815.479 431.954 815.325 431.532 815.295 430.963C815.202 429.15 815.056 427.33 814.857 425.501C814.657 423.658 814.426 421.822 814.165 419.993C814.027 419.332 813.681 419.002 813.128 419.002C813.082 419.002 813.028 419.01 812.967 419.025C812.905 419.041 812.852 419.048 812.805 419.048C811.853 419.263 810.954 419.478 810.109 419.694C809.264 419.909 808.473 420.139 807.735 420.385C807.32 420.523 806.952 420.623 806.629 420.685C806.306 420.731 806.014 420.754 805.753 420.754C805.4 420.754 805.139 420.6 804.97 420.293C804.801 419.97 804.716 419.571 804.716 419.094C804.716 418.925 804.731 418.733 804.762 418.518C804.793 418.288 804.854 418.065 804.947 417.85C805.023 417.619 805.146 417.412 805.315 417.227C805.469 417.028 805.684 416.866 805.961 416.744C806.606 416.482 807.466 416.213 808.542 415.937C809.617 415.645 810.831 415.376 812.183 415.13C812.491 415.053 812.729 414.93 812.898 414.761C813.082 414.577 813.174 414.308 813.174 413.955C813.174 413.878 813.174 413.801 813.174 413.724C813.174 413.632 813.159 413.54 813.128 413.448C812.882 412.034 812.644 410.751 812.414 409.599C812.199 408.431 812.007 407.433 811.838 406.603C811.684 405.773 811.561 405.12 811.469 404.644C811.377 404.168 811.33 403.891 811.33 403.814ZM848.067 425.386C848.513 425.002 848.951 424.81 849.381 424.81C849.627 424.81 849.85 424.871 850.049 424.994C850.249 425.117 850.472 425.309 850.718 425.57C850.948 425.924 851.109 426.216 851.202 426.446C851.309 426.661 851.363 426.876 851.363 427.092C851.363 427.552 851.132 427.99 850.672 428.405C849.934 429.02 849.135 429.573 848.275 430.065C847.414 430.541 846.515 430.948 845.578 431.286C844.641 431.624 843.673 431.878 842.674 432.047C841.676 432.231 840.685 432.323 839.701 432.323C838.457 432.323 837.289 432.162 836.198 431.839C835.107 431.532 834.132 431.086 833.271 430.502C832.426 429.919 831.712 429.22 831.128 428.405C830.544 427.576 830.129 426.646 829.883 425.617C829.745 425.186 829.614 424.91 829.491 424.787C829.384 424.649 829.2 424.579 828.938 424.579C828.37 424.579 827.932 424.441 827.625 424.165C827.317 423.888 827.164 423.489 827.164 422.966C827.164 422.751 827.179 422.613 827.21 422.551L827.256 422.09C827.333 421.537 827.479 421.138 827.694 420.892C827.924 420.646 828.278 420.523 828.754 420.523H829.1C829.745 420.523 830.198 420.224 830.459 419.624C830.936 418.564 831.543 417.596 832.28 416.72C833.018 415.845 833.847 415.099 834.769 414.485C835.691 413.855 836.674 413.371 837.719 413.033C838.779 412.68 839.855 412.503 840.946 412.503C842.083 412.503 843.143 412.672 844.126 413.01C845.125 413.333 845.993 413.786 846.73 414.37C847.468 414.954 848.044 415.637 848.459 416.421C848.889 417.204 849.104 418.049 849.104 418.956C849.104 419.586 848.981 420.162 848.736 420.685C848.49 421.207 848.136 421.668 847.675 422.067C847.214 422.451 846.654 422.766 845.993 423.012C845.348 423.258 844.61 423.419 843.78 423.496L835.783 424.303C835.476 424.303 835.222 424.38 835.023 424.533C834.838 424.687 834.746 424.894 834.746 425.156C834.746 425.555 834.892 425.939 835.184 426.308C835.491 426.677 835.891 427.007 836.382 427.299C836.889 427.576 837.466 427.798 838.111 427.967C838.772 428.136 839.448 428.221 840.139 428.221C840.8 428.221 841.476 428.159 842.167 428.036C842.874 427.898 843.565 427.706 844.241 427.46C844.933 427.214 845.601 426.923 846.247 426.585C846.892 426.231 847.499 425.832 848.067 425.386ZM842.928 419.44C843.158 419.394 843.358 419.286 843.527 419.117C843.696 418.933 843.78 418.71 843.78 418.449C843.78 418.219 843.696 418.003 843.527 417.804C843.358 417.604 843.127 417.427 842.836 417.274C842.544 417.105 842.206 416.974 841.822 416.882C841.437 416.79 841.03 416.744 840.6 416.744C839.97 416.744 839.325 416.836 838.664 417.02C838.003 417.204 837.404 417.45 836.866 417.758C836.329 418.049 835.891 418.38 835.553 418.749C835.215 419.102 835.046 419.455 835.046 419.809C835.046 420.162 835.261 420.339 835.691 420.339C835.952 420.339 836.375 420.308 836.959 420.247C837.542 420.185 838.188 420.116 838.895 420.039C839.601 419.947 840.316 419.847 841.038 419.74C841.76 419.632 842.39 419.532 842.928 419.44ZM865.329 413.194C864.761 413.194 864.261 413.348 863.831 413.655C863.401 413.947 863.032 414.362 862.725 414.9C862.418 415.422 862.164 416.044 861.964 416.767C861.765 417.473 861.603 418.249 861.48 419.094C861.358 419.939 861.273 420.823 861.227 421.745C861.181 422.667 861.158 423.596 861.158 424.533C861.158 425.763 861.204 426.976 861.296 428.175C861.404 429.358 861.457 430.456 861.457 431.47C861.457 432.131 861.212 432.646 860.72 433.015C860.228 433.399 859.529 433.591 858.623 433.591C858.454 433.591 858.262 433.575 858.047 433.545C857.831 433.514 857.624 433.452 857.424 433.36C857.24 433.268 857.071 433.138 856.917 432.969C856.779 432.815 856.702 432.6 856.687 432.323C856.548 430.971 856.349 429.588 856.088 428.175C855.826 426.761 855.496 425.355 855.097 423.957C854.712 422.544 854.244 421.145 853.691 419.763C853.153 418.38 852.531 417.028 851.824 415.706C851.701 415.476 851.593 415.261 851.501 415.061C851.424 414.861 851.386 414.669 851.386 414.485C851.386 414.254 851.486 414.009 851.686 413.747C851.901 413.471 852.162 413.217 852.469 412.987C852.792 412.756 853.138 412.572 853.506 412.434C853.89 412.28 854.259 412.203 854.613 412.203C855.196 412.203 855.711 412.61 856.157 413.425C856.602 414.224 857.017 415.507 857.401 417.274C857.478 417.581 857.539 417.796 857.586 417.919C857.632 418.042 857.693 418.103 857.77 418.103C857.939 418.103 858.047 417.842 858.093 417.32C858.277 415.86 858.592 414.608 859.038 413.563C859.483 412.503 860.036 411.635 860.697 410.959C861.373 410.267 862.141 409.76 863.002 409.438C863.877 409.115 864.838 408.954 865.882 408.954C866.482 408.954 867.089 409.007 867.703 409.115C868.318 409.223 868.871 409.384 869.363 409.599C869.854 409.814 870.254 410.075 870.561 410.383C870.868 410.69 871.022 411.036 871.022 411.42C871.022 411.696 870.96 412.027 870.838 412.411C870.73 412.779 870.584 413.141 870.4 413.494C870.215 413.832 870 414.124 869.754 414.37C869.524 414.6 869.286 414.715 869.04 414.715C868.763 414.715 868.494 414.639 868.233 414.485C867.972 414.316 867.688 414.139 867.38 413.955C867.089 413.77 866.774 413.601 866.436 413.448C866.113 413.279 865.744 413.194 865.329 413.194ZM879.088 427.645C879.088 427.814 878.973 428.213 878.743 428.843C878.512 429.473 878.205 430.211 877.821 431.056C877.452 431.901 877.022 432.792 876.53 433.729C876.038 434.666 875.539 435.527 875.032 436.31C874.525 437.094 874.026 437.739 873.534 438.246C873.058 438.769 872.628 439.03 872.243 439.03C872.059 439.03 871.829 438.976 871.552 438.869C871.275 438.761 871.007 438.623 870.745 438.454C870.5 438.3 870.284 438.123 870.1 437.924C869.916 437.739 869.823 437.555 869.823 437.37C869.823 437.217 869.977 436.833 870.284 436.218C870.607 435.619 870.999 434.835 871.46 433.867C871.921 432.915 872.412 431.816 872.935 430.572C873.457 429.327 873.918 427.99 874.318 426.561C874.41 426.254 874.54 426.016 874.709 425.847C874.878 425.663 875.109 425.57 875.401 425.57C875.677 425.57 876.023 425.632 876.438 425.755C876.853 425.862 877.252 426.016 877.636 426.216C878.036 426.4 878.374 426.615 878.65 426.861C878.942 427.107 879.088 427.368 879.088 427.645ZM893.654 417.735C893.301 417.704 893.016 417.473 892.801 417.043C892.586 416.613 892.479 416.137 892.479 415.614C892.479 415.368 892.502 415.13 892.548 414.9C892.578 414.654 892.64 414.439 892.732 414.254C892.824 414.07 892.939 413.924 893.078 413.817C893.216 413.694 893.377 413.632 893.562 413.632C894.13 413.632 894.783 413.617 895.521 413.586C896.258 413.54 897.05 413.494 897.895 413.448C898.325 413.402 898.563 413.148 898.609 412.687C898.747 410.459 898.939 408.539 899.185 406.926C899.431 405.312 899.731 403.952 900.084 402.846C900.437 401.725 900.837 400.818 901.282 400.127C901.743 399.435 902.25 398.905 902.804 398.536C902.973 398.414 903.172 398.291 903.403 398.168C903.633 398.029 903.848 397.96 904.048 397.96C904.432 397.96 904.832 398.06 905.247 398.26C905.677 398.444 906.069 398.69 906.422 398.997C906.791 399.289 907.09 399.627 907.321 400.011C907.551 400.38 907.666 400.749 907.666 401.118C907.666 401.256 907.636 401.371 907.574 401.463C907.513 401.54 907.436 401.617 907.344 401.694C906.745 402.139 906.214 402.639 905.754 403.192C905.293 403.745 904.901 404.421 904.578 405.22C904.255 406.019 903.987 406.979 903.772 408.101C903.556 409.223 903.395 410.575 903.288 412.157C903.288 412.403 903.326 412.587 903.403 412.71C903.495 412.818 903.656 412.872 903.887 412.872C904.486 412.872 905.085 412.826 905.684 412.733C906.299 412.641 906.883 412.549 907.436 412.457C907.989 412.349 908.511 412.249 909.003 412.157C909.495 412.065 909.933 412.019 910.317 412.019C910.593 412.019 910.793 412.188 910.916 412.526C911.054 412.849 911.123 413.248 911.123 413.724C911.123 414.001 911.1 414.285 911.054 414.577C911.008 414.869 910.931 415.13 910.824 415.361C910.732 415.591 910.609 415.791 910.455 415.96C910.301 416.114 910.109 416.206 909.879 416.236L903.748 416.882C903.426 416.928 903.226 417.058 903.149 417.274C903.088 417.489 903.057 417.788 903.057 418.172C903.057 421.568 903.142 424.487 903.311 426.93C903.48 429.373 903.664 431.424 903.864 433.084C904.079 434.758 904.271 436.072 904.44 437.025C904.609 437.993 904.693 438.692 904.693 439.122C904.693 439.445 904.563 439.737 904.302 439.998C904.056 440.259 903.733 440.482 903.334 440.666C902.95 440.851 902.527 440.989 902.066 441.081C901.605 441.189 901.175 441.242 900.775 441.242C900.391 441.242 900.046 441.173 899.738 441.035C899.446 440.912 899.277 440.697 899.231 440.39C899.078 439.314 898.947 438.131 898.839 436.84C898.732 435.565 898.64 434.144 898.563 432.577C898.501 431.025 898.455 429.327 898.425 427.483C898.394 425.624 898.379 423.588 898.379 421.376C898.379 420.807 898.379 420.254 898.379 419.717C898.379 419.179 898.394 418.641 898.425 418.103C898.425 417.642 898.171 417.412 897.664 417.412L893.654 417.735ZM924.56 410.29C925.405 410.29 926.219 410.421 927.003 410.682C927.786 410.943 928.478 411.304 929.077 411.765C929.676 412.226 930.152 412.779 930.506 413.425C930.875 414.07 931.059 414.785 931.059 415.568C931.059 415.891 930.982 416.206 930.829 416.513C930.69 416.805 930.498 417.066 930.252 417.297C930.007 417.512 929.722 417.688 929.4 417.827C929.092 417.95 928.77 418.011 928.432 418.011C928.401 418.011 928.37 418.019 928.339 418.034C928.324 418.034 928.301 418.034 928.27 418.034C928.24 418.049 928.209 418.057 928.178 418.057L928.27 419.901C928.332 422.098 928.639 423.704 929.192 424.718C929.761 425.732 930.498 426.239 931.405 426.239C931.727 426.239 932.012 426.208 932.257 426.147C932.519 426.085 932.757 426.016 932.972 425.939C933.202 425.847 933.417 425.77 933.617 425.709C933.817 425.647 934.017 425.617 934.216 425.617C934.57 425.617 934.877 425.77 935.138 426.077C935.415 426.385 935.553 426.754 935.553 427.184C935.553 427.614 935.384 428.044 935.046 428.474C934.723 428.905 934.293 429.296 933.755 429.65C933.218 429.988 932.611 430.264 931.935 430.479C931.259 430.695 930.575 430.802 929.884 430.802C928.685 430.802 927.633 430.31 926.726 429.327C925.82 428.328 925.174 426.869 924.79 424.948C924.698 424.641 924.575 424.487 924.422 424.487C924.237 424.487 924.076 424.579 923.938 424.764C922.416 426.684 920.795 428.129 919.075 429.097C917.354 430.049 915.656 430.526 913.981 430.526C913.198 430.526 912.491 430.41 911.861 430.18C911.231 429.949 910.693 429.627 910.248 429.212C909.817 428.782 909.479 428.267 909.234 427.668C909.003 427.053 908.888 426.369 908.888 425.617C908.888 424.556 909.118 423.442 909.579 422.275C910.056 421.107 910.693 419.955 911.492 418.818C912.291 417.681 913.213 416.598 914.258 415.568C915.318 414.539 916.424 413.632 917.577 412.849C918.744 412.065 919.927 411.443 921.126 410.982C922.324 410.521 923.469 410.29 924.56 410.29ZM923.799 418.265C924.076 417.742 924.329 417.366 924.56 417.135C924.79 416.889 925.121 416.728 925.551 416.651C925.889 416.605 926.058 416.498 926.058 416.329C926.058 416.206 926.012 416.075 925.92 415.937C925.628 415.537 925.32 415.192 924.998 414.9C924.675 414.592 924.245 414.439 923.707 414.439C923.123 414.439 922.47 414.608 921.748 414.946C921.026 415.284 920.288 415.737 919.536 416.306C918.798 416.859 918.068 417.496 917.346 418.219C916.639 418.925 916.009 419.655 915.456 420.408C914.903 421.161 914.458 421.906 914.12 422.644C913.782 423.381 913.613 424.042 913.613 424.626C913.613 425.148 913.751 425.555 914.027 425.847C914.319 426.139 914.711 426.285 915.203 426.285C916.463 426.285 917.838 425.617 919.328 424.28C920.819 422.943 922.309 420.938 923.799 418.265ZM942.052 410.429C943.082 410.429 944.142 410.567 945.233 410.844C946.324 411.105 947.322 411.45 948.229 411.881C949.135 412.295 949.881 412.764 950.464 413.286C951.048 413.809 951.34 414.316 951.34 414.808C951.34 415.053 951.233 415.33 951.018 415.637C950.802 415.929 950.541 416.213 950.234 416.49C949.927 416.751 949.589 416.974 949.22 417.158C948.867 417.327 948.552 417.412 948.275 417.412C947.906 417.412 947.491 417.258 947.03 416.951C946.585 416.644 946.086 416.306 945.532 415.937C944.995 415.553 944.403 415.207 943.758 414.9C943.113 414.592 942.413 414.439 941.661 414.439C941.169 414.439 940.762 414.562 940.439 414.808C940.132 415.038 939.978 415.368 939.978 415.799C939.978 416.183 940.163 416.574 940.531 416.974C940.9 417.358 941.384 417.758 941.983 418.172C942.598 418.587 943.289 419.025 944.057 419.486C944.826 419.947 945.609 420.439 946.408 420.961C947.223 421.483 948.014 422.052 948.782 422.667C949.55 423.281 950.234 423.949 950.833 424.672C951.448 425.394 951.939 426.185 952.308 427.045C952.677 427.891 952.861 428.812 952.861 429.811C952.861 430.672 952.708 431.455 952.4 432.162C952.093 432.869 951.655 433.476 951.087 433.983C950.518 434.49 949.842 434.881 949.059 435.158C948.275 435.435 947.415 435.573 946.477 435.573C945.294 435.573 944.203 435.388 943.205 435.02C942.206 434.666 941.346 434.175 940.623 433.545C939.901 432.915 939.333 432.162 938.918 431.286C938.519 430.41 938.319 429.45 938.319 428.405C938.319 427.053 938.557 426.07 939.033 425.455C939.525 424.841 940.293 424.533 941.338 424.533C941.983 424.533 942.498 424.656 942.882 424.902C943.266 425.148 943.458 425.448 943.458 425.801C943.458 425.985 943.427 426.177 943.366 426.377C943.305 426.561 943.235 426.761 943.159 426.976C943.097 427.176 943.036 427.391 942.974 427.622C942.928 427.852 942.905 428.083 942.905 428.313C942.905 428.713 942.997 429.097 943.182 429.465C943.366 429.834 943.612 430.157 943.919 430.433C944.242 430.725 944.611 430.956 945.025 431.125C945.44 431.294 945.878 431.378 946.339 431.378C947.568 431.378 948.183 430.871 948.183 429.857C948.183 429.058 947.868 428.305 947.238 427.599C946.608 426.876 945.817 426.177 944.864 425.501C943.911 424.81 942.882 424.119 941.776 423.427C940.685 422.736 939.663 422.014 938.711 421.261C937.758 420.508 936.967 419.709 936.337 418.864C935.707 418.003 935.392 417.074 935.392 416.075C935.392 415.245 935.561 414.485 935.899 413.794C936.252 413.102 936.729 412.511 937.328 412.019C937.927 411.512 938.626 411.12 939.425 410.844C940.239 410.567 941.115 410.429 942.052 410.429ZM955.834 403.814C955.834 403 956.065 402.431 956.526 402.109C956.987 401.771 957.747 401.602 958.807 401.602C959.192 401.602 959.514 401.64 959.775 401.717C960.052 401.778 960.282 401.901 960.467 402.086C960.667 402.27 960.82 402.516 960.928 402.823C961.051 403.115 961.151 403.492 961.227 403.952C961.412 405.381 961.611 406.856 961.827 408.377C962.057 409.899 962.295 411.427 962.541 412.964C962.633 413.655 962.994 414.001 963.624 414.001C963.793 414.001 964.07 413.986 964.454 413.955C964.853 413.909 965.322 413.863 965.86 413.817C966.398 413.755 966.974 413.694 967.588 413.632C968.218 413.571 968.841 413.517 969.455 413.471C970.085 413.409 970.677 413.363 971.23 413.333C971.798 413.286 972.298 413.263 972.728 413.263C973.066 413.263 973.335 413.333 973.534 413.471C973.734 413.594 973.888 413.763 973.995 413.978C974.118 414.178 974.195 414.408 974.226 414.669C974.272 414.915 974.295 415.169 974.295 415.43C974.295 415.66 974.249 415.898 974.157 416.144C974.08 416.39 973.965 416.613 973.811 416.813C973.673 416.997 973.496 417.151 973.281 417.274C973.066 417.397 972.82 417.458 972.543 417.458C971.207 417.458 969.855 417.504 968.487 417.596C967.135 417.673 965.783 417.781 964.431 417.919C963.739 418.011 963.394 418.357 963.394 418.956C963.394 419.002 963.401 419.064 963.417 419.14C963.432 419.202 963.44 419.256 963.44 419.302C963.624 420.638 963.793 421.891 963.947 423.058C964.116 424.226 964.254 425.271 964.362 426.193C964.485 427.099 964.577 427.86 964.638 428.474C964.715 429.074 964.754 429.473 964.754 429.673C964.754 430.226 964.7 430.687 964.592 431.056C964.485 431.44 964.308 431.747 964.062 431.977C963.816 432.223 963.486 432.392 963.071 432.485C962.672 432.592 962.165 432.646 961.55 432.646C960.966 432.646 960.536 432.508 960.259 432.231C959.983 431.954 959.829 431.532 959.798 430.963C959.706 429.15 959.56 427.33 959.361 425.501C959.161 423.658 958.93 421.822 958.669 419.993C958.531 419.332 958.185 419.002 957.632 419.002C957.586 419.002 957.532 419.01 957.471 419.025C957.409 419.041 957.355 419.048 957.309 419.048C956.357 419.263 955.458 419.478 954.613 419.694C953.768 419.909 952.977 420.139 952.239 420.385C951.824 420.523 951.455 420.623 951.133 420.685C950.81 420.731 950.518 420.754 950.257 420.754C949.904 420.754 949.642 420.6 949.473 420.293C949.304 419.97 949.22 419.571 949.22 419.094C949.22 418.925 949.235 418.733 949.266 418.518C949.297 418.288 949.358 418.065 949.45 417.85C949.527 417.619 949.65 417.412 949.819 417.227C949.973 417.028 950.188 416.866 950.464 416.744C951.11 416.482 951.97 416.213 953.046 415.937C954.121 415.645 955.335 415.376 956.687 415.13C956.994 415.053 957.233 414.93 957.402 414.761C957.586 414.577 957.678 414.308 957.678 413.955C957.678 413.878 957.678 413.801 957.678 413.724C957.678 413.632 957.663 413.54 957.632 413.448C957.386 412.034 957.148 410.751 956.918 409.599C956.703 408.431 956.51 407.433 956.341 406.603C956.188 405.773 956.065 405.12 955.973 404.644C955.88 404.168 955.834 403.891 955.834 403.814ZM992.571 425.386C993.017 425.002 993.455 424.81 993.885 424.81C994.131 424.81 994.353 424.871 994.553 424.994C994.753 425.117 994.976 425.309 995.222 425.57C995.452 425.924 995.613 426.216 995.705 426.446C995.813 426.661 995.867 426.876 995.867 427.092C995.867 427.552 995.636 427.99 995.175 428.405C994.438 429.02 993.639 429.573 992.779 430.065C991.918 430.541 991.019 430.948 990.082 431.286C989.145 431.624 988.177 431.878 987.178 432.047C986.179 432.231 985.188 432.323 984.205 432.323C982.961 432.323 981.793 432.162 980.702 431.839C979.611 431.532 978.635 431.086 977.775 430.502C976.93 429.919 976.216 429.22 975.632 428.405C975.048 427.576 974.633 426.646 974.387 425.617C974.249 425.186 974.118 424.91 973.995 424.787C973.888 424.649 973.703 424.579 973.442 424.579C972.874 424.579 972.436 424.441 972.129 424.165C971.821 423.888 971.668 423.489 971.668 422.966C971.668 422.751 971.683 422.613 971.714 422.551L971.76 422.09C971.837 421.537 971.983 421.138 972.198 420.892C972.428 420.646 972.782 420.523 973.258 420.523H973.604C974.249 420.523 974.702 420.224 974.963 419.624C975.44 418.564 976.047 417.596 976.784 416.72C977.522 415.845 978.351 415.099 979.273 414.485C980.195 413.855 981.178 413.371 982.223 413.033C983.283 412.68 984.359 412.503 985.45 412.503C986.587 412.503 987.647 412.672 988.63 413.01C989.629 413.333 990.497 413.786 991.234 414.37C991.972 414.954 992.548 415.637 992.963 416.421C993.393 417.204 993.608 418.049 993.608 418.956C993.608 419.586 993.485 420.162 993.239 420.685C992.994 421.207 992.64 421.668 992.179 422.067C991.718 422.451 991.158 422.766 990.497 423.012C989.852 423.258 989.114 423.419 988.284 423.496L980.287 424.303C979.98 424.303 979.726 424.38 979.527 424.533C979.342 424.687 979.25 424.894 979.25 425.156C979.25 425.555 979.396 425.939 979.688 426.308C979.995 426.677 980.395 427.007 980.886 427.299C981.393 427.576 981.97 427.798 982.615 427.967C983.276 428.136 983.952 428.221 984.643 428.221C985.304 428.221 985.98 428.159 986.671 428.036C987.378 427.898 988.069 427.706 988.745 427.46C989.437 427.214 990.105 426.923 990.75 426.585C991.396 426.231 992.003 425.832 992.571 425.386ZM987.432 419.44C987.662 419.394 987.862 419.286 988.031 419.117C988.2 418.933 988.284 418.71 988.284 418.449C988.284 418.219 988.2 418.003 988.031 417.804C987.862 417.604 987.631 417.427 987.339 417.274C987.048 417.105 986.71 416.974 986.325 416.882C985.941 416.79 985.534 416.744 985.104 416.744C984.474 416.744 983.829 416.836 983.168 417.02C982.507 417.204 981.908 417.45 981.37 417.758C980.833 418.049 980.395 418.38 980.057 418.749C979.719 419.102 979.55 419.455 979.55 419.809C979.55 420.162 979.765 420.339 980.195 420.339C980.456 420.339 980.879 420.308 981.463 420.247C982.046 420.185 982.692 420.116 983.398 420.039C984.105 419.947 984.82 419.847 985.542 419.74C986.264 419.632 986.894 419.532 987.432 419.44ZM1009.83 413.194C1009.26 413.194 1008.77 413.348 1008.34 413.655C1007.9 413.947 1007.54 414.362 1007.23 414.9C1006.92 415.422 1006.67 416.044 1006.47 416.767C1006.27 417.473 1006.11 418.249 1005.98 419.094C1005.86 419.939 1005.78 420.823 1005.73 421.745C1005.68 422.667 1005.66 423.596 1005.66 424.533C1005.66 425.763 1005.71 426.976 1005.8 428.175C1005.91 429.358 1005.96 430.456 1005.96 431.47C1005.96 432.131 1005.72 432.646 1005.22 433.015C1004.73 433.399 1004.03 433.591 1003.13 433.591C1002.96 433.591 1002.77 433.575 1002.55 433.545C1002.34 433.514 1002.13 433.452 1001.93 433.36C1001.74 433.268 1001.57 433.138 1001.42 432.969C1001.28 432.815 1001.21 432.6 1001.19 432.323C1001.05 430.971 1000.85 429.588 1000.59 428.175C1000.33 426.761 1000 425.355 999.6 423.957C999.216 422.544 998.748 421.145 998.195 419.763C997.657 418.38 997.035 417.028 996.328 415.706C996.205 415.476 996.097 415.261 996.005 415.061C995.928 414.861 995.89 414.669 995.89 414.485C995.89 414.254 995.99 414.009 996.189 413.747C996.405 413.471 996.666 413.217 996.973 412.987C997.296 412.756 997.641 412.572 998.01 412.434C998.394 412.28 998.763 412.203 999.116 412.203C999.7 412.203 1000.21 412.61 1000.66 413.425C1001.11 414.224 1001.52 415.507 1001.91 417.274C1001.98 417.581 1002.04 417.796 1002.09 417.919C1002.14 418.042 1002.2 418.103 1002.27 418.103C1002.44 418.103 1002.55 417.842 1002.6 417.32C1002.78 415.86 1003.1 414.608 1003.54 413.563C1003.99 412.503 1004.54 411.635 1005.2 410.959C1005.88 410.267 1006.65 409.76 1007.51 409.438C1008.38 409.115 1009.34 408.954 1010.39 408.954C1010.99 408.954 1011.59 409.007 1012.21 409.115C1012.82 409.223 1013.37 409.384 1013.87 409.599C1014.36 409.814 1014.76 410.075 1015.06 410.383C1015.37 410.69 1015.53 411.036 1015.53 411.42C1015.53 411.696 1015.46 412.027 1015.34 412.411C1015.23 412.779 1015.09 413.141 1014.9 413.494C1014.72 413.832 1014.5 414.124 1014.26 414.37C1014.03 414.6 1013.79 414.715 1013.54 414.715C1013.27 414.715 1013 414.639 1012.74 414.485C1012.48 414.316 1012.19 414.139 1011.88 413.955C1011.59 413.77 1011.28 413.601 1010.94 413.448C1010.62 413.279 1010.25 413.194 1009.83 413.194Z" fill="#0072E5"/>
<path d="M321.933 402.676C321.802 404.418 321.316 406.112 320.506 407.656C316.631 415.734 304.325 422.828 299.087 425.569C298.806 425.721 298.492 425.804 298.17 425.811C297.848 425.818 297.528 425.749 297.237 425.609C296.946 425.469 296.692 425.263 296.496 425.008C296.3 424.752 296.168 424.455 296.111 424.141C294.971 418.34 292.803 404.302 296.701 396.235C297.398 394.637 298.416 393.199 299.692 392.006C300.969 390.813 302.479 389.89 304.133 389.292C305.786 388.694 307.549 388.434 309.316 388.525C311.083 388.617 312.818 389.06 314.417 389.828C316.017 390.595 317.448 391.671 318.625 392.992C319.803 394.312 320.702 395.85 321.271 397.514C321.839 399.178 322.064 400.934 321.933 402.676Z" fill="#0072E5"/>
<path d="M365.924 282.468C342.892 271.418 319.685 271.959 314.064 283.676L288.629 336.693C283.008 348.41 297.161 366.874 320.14 377.899C343.119 388.923 366.379 388.408 372 376.691L397.435 323.674C403.056 311.957 388.955 293.517 365.924 282.468ZM361.578 371.691C360.307 374.342 345.393 376.97 325.227 367.295C305.062 357.621 297.778 344.344 299.05 341.693L304.722 329.87C311.127 338.03 320.977 345.691 332.858 351.39C344.738 357.09 356.877 359.979 367.25 359.868L361.578 371.691ZM373.151 347.568C363.961 349.355 350.555 346.836 337.945 340.787C325.335 334.737 314.981 325.856 310.623 317.57L317.77 302.672C323.319 310.747 333.122 318.907 345.575 324.882C358.029 330.856 370.528 333.396 380.299 332.67L373.151 347.568ZM350.662 314.278C330.497 304.604 323.214 291.326 324.485 288.676C325.757 286.025 340.671 283.397 360.837 293.071C381.002 302.746 388.285 316.023 387.014 318.674C385.742 321.325 370.828 323.953 350.662 314.278Z" fill="#0072E5"/>
<path d="M453.482 321.581C456.57 321.581 459.75 321.996 463.023 322.825C466.296 323.609 469.292 324.646 472.011 325.937C474.731 327.181 476.966 328.587 478.718 330.154C480.47 331.722 481.345 333.243 481.345 334.718C481.345 335.455 481.023 336.285 480.377 337.207C479.732 338.083 478.948 338.935 478.027 339.765C477.105 340.549 476.091 341.217 474.984 341.77C473.924 342.277 472.979 342.531 472.15 342.531C471.043 342.531 469.799 342.07 468.416 341.148C467.079 340.226 465.581 339.212 463.922 338.106C462.309 336.953 460.534 335.916 458.598 334.994C456.662 334.072 454.565 333.611 452.306 333.611C450.831 333.611 449.61 333.98 448.642 334.718C447.72 335.409 447.259 336.4 447.259 337.691C447.259 338.843 447.812 340.018 448.918 341.217C450.025 342.369 451.477 343.568 453.274 344.812C455.118 346.057 457.192 347.37 459.497 348.753C461.802 350.136 464.152 351.611 466.549 353.178C468.992 354.745 471.366 356.451 473.671 358.295C475.975 360.138 478.027 362.143 479.824 364.31C481.668 366.476 483.143 368.85 484.249 371.431C485.355 373.967 485.909 376.732 485.909 379.728C485.909 382.309 485.448 384.66 484.526 386.781C483.604 388.901 482.29 390.722 480.585 392.243C478.879 393.764 476.851 394.939 474.5 395.769C472.15 396.599 469.568 397.013 466.757 397.013C463.207 397.013 459.935 396.46 456.939 395.354C453.943 394.294 451.361 392.819 449.195 390.929C447.029 389.039 445.323 386.781 444.079 384.153C442.88 381.526 442.281 378.645 442.281 375.511C442.281 371.454 442.995 368.504 444.424 366.661C445.899 364.817 448.204 363.895 451.338 363.895C453.274 363.895 454.818 364.264 455.971 365.001C457.123 365.739 457.699 366.638 457.699 367.698C457.699 368.251 457.607 368.827 457.423 369.426C457.238 369.979 457.031 370.579 456.8 371.224C456.616 371.823 456.432 372.468 456.247 373.16C456.109 373.851 456.04 374.543 456.04 375.234C456.04 376.433 456.316 377.585 456.87 378.691C457.423 379.797 458.16 380.765 459.082 381.595C460.05 382.471 461.156 383.162 462.401 383.669C463.645 384.176 464.959 384.43 466.342 384.43C470.029 384.43 471.873 382.909 471.873 379.867C471.873 377.47 470.928 375.211 469.038 373.091C467.148 370.924 464.775 368.827 461.917 366.799C459.059 364.725 455.971 362.65 452.652 360.576C449.379 358.502 446.314 356.336 443.456 354.077C440.598 351.818 438.225 349.422 436.335 346.886C434.445 344.305 433.5 341.517 433.5 338.52C433.5 336.031 434.007 333.75 435.021 331.675C436.081 329.601 437.51 327.827 439.308 326.352C441.105 324.831 443.203 323.655 445.6 322.825C448.043 321.996 450.67 321.581 453.482 321.581Z" fill="#0072E5"/>
<path d="M569.43 302.844C569.43 300.447 570.122 298.742 571.505 297.727C572.887 296.713 575.169 296.206 578.35 296.206C579.456 296.206 580.424 296.322 581.254 296.552C582.083 296.783 582.775 297.174 583.328 297.727C583.881 298.234 584.319 298.949 584.641 299.871C585.01 300.747 585.31 301.876 585.54 303.259C586.139 307.361 586.739 311.671 587.338 316.188C587.983 320.659 588.582 325.13 589.136 329.601C589.735 334.026 590.288 338.359 590.795 342.6C591.302 346.794 591.74 350.712 592.109 354.354C592.523 357.949 592.823 361.152 593.007 363.964C593.238 366.73 593.353 368.919 593.353 370.533C593.353 372.192 593.192 373.598 592.869 374.75C592.593 375.902 592.086 376.824 591.348 377.516C590.657 378.207 589.735 378.714 588.582 379.037C587.476 379.313 586.093 379.452 584.434 379.452C582.821 379.452 581.53 379.037 580.562 378.207C579.64 377.377 579.179 376.11 579.179 374.404C579.179 372.653 579.041 370.325 578.764 367.421C578.488 364.471 578.119 361.199 577.658 357.603C577.197 354.008 576.667 350.182 576.068 346.126C575.515 342.07 574.916 338.059 574.27 334.095C573.671 330.131 573.072 326.329 572.473 322.687C571.92 319 571.413 315.75 570.952 312.938C570.491 310.081 570.122 307.753 569.845 305.955C569.569 304.111 569.43 303.074 569.43 302.844Z" fill="#0072E5"/>
<path d="M614.787 311.072C613.45 311.072 612.182 310.887 610.984 310.518C609.832 310.104 608.818 309.55 607.942 308.859C607.112 308.122 606.444 307.269 605.937 306.301C605.43 305.333 605.176 304.273 605.176 303.12C605.176 301.184 605.937 299.617 607.458 298.419C609.025 297.22 611.099 296.621 613.68 296.621C614.879 296.621 616.031 296.852 617.137 297.313C618.244 297.727 619.212 298.304 620.041 299.041C620.917 299.779 621.609 300.654 622.116 301.668C622.623 302.636 622.876 303.65 622.876 304.711C622.876 306.693 622.139 308.26 620.664 309.412C619.235 310.518 617.276 311.072 614.787 311.072ZM605.314 332.159C605.314 330.546 606.006 329.233 607.389 328.218C608.818 327.158 610.684 326.628 612.989 326.628C617.137 326.628 619.35 328.057 619.627 330.915C619.811 332.897 619.995 335.133 620.18 337.622C620.41 340.111 620.618 342.761 620.802 345.573C621.032 348.338 621.217 351.219 621.355 354.215C621.539 357.165 621.701 360.092 621.839 362.996C621.977 365.854 622.093 368.62 622.185 371.293C622.277 373.967 622.323 376.409 622.323 378.622C622.323 380.927 621.493 382.655 619.834 383.808C618.221 384.96 615.847 385.536 612.713 385.536C611.284 385.536 610.154 385.19 609.325 384.499C608.541 383.854 608.149 382.886 608.149 381.595C608.149 375.234 607.988 369.288 607.665 363.757C607.389 358.179 607.066 353.224 606.697 348.892C606.375 344.559 606.052 340.963 605.729 338.106C605.453 335.202 605.314 333.22 605.314 332.159Z" fill="#0072E5"/>
<path d="M671.689 327.665C673.902 327.665 675.999 327.85 677.981 328.218C679.963 328.541 681.761 328.91 683.374 329.325C684.988 329.693 686.37 330.062 687.523 330.431C688.675 330.754 689.505 330.915 690.012 330.915C690.427 330.915 690.818 330.708 691.187 330.293C691.556 329.832 692.017 329.348 692.57 328.841C693.123 328.334 693.861 327.873 694.782 327.458C695.704 326.997 696.926 326.767 698.447 326.767C700.198 326.767 701.581 327.227 702.595 328.149C703.609 329.025 704.116 330.131 704.116 331.468C704.116 348.338 703.54 362.674 702.388 374.474C701.236 386.227 699.369 395.792 696.788 403.167C694.206 410.542 690.864 415.889 686.762 419.208C682.66 422.526 677.682 424.186 671.828 424.186C669.154 424.186 666.366 423.586 663.462 422.388C660.604 421.19 657.977 419.645 655.58 417.756C653.183 415.912 651.201 413.861 649.634 411.602C648.113 409.343 647.352 407.177 647.352 405.103C647.352 404.411 647.721 403.605 648.458 402.683C649.196 401.761 650.095 400.862 651.155 399.986C652.215 399.111 653.321 398.373 654.473 397.774C655.626 397.175 656.617 396.875 657.446 396.875C658.322 396.875 659.06 397.221 659.659 397.912C660.258 398.65 660.811 399.549 661.318 400.609C661.871 401.669 662.425 402.821 662.978 404.066C663.531 405.356 664.222 406.532 665.052 407.592C665.882 408.652 666.896 409.528 668.094 410.219C669.293 410.957 670.791 411.326 672.588 411.326C682.637 411.326 688.537 395.976 690.288 365.278C690.288 363.895 689.896 363.204 689.113 363.204C688.468 363.204 687.961 363.526 687.592 364.172C683.259 370.025 678.189 374.427 672.381 377.377C666.619 380.281 660.212 381.733 653.16 381.733C649.887 381.733 646.868 381.249 644.102 380.281C641.337 379.267 638.94 377.884 636.912 376.133C634.93 374.335 633.386 372.215 632.279 369.772C631.173 367.283 630.62 364.563 630.62 361.613C630.62 358.709 631.127 355.852 632.141 353.04C633.201 350.182 634.653 347.509 636.497 345.02C638.387 342.484 640.622 340.157 643.204 338.036C645.785 335.916 648.596 334.095 651.639 332.574C654.681 331.007 657.884 329.809 661.249 328.979C664.66 328.103 668.14 327.665 671.689 327.665ZM655.303 369.011C661.618 369.011 667.403 367.029 672.657 363.065C677.912 359.055 682.406 353.247 686.14 345.642C686.232 345.365 686.301 345.158 686.347 345.02C686.393 344.835 686.416 344.651 686.416 344.467C686.416 344.006 685.932 343.522 684.964 343.015C683.996 342.508 682.729 342.07 681.162 341.701C679.595 341.332 677.797 341.033 675.769 340.802C673.787 340.525 671.782 340.387 669.754 340.387C666.481 340.387 663.323 340.94 660.281 342.047C657.239 343.153 654.543 344.628 652.192 346.472C649.841 348.315 647.951 350.413 646.522 352.763C645.093 355.114 644.379 357.557 644.379 360.092C644.379 362.812 645.37 364.978 647.352 366.592C649.38 368.205 652.03 369.011 655.303 369.011Z" fill="#0072E5"/>
<path d="M713.796 315.013C713.796 310.034 717.023 307.545 723.476 307.545C724.582 307.545 725.55 307.845 726.38 308.444C727.209 309.043 727.693 309.873 727.832 310.933C728.246 313.745 728.615 316.534 728.938 319.299C729.261 322.065 729.56 325.176 729.837 328.633C730.159 332.044 730.459 336.008 730.736 340.525C731.058 344.997 731.404 350.343 731.773 356.566C731.773 357.211 731.865 357.672 732.049 357.949C732.28 358.225 732.533 358.364 732.81 358.364C733.225 358.364 733.639 357.949 734.054 357.119C735.621 353.662 737.373 350.574 739.309 347.854C741.245 345.089 743.319 342.761 745.532 340.871C747.744 338.935 750.072 337.483 752.515 336.515C755.004 335.501 757.539 334.994 760.12 334.994C763.531 334.994 766.62 335.962 769.385 337.898C772.151 339.834 774.502 342.577 776.438 346.126C778.373 349.675 779.871 353.985 780.932 359.055C781.992 364.079 782.522 369.703 782.522 375.925C782.522 377.631 782.384 379.037 782.107 380.143C781.877 381.203 781.462 382.056 780.863 382.701C780.263 383.347 779.434 383.784 778.373 384.015C777.313 384.292 776 384.43 774.432 384.43C772.266 384.43 770.699 384.015 769.731 383.185C768.809 382.356 768.348 381.065 768.348 379.313C768.348 374.981 768.048 370.901 767.449 367.075C766.896 363.204 766.113 359.816 765.098 356.912C764.084 354.008 762.886 351.703 761.503 349.998C760.166 348.292 758.714 347.44 757.147 347.44C753.598 347.44 750.049 350.32 746.5 356.082C742.996 361.844 739.332 370.533 735.506 382.148C735.138 383.208 734.723 384.084 734.262 384.775C733.801 385.467 733.248 386.02 732.602 386.435C732.003 386.85 731.266 387.126 730.39 387.265C729.514 387.449 728.477 387.541 727.279 387.541C724.836 387.541 723.084 387.08 722.024 386.158C721.01 385.236 720.457 383.715 720.364 381.595C720.088 373.575 719.581 365.923 718.843 358.64C718.152 351.311 717.414 344.697 716.631 338.797C715.893 332.851 715.225 327.827 714.626 323.724C714.073 319.576 713.796 316.672 713.796 315.013Z" fill="#0072E5"/>
<path d="M798.217 301.738C798.217 299.295 798.908 297.589 800.291 296.621C801.674 295.607 803.955 295.1 807.136 295.1C808.288 295.1 809.256 295.215 810.04 295.446C810.87 295.63 811.561 295.999 812.114 296.552C812.713 297.105 813.174 297.843 813.497 298.765C813.866 299.64 814.165 300.77 814.396 302.152C814.949 306.439 815.548 310.864 816.193 315.427C816.885 319.991 817.599 324.577 818.337 329.186C818.613 331.261 819.697 332.298 821.586 332.298C822.093 332.298 822.923 332.252 824.075 332.159C825.274 332.021 826.68 331.883 828.293 331.745C829.906 331.56 831.635 331.376 833.479 331.192C835.368 331.007 837.235 330.846 839.079 330.708C840.969 330.523 842.743 330.385 844.403 330.293C846.108 330.154 847.606 330.085 848.897 330.085C849.911 330.085 850.718 330.293 851.317 330.708C851.916 331.076 852.377 331.583 852.7 332.229C853.068 332.828 853.299 333.519 853.391 334.303C853.529 335.04 853.598 335.801 853.598 336.584C853.598 337.276 853.46 337.99 853.184 338.728C852.953 339.465 852.607 340.134 852.146 340.733C851.732 341.286 851.202 341.747 850.556 342.116C849.911 342.484 849.173 342.669 848.344 342.669C844.334 342.669 840.277 342.807 836.175 343.084C832.119 343.314 828.062 343.637 824.006 344.052C821.932 344.328 820.895 345.365 820.895 347.163C820.895 347.301 820.918 347.486 820.964 347.716C821.01 347.9 821.033 348.062 821.033 348.2C821.586 352.21 822.093 355.967 822.554 359.47C823.061 362.973 823.476 366.108 823.799 368.873C824.168 371.593 824.444 373.874 824.629 375.718C824.859 377.516 824.974 378.714 824.974 379.313C824.974 380.973 824.813 382.356 824.49 383.462C824.168 384.614 823.638 385.536 822.9 386.227C822.163 386.965 821.171 387.472 819.927 387.749C818.729 388.071 817.207 388.233 815.364 388.233C813.612 388.233 812.322 387.818 811.492 386.988C810.662 386.158 810.201 384.891 810.109 383.185C809.832 377.746 809.395 372.284 808.795 366.799C808.196 361.268 807.505 355.759 806.721 350.274C806.306 348.292 805.269 347.301 803.61 347.301C803.471 347.301 803.31 347.324 803.126 347.37C802.941 347.417 802.78 347.44 802.642 347.44C799.784 348.085 797.087 348.73 794.552 349.375C792.017 350.021 789.643 350.712 787.431 351.45C786.186 351.865 785.08 352.164 784.112 352.349C783.144 352.487 782.268 352.556 781.485 352.556C780.425 352.556 779.641 352.095 779.134 351.173C778.627 350.205 778.373 349.007 778.373 347.578C778.373 347.071 778.42 346.495 778.512 345.849C778.604 345.158 778.788 344.49 779.065 343.844C779.295 343.153 779.664 342.531 780.171 341.977C780.632 341.378 781.277 340.894 782.107 340.525C784.043 339.742 786.624 338.935 789.851 338.106C793.077 337.23 796.719 336.423 800.775 335.686C801.697 335.455 802.411 335.086 802.918 334.579C803.471 334.026 803.748 333.22 803.748 332.159C803.748 331.929 803.748 331.699 803.748 331.468C803.748 331.192 803.702 330.915 803.61 330.638C802.872 326.398 802.158 322.549 801.466 319.092C800.821 315.589 800.245 312.593 799.738 310.104C799.277 307.615 798.908 305.656 798.632 304.227C798.355 302.798 798.217 301.968 798.217 301.738Z" fill="#0072E5"/>
<path d="M908.427 366.453C909.764 365.301 911.077 364.725 912.368 364.725C913.105 364.725 913.774 364.909 914.373 365.278C914.972 365.647 915.641 366.223 916.378 367.006C917.07 368.067 917.554 368.942 917.83 369.634C918.153 370.279 918.314 370.924 918.314 371.57C918.314 372.952 917.623 374.266 916.24 375.511C914.027 377.354 911.63 379.014 909.049 380.489C906.468 381.918 903.771 383.139 900.96 384.153C898.148 385.167 895.244 385.928 892.248 386.435C889.252 386.988 886.279 387.265 883.329 387.265C879.595 387.265 876.092 386.781 872.82 385.813C869.547 384.891 866.62 383.554 864.039 381.802C861.504 380.051 859.36 377.954 857.609 375.511C855.857 373.022 854.613 370.233 853.875 367.145C853.46 365.854 853.068 365.024 852.7 364.656C852.377 364.241 851.824 364.033 851.04 364.033C849.335 364.033 848.021 363.618 847.099 362.789C846.177 361.959 845.716 360.761 845.716 359.193C845.716 358.548 845.763 358.133 845.855 357.949L845.993 356.566C846.223 354.907 846.661 353.708 847.307 352.971C847.998 352.233 849.058 351.865 850.487 351.865H851.524C853.46 351.865 854.82 350.966 855.604 349.168C857.032 345.988 858.853 343.084 861.066 340.456C863.278 337.829 865.767 335.593 868.533 333.75C871.298 331.86 874.248 330.408 877.383 329.394C880.563 328.334 883.79 327.804 887.062 327.804C890.473 327.804 893.654 328.311 896.604 329.325C899.6 330.293 902.204 331.652 904.417 333.404C906.629 335.156 908.358 337.207 909.602 339.558C910.893 341.908 911.538 344.443 911.538 347.163C911.538 349.053 911.17 350.781 910.432 352.349C909.695 353.916 908.634 355.299 907.252 356.497C905.869 357.649 904.186 358.594 902.204 359.332C900.268 360.069 898.056 360.553 895.567 360.784L871.575 363.204C870.653 363.204 869.893 363.434 869.293 363.895C868.74 364.356 868.464 364.978 868.464 365.762C868.464 366.96 868.902 368.113 869.777 369.219C870.699 370.325 871.898 371.316 873.373 372.192C874.894 373.022 876.622 373.69 878.558 374.197C880.54 374.704 882.568 374.958 884.643 374.958C886.625 374.958 888.653 374.773 890.727 374.404C892.847 373.99 894.921 373.413 896.95 372.676C899.024 371.938 901.029 371.063 902.965 370.049C904.901 368.988 906.721 367.79 908.427 366.453ZM893.009 348.615C893.7 348.477 894.299 348.154 894.806 347.647C895.313 347.094 895.567 346.425 895.567 345.642C895.567 344.95 895.313 344.305 894.806 343.706C894.299 343.107 893.608 342.577 892.732 342.116C891.856 341.609 890.842 341.217 889.69 340.94C888.538 340.664 887.316 340.525 886.025 340.525C884.136 340.525 882.2 340.802 880.218 341.355C878.236 341.908 876.438 342.646 874.825 343.568C873.211 344.443 871.898 345.434 870.884 346.541C869.87 347.601 869.363 348.661 869.363 349.721C869.363 350.781 870.008 351.311 871.298 351.311C872.082 351.311 873.35 351.219 875.101 351.035C876.853 350.85 878.789 350.643 880.909 350.413C883.029 350.136 885.173 349.836 887.339 349.514C889.505 349.191 891.395 348.892 893.009 348.615Z" fill="#0072E5"/>
<path d="M960.213 329.878C958.508 329.878 957.01 330.339 955.719 331.261C954.429 332.136 953.322 333.381 952.4 334.994C951.479 336.561 950.718 338.428 950.119 340.595C949.52 342.715 949.036 345.043 948.667 347.578C948.298 350.113 948.045 352.763 947.906 355.529C947.768 358.295 947.699 361.083 947.699 363.895C947.699 367.583 947.837 371.224 948.114 374.819C948.436 378.368 948.598 381.664 948.598 384.706C948.598 386.688 947.86 388.233 946.385 389.339C944.91 390.491 942.813 391.067 940.093 391.067C939.586 391.067 939.01 391.021 938.365 390.929C937.72 390.837 937.097 390.652 936.498 390.376C935.945 390.099 935.438 389.708 934.977 389.2C934.562 388.74 934.332 388.094 934.286 387.265C933.871 383.208 933.271 379.06 932.488 374.819C931.704 370.579 930.713 366.361 929.515 362.167C928.363 357.926 926.957 353.731 925.297 349.583C923.684 345.434 921.817 341.378 919.697 337.414C919.328 336.723 919.005 336.077 918.729 335.478C918.498 334.879 918.383 334.303 918.383 333.75C918.383 333.058 918.683 332.321 919.282 331.537C919.927 330.708 920.711 329.947 921.633 329.256C922.601 328.564 923.638 328.011 924.744 327.596C925.896 327.135 927.003 326.905 928.063 326.905C929.814 326.905 931.359 328.126 932.695 330.569C934.032 332.966 935.277 336.815 936.429 342.116C936.659 343.038 936.844 343.683 936.982 344.052C937.12 344.42 937.305 344.605 937.535 344.605C938.042 344.605 938.365 343.821 938.503 342.254C939.056 337.875 940.001 334.118 941.338 330.984C942.675 327.804 944.334 325.199 946.316 323.171C948.344 321.097 950.649 319.576 953.23 318.608C955.857 317.64 958.738 317.156 961.873 317.156C963.67 317.156 965.491 317.317 967.335 317.64C969.179 317.963 970.838 318.447 972.313 319.092C973.788 319.737 974.986 320.521 975.908 321.443C976.83 322.365 977.291 323.402 977.291 324.554C977.291 325.384 977.107 326.375 976.738 327.527C976.415 328.633 975.977 329.717 975.424 330.777C974.871 331.791 974.226 332.667 973.488 333.404C972.797 334.095 972.082 334.441 971.345 334.441C970.515 334.441 969.709 334.211 968.925 333.75C968.141 333.243 967.289 332.713 966.367 332.159C965.491 331.606 964.546 331.099 963.532 330.638C962.564 330.131 961.458 329.878 960.213 329.878Z" fill="#0072E5"/>
<path fill-rule="evenodd" clip-rule="evenodd" d="M548.888 374.059L547.92 363.895C547.643 362.097 546.975 361.199 545.915 361.199C545.177 361.199 544.371 361.775 543.495 362.927C539.208 368.458 534.622 372.515 529.736 375.096C524.896 377.631 519.618 378.899 513.903 378.899C510.492 378.899 507.335 378.415 504.431 377.447C501.573 376.479 499.107 375.142 497.033 373.436C494.958 371.731 493.322 369.703 492.124 367.352C490.971 364.955 490.395 362.351 490.395 359.539C490.395 356.405 491.04 353.409 492.331 350.551C493.622 347.693 495.373 345.043 497.586 342.6C499.798 340.157 502.356 337.944 505.26 335.962C508.21 333.934 511.299 332.206 514.525 330.777C517.798 329.348 521.117 328.265 524.481 327.527C527.892 326.743 531.165 326.352 534.299 326.352C537.618 326.352 540.407 326.536 542.665 326.905C544.97 327.274 546.86 327.665 548.335 328.08C548.98 327.297 549.626 326.72 550.271 326.352C550.962 325.983 551.631 325.799 552.276 325.799C553.152 325.799 554.074 325.96 555.042 326.283C556.056 326.559 556.977 326.951 557.807 327.458C558.683 327.965 559.397 328.541 559.951 329.186C560.504 329.832 560.78 330.5 560.78 331.192C560.78 331.699 560.688 332.183 560.504 332.643C560.319 333.104 560.112 333.565 559.881 334.026C559.697 334.441 559.513 334.902 559.328 335.409C559.19 335.916 559.121 336.446 559.121 336.999C559.121 338.106 559.213 339.788 559.397 342.047C559.628 344.305 559.904 346.886 560.227 349.79C560.596 352.648 560.965 355.667 561.333 358.848C561.748 362.028 562.14 365.07 562.509 367.974L564.721 386.85L568.317 416.027C568.317 417.041 567.994 417.986 567.349 418.862C566.749 419.738 565.966 420.498 564.998 421.143C564.03 421.789 562.947 422.296 561.748 422.665C560.55 423.033 559.374 423.218 558.222 423.218C557.162 423.218 556.286 422.918 555.595 422.319C554.903 421.766 554.511 421.028 554.419 420.106C554.004 415.635 553.52 411.187 552.967 406.762C552.46 402.337 551.953 397.82 551.446 393.211L548.888 374.059ZM523.583 365.07C521.416 365.716 519.181 366.038 516.876 366.038C512.82 366.038 509.731 365.255 507.611 363.688C505.491 362.074 504.431 359.747 504.431 356.704C504.431 354.492 505.306 352.325 507.058 350.205C508.81 348.085 511.114 346.195 513.972 344.536C516.83 342.876 520.079 341.54 523.721 340.525C527.362 339.511 531.073 339.004 534.852 339.004C536.835 339.004 538.586 339.143 540.107 339.419C541.905 339.696 542.804 340.595 542.804 342.116C542.804 342.392 542.735 342.692 542.596 343.015C542.504 343.337 542.389 343.683 542.251 344.052C540.268 348.384 538.263 351.98 536.235 354.838C534.207 357.649 532.133 359.885 530.013 361.544C527.938 363.204 525.795 364.379 523.583 365.07Z" fill="#0072E5"/>
</svg>
