<svg width="1208" height="720" viewBox="0 0 1208 720" fill="none" xmlns="http://www.w3.org/2000/svg">
<rect width="1208" height="720" fill="#0072E5"/>
<path d="M424.08 335.712C423.657 337.404 422.863 338.461 421.7 338.884C420.537 339.255 419.373 339.202 418.21 338.726C417.1 338.25 416.148 337.43 415.355 336.267C414.614 335.104 414.403 333.835 414.72 332.46C415.513 328.864 416.65 324.898 418.131 320.562C419.664 316.173 421.171 311.811 422.652 307.475C421.859 306.258 421.224 305.042 420.748 303.826C420.272 302.557 420.034 301.235 420.034 299.86C420.034 298.485 420.537 297.058 421.542 295.577C422.599 294.043 423.842 292.642 425.269 291.373C426.75 290.104 428.257 289.073 429.791 288.28C431.377 287.434 432.725 287.011 433.836 287.011C435.792 287.011 437.246 287.672 438.198 288.994C439.203 290.316 439.705 292.087 439.705 294.308C439.705 295.524 439.494 296.74 439.071 297.956C438.701 299.12 438.278 300.23 437.802 301.288C437.326 302.293 436.876 303.165 436.453 303.905C436.083 304.646 435.872 305.122 435.819 305.333C437.722 308.717 439.705 311.705 441.768 314.296C443.83 316.887 445.707 319.452 447.399 321.99C449.144 324.528 450.572 327.225 451.682 330.08C452.793 332.936 453.348 336.293 453.348 340.154C453.348 341.105 453.269 342.084 453.11 343.088C453.004 344.093 452.819 345.045 452.555 345.944C454.458 345.574 456.124 344.992 457.552 344.199C459.032 343.406 460.301 342.507 461.359 341.502C462.469 340.444 463.368 339.307 464.056 338.091C464.796 336.875 465.404 335.606 465.88 334.284C466.462 332.751 467.043 331.64 467.625 330.953C468.207 330.265 468.868 329.922 469.608 329.922C470.295 329.922 470.983 330.159 471.67 330.635C472.411 331.058 473.045 331.614 473.574 332.301C474.156 332.988 474.605 333.702 474.922 334.443C475.293 335.183 475.478 335.844 475.478 336.426C475.478 337.219 475.266 338.171 474.843 339.281C474.42 340.391 473.838 341.528 473.098 342.692C472.411 343.855 471.617 344.992 470.719 346.102C469.82 347.16 468.894 348.085 467.942 348.878C465.404 350.941 462.417 352.686 458.979 354.113C455.542 355.488 451.286 356.361 446.209 356.731C444.253 358.423 441.926 359.798 439.229 360.855C436.585 361.966 433.598 362.521 430.266 362.521C428.574 362.521 426.829 362.31 425.031 361.887C423.286 361.464 421.594 360.908 419.955 360.221C418.369 359.586 416.915 358.872 415.593 358.079C414.271 357.286 413.213 356.493 412.42 355.7C410.411 353.796 409.115 351.893 408.533 349.989C407.952 348.032 407.82 346.287 408.137 344.754C408.401 343.22 408.956 341.978 409.802 341.026C410.649 340.021 411.521 339.519 412.42 339.519C412.949 339.519 413.768 339.757 414.879 340.233C416.042 340.656 417.364 341.238 418.845 341.978C420.325 342.665 421.938 343.406 423.683 344.199C425.428 344.992 427.173 345.759 428.918 346.499C430.663 347.186 432.355 347.768 433.994 348.244C435.687 348.667 437.22 348.878 438.595 348.878C439.494 347.821 440.313 346.42 441.054 344.675C441.794 342.93 442.164 341.026 442.164 338.964C442.164 336.426 441.82 334.072 441.133 331.904C440.446 329.736 439.547 327.727 438.436 325.876C437.326 324.026 436.057 322.307 434.629 320.721C433.254 319.081 431.853 317.548 430.425 316.12C429.156 319.24 428.046 322.333 427.094 325.4C426.142 328.414 425.137 331.852 424.08 335.712ZM483.33 362.521C480.157 362.521 477.355 361.887 474.922 360.617C472.543 359.348 470.533 357.63 468.894 355.462C467.255 353.241 466.012 350.65 465.166 347.689C464.373 344.675 463.977 341.449 463.977 338.012C463.977 331.243 465.061 325.162 467.229 319.769C469.397 314.375 472.278 309.801 475.874 306.047C479.47 302.24 483.568 299.331 488.168 297.322C492.822 295.313 497.634 294.308 502.604 294.308C504.825 294.308 506.623 294.916 507.998 296.132C509.373 297.348 510.06 299.014 510.06 301.129C510.06 302.504 509.901 303.482 509.584 304.064C509.32 304.593 508.791 304.857 507.998 304.857C507.258 304.857 506.491 304.804 505.698 304.698C504.904 304.593 504.085 304.54 503.239 304.54C500.172 304.54 497.052 305.227 493.879 306.602C490.707 307.924 487.825 309.986 485.234 312.789C482.695 315.539 480.607 319.055 478.968 323.338C477.328 327.568 476.509 332.618 476.509 338.488C476.509 342.771 477.328 346.076 478.968 348.403C480.607 350.676 482.854 351.813 485.71 351.813C487.349 351.813 488.777 351.337 489.993 350.385C491.209 349.434 492.266 348.217 493.165 346.737C494.064 345.256 494.778 343.643 495.307 341.898C495.889 340.101 496.338 338.382 496.655 336.743V318.341C496.655 317.548 496.603 316.887 496.497 316.358C496.444 315.829 496.365 315.38 496.259 315.01C496.206 314.64 496.127 314.322 496.021 314.058C495.968 313.741 495.942 313.45 495.942 313.185C495.942 312.339 496.365 311.678 497.211 311.203C498.057 310.674 499.061 310.409 500.225 310.409C502.922 310.409 505.037 311.123 506.57 312.551C508.156 313.926 508.95 315.591 508.95 317.548V362.362C512.281 358.925 515.374 354.959 518.23 350.465C521.138 345.97 523.518 340.577 525.368 334.284C525.844 332.592 526.4 331.376 527.034 330.635C527.722 329.842 528.462 329.446 529.255 329.446C529.89 329.446 530.551 329.657 531.238 330.08C531.925 330.45 532.533 330.953 533.062 331.587C533.644 332.222 534.093 332.936 534.411 333.729C534.781 334.522 534.966 335.315 534.966 336.108C534.966 336.214 534.966 336.426 534.966 336.743C534.966 337.06 534.913 337.377 534.807 337.695C533.538 341.978 532.084 345.838 530.445 349.275C528.806 352.659 527.034 355.726 525.13 358.476C523.28 361.226 521.323 363.684 519.261 365.852C517.252 368.02 515.216 370.003 513.154 371.801C515.586 374.498 517.78 377.089 519.737 379.574C521.693 382.113 523.333 384.651 524.655 387.189C526.029 389.727 527.087 392.318 527.827 394.962C528.568 397.606 528.938 400.382 528.938 403.29C528.938 406.516 528.488 409.451 527.589 412.095C526.743 414.739 525.58 417.012 524.099 418.916C522.672 420.82 520.98 422.3 519.023 423.358C517.067 424.415 515.004 424.944 512.836 424.944C507.337 424.944 503.265 423.014 500.621 419.154C497.977 415.347 496.655 410.112 496.655 403.449V356.572C495.016 358.264 493.113 359.666 490.945 360.776C488.777 361.939 486.238 362.521 483.33 362.521ZM517.437 405.115C517.437 403.158 517.304 401.202 517.04 399.245C516.829 397.289 516.406 395.332 515.771 393.376C515.136 391.419 514.264 389.41 513.154 387.348C512.043 385.285 510.642 383.144 508.95 380.923V404.956C508.95 406.86 509.082 408.42 509.346 409.636C509.664 410.852 510.034 411.777 510.457 412.412C510.88 413.099 511.329 413.575 511.805 413.84C512.281 414.104 512.73 414.236 513.154 414.236C514.211 414.236 515.189 413.496 516.088 412.015C516.987 410.588 517.437 408.287 517.437 405.115ZM538.377 309.933C538.958 308.823 539.513 307.342 540.042 305.492C540.624 303.588 541.153 301.499 541.629 299.226C542.157 296.952 542.633 294.572 543.056 292.087C543.479 289.602 543.849 287.169 544.167 284.79C544.484 282.41 544.722 280.189 544.881 278.127C545.092 276.012 545.198 274.214 545.198 272.733C545.198 267.34 544.801 263.4 544.008 260.915C543.215 258.377 542.157 257.108 540.835 257.108C540.412 257.108 540.042 257.319 539.725 257.742C539.408 258.165 539.143 258.721 538.932 259.408C538.72 260.043 538.562 260.756 538.456 261.55C538.403 262.29 538.377 262.977 538.377 263.612V309.933ZM561.458 334.443C561.775 332.856 562.251 331.719 562.886 331.032C563.573 330.292 564.287 329.895 565.027 329.842C565.82 329.736 566.614 329.922 567.407 330.397C568.2 330.82 568.887 331.402 569.469 332.142C570.051 332.883 570.474 333.729 570.738 334.681C571.055 335.58 571.108 336.478 570.897 337.377C570.157 339.545 569.099 342.084 567.724 344.992C566.349 347.9 564.604 350.65 562.489 353.241C560.374 355.832 557.889 358.026 555.033 359.824C552.178 361.622 548.899 362.521 545.198 362.521C542.078 362.521 539.328 361.992 536.949 360.935C534.569 359.93 532.56 358.502 530.921 356.652C529.334 354.748 528.118 352.501 527.272 349.91C526.479 347.266 526.082 344.331 526.082 341.105V267.181C526.082 264.167 526.452 261.391 527.193 258.853C527.986 256.262 529.043 254.067 530.365 252.269C531.74 250.419 533.327 248.991 535.125 247.986C536.922 246.929 538.826 246.4 540.835 246.4C543.215 246.4 545.224 246.849 546.864 247.748C548.503 248.594 549.851 249.731 550.909 251.159C551.966 252.587 552.786 254.226 553.368 256.077C554.002 257.927 554.452 259.831 554.716 261.788C554.98 263.691 555.139 265.595 555.192 267.498C555.245 269.349 555.271 271.041 555.271 272.575C555.271 276.541 554.901 280.718 554.161 285.107C553.42 289.443 552.469 293.726 551.305 297.956C550.195 302.187 548.952 306.258 547.577 310.171C546.255 314.032 544.96 317.469 543.691 320.483C542.475 323.497 541.364 325.956 540.359 327.859C539.408 329.763 538.747 330.873 538.377 331.191V340.629C538.377 343.908 539.064 346.605 540.439 348.72C541.814 350.782 544.008 351.813 547.022 351.813C548.873 351.813 550.591 351.258 552.178 350.148C553.817 348.984 555.245 347.556 556.461 345.864C557.73 344.119 558.788 342.242 559.634 340.233C560.48 338.171 561.088 336.24 561.458 334.443ZM570.5 279.872C569.178 279.872 567.909 279.608 566.693 279.079C565.53 278.55 564.499 277.836 563.6 276.937C562.754 276.038 562.066 275.007 561.537 273.844C561.009 272.628 560.744 271.332 560.744 269.957C560.744 268.53 561.009 267.208 561.537 265.991C562.066 264.775 562.754 263.744 563.6 262.898C564.499 261.999 565.53 261.312 566.693 260.836C567.909 260.307 569.178 260.043 570.5 260.043C571.928 260.043 573.25 260.307 574.466 260.836C575.682 261.312 576.713 261.999 577.56 262.898C578.458 263.744 579.146 264.775 579.622 265.991C580.151 267.208 580.415 268.53 580.415 269.957C580.415 271.332 580.151 272.628 579.622 273.844C579.146 275.007 578.458 276.038 577.56 276.937C576.713 277.836 575.682 278.55 574.466 279.079C573.25 279.608 571.928 279.872 570.5 279.872ZM574.228 344.357C574.228 344.727 574.255 345.336 574.307 346.182C574.36 346.975 574.519 347.794 574.783 348.641C575.048 349.487 575.471 350.227 576.052 350.861C576.634 351.496 577.454 351.813 578.511 351.813C580.098 351.813 581.473 351.232 582.636 350.068C583.852 348.905 584.883 347.451 585.729 345.706C586.628 343.961 587.368 342.084 587.95 340.074C588.532 338.012 589.008 336.082 589.378 334.284C589.695 332.645 590.171 331.455 590.806 330.715C591.493 329.974 592.207 329.578 592.947 329.525C593.74 329.419 594.507 329.604 595.247 330.08C596.041 330.556 596.728 331.191 597.31 331.984C597.944 332.724 598.394 333.57 598.658 334.522C598.975 335.474 599.028 336.373 598.817 337.219C598.076 339.916 597.098 342.745 595.882 345.706C594.719 348.667 593.212 351.39 591.361 353.875C589.51 356.361 587.289 358.423 584.698 360.062C582.107 361.701 579.067 362.521 575.577 362.521C573.409 362.521 571.478 362.098 569.786 361.252C568.094 360.459 566.667 359.375 565.503 358C564.34 356.625 563.441 355.012 562.806 353.162C562.225 351.311 561.934 349.354 561.934 347.292V303.905C561.934 302.372 561.802 301.261 561.537 300.574C561.326 299.887 561.22 299.252 561.22 298.67C561.22 297.877 561.643 297.243 562.489 296.767C563.335 296.238 564.34 295.974 565.503 295.974C568.2 295.974 570.315 296.687 571.849 298.115C573.435 299.49 574.228 301.156 574.228 303.112V344.357ZM599.768 406.225C599.768 402.101 600.297 398.452 601.355 395.279C602.465 392.107 603.946 389.198 605.797 386.554C607.647 383.91 609.789 381.425 612.221 379.099C614.654 376.825 617.218 374.498 619.915 372.119V355.065C618.276 356.704 616.346 358.079 614.125 359.19C611.957 360.353 609.445 360.935 606.59 360.935C603.417 360.935 600.615 360.3 598.182 359.031C595.803 357.762 593.793 356.043 592.154 353.875C590.515 351.655 589.272 349.064 588.426 346.102C587.633 343.088 587.236 339.863 587.236 336.426C587.236 329.657 588.32 323.576 590.488 318.182C592.656 312.789 595.538 308.215 599.134 304.461C602.73 300.653 606.828 297.745 611.428 295.736C616.082 293.726 620.893 292.721 625.864 292.721C628.085 292.721 629.883 293.33 631.258 294.546C632.632 295.709 633.32 297.375 633.32 299.543C633.32 300.918 633.161 301.896 632.844 302.478C632.58 303.006 632.051 303.271 631.258 303.271C630.517 303.271 629.751 303.218 628.957 303.112C628.164 303.006 627.345 302.953 626.499 302.953C623.432 302.953 620.312 303.641 617.139 305.016C613.966 306.338 611.084 308.4 608.493 311.203C605.955 313.952 603.867 317.469 602.227 321.752C600.588 325.982 599.768 331.032 599.768 336.901C599.768 341.132 600.588 344.41 602.227 346.737C603.867 349.064 606.114 350.227 608.969 350.227C610.609 350.227 612.036 349.751 613.253 348.799C614.469 347.794 615.526 346.552 616.425 345.071C617.324 343.591 618.038 341.978 618.567 340.233C619.148 338.435 619.598 336.716 619.915 335.077V316.755C619.915 315.221 619.783 314.111 619.519 313.423C619.307 312.736 619.201 312.101 619.201 311.52C619.201 310.727 619.624 310.066 620.47 309.537C621.316 309.008 622.321 308.744 623.484 308.744C626.181 308.744 628.296 309.458 629.83 310.885C631.416 312.26 632.209 313.952 632.209 315.962V360.142C635.171 356.863 637.867 353.135 640.3 348.958C642.785 344.78 644.847 339.889 646.487 334.284C647.015 332.592 647.597 331.376 648.232 330.635C648.866 329.842 649.606 329.446 650.453 329.446C651.087 329.446 651.722 329.657 652.356 330.08C653.044 330.45 653.652 330.953 654.18 331.587C654.762 332.222 655.212 332.936 655.529 333.729C655.899 334.522 656.084 335.315 656.084 336.108C656.084 336.214 656.084 336.426 656.084 336.743C656.084 337.06 656.031 337.377 655.925 337.695C654.551 342.401 652.938 346.578 651.087 350.227C649.289 353.823 647.359 357.048 645.297 359.904C643.235 362.759 641.093 365.297 638.872 367.518C636.651 369.792 634.43 371.881 632.209 373.784V401.863C632.209 406.146 631.707 409.742 630.702 412.65C629.751 415.611 628.482 417.991 626.895 419.789C625.309 421.639 623.484 422.961 621.422 423.754C619.413 424.548 617.377 424.944 615.315 424.944C613.041 424.944 610.952 424.442 609.049 423.437C607.145 422.485 605.506 421.163 604.131 419.471C602.756 417.779 601.672 415.796 600.879 413.522C600.139 411.249 599.768 408.816 599.768 406.225ZM615.315 414.712C616.637 414.712 617.615 414.183 618.25 413.126C618.884 412.068 619.307 410.826 619.519 409.398C619.783 408.023 619.915 406.622 619.915 405.194C619.915 403.766 619.915 402.656 619.915 401.863V384.492C617.271 387.136 615.13 390.124 613.49 393.455C611.904 396.786 611.111 400.884 611.111 405.749C611.111 408.287 611.481 410.403 612.221 412.095C612.962 413.84 613.993 414.712 615.315 414.712ZM647.28 257.901C647.28 256.738 647.174 255.812 646.963 255.125C646.804 254.437 646.619 253.909 646.407 253.539C646.249 253.115 646.064 252.798 645.852 252.587C645.693 252.322 645.614 252.058 645.614 251.794C645.614 251.476 645.773 251.212 646.09 251C646.407 250.789 646.83 250.604 647.359 250.445C647.888 250.286 648.443 250.181 649.025 250.128C649.659 250.022 650.267 249.969 650.849 249.969C653.546 249.969 655.661 250.683 657.195 252.111C658.781 253.486 659.574 255.151 659.574 257.108V310.409C660.685 308.136 661.874 306.02 663.143 304.064C664.465 302.107 665.867 300.415 667.347 298.988C668.881 297.507 670.493 296.37 672.186 295.577C673.931 294.731 675.808 294.308 677.817 294.308C680.514 294.308 682.735 294.81 684.48 295.815C686.225 296.82 687.6 298.115 688.604 299.701C689.609 301.288 690.296 303.059 690.667 305.016C691.09 306.972 691.301 308.876 691.301 310.727V344.357C691.301 344.727 691.328 345.336 691.38 346.182C691.433 346.975 691.592 347.794 691.856 348.641C692.121 349.487 692.517 350.227 693.046 350.861C693.628 351.496 694.447 351.813 695.505 351.813C697.144 351.813 698.546 351.232 699.709 350.068C700.925 348.905 701.956 347.451 702.802 345.706C703.701 343.961 704.415 342.084 704.944 340.074C705.525 338.012 706.001 336.082 706.372 334.284C706.689 332.645 707.165 331.455 707.799 330.715C708.487 329.974 709.201 329.578 709.941 329.525C710.734 329.419 711.527 329.604 712.32 330.08C713.114 330.556 713.801 331.191 714.383 331.984C714.964 332.724 715.387 333.57 715.652 334.522C715.969 335.474 716.022 336.373 715.81 337.219C715.07 339.916 714.092 342.745 712.876 345.706C711.712 348.667 710.205 351.39 708.354 353.875C706.504 356.361 704.283 358.423 701.692 360.062C699.101 361.701 696.06 362.521 692.57 362.521C690.402 362.521 688.472 362.098 686.78 361.252C685.141 360.459 683.713 359.375 682.497 358C681.334 356.625 680.435 355.012 679.8 353.162C679.218 351.311 678.928 349.354 678.928 347.292V314.296C678.928 313.027 678.901 311.837 678.848 310.727C678.795 309.616 678.637 308.638 678.372 307.792C678.161 306.946 677.817 306.285 677.341 305.809C676.918 305.28 676.31 305.016 675.517 305.016C674.354 305.016 672.926 305.809 671.234 307.395C669.542 308.982 667.876 311.044 666.237 313.582C664.598 316.12 663.143 319.002 661.874 322.228C660.658 325.4 659.891 328.6 659.574 331.825V355.541C659.574 356.334 659.548 357.154 659.495 358C659.495 358.793 659.336 359.507 659.019 360.142C658.754 360.829 658.305 361.384 657.67 361.807C657.089 362.283 656.216 362.521 655.053 362.521C654.26 362.521 653.387 362.415 652.435 362.204C651.537 362.045 650.69 361.701 649.897 361.173C649.157 360.697 648.522 359.983 647.994 359.031C647.518 358.132 647.28 356.916 647.28 355.383V257.901ZM692.412 281.617C693.628 281.723 694.976 281.802 696.457 281.855C697.726 281.961 699.259 282.04 701.057 282.093C702.855 282.093 704.865 282.119 707.085 282.172V254.649C707.085 253.486 706.98 252.56 706.768 251.873C706.61 251.185 706.424 250.657 706.213 250.286C706.054 249.863 705.869 249.546 705.658 249.335C705.499 249.07 705.42 248.806 705.42 248.542C705.42 248.224 705.578 247.96 705.896 247.748C706.213 247.537 706.636 247.352 707.165 247.193C707.694 247.034 708.249 246.929 708.83 246.876C709.465 246.77 710.073 246.717 710.655 246.717C713.352 246.717 715.467 247.431 717 248.859C718.586 250.234 719.38 251.899 719.38 253.856V282.331C724.35 282.331 729.585 282.278 735.085 282.172C740.637 282.066 746.189 281.881 751.741 281.617C752.482 280.824 753.063 280.533 753.486 280.745C753.962 280.956 754.253 281.458 754.359 282.252C754.517 283.045 754.544 284.023 754.438 285.186C754.332 286.35 754.121 287.487 753.804 288.597C753.486 289.655 753.037 290.58 752.455 291.373C751.926 292.166 751.318 292.563 750.631 292.563C744.127 292.721 738.363 292.827 733.34 292.88C728.369 292.88 723.716 292.88 719.38 292.88V344.357C719.38 347.001 719.882 348.905 720.887 350.068C721.891 351.232 723.24 351.813 724.932 351.813C726.571 351.813 727.972 351.232 729.136 350.068C730.352 348.905 731.383 347.451 732.229 345.706C733.128 343.961 733.842 342.084 734.371 340.074C734.952 338.012 735.428 336.082 735.798 334.284C736.116 332.592 736.645 331.376 737.385 330.635C738.125 329.842 738.892 329.446 739.685 329.446C740.32 329.446 740.981 329.657 741.668 330.08C742.355 330.45 742.963 330.953 743.492 331.587C744.074 332.222 744.523 332.936 744.841 333.729C745.211 334.522 745.396 335.315 745.396 336.108C745.396 336.214 745.396 336.346 745.396 336.505C745.396 336.664 745.343 336.901 745.237 337.219C744.55 339.916 743.598 342.745 742.382 345.706C741.218 348.667 739.685 351.39 737.781 353.875C735.931 356.361 733.71 358.423 731.119 360.062C728.528 361.701 725.487 362.521 721.997 362.521C719.829 362.521 717.82 362.177 715.969 361.49C714.171 360.855 712.611 359.798 711.289 358.317C709.967 356.89 708.936 355.039 708.196 352.765C707.456 350.491 707.085 347.742 707.085 344.516V292.88C705.288 292.88 703.675 292.88 702.247 292.88C700.872 292.827 699.709 292.774 698.757 292.721C697.647 292.669 696.668 292.616 695.822 292.563C694.553 292.563 693.443 292.008 692.491 290.897C691.486 289.734 690.799 288.465 690.429 287.09C690.006 285.715 689.953 284.472 690.27 283.362C690.534 282.199 691.248 281.617 692.412 281.617ZM773.95 310.727C773.95 313.741 773.421 316.834 772.364 320.007C771.359 323.18 769.826 326.194 767.763 329.049C765.754 331.852 763.242 334.39 760.228 336.664C757.267 338.884 753.83 340.577 749.917 341.74C750.446 343.115 751.133 344.437 751.979 345.706C752.878 346.922 753.936 347.98 755.152 348.878C756.368 349.777 757.769 350.491 759.356 351.02C760.995 351.549 762.872 351.813 764.987 351.813C768.16 351.813 770.883 351.232 773.157 350.068C775.431 348.852 777.334 347.266 778.868 345.309C780.454 343.353 781.723 341.158 782.675 338.726C783.627 336.293 784.341 333.835 784.817 331.349C785.187 329.551 785.927 328.362 787.038 327.78C788.201 327.145 789.364 326.987 790.528 327.304C791.744 327.621 792.775 328.309 793.621 329.366C794.52 330.371 794.89 331.587 794.732 333.015C794.52 334.654 794.15 336.531 793.621 338.646C793.145 340.762 792.405 342.903 791.4 345.071C790.395 347.239 789.1 349.381 787.514 351.496C785.98 353.558 784.077 355.409 781.803 357.048C779.529 358.687 776.859 360.009 773.792 361.014C770.725 362.019 767.208 362.521 763.242 362.521C759.541 362.521 755.945 361.781 752.455 360.3C749.018 358.872 745.951 356.81 743.254 354.113C740.61 351.364 738.469 348.006 736.83 344.04C735.243 340.021 734.45 335.474 734.45 330.397C734.45 325.268 735.164 320.509 736.592 316.12C738.019 311.678 739.897 307.845 742.223 304.619C744.55 301.394 747.194 298.882 750.155 297.084C753.116 295.233 756.157 294.308 759.276 294.308C761.55 294.308 763.586 294.704 765.384 295.498C767.235 296.291 768.795 297.428 770.064 298.908C771.333 300.336 772.285 302.055 772.919 304.064C773.607 306.073 773.95 308.294 773.95 310.727ZM747.775 329.922C747.775 330.397 747.802 330.873 747.855 331.349C747.908 331.825 747.934 332.327 747.934 332.856C749.943 331.904 751.768 330.688 753.407 329.208C755.046 327.727 756.447 326.035 757.611 324.131C758.774 322.228 759.673 320.165 760.308 317.945C760.942 315.671 761.259 313.318 761.259 310.885C761.259 309.087 760.942 307.686 760.308 306.681C759.726 305.677 758.906 305.174 757.849 305.174C756.527 305.174 755.337 305.624 754.279 306.523C753.275 307.422 752.376 308.611 751.583 310.092C750.842 311.52 750.208 313.159 749.679 315.01C749.203 316.808 748.807 318.632 748.489 320.483C748.172 322.333 747.96 324.105 747.855 325.797C747.749 327.436 747.723 328.811 747.775 329.922ZM820.193 362.521C818.289 362.521 816.332 362.23 814.323 361.649C812.367 361.067 810.569 360.062 808.929 358.635C807.343 357.207 806.021 355.33 804.964 353.003C803.959 350.623 803.456 347.636 803.456 344.04C803.456 338.805 804.144 333.279 805.519 327.463C806.946 321.593 808.982 315.142 811.626 308.109H799.253H797.428C797.375 309.695 797.27 311.705 797.111 314.137C797.005 316.57 796.794 319.161 796.477 321.91C796.159 324.66 795.736 327.436 795.207 330.239C794.732 333.041 794.123 335.632 793.383 338.012C792.854 339.704 792.008 340.682 790.845 340.947C789.735 341.211 788.624 341.026 787.514 340.391C786.403 339.704 785.504 338.726 784.817 337.457C784.129 336.188 783.971 334.866 784.341 333.491C784.764 331.852 785.134 329.869 785.451 327.542C785.769 325.162 786.007 322.677 786.165 320.086C786.377 317.442 786.535 314.825 786.641 312.234C786.747 309.59 786.826 307.237 786.879 305.174C784.87 304.064 783.204 302.663 781.882 300.971C780.56 299.226 779.899 297.163 779.899 294.784C779.899 293.673 780.111 292.669 780.534 291.77C781.01 290.818 781.618 290.025 782.358 289.39C783.098 288.703 783.971 288.2 784.975 287.883C785.98 287.513 787.011 287.328 788.069 287.328C789.021 287.328 789.999 287.46 791.004 287.724C792.061 287.989 793.039 288.465 793.938 289.152C794.89 289.84 795.736 290.739 796.477 291.849C797.217 292.959 797.825 294.334 798.301 295.974C799.623 296.132 800.733 296.264 801.632 296.37C802.584 296.423 803.377 296.476 804.012 296.529C804.646 296.582 805.175 296.608 805.598 296.608C806.021 296.608 806.444 296.608 806.867 296.608H815.354C815.83 296.608 816.517 296.899 817.416 297.481C818.368 298.062 819.294 298.829 820.193 299.781C821.091 300.68 821.832 301.658 822.413 302.716C823.048 303.773 823.286 304.778 823.127 305.73C823.127 306.047 822.942 306.814 822.572 308.03C822.202 309.246 821.752 310.78 821.224 312.63C820.695 314.481 820.113 316.623 819.479 319.055C818.844 321.435 818.262 323.946 817.734 326.59C817.205 329.234 816.755 331.984 816.385 334.839C816.015 337.642 815.83 340.391 815.83 343.088C815.83 344.199 815.962 345.283 816.227 346.34C816.491 347.398 816.888 348.35 817.416 349.196C817.945 349.989 818.606 350.623 819.399 351.099C820.245 351.575 821.224 351.813 822.334 351.813C824.185 351.813 825.771 351.232 827.093 350.068C828.415 348.905 829.526 347.451 830.425 345.706C831.323 343.961 832.037 342.084 832.566 340.074C833.148 338.012 833.624 336.082 833.994 334.284C834.311 332.592 834.84 331.376 835.58 330.635C836.32 329.842 837.087 329.446 837.88 329.446C838.515 329.446 839.176 329.657 839.863 330.08C840.551 330.45 841.159 330.953 841.688 331.587C842.269 332.222 842.719 332.936 843.036 333.729C843.406 334.522 843.591 335.315 843.591 336.108C843.591 336.373 843.565 336.584 843.512 336.743C843.459 336.901 843.433 337.06 843.433 337.219C842.692 339.916 841.714 342.745 840.498 345.706C839.335 348.667 837.827 351.39 835.977 353.875C834.126 356.361 831.905 358.423 829.314 360.062C826.723 361.701 823.683 362.521 820.193 362.521Z" fill="white"/>
<path d="M684.401 424.46C684.633 424.016 684.855 423.424 685.067 422.684C685.299 421.922 685.511 421.087 685.701 420.177C685.913 419.268 686.103 418.316 686.272 417.322C686.442 416.328 686.59 415.355 686.717 414.403C686.843 413.451 686.939 412.563 687.002 411.738C687.087 410.892 687.129 410.173 687.129 409.58C687.129 407.423 686.97 405.847 686.653 404.853C686.336 403.838 685.913 403.33 685.384 403.33C685.215 403.33 685.067 403.415 684.94 403.584C684.813 403.753 684.707 403.975 684.623 404.25C684.538 404.504 684.475 404.79 684.432 405.107C684.411 405.403 684.401 405.678 684.401 405.932V424.46ZM693.633 434.264C693.76 433.63 693.95 433.175 694.204 432.9C694.479 432.604 694.765 432.445 695.061 432.424C695.378 432.382 695.695 432.456 696.013 432.646C696.33 432.815 696.605 433.048 696.838 433.344C697.07 433.64 697.239 433.979 697.345 434.359C697.472 434.719 697.493 435.078 697.409 435.438C697.112 436.305 696.689 437.32 696.14 438.484C695.59 439.647 694.892 440.747 694.046 441.783C693.199 442.82 692.205 443.698 691.063 444.417C689.921 445.136 688.61 445.495 687.129 445.495C685.881 445.495 684.781 445.284 683.829 444.861C682.878 444.459 682.074 443.888 681.418 443.148C680.784 442.386 680.297 441.487 679.959 440.451C679.641 439.393 679.483 438.219 679.483 436.929V407.359C679.483 406.154 679.631 405.043 679.927 404.028C680.244 402.992 680.667 402.114 681.196 401.395C681.746 400.654 682.381 400.083 683.1 399.682C683.819 399.258 684.58 399.047 685.384 399.047C686.336 399.047 687.14 399.227 687.795 399.586C688.451 399.925 688.99 400.38 689.413 400.951C689.836 401.522 690.164 402.177 690.397 402.918C690.651 403.658 690.831 404.419 690.936 405.202C691.042 405.963 691.106 406.725 691.127 407.486C691.148 408.227 691.158 408.904 691.158 409.517C691.158 411.103 691.01 412.774 690.714 414.53C690.418 416.264 690.037 417.977 689.572 419.67C689.128 421.362 688.631 422.99 688.081 424.556C687.552 426.1 687.034 427.474 686.526 428.68C686.04 429.886 685.596 430.869 685.194 431.631C684.813 432.392 684.549 432.836 684.401 432.963V436.739C684.401 438.05 684.675 439.129 685.225 439.975C685.775 440.8 686.653 441.212 687.859 441.212C688.599 441.212 689.286 440.99 689.921 440.546C690.577 440.081 691.148 439.51 691.634 438.833C692.142 438.135 692.565 437.384 692.903 436.58C693.242 435.755 693.485 434.983 693.633 434.264ZM697.25 412.436C696.721 412.436 696.214 412.33 695.727 412.119C695.262 411.907 694.849 411.621 694.49 411.262C694.151 410.902 693.876 410.49 693.665 410.025C693.453 409.538 693.348 409.02 693.348 408.47C693.348 407.899 693.453 407.37 693.665 406.884C693.876 406.397 694.151 405.985 694.49 405.646C694.849 405.287 695.262 405.012 695.727 404.821C696.214 404.61 696.721 404.504 697.25 404.504C697.821 404.504 698.35 404.61 698.836 404.821C699.323 405.012 699.735 405.287 700.074 405.646C700.433 405.985 700.708 406.397 700.899 406.884C701.11 407.37 701.216 407.899 701.216 408.47C701.216 409.02 701.11 409.538 700.899 410.025C700.708 410.49 700.433 410.902 700.074 411.262C699.735 411.621 699.323 411.907 698.836 412.119C698.35 412.33 697.821 412.436 697.25 412.436ZM698.741 438.23C698.741 438.378 698.752 438.621 698.773 438.96C698.794 439.277 698.857 439.605 698.963 439.943C699.069 440.282 699.238 440.578 699.471 440.832C699.704 441.085 700.031 441.212 700.454 441.212C701.089 441.212 701.639 440.98 702.104 440.514C702.591 440.049 703.003 439.467 703.342 438.769C703.701 438.071 703.997 437.32 704.23 436.517C704.463 435.692 704.653 434.92 704.801 434.201C704.928 433.545 705.118 433.069 705.372 432.773C705.647 432.477 705.933 432.318 706.229 432.297C706.546 432.255 706.853 432.329 707.149 432.519C707.466 432.709 707.741 432.963 707.974 433.281C708.228 433.577 708.407 433.915 708.513 434.296C708.64 434.677 708.661 435.036 708.577 435.375C708.28 436.453 707.889 437.585 707.403 438.769C706.937 439.954 706.335 441.043 705.594 442.037C704.854 443.031 703.966 443.856 702.929 444.512C701.893 445.168 700.677 445.495 699.281 445.495C698.413 445.495 697.641 445.326 696.964 444.988C696.288 444.671 695.717 444.237 695.251 443.687C694.786 443.137 694.426 442.492 694.172 441.752C693.94 441.011 693.823 440.229 693.823 439.404V422.049C693.823 421.436 693.771 420.992 693.665 420.717C693.58 420.442 693.538 420.188 693.538 419.955C693.538 419.638 693.707 419.384 694.046 419.194C694.384 418.982 694.786 418.876 695.251 418.876C696.33 418.876 697.176 419.162 697.789 419.733C698.424 420.283 698.741 420.949 698.741 421.732V438.23ZM708.957 462.977C708.957 461.327 709.169 459.868 709.592 458.599C710.036 457.33 710.628 456.166 711.369 455.109C712.109 454.051 712.965 453.057 713.938 452.126C714.911 451.217 715.937 450.286 717.016 449.334V442.513C716.36 443.169 715.588 443.719 714.7 444.163C713.833 444.628 712.828 444.861 711.686 444.861C710.417 444.861 709.296 444.607 708.323 444.099C707.371 443.592 706.567 442.904 705.911 442.037C705.256 441.149 704.759 440.112 704.42 438.928C704.103 437.722 703.944 436.432 703.944 435.057C703.944 432.35 704.378 429.917 705.245 427.76C706.112 425.603 707.265 423.773 708.703 422.271C710.142 420.748 711.781 419.585 713.621 418.781C715.482 417.977 717.407 417.576 719.395 417.576C720.284 417.576 721.003 417.819 721.553 418.305C722.103 418.771 722.378 419.437 722.378 420.304C722.378 420.854 722.314 421.245 722.187 421.478C722.082 421.69 721.87 421.795 721.553 421.795C721.257 421.795 720.95 421.774 720.633 421.732C720.316 421.69 719.988 421.668 719.649 421.668C718.423 421.668 717.175 421.943 715.906 422.493C714.636 423.022 713.484 423.847 712.447 424.968C711.432 426.068 710.597 427.474 709.941 429.188C709.285 430.88 708.957 432.9 708.957 435.248C708.957 436.94 709.285 438.251 709.941 439.182C710.597 440.112 711.495 440.578 712.638 440.578C713.293 440.578 713.864 440.387 714.351 440.007C714.837 439.605 715.26 439.108 715.62 438.515C715.98 437.923 716.265 437.278 716.477 436.58C716.709 435.861 716.889 435.174 717.016 434.518V427.189C717.016 426.576 716.963 426.131 716.857 425.856C716.773 425.581 716.73 425.328 716.73 425.095C716.73 424.778 716.9 424.513 717.238 424.302C717.576 424.09 717.978 423.984 718.444 423.984C719.522 423.984 720.368 424.27 720.982 424.841C721.616 425.391 721.934 426.068 721.934 426.872V444.544C723.118 443.232 724.197 441.741 725.17 440.07C726.164 438.399 726.989 436.443 727.645 434.201C727.856 433.524 728.089 433.037 728.343 432.741C728.596 432.424 728.892 432.265 729.231 432.265C729.485 432.265 729.739 432.35 729.992 432.519C730.267 432.667 730.511 432.868 730.722 433.122C730.955 433.376 731.135 433.661 731.261 433.979C731.409 434.296 731.484 434.613 731.484 434.93C731.484 434.973 731.484 435.057 731.484 435.184C731.484 435.311 731.462 435.438 731.42 435.565C730.87 437.447 730.225 439.118 729.485 440.578C728.766 442.016 727.994 443.306 727.169 444.448C726.344 445.591 725.487 446.606 724.599 447.494C723.71 448.404 722.822 449.239 721.934 450.001V461.232C721.934 462.945 721.733 464.384 721.331 465.547C720.95 466.731 720.442 467.683 719.808 468.402C719.173 469.143 718.444 469.672 717.619 469.989C716.815 470.306 716.001 470.465 715.176 470.465C714.266 470.465 713.431 470.264 712.669 469.862C711.908 469.481 711.252 468.952 710.702 468.276C710.152 467.599 709.719 466.805 709.401 465.896C709.105 464.986 708.957 464.014 708.957 462.977ZM715.176 466.372C715.705 466.372 716.096 466.16 716.35 465.737C716.604 465.314 716.773 464.817 716.857 464.246C716.963 463.696 717.016 463.136 717.016 462.565C717.016 461.994 717.016 461.549 717.016 461.232V454.284C715.958 455.341 715.102 456.536 714.446 457.869C713.812 459.202 713.494 460.841 713.494 462.787C713.494 463.802 713.642 464.648 713.938 465.325C714.235 466.023 714.647 466.372 715.176 466.372ZM727.962 403.647C727.962 403.182 727.92 402.812 727.835 402.537C727.771 402.262 727.697 402.05 727.613 401.902C727.549 401.733 727.475 401.606 727.391 401.522C727.327 401.416 727.296 401.31 727.296 401.204C727.296 401.078 727.359 400.972 727.486 400.887C727.613 400.803 727.782 400.729 727.994 400.665C728.205 400.602 728.427 400.559 728.66 400.538C728.914 400.496 729.157 400.475 729.39 400.475C730.468 400.475 731.314 400.76 731.928 401.331C732.562 401.881 732.88 402.548 732.88 403.33V424.651C733.324 423.741 733.8 422.895 734.307 422.113C734.836 421.33 735.397 420.653 735.989 420.082C736.602 419.49 737.247 419.035 737.924 418.718C738.622 418.379 739.373 418.21 740.177 418.21C741.255 418.21 742.144 418.411 742.842 418.813C743.54 419.215 744.09 419.733 744.492 420.368C744.894 421.002 745.168 421.711 745.317 422.493C745.486 423.276 745.57 424.037 745.57 424.778V438.23C745.57 438.378 745.581 438.621 745.602 438.96C745.623 439.277 745.687 439.605 745.792 439.943C745.898 440.282 746.057 440.578 746.268 440.832C746.501 441.085 746.829 441.212 747.252 441.212C747.908 441.212 748.468 440.98 748.933 440.514C749.42 440.049 749.832 439.467 750.171 438.769C750.53 438.071 750.816 437.32 751.027 436.517C751.26 435.692 751.45 434.92 751.599 434.201C751.725 433.545 751.916 433.069 752.17 432.773C752.445 432.477 752.73 432.318 753.026 432.297C753.343 432.255 753.661 432.329 753.978 432.519C754.295 432.709 754.57 432.963 754.803 433.281C755.036 433.577 755.205 433.915 755.311 434.296C755.437 434.677 755.459 435.036 755.374 435.375C755.078 436.453 754.687 437.585 754.2 438.769C753.735 439.954 753.132 441.043 752.392 442.037C751.651 443.031 750.763 443.856 749.727 444.512C748.69 445.168 747.474 445.495 746.078 445.495C745.211 445.495 744.439 445.326 743.762 444.988C743.106 444.671 742.535 444.237 742.049 443.687C741.583 443.137 741.224 442.492 740.97 441.752C740.737 441.011 740.621 440.229 740.621 439.404V426.205C740.621 425.698 740.61 425.222 740.589 424.778C740.568 424.333 740.505 423.942 740.399 423.604C740.314 423.265 740.177 423.001 739.986 422.811C739.817 422.599 739.574 422.493 739.257 422.493C738.791 422.493 738.22 422.811 737.543 423.445C736.867 424.08 736.2 424.905 735.545 425.92C734.889 426.935 734.307 428.088 733.8 429.378C733.313 430.647 733.006 431.927 732.88 433.217V442.703C732.88 443.021 732.869 443.349 732.848 443.687C732.848 444.004 732.784 444.29 732.657 444.544C732.552 444.819 732.372 445.041 732.118 445.21C731.885 445.4 731.536 445.495 731.071 445.495C730.754 445.495 730.405 445.453 730.024 445.369C729.665 445.305 729.326 445.168 729.009 444.956C728.713 444.766 728.459 444.48 728.247 444.099C728.057 443.74 727.962 443.253 727.962 442.64V403.647ZM746.015 413.134C746.501 413.176 747.04 413.208 747.633 413.229C748.14 413.271 748.754 413.303 749.473 413.324C750.192 413.324 750.996 413.335 751.884 413.356V402.347C751.884 401.881 751.842 401.511 751.757 401.236C751.694 400.961 751.62 400.75 751.535 400.602C751.472 400.432 751.398 400.305 751.313 400.221C751.25 400.115 751.218 400.009 751.218 399.904C751.218 399.777 751.281 399.671 751.408 399.586C751.535 399.502 751.704 399.428 751.916 399.364C752.127 399.301 752.349 399.258 752.582 399.237C752.836 399.195 753.079 399.174 753.312 399.174C754.39 399.174 755.237 399.459 755.85 400.031C756.484 400.58 756.802 401.247 756.802 402.029V413.419C758.79 413.419 760.884 413.398 763.084 413.356C765.305 413.314 767.526 413.24 769.746 413.134C770.043 412.817 770.275 412.7 770.444 412.785C770.635 412.869 770.751 413.07 770.793 413.388C770.857 413.705 770.867 414.096 770.825 414.562C770.783 415.027 770.698 415.482 770.571 415.926C770.444 416.349 770.265 416.719 770.032 417.036C769.82 417.354 769.577 417.512 769.302 417.512C766.701 417.576 764.395 417.618 762.386 417.639C760.397 417.639 758.536 417.639 756.802 417.639V438.23C756.802 439.288 757.003 440.049 757.405 440.514C757.806 440.98 758.346 441.212 759.023 441.212C759.678 441.212 760.239 440.98 760.704 440.514C761.191 440.049 761.603 439.467 761.942 438.769C762.301 438.071 762.587 437.32 762.798 436.517C763.031 435.692 763.221 434.92 763.369 434.201C763.496 433.524 763.708 433.037 764.004 432.741C764.3 432.424 764.607 432.265 764.924 432.265C765.178 432.265 765.442 432.35 765.717 432.519C765.992 432.667 766.235 432.868 766.447 433.122C766.679 433.376 766.859 433.661 766.986 433.979C767.134 434.296 767.208 434.613 767.208 434.93C767.208 434.973 767.208 435.026 767.208 435.089C767.208 435.152 767.187 435.248 767.145 435.375C766.87 436.453 766.489 437.585 766.003 438.769C765.537 439.954 764.924 441.043 764.162 442.037C763.422 443.031 762.534 443.856 761.497 444.512C760.461 445.168 759.245 445.495 757.849 445.495C756.982 445.495 756.178 445.358 755.437 445.083C754.718 444.829 754.094 444.406 753.566 443.814C753.037 443.243 752.624 442.503 752.328 441.593C752.032 440.684 751.884 439.584 751.884 438.293V417.639C751.165 417.639 750.52 417.639 749.949 417.639C749.399 417.618 748.933 417.597 748.553 417.576C748.109 417.554 747.717 417.533 747.379 417.512C746.871 417.512 746.427 417.29 746.046 416.846C745.644 416.381 745.369 415.873 745.221 415.323C745.052 414.773 745.031 414.276 745.158 413.832C745.264 413.366 745.549 413.134 746.015 413.134ZM778.63 424.778C778.63 425.983 778.418 427.221 777.995 428.49C777.594 429.759 776.98 430.964 776.155 432.107C775.352 433.228 774.347 434.243 773.141 435.152C771.957 436.041 770.582 436.718 769.017 437.183C769.228 437.733 769.503 438.262 769.842 438.769C770.201 439.256 770.624 439.679 771.111 440.038C771.597 440.398 772.158 440.684 772.792 440.895C773.448 441.107 774.199 441.212 775.045 441.212C776.314 441.212 777.403 440.98 778.313 440.514C779.222 440.028 779.984 439.393 780.597 438.611C781.232 437.828 781.739 436.95 782.12 435.977C782.501 435.004 782.786 434.021 782.977 433.027C783.125 432.308 783.421 431.832 783.865 431.599C784.33 431.345 784.796 431.282 785.261 431.409C785.747 431.536 786.16 431.811 786.498 432.234C786.858 432.635 787.006 433.122 786.942 433.693C786.858 434.349 786.71 435.1 786.498 435.946C786.308 436.792 786.012 437.648 785.61 438.515C785.208 439.383 784.69 440.239 784.055 441.085C783.442 441.91 782.68 442.651 781.771 443.306C780.861 443.962 779.793 444.491 778.567 444.893C777.34 445.295 775.933 445.495 774.347 445.495C772.866 445.495 771.428 445.199 770.032 444.607C768.657 444.036 767.43 443.211 766.352 442.132C765.294 441.033 764.437 439.689 763.782 438.103C763.147 436.496 762.83 434.677 762.83 432.646C762.83 430.594 763.115 428.691 763.687 426.935C764.258 425.158 765.008 423.625 765.939 422.335C766.87 421.044 767.927 420.04 769.112 419.321C770.296 418.58 771.513 418.21 772.76 418.21C773.67 418.21 774.484 418.369 775.203 418.686C775.944 419.003 776.568 419.458 777.075 420.05C777.583 420.621 777.964 421.309 778.218 422.113C778.493 422.916 778.63 423.805 778.63 424.778ZM768.16 432.456C768.16 432.646 768.171 432.836 768.192 433.027C768.213 433.217 768.224 433.418 768.224 433.63C769.027 433.249 769.757 432.762 770.413 432.17C771.068 431.578 771.629 430.901 772.094 430.14C772.56 429.378 772.919 428.553 773.173 427.665C773.427 426.755 773.554 425.814 773.554 424.841C773.554 424.122 773.427 423.561 773.173 423.16C772.94 422.758 772.612 422.557 772.189 422.557C771.661 422.557 771.185 422.737 770.762 423.096C770.36 423.456 770 423.932 769.683 424.524C769.387 425.095 769.133 425.751 768.921 426.491C768.731 427.21 768.573 427.94 768.446 428.68C768.319 429.42 768.234 430.129 768.192 430.806C768.149 431.462 768.139 432.011 768.16 432.456ZM797.127 445.495C796.365 445.495 795.583 445.379 794.779 445.146C793.996 444.914 793.277 444.512 792.622 443.941C791.987 443.37 791.458 442.619 791.035 441.688C790.633 440.736 790.432 439.541 790.432 438.103C790.432 436.009 790.707 433.799 791.257 431.472C791.828 429.124 792.643 426.544 793.7 423.731H788.751H788.021C788 424.365 787.958 425.169 787.894 426.142C787.852 427.115 787.767 428.151 787.64 429.251C787.514 430.351 787.344 431.462 787.133 432.583C786.942 433.704 786.699 434.74 786.403 435.692C786.192 436.369 785.853 436.76 785.388 436.866C784.944 436.971 784.5 436.897 784.055 436.644C783.611 436.369 783.252 435.977 782.977 435.47C782.702 434.962 782.638 434.433 782.786 433.883C782.955 433.228 783.104 432.434 783.23 431.504C783.357 430.552 783.453 429.558 783.516 428.521C783.601 427.464 783.664 426.417 783.706 425.38C783.749 424.323 783.78 423.382 783.802 422.557C782.998 422.113 782.331 421.552 781.803 420.875C781.274 420.177 781.01 419.352 781.01 418.401C781.01 417.956 781.094 417.554 781.263 417.195C781.454 416.814 781.697 416.497 781.993 416.243C782.289 415.968 782.638 415.767 783.04 415.64C783.442 415.492 783.854 415.418 784.277 415.418C784.658 415.418 785.049 415.471 785.451 415.577C785.874 415.683 786.266 415.873 786.625 416.148C787.006 416.423 787.344 416.782 787.64 417.227C787.937 417.671 788.18 418.221 788.37 418.876C788.899 418.94 789.343 418.993 789.703 419.035C790.083 419.056 790.401 419.077 790.655 419.099C790.908 419.12 791.12 419.13 791.289 419.13C791.458 419.13 791.628 419.13 791.797 419.13H795.192C795.382 419.13 795.657 419.247 796.016 419.479C796.397 419.712 796.767 420.019 797.127 420.399C797.486 420.759 797.783 421.15 798.015 421.573C798.269 421.996 798.364 422.398 798.301 422.779C798.301 422.906 798.227 423.212 798.079 423.699C797.931 424.185 797.751 424.799 797.539 425.539C797.328 426.279 797.095 427.136 796.841 428.109C796.588 429.061 796.355 430.066 796.143 431.123C795.932 432.181 795.752 433.281 795.604 434.423C795.456 435.544 795.382 436.644 795.382 437.722C795.382 438.166 795.435 438.6 795.541 439.023C795.646 439.446 795.805 439.827 796.016 440.165C796.228 440.483 796.492 440.736 796.81 440.927C797.148 441.117 797.539 441.212 797.984 441.212C798.724 441.212 799.358 440.98 799.887 440.514C800.416 440.049 800.86 439.467 801.22 438.769C801.579 438.071 801.865 437.32 802.076 436.517C802.309 435.692 802.499 434.92 802.647 434.201C802.774 433.524 802.986 433.037 803.282 432.741C803.578 432.424 803.885 432.265 804.202 432.265C804.456 432.265 804.72 432.35 804.995 432.519C805.27 432.667 805.513 432.868 805.725 433.122C805.958 433.376 806.137 433.661 806.264 433.979C806.412 434.296 806.486 434.613 806.486 434.93C806.486 435.036 806.476 435.121 806.455 435.184C806.434 435.248 806.423 435.311 806.423 435.375C806.127 436.453 805.736 437.585 805.249 438.769C804.784 439.954 804.181 441.043 803.441 442.037C802.7 443.031 801.812 443.856 800.776 444.512C799.739 445.168 798.523 445.495 797.127 445.495ZM809.976 438.928C810.822 438.928 811.563 439.245 812.197 439.88C812.832 440.514 813.149 441.477 813.149 442.767C813.149 443.38 812.969 444.089 812.61 444.893C812.271 445.718 811.848 446.5 811.341 447.24C810.833 448.002 810.294 448.636 809.723 449.144C809.173 449.673 808.697 449.937 808.295 449.937C808.02 449.937 807.766 449.863 807.533 449.715C807.301 449.588 807.1 449.419 806.931 449.208C806.761 449.017 806.624 448.795 806.518 448.541C806.434 448.309 806.391 448.097 806.391 447.907C806.391 447.738 806.434 447.632 806.518 447.589C806.603 447.568 806.719 447.526 806.867 447.463C807.1 447.399 807.428 447.124 807.851 446.638C808.295 446.151 808.739 445.601 809.183 444.988C808.506 444.819 807.935 444.47 807.47 443.941C807.026 443.412 806.804 442.788 806.804 442.069C806.804 441.625 806.888 441.212 807.057 440.832C807.227 440.451 807.459 440.123 807.755 439.848C808.052 439.552 808.39 439.33 808.771 439.182C809.151 439.013 809.553 438.928 809.976 438.928ZM839.8 424.651V426.078C841.28 427.876 842.613 429.727 843.797 431.631C845.003 433.513 846.018 435.501 846.843 437.595C847.689 439.689 848.334 441.9 848.779 444.226C849.244 446.553 849.477 449.059 849.477 451.746C849.477 454.453 849.265 456.949 848.842 459.233C848.44 461.539 847.859 463.516 847.097 465.166C846.357 466.837 845.447 468.138 844.369 469.069C843.311 469.999 842.137 470.465 840.847 470.465C839.705 470.465 838.753 470.179 837.991 469.608C837.23 469.058 836.617 468.318 836.151 467.387C835.707 466.478 835.379 465.441 835.168 464.278C834.977 463.115 834.882 461.93 834.882 460.724V425.761C834.819 425.698 834.745 425.624 834.66 425.539C834.597 425.455 834.533 425.37 834.47 425.285C833.962 424.778 833.497 424.312 833.074 423.889C832.672 423.445 832.471 422.959 832.471 422.43C832.471 422.113 832.587 421.795 832.82 421.478C833.053 421.14 833.433 420.939 833.962 420.875C834.068 420.875 834.195 420.865 834.343 420.844C834.491 420.822 834.671 420.812 834.882 420.812V402.347C834.882 401.881 834.84 401.511 834.755 401.236C834.692 400.961 834.618 400.75 834.533 400.602C834.47 400.432 834.396 400.305 834.311 400.221C834.248 400.115 834.216 400.009 834.216 399.904C834.216 399.777 834.279 399.671 834.406 399.586C834.533 399.502 834.702 399.428 834.914 399.364C835.125 399.301 835.347 399.258 835.58 399.237C835.834 399.195 836.077 399.174 836.31 399.174C837.389 399.174 838.235 399.459 838.848 400.031C839.483 400.58 839.8 401.247 839.8 402.029V420.431C840.561 420.368 841.323 420.315 842.084 420.272C842.846 420.209 843.586 420.156 844.305 420.114C845.024 420.05 845.68 420.008 846.272 419.987C846.886 419.966 847.414 419.955 847.859 419.955C848.578 419.955 849.202 420.093 849.73 420.368C850.259 420.643 850.524 421.118 850.524 421.795C850.524 422.028 850.492 422.366 850.428 422.811C850.386 423.255 850.312 423.71 850.206 424.175C850.122 424.64 849.995 425.042 849.826 425.38C849.678 425.719 849.498 425.888 849.286 425.888C849.18 425.888 849.096 425.856 849.032 425.793C848.99 425.708 848.906 425.624 848.779 425.539C848.673 425.455 848.504 425.37 848.271 425.285C848.059 425.201 847.732 425.137 847.287 425.095L839.8 424.651ZM844.559 451.746C844.559 450.265 844.453 448.732 844.242 447.145C844.051 445.58 843.755 443.994 843.353 442.386C842.951 440.758 842.454 439.15 841.862 437.564C841.27 435.956 840.582 434.402 839.8 432.9V460.724C839.8 461.232 839.821 461.782 839.863 462.374C839.906 462.967 839.98 463.506 840.085 463.992C840.212 464.479 840.371 464.881 840.561 465.198C840.773 465.536 841.037 465.706 841.354 465.706C841.82 465.706 842.253 465.367 842.655 464.69C843.057 464.014 843.396 463.051 843.671 461.803C843.946 460.576 844.157 459.106 844.305 457.393C844.474 455.701 844.559 453.819 844.559 451.746ZM870.702 441.212C871.358 441.212 871.918 440.98 872.384 440.514C872.87 440.049 873.282 439.467 873.621 438.769C873.98 438.071 874.266 437.32 874.478 436.517C874.71 435.692 874.901 434.92 875.049 434.201C875.197 433.524 875.408 433.037 875.683 432.741C875.979 432.424 876.297 432.265 876.635 432.265C876.889 432.265 877.143 432.35 877.396 432.519C877.671 432.667 877.915 432.868 878.126 433.122C878.359 433.376 878.539 433.661 878.666 433.979C878.814 434.296 878.888 434.613 878.888 434.93C878.888 434.973 878.888 435.026 878.888 435.089C878.888 435.152 878.866 435.248 878.824 435.375C878.549 436.453 878.168 437.585 877.682 438.769C877.217 439.954 876.614 441.043 875.874 442.037C875.133 443.031 874.234 443.856 873.177 444.512C872.14 445.168 870.924 445.495 869.528 445.495C868.386 445.495 867.392 445.252 866.546 444.766C865.7 444.279 865.033 443.634 864.547 442.83C863.891 443.571 863.098 444.195 862.167 444.702C861.258 445.231 860.19 445.495 858.963 445.495C857.694 445.495 856.573 445.242 855.6 444.734C854.648 444.226 853.844 443.539 853.189 442.672C852.533 441.783 852.036 440.747 851.697 439.562C851.38 438.357 851.222 437.067 851.222 435.692C851.222 432.984 851.655 430.552 852.522 428.395C853.39 426.237 854.542 424.408 855.981 422.906C857.419 421.383 859.058 420.22 860.898 419.416C862.76 418.612 864.684 418.21 866.673 418.21C867.561 418.21 868.28 418.453 868.83 418.94C869.38 419.426 869.655 420.093 869.655 420.939C869.655 421.489 869.592 421.88 869.465 422.113C869.359 422.324 869.147 422.43 868.83 422.43C868.534 422.43 868.227 422.409 867.91 422.366C867.593 422.324 867.265 422.303 866.926 422.303C865.7 422.303 864.452 422.578 863.183 423.128C861.914 423.657 860.761 424.482 859.724 425.603C858.709 426.702 857.874 428.109 857.218 429.822C856.562 431.514 856.234 433.534 856.234 435.882C856.234 437.595 856.562 438.917 857.218 439.848C857.874 440.758 858.773 441.212 859.915 441.212C860.803 441.212 861.543 440.884 862.136 440.229C862.728 439.552 863.204 438.759 863.563 437.849V427.823C863.563 427.506 863.542 427.242 863.5 427.03C863.479 426.819 863.447 426.639 863.405 426.491C863.384 426.343 863.362 426.216 863.341 426.11C863.32 425.983 863.31 425.867 863.31 425.761C863.31 425.423 863.468 425.158 863.786 424.968C864.124 424.757 864.526 424.651 864.991 424.651C866.07 424.651 866.926 424.936 867.561 425.507C868.196 426.057 868.513 426.724 868.513 427.506V438.23C868.513 438.59 868.555 438.949 868.64 439.309C868.724 439.647 868.851 439.964 869.02 440.26C869.19 440.535 869.412 440.768 869.687 440.958C869.983 441.128 870.321 441.212 870.702 441.212ZM879.046 434.772C878.877 435.449 878.56 435.872 878.094 436.041C877.629 436.189 877.164 436.168 876.698 435.977C876.254 435.787 875.874 435.459 875.556 434.994C875.26 434.528 875.176 434.021 875.302 433.471C875.62 432.033 876.074 430.446 876.667 428.712C877.28 426.956 877.883 425.211 878.475 423.477C878.158 422.99 877.904 422.504 877.714 422.017C877.523 421.51 877.428 420.981 877.428 420.431C877.428 419.881 877.629 419.31 878.031 418.718C878.454 418.104 878.951 417.544 879.522 417.036C880.114 416.529 880.717 416.116 881.331 415.799C881.965 415.46 882.505 415.291 882.949 415.291C883.731 415.291 884.313 415.556 884.694 416.084C885.096 416.613 885.296 417.322 885.296 418.21C885.296 418.697 885.212 419.183 885.043 419.67C884.895 420.135 884.725 420.579 884.535 421.002C884.345 421.404 884.165 421.753 883.996 422.049C883.848 422.345 883.763 422.536 883.742 422.62C884.503 423.974 885.296 425.169 886.121 426.205C886.946 427.242 887.697 428.268 888.374 429.283C889.072 430.298 889.643 431.377 890.087 432.519C890.531 433.661 890.754 435.004 890.754 436.548C890.754 436.929 890.722 437.32 890.658 437.722C890.616 438.124 890.542 438.505 890.436 438.864C891.198 438.716 891.864 438.484 892.435 438.166C893.027 437.849 893.535 437.49 893.958 437.088C894.402 436.665 894.762 436.21 895.037 435.724C895.333 435.237 895.576 434.729 895.766 434.201C895.999 433.587 896.232 433.143 896.464 432.868C896.697 432.593 896.961 432.456 897.258 432.456C897.533 432.456 897.808 432.551 898.083 432.741C898.379 432.91 898.632 433.132 898.844 433.407C899.077 433.682 899.256 433.968 899.383 434.264C899.531 434.56 899.605 434.825 899.605 435.057C899.605 435.375 899.521 435.755 899.352 436.199C899.182 436.644 898.95 437.098 898.654 437.564C898.379 438.029 898.061 438.484 897.702 438.928C897.342 439.351 896.972 439.721 896.591 440.038C895.576 440.863 894.381 441.561 893.006 442.132C891.631 442.682 889.929 443.031 887.898 443.179C887.116 443.856 886.185 444.406 885.106 444.829C884.049 445.273 882.854 445.495 881.521 445.495C880.844 445.495 880.146 445.411 879.427 445.242C878.729 445.072 878.052 444.85 877.396 444.575C876.762 444.322 876.18 444.036 875.651 443.719C875.123 443.401 874.7 443.084 874.382 442.767C873.579 442.005 873.06 441.244 872.828 440.483C872.595 439.7 872.542 439.002 872.669 438.389C872.775 437.775 872.997 437.278 873.335 436.897C873.674 436.496 874.023 436.295 874.382 436.295C874.594 436.295 874.922 436.39 875.366 436.58C875.831 436.749 876.36 436.982 876.952 437.278C877.545 437.553 878.19 437.849 878.888 438.166C879.586 438.484 880.284 438.79 880.982 439.087C881.68 439.362 882.356 439.594 883.012 439.785C883.689 439.954 884.302 440.038 884.852 440.038C885.212 439.615 885.54 439.055 885.836 438.357C886.132 437.659 886.28 436.897 886.28 436.073C886.28 435.057 886.143 434.116 885.868 433.249C885.593 432.382 885.233 431.578 884.789 430.838C884.345 430.097 883.837 429.41 883.266 428.775C882.716 428.12 882.156 427.506 881.584 426.935C881.077 428.183 880.633 429.42 880.252 430.647C879.871 431.853 879.469 433.228 879.046 434.772ZM890.246 413.134C890.732 413.176 891.272 413.208 891.864 413.229C892.372 413.271 892.985 413.303 893.704 413.324C894.423 413.324 895.227 413.335 896.115 413.356V402.347C896.115 401.881 896.073 401.511 895.989 401.236C895.925 400.961 895.851 400.75 895.766 400.602C895.703 400.432 895.629 400.305 895.544 400.221C895.481 400.115 895.449 400.009 895.449 399.904C895.449 399.777 895.513 399.671 895.64 399.586C895.766 399.502 895.936 399.428 896.147 399.364C896.359 399.301 896.581 399.258 896.813 399.237C897.067 399.195 897.31 399.174 897.543 399.174C898.622 399.174 899.468 399.459 900.081 400.031C900.716 400.58 901.033 401.247 901.033 402.029V413.419C903.021 413.419 905.115 413.398 907.315 413.356C909.536 413.314 911.757 413.24 913.978 413.134C914.274 412.817 914.507 412.7 914.676 412.785C914.866 412.869 914.982 413.07 915.025 413.388C915.088 413.705 915.099 414.096 915.057 414.562C915.014 415.027 914.93 415.482 914.803 415.926C914.676 416.349 914.496 416.719 914.263 417.036C914.052 417.354 913.809 417.512 913.534 417.512C910.932 417.576 908.626 417.618 906.617 417.639C904.629 417.639 902.768 417.639 901.033 417.639V438.23C901.033 439.288 901.234 440.049 901.636 440.514C902.038 440.98 902.577 441.212 903.254 441.212C903.91 441.212 904.47 440.98 904.936 440.514C905.422 440.049 905.835 439.467 906.173 438.769C906.533 438.071 906.818 437.32 907.03 436.517C907.262 435.692 907.453 434.92 907.601 434.201C907.728 433.524 907.939 433.037 908.235 432.741C908.531 432.424 908.838 432.265 909.155 432.265C909.409 432.265 909.673 432.35 909.948 432.519C910.223 432.667 910.467 432.868 910.678 433.122C910.911 433.376 911.091 433.661 911.218 433.979C911.366 434.296 911.44 434.613 911.44 434.93C911.44 434.973 911.44 435.026 911.44 435.089C911.44 435.152 911.418 435.248 911.376 435.375C911.101 436.453 910.72 437.585 910.234 438.769C909.769 439.954 909.155 441.043 908.394 442.037C907.654 443.031 906.765 443.856 905.729 444.512C904.692 445.168 903.476 445.495 902.08 445.495C901.213 445.495 900.409 445.358 899.669 445.083C898.95 444.829 898.326 444.406 897.797 443.814C897.268 443.243 896.856 442.503 896.56 441.593C896.263 440.684 896.115 439.584 896.115 438.293V417.639C895.396 417.639 894.751 417.639 894.18 417.639C893.63 417.618 893.165 417.597 892.784 417.576C892.34 417.554 891.949 417.533 891.61 417.512C891.103 417.512 890.658 417.29 890.278 416.846C889.876 416.381 889.601 415.873 889.453 415.323C889.284 414.773 889.262 414.276 889.389 413.832C889.495 413.366 889.781 413.134 890.246 413.134ZM922.861 424.778C922.861 425.983 922.65 427.221 922.227 428.49C921.825 429.759 921.212 430.964 920.387 432.107C919.583 433.228 918.578 434.243 917.373 435.152C916.188 436.041 914.813 436.718 913.248 437.183C913.46 437.733 913.735 438.262 914.073 438.769C914.433 439.256 914.856 439.679 915.342 440.038C915.829 440.398 916.389 440.684 917.024 440.895C917.679 441.107 918.43 441.212 919.276 441.212C920.545 441.212 921.635 440.98 922.544 440.514C923.454 440.028 924.215 439.393 924.828 438.611C925.463 437.828 925.971 436.95 926.351 435.977C926.732 435.004 927.018 434.021 927.208 433.027C927.356 432.308 927.652 431.832 928.096 431.599C928.562 431.345 929.027 431.282 929.492 431.409C929.979 431.536 930.391 431.811 930.73 432.234C931.089 432.635 931.237 433.122 931.174 433.693C931.089 434.349 930.941 435.1 930.73 435.946C930.539 436.792 930.243 437.648 929.841 438.515C929.439 439.383 928.921 440.239 928.287 441.085C927.673 441.91 926.912 442.651 926.002 443.306C925.093 443.962 924.025 444.491 922.798 444.893C921.571 445.295 920.165 445.495 918.578 445.495C917.098 445.495 915.659 445.199 914.263 444.607C912.888 444.036 911.662 443.211 910.583 442.132C909.525 441.033 908.669 439.689 908.013 438.103C907.379 436.496 907.061 434.677 907.061 432.646C907.061 430.594 907.347 428.691 907.918 426.935C908.489 425.158 909.24 423.625 910.171 422.335C911.101 421.044 912.159 420.04 913.343 419.321C914.528 418.58 915.744 418.21 916.992 418.21C917.901 418.21 918.716 418.369 919.435 418.686C920.175 419.003 920.799 419.458 921.307 420.05C921.814 420.621 922.195 421.309 922.449 422.113C922.724 422.916 922.861 423.805 922.861 424.778ZM912.391 432.456C912.391 432.646 912.402 432.836 912.423 433.027C912.444 433.217 912.455 433.418 912.455 433.63C913.259 433.249 913.988 432.762 914.644 432.17C915.3 431.578 915.86 430.901 916.326 430.14C916.791 429.378 917.15 428.553 917.404 427.665C917.658 426.755 917.785 425.814 917.785 424.841C917.785 424.122 917.658 423.561 917.404 423.16C917.172 422.758 916.844 422.557 916.421 422.557C915.892 422.557 915.416 422.737 914.993 423.096C914.591 423.456 914.232 423.932 913.914 424.524C913.618 425.095 913.364 425.751 913.153 426.491C912.963 427.21 912.804 427.94 912.677 428.68C912.55 429.42 912.465 430.129 912.423 430.806C912.381 431.462 912.37 432.011 912.391 432.456ZM941.358 445.495C940.597 445.495 939.814 445.379 939.01 445.146C938.228 444.914 937.509 444.512 936.853 443.941C936.218 443.37 935.69 442.619 935.267 441.688C934.865 440.736 934.664 439.541 934.664 438.103C934.664 436.009 934.939 433.799 935.489 431.472C936.06 429.124 936.874 426.544 937.932 423.731H932.982H932.253C932.231 424.365 932.189 425.169 932.126 426.142C932.083 427.115 931.999 428.151 931.872 429.251C931.745 430.351 931.576 431.462 931.364 432.583C931.174 433.704 930.931 434.74 930.635 435.692C930.423 436.369 930.085 436.76 929.619 436.866C929.175 436.971 928.731 436.897 928.287 436.644C927.843 436.369 927.483 435.977 927.208 435.47C926.933 434.962 926.87 434.433 927.018 433.883C927.187 433.228 927.335 432.434 927.462 431.504C927.589 430.552 927.684 429.558 927.747 428.521C927.832 427.464 927.895 426.417 927.938 425.38C927.98 424.323 928.012 423.382 928.033 422.557C927.229 422.113 926.563 421.552 926.034 420.875C925.505 420.177 925.241 419.352 925.241 418.401C925.241 417.956 925.326 417.554 925.495 417.195C925.685 416.814 925.928 416.497 926.224 416.243C926.521 415.968 926.87 415.767 927.271 415.64C927.673 415.492 928.086 415.418 928.509 415.418C928.89 415.418 929.281 415.471 929.683 415.577C930.106 415.683 930.497 415.873 930.857 416.148C931.237 416.423 931.576 416.782 931.872 417.227C932.168 417.671 932.411 418.221 932.602 418.876C933.13 418.94 933.575 418.993 933.934 419.035C934.315 419.056 934.632 419.077 934.886 419.099C935.14 419.12 935.351 419.13 935.52 419.13C935.69 419.13 935.859 419.13 936.028 419.13H939.423C939.613 419.13 939.888 419.247 940.248 419.479C940.629 419.712 940.999 420.019 941.358 420.399C941.718 420.759 942.014 421.15 942.247 421.573C942.5 421.996 942.596 422.398 942.532 422.779C942.532 422.906 942.458 423.212 942.31 423.699C942.162 424.185 941.982 424.799 941.771 425.539C941.559 426.279 941.327 427.136 941.073 428.109C940.819 429.061 940.586 430.066 940.375 431.123C940.163 432.181 939.983 433.281 939.835 434.423C939.687 435.544 939.613 436.644 939.613 437.722C939.613 438.166 939.666 438.6 939.772 439.023C939.878 439.446 940.036 439.827 940.248 440.165C940.459 440.483 940.724 440.736 941.041 440.927C941.379 441.117 941.771 441.212 942.215 441.212C942.955 441.212 943.59 440.98 944.119 440.514C944.647 440.049 945.091 439.467 945.451 438.769C945.811 438.071 946.096 437.32 946.308 436.517C946.54 435.692 946.731 434.92 946.879 434.201C947.006 433.524 947.217 433.037 947.513 432.741C947.809 432.424 948.116 432.265 948.433 432.265C948.687 432.265 948.952 432.35 949.227 432.519C949.502 432.667 949.745 432.868 949.956 433.122C950.189 433.376 950.369 433.661 950.496 433.979C950.644 434.296 950.718 434.613 950.718 434.93C950.718 435.036 950.707 435.121 950.686 435.184C950.665 435.248 950.654 435.311 950.654 435.375C950.358 436.453 949.967 437.585 949.48 438.769C949.015 439.954 948.412 441.043 947.672 442.037C946.932 443.031 946.043 443.856 945.007 444.512C943.97 445.168 942.754 445.495 941.358 445.495Z" fill="white"/>
<path d="M300.069 381.062C299.934 382.861 299.433 384.61 298.596 386.203C294.595 394.544 281.889 401.868 276.481 404.698C276.191 404.855 275.867 404.941 275.535 404.948C275.202 404.955 274.872 404.884 274.572 404.74C274.271 404.595 274.008 404.382 273.806 404.119C273.604 403.855 273.468 403.548 273.409 403.224C272.232 397.235 269.993 382.741 274.018 374.412C274.738 372.762 275.788 371.277 277.107 370.045C278.425 368.814 279.984 367.861 281.691 367.243C283.398 366.626 285.218 366.357 287.043 366.452C288.867 366.547 290.658 367.004 292.309 367.796C293.961 368.589 295.439 369.7 296.654 371.063C297.87 372.427 298.799 374.015 299.386 375.733C299.972 377.45 300.205 379.263 300.069 381.062Z" fill="white"/>
<path d="M345.489 256.95C321.709 245.542 297.749 246.1 291.945 258.197L265.684 312.936C259.88 325.034 274.493 344.098 298.218 355.48C321.944 366.862 345.958 366.33 351.762 354.233L378.023 299.494C383.827 287.397 369.268 268.358 345.489 256.95ZM341.002 349.071C339.689 351.808 324.291 354.521 303.471 344.532C282.65 334.544 275.13 320.835 276.443 318.098L282.3 305.892C288.913 314.317 299.083 322.226 311.349 328.111C323.615 333.995 336.148 336.978 346.859 336.864L341.002 349.071ZM352.951 324.165C343.462 326.009 329.621 323.409 316.601 317.163C303.582 310.917 292.891 301.748 288.392 293.192L295.772 277.81C301.5 286.148 311.622 294.572 324.48 300.741C337.338 306.91 350.242 309.532 360.331 308.783L352.951 324.165ZM329.732 289.793C308.912 279.805 301.392 266.096 302.705 263.359C304.018 260.622 319.416 257.909 340.236 267.898C361.057 277.886 368.577 291.595 367.264 294.332C365.95 297.069 350.552 299.782 329.732 289.793Z" fill="white"/>
</svg>
