<svg width="689" height="693" viewBox="0 0 689 693" fill="none" xmlns="http://www.w3.org/2000/svg">
<rect width="688.424" height="692.424" fill="#0072E5"/>
<path d="M286.755 489.197C286.397 493.941 285.076 498.553 282.87 502.757C272.318 524.753 238.807 544.071 224.544 551.534C223.779 551.949 222.923 552.175 222.047 552.194C221.171 552.213 220.3 552.024 219.507 551.644C218.714 551.263 218.022 550.702 217.489 550.007C216.956 549.311 216.596 548.502 216.441 547.647C213.336 531.852 207.433 493.625 218.047 471.658C219.946 467.306 222.716 463.39 226.193 460.142C229.67 456.894 233.782 454.38 238.285 452.752C242.787 451.124 247.587 450.414 252.398 450.664C257.21 450.915 261.934 452.121 266.289 454.21C270.644 456.3 274.542 459.23 277.748 462.826C280.954 466.422 283.404 470.61 284.952 475.141C286.499 479.672 287.113 484.452 286.755 489.197Z" fill="white"/>
<path d="M406.543 161.866C343.828 131.778 280.634 133.25 265.328 165.155L196.066 309.523C180.76 341.428 219.3 391.708 281.873 421.728C344.446 451.747 407.782 450.343 423.088 418.438L492.35 274.07C507.656 242.165 469.258 191.954 406.543 161.866ZM394.711 404.824C391.248 412.042 350.636 419.198 295.725 392.854C240.814 366.51 220.981 330.356 224.444 323.137L239.889 290.943C257.331 313.164 284.153 334.023 316.504 349.544C348.854 365.064 381.909 372.931 410.156 372.63L394.711 404.824ZM426.224 339.136C401.199 344.002 364.693 337.144 330.356 320.67C296.019 304.197 267.824 280.014 255.958 257.45L275.42 216.883C290.529 238.872 317.223 261.091 351.134 277.36C385.046 293.629 419.081 300.545 445.687 298.569L426.224 339.136ZM364.986 248.486C310.075 222.143 290.242 185.988 293.705 178.77C297.168 171.551 337.78 164.396 392.691 190.739C447.602 217.083 467.435 253.238 463.972 260.456C460.509 267.674 419.897 274.83 364.986 248.486Z" fill="white"/>
</svg>
