<svg width="1280" height="720" viewBox="0 0 1280 720" fill="none" xmlns="http://www.w3.org/2000/svg">
<rect width="1280" height="720" fill="#0072E5"/>
<path d="M502.984 383.365C496.313 383.365 490.627 382.152 485.927 379.726C481.303 377.3 477.323 374.04 473.988 369.947L482.857 361.646C485.662 365.057 488.732 367.635 492.068 369.378C495.479 371.122 499.345 371.994 503.666 371.994C508.745 371.994 512.573 370.856 515.151 368.582C517.728 366.308 519.017 363.238 519.017 359.372C519.017 356.264 518.107 353.8 516.288 351.981C514.468 350.161 511.247 348.797 506.622 347.887L499.572 346.636C491.84 345.196 486.041 342.656 482.175 339.018C478.309 335.379 476.376 330.376 476.376 324.008C476.376 320.521 477.02 317.375 478.309 314.57C479.673 311.689 481.53 309.301 483.88 307.406C486.306 305.435 489.225 303.919 492.636 302.858C496.047 301.797 499.876 301.266 504.121 301.266C510.11 301.266 515.302 302.327 519.699 304.45C524.096 306.497 527.848 309.491 530.956 313.433L521.973 321.393C519.927 318.739 517.425 316.617 514.468 315.025C511.512 313.433 507.835 312.637 503.439 312.637C498.89 312.637 495.365 313.547 492.864 315.366C490.362 317.185 489.111 319.839 489.111 323.326C489.111 326.661 490.135 329.163 492.181 330.831C494.228 332.422 497.412 333.635 501.733 334.469L508.783 335.947C516.743 337.464 522.542 340.041 526.181 343.68C529.895 347.318 531.752 352.322 531.752 358.689C531.752 362.404 531.108 365.777 529.819 368.81C528.531 371.842 526.635 374.457 524.134 376.656C521.708 378.778 518.714 380.446 515.151 381.659C511.588 382.796 507.532 383.365 502.984 383.365ZM592.321 401.672H581.063C576.591 401.672 573.293 400.535 571.171 398.261C569.124 395.986 568.1 392.916 568.1 389.05V383.023C563.628 382.493 559.61 381.204 556.047 379.157C552.484 377.11 549.452 374.381 546.95 370.97C544.449 367.559 542.516 363.465 541.151 358.689C539.787 353.838 539.104 348.38 539.104 342.315C539.104 335.644 539.9 329.769 541.492 324.69C543.16 319.535 545.472 315.252 548.429 311.841C551.461 308.354 555.062 305.739 559.231 303.995C563.476 302.176 568.176 301.266 573.331 301.266C578.486 301.266 583.148 302.176 587.317 303.995C591.563 305.739 595.163 308.354 598.12 311.841C601.152 315.252 603.464 319.535 605.056 324.69C606.724 329.769 607.558 335.644 607.558 342.315C607.558 354.141 605.094 363.503 600.167 370.402C595.239 377.224 588.568 381.356 580.154 382.796V390.983H592.321V401.672ZM573.331 371.88C576.363 371.88 579.13 371.349 581.632 370.288C584.209 369.227 586.37 367.71 588.113 365.739C589.933 363.693 591.335 361.229 592.321 358.348C593.306 355.468 593.799 352.208 593.799 348.569V336.061C593.799 332.422 593.306 329.163 592.321 326.282C591.335 323.401 589.933 320.976 588.113 319.005C586.37 316.958 584.209 315.404 581.632 314.343C579.13 313.281 576.363 312.751 573.331 312.751C570.223 312.751 567.418 313.281 564.917 314.343C562.415 315.404 560.254 316.958 558.435 319.005C556.692 320.976 555.327 323.401 554.342 326.282C553.356 329.163 552.863 332.422 552.863 336.061V348.569C552.863 352.208 553.356 355.468 554.342 358.348C555.327 361.229 556.692 363.693 558.435 365.739C560.254 367.71 562.415 369.227 564.917 370.288C567.418 371.349 570.223 371.88 573.331 371.88ZM619.033 382V302.63H631.882V370.629H664.176V382H619.033ZM678.127 312.296C675.55 312.296 673.655 311.689 672.442 310.476C671.305 309.264 670.736 307.71 670.736 305.814V303.881C670.736 301.986 671.305 300.432 672.442 299.219C673.655 298.006 675.55 297.4 678.127 297.4C680.705 297.4 682.562 298.006 683.699 299.219C684.836 300.432 685.405 301.986 685.405 303.881V305.814C685.405 307.71 684.836 309.264 683.699 310.476C682.562 311.689 680.705 312.296 678.127 312.296ZM671.873 322.871H684.268V382H671.873V322.871ZM749.27 387.572C749.27 393.712 746.92 398.336 742.22 401.444C737.52 404.552 729.863 406.107 719.25 406.107C714.399 406.107 710.267 405.765 706.856 405.083C703.52 404.477 700.753 403.567 698.555 402.354C696.432 401.141 694.878 399.663 693.893 397.919C692.907 396.176 692.415 394.167 692.415 391.893C692.415 388.633 693.286 386.094 695.03 384.274C696.849 382.455 699.351 381.204 702.535 380.522V379.271C698.062 377.831 695.826 374.798 695.826 370.174C695.826 367.142 696.849 364.83 698.896 363.238C700.943 361.57 703.407 360.395 706.287 359.713V359.258C702.8 357.59 700.109 355.278 698.214 352.322C696.395 349.289 695.485 345.764 695.485 341.747C695.485 335.682 697.494 330.793 701.511 327.078C705.605 323.364 711.442 321.506 719.023 321.506C723.192 321.506 726.755 322.113 729.712 323.326V321.734C729.712 319.081 730.318 317.034 731.531 315.593C732.82 314.077 734.791 313.319 737.444 313.319H746.541V323.326H734.487V325.714C737.141 327.457 739.187 329.731 740.628 332.536C742.068 335.265 742.788 338.335 742.788 341.747C742.788 347.735 740.741 352.587 736.648 356.302C732.554 359.94 726.717 361.76 719.137 361.76C716.256 361.76 713.678 361.456 711.404 360.85C709.888 361.381 708.561 362.139 707.424 363.124C706.287 364.034 705.719 365.247 705.719 366.763C705.719 368.355 706.439 369.492 707.879 370.174C709.32 370.856 711.366 371.198 714.02 371.198H728.574C735.852 371.198 741.12 372.676 744.38 375.632C747.64 378.513 749.27 382.493 749.27 387.572ZM737.671 388.936C737.671 386.89 736.875 385.26 735.283 384.047C733.767 382.834 730.962 382.227 726.869 382.227H706.856C704.127 383.819 702.762 386.094 702.762 389.05C702.762 391.476 703.71 393.409 705.605 394.849C707.576 396.365 710.874 397.123 715.498 397.123H723.23C732.858 397.123 737.671 394.394 737.671 388.936ZM719.137 352.777C722.775 352.777 725.58 351.981 727.551 350.389C729.598 348.721 730.621 346.181 730.621 342.77V340.496C730.621 337.085 729.598 334.583 727.551 332.991C725.58 331.323 722.775 330.489 719.137 330.489C715.498 330.489 712.655 331.323 710.608 332.991C708.637 334.583 707.652 337.085 707.652 340.496V342.77C707.652 346.181 708.637 348.721 710.608 350.389C712.655 351.981 715.498 352.777 719.137 352.777ZM753.944 297.855H766.339V332.65H766.907C768.196 329.466 770.129 326.813 772.706 324.69C775.36 322.568 778.96 321.506 783.509 321.506C789.573 321.506 794.273 323.515 797.609 327.533C801.02 331.475 802.726 337.122 802.726 344.476V382H790.331V345.954C790.331 336.781 786.617 332.195 779.188 332.195C777.596 332.195 776.004 332.422 774.412 332.877C772.896 333.256 771.531 333.863 770.318 334.697C769.105 335.531 768.12 336.592 767.362 337.881C766.68 339.169 766.339 340.647 766.339 342.315V382H753.944V297.855ZM831.731 382C827.41 382 824.15 380.901 821.952 378.702C819.753 376.428 818.654 373.244 818.654 369.151V332.991H809.443V322.871H814.447C816.494 322.871 817.896 322.416 818.654 321.506C819.488 320.597 819.905 319.118 819.905 317.072V306.724H831.048V322.871H843.443V332.991H831.048V371.88H842.533V382H831.731ZM875.091 383.365C870.846 383.365 867.056 382.644 863.72 381.204C860.385 379.764 857.542 377.717 855.192 375.064C852.842 372.335 851.023 369.075 849.734 365.285C848.521 361.419 847.915 357.135 847.915 352.435C847.915 347.735 848.521 343.49 849.734 339.7C851.023 335.834 852.842 332.574 855.192 329.921C857.542 327.192 860.385 325.107 863.72 323.667C867.056 322.226 870.846 321.506 875.091 321.506C879.412 321.506 883.203 322.264 886.462 323.781C889.798 325.297 892.565 327.419 894.763 330.148C896.962 332.802 898.591 335.91 899.653 339.472C900.79 343.035 901.358 346.864 901.358 350.957V355.619H860.764V357.552C860.764 362.101 862.091 365.853 864.744 368.81C867.473 371.69 871.339 373.131 876.342 373.131C879.981 373.131 883.051 372.335 885.553 370.743C888.054 369.151 890.177 366.99 891.921 364.261L899.198 371.425C897 375.064 893.816 377.982 889.646 380.181C885.477 382.303 880.625 383.365 875.091 383.365ZM875.091 331.172C872.969 331.172 870.998 331.551 869.179 332.309C867.435 333.067 865.919 334.128 864.63 335.493C863.417 336.857 862.47 338.487 861.787 340.382C861.105 342.277 860.764 344.362 860.764 346.636V347.432H888.282V346.295C888.282 341.747 887.107 338.108 884.757 335.379C882.407 332.574 879.185 331.172 875.091 331.172ZM910.531 382V322.871H922.925V334.242H923.494C924.328 331.21 926.071 328.556 928.724 326.282C931.378 324.008 935.054 322.871 939.754 322.871H943.052V334.81H938.162C933.235 334.81 929.444 335.606 926.791 337.198C924.214 338.79 922.925 341.14 922.925 344.248V382H910.531Z" fill="white"/>
<path d="M489.384 444.197C487.868 444.197 486.731 443.818 485.973 443.06C485.242 442.275 484.877 441.192 484.877 439.811V414.145H489.303V440.583H492.227V444.197H489.384ZM497.878 419.303C496.958 419.303 496.281 419.086 495.848 418.653C495.442 418.22 495.239 417.665 495.239 416.988V416.298C495.239 415.621 495.442 415.066 495.848 414.633C496.281 414.2 496.958 413.983 497.878 413.983C498.799 413.983 499.462 414.2 499.868 414.633C500.274 415.066 500.477 415.621 500.477 416.298V416.988C500.477 417.665 500.274 418.22 499.868 418.653C499.462 419.086 498.799 419.303 497.878 419.303ZM495.645 423.08H500.071V444.197H495.645V423.08ZM524.099 446.187C524.099 448.38 523.259 450.032 521.581 451.142C519.902 452.252 517.168 452.807 513.377 452.807C511.645 452.807 510.169 452.685 508.951 452.441C507.76 452.225 506.771 451.9 505.986 451.467C505.228 451.034 504.673 450.506 504.321 449.883C503.969 449.26 503.793 448.543 503.793 447.731C503.793 446.566 504.105 445.659 504.727 445.01C505.377 444.36 506.27 443.913 507.408 443.669V443.223C505.81 442.708 505.012 441.625 505.012 439.974C505.012 438.891 505.377 438.065 506.108 437.497C506.839 436.901 507.719 436.481 508.748 436.238V436.075C507.502 435.48 506.541 434.654 505.864 433.598C505.215 432.515 504.89 431.256 504.89 429.821C504.89 427.655 505.607 425.909 507.042 424.582C508.504 423.256 510.589 422.593 513.296 422.593C514.785 422.593 516.058 422.809 517.114 423.242V422.674C517.114 421.726 517.33 420.995 517.763 420.481C518.224 419.939 518.927 419.669 519.875 419.669H523.124V423.242H518.819V424.095C519.767 424.718 520.498 425.53 521.012 426.532C521.527 427.506 521.784 428.603 521.784 429.821C521.784 431.96 521.053 433.693 519.591 435.019C518.129 436.319 516.044 436.969 513.337 436.969C512.308 436.969 511.387 436.86 510.575 436.644C510.034 436.833 509.56 437.104 509.154 437.456C508.748 437.781 508.545 438.214 508.545 438.756C508.545 439.324 508.802 439.73 509.316 439.974C509.831 440.218 510.562 440.339 511.509 440.339H516.707C519.306 440.339 521.188 440.867 522.352 441.923C523.516 442.952 524.099 444.373 524.099 446.187ZM519.956 446.675C519.956 445.944 519.672 445.362 519.103 444.928C518.562 444.495 517.56 444.279 516.098 444.279H508.951C507.976 444.847 507.489 445.659 507.489 446.715C507.489 447.582 507.827 448.272 508.504 448.786C509.208 449.328 510.386 449.599 512.037 449.599H514.799C518.237 449.599 519.956 448.624 519.956 446.675ZM513.337 433.76C514.636 433.76 515.638 433.476 516.342 432.908C517.073 432.312 517.438 431.405 517.438 430.187V429.374C517.438 428.156 517.073 427.263 516.342 426.694C515.638 426.099 514.636 425.801 513.337 425.801C512.037 425.801 511.022 426.099 510.291 426.694C509.587 427.263 509.235 428.156 509.235 429.374V430.187C509.235 431.405 509.587 432.312 510.291 432.908C511.022 433.476 512.037 433.76 513.337 433.76ZM526.58 414.145H531.007V426.572H531.21C531.67 425.435 532.36 424.488 533.281 423.73C534.229 422.972 535.515 422.593 537.139 422.593C539.305 422.593 540.984 423.31 542.175 424.745C543.393 426.153 544.002 428.17 544.002 430.796V444.197H539.576V431.324C539.576 428.048 538.249 426.41 535.596 426.41C535.027 426.41 534.459 426.491 533.89 426.654C533.349 426.789 532.861 427.006 532.428 427.303C531.995 427.601 531.643 427.98 531.372 428.44C531.129 428.901 531.007 429.429 531.007 430.024V444.197H526.58V414.145ZM555.173 444.197C553.63 444.197 552.466 443.805 551.681 443.02C550.896 442.207 550.503 441.07 550.503 439.608V426.694H547.214V423.08H549.001C549.732 423.08 550.232 422.917 550.503 422.593C550.801 422.268 550.95 421.74 550.95 421.009V417.313H554.93V423.08H559.356V426.694H554.93V440.583H559.031V444.197H555.173ZM571.472 444.685C569.955 444.685 568.602 444.428 567.41 443.913C566.219 443.399 565.204 442.668 564.365 441.72C563.525 440.745 562.876 439.581 562.415 438.228C561.982 436.847 561.766 435.317 561.766 433.639C561.766 431.96 561.982 430.444 562.415 429.09C562.876 427.709 563.525 426.545 564.365 425.598C565.204 424.623 566.219 423.879 567.41 423.364C568.602 422.85 569.955 422.593 571.472 422.593C573.015 422.593 574.368 422.863 575.533 423.405C576.724 423.946 577.712 424.704 578.497 425.679C579.282 426.626 579.864 427.737 580.243 429.009C580.65 430.281 580.853 431.649 580.853 433.111V434.776H566.355V435.466C566.355 437.091 566.828 438.431 567.776 439.487C568.751 440.515 570.131 441.03 571.918 441.03C573.218 441.03 574.314 440.745 575.208 440.177C576.101 439.608 576.859 438.837 577.482 437.862L580.081 440.421C579.296 441.72 578.159 442.762 576.67 443.548C575.181 444.306 573.448 444.685 571.472 444.685ZM571.472 426.044C570.713 426.044 570.01 426.18 569.36 426.451C568.737 426.721 568.196 427.1 567.735 427.588C567.302 428.075 566.964 428.657 566.72 429.334C566.476 430.011 566.355 430.755 566.355 431.567V431.852H576.182V431.446C576.182 429.821 575.763 428.522 574.923 427.547C574.084 426.545 572.934 426.044 571.472 426.044ZM584.941 444.197V423.08H589.367V427.141H589.57C589.868 426.058 590.491 425.11 591.438 424.298C592.386 423.486 593.699 423.08 595.378 423.08H596.555V427.344H594.809C593.049 427.344 591.696 427.628 590.748 428.197C589.827 428.765 589.367 429.605 589.367 430.715V444.197H584.941ZM599.144 438.553C600.145 438.553 600.89 438.81 601.377 439.324C601.865 439.839 602.108 440.502 602.108 441.314V441.964C602.108 443.29 601.743 444.671 601.012 446.106C600.308 447.568 599.347 448.8 598.128 449.802H594.839C595.705 448.935 596.423 448.096 596.991 447.284C597.56 446.472 597.993 445.565 598.291 444.563C597.587 444.428 597.059 444.13 596.707 443.669C596.355 443.182 596.179 442.614 596.179 441.964V441.314C596.179 440.502 596.423 439.839 596.91 439.324C597.397 438.81 598.142 438.553 599.144 438.553ZM617.271 426.694H614.063V423.08H617.271V419.587C617.271 417.882 617.718 416.555 618.611 415.607C619.504 414.633 620.845 414.145 622.631 414.145H626.124V417.76H621.697V423.08H626.124V426.694H621.697V444.197H617.271V426.694ZM644.636 444.197C643.472 444.197 642.579 443.873 641.956 443.223C641.333 442.546 640.954 441.693 640.819 440.664H640.616C640.21 441.991 639.465 442.993 638.382 443.669C637.299 444.346 635.986 444.685 634.443 444.685C632.25 444.685 630.558 444.116 629.367 442.979C628.202 441.842 627.62 440.312 627.62 438.39C627.62 436.278 628.378 434.694 629.894 433.639C631.438 432.583 633.685 432.055 636.636 432.055H640.453V430.268C640.453 428.968 640.101 427.967 639.397 427.263C638.693 426.559 637.597 426.207 636.108 426.207C634.863 426.207 633.847 426.478 633.062 427.019C632.277 427.561 631.614 428.251 631.072 429.09L628.432 426.694C629.136 425.503 630.125 424.528 631.397 423.77C632.67 422.985 634.335 422.593 636.392 422.593C639.127 422.593 641.225 423.229 642.687 424.501C644.149 425.774 644.88 427.601 644.88 429.984V440.583H647.113V444.197H644.636ZM635.702 441.314C637.083 441.314 638.22 441.016 639.113 440.421C640.007 439.798 640.453 438.972 640.453 437.943V434.898H636.717C633.658 434.898 632.128 435.845 632.128 437.74V438.471C632.128 439.419 632.439 440.136 633.062 440.624C633.712 441.084 634.592 441.314 635.702 441.314ZM657.34 444.685C655.337 444.685 653.658 444.333 652.305 443.629C650.951 442.925 649.773 441.95 648.771 440.705L651.614 438.106C652.399 439.053 653.266 439.798 654.213 440.339C655.188 440.854 656.312 441.111 657.584 441.111C658.884 441.111 659.845 440.867 660.467 440.38C661.117 439.866 661.442 439.162 661.442 438.268C661.442 437.591 661.212 437.023 660.752 436.563C660.318 436.075 659.547 435.764 658.437 435.629L656.487 435.385C654.322 435.114 652.616 434.491 651.371 433.517C650.152 432.515 649.543 431.04 649.543 429.09C649.543 428.061 649.733 427.154 650.112 426.369C650.491 425.557 651.019 424.88 651.695 424.339C652.399 423.77 653.225 423.337 654.173 423.039C655.147 422.741 656.217 422.593 657.381 422.593C659.276 422.593 660.819 422.89 662.011 423.486C663.229 424.082 664.312 424.907 665.259 425.963L662.538 428.562C661.997 427.913 661.28 427.357 660.386 426.897C659.52 426.41 658.518 426.166 657.381 426.166C656.163 426.166 655.256 426.41 654.66 426.897C654.091 427.385 653.807 428.021 653.807 428.806C653.807 429.618 654.064 430.227 654.579 430.633C655.093 431.04 655.919 431.337 657.056 431.527L659.005 431.771C661.334 432.122 663.026 432.813 664.082 433.842C665.165 434.843 665.706 436.197 665.706 437.903C665.706 438.932 665.503 439.866 665.097 440.705C664.718 441.517 664.163 442.221 663.432 442.817C662.701 443.412 661.821 443.873 660.792 444.197C659.763 444.522 658.613 444.685 657.34 444.685ZM675.465 444.197C673.922 444.197 672.758 443.805 671.973 443.02C671.187 442.207 670.795 441.07 670.795 439.608V426.694H667.505V423.08H669.292C670.023 423.08 670.524 422.917 670.795 422.593C671.093 422.268 671.242 421.74 671.242 421.009V417.313H675.221V423.08H679.648V426.694H675.221V440.583H679.323V444.197H675.465ZM691.763 444.685C690.247 444.685 688.893 444.428 687.702 443.913C686.511 443.399 685.496 442.668 684.656 441.72C683.817 440.745 683.167 439.581 682.707 438.228C682.274 436.847 682.057 435.317 682.057 433.639C682.057 431.96 682.274 430.444 682.707 429.09C683.167 427.709 683.817 426.545 684.656 425.598C685.496 424.623 686.511 423.879 687.702 423.364C688.893 422.85 690.247 422.593 691.763 422.593C693.306 422.593 694.66 422.863 695.824 423.405C697.016 423.946 698.004 424.704 698.789 425.679C699.574 426.626 700.156 427.737 700.535 429.009C700.941 430.281 701.144 431.649 701.144 433.111V434.776H686.646V435.466C686.646 437.091 687.12 438.431 688.068 439.487C689.042 440.515 690.423 441.03 692.21 441.03C693.51 441.03 694.606 440.745 695.499 440.177C696.393 439.608 697.151 438.837 697.774 437.862L700.373 440.421C699.588 441.72 698.45 442.762 696.961 443.548C695.472 444.306 693.74 444.685 691.763 444.685ZM691.763 426.044C691.005 426.044 690.301 426.18 689.652 426.451C689.029 426.721 688.487 427.1 688.027 427.588C687.594 428.075 687.255 428.657 687.012 429.334C686.768 430.011 686.646 430.755 686.646 431.567V431.852H696.474V431.446C696.474 429.821 696.054 428.522 695.215 427.547C694.376 426.545 693.225 426.044 691.763 426.044ZM705.232 444.197V423.08H709.659V427.141H709.862C710.16 426.058 710.782 425.11 711.73 424.298C712.678 423.486 713.991 423.08 715.669 423.08H716.847V427.344H715.101C713.341 427.344 711.987 427.628 711.04 428.197C710.119 428.765 709.659 429.605 709.659 430.715V444.197H705.232Z" fill="white"/>
<path d="M364.254 399.942C364.118 401.741 363.617 403.489 362.781 405.083C358.78 413.423 346.074 420.748 340.666 423.578C340.376 423.735 340.051 423.821 339.719 423.828C339.387 423.835 339.057 423.764 338.756 423.619C338.455 423.475 338.193 423.262 337.991 422.999C337.789 422.735 337.652 422.428 337.593 422.104C336.416 416.115 334.178 401.621 338.203 393.292C338.922 391.642 339.973 390.157 341.291 388.925C342.609 387.694 344.169 386.741 345.876 386.123C347.583 385.506 349.403 385.237 351.227 385.332C353.051 385.427 354.843 385.884 356.494 386.676C358.145 387.468 359.623 388.579 360.839 389.943C362.055 391.307 362.984 392.894 363.57 394.612C364.157 396.33 364.39 398.143 364.254 399.942Z" fill="white"/>
<path d="M409.673 275.83C385.894 264.422 361.933 264.98 356.129 277.077L329.868 331.816C324.064 343.913 338.678 362.978 362.403 374.36C386.128 385.742 410.143 385.21 415.947 373.113L442.208 318.374C448.012 306.276 433.452 287.238 409.673 275.83ZM405.187 367.951C403.874 370.688 388.475 373.401 367.655 363.412C346.835 353.424 339.315 339.715 340.628 336.978L346.484 324.771C353.098 333.196 363.267 341.106 375.534 346.99C387.8 352.875 400.333 355.858 411.043 355.744L405.187 367.951ZM417.136 343.044C407.647 344.889 393.805 342.289 380.786 336.043C367.766 329.797 357.076 320.627 352.577 312.072L359.956 296.69C365.685 305.028 375.806 313.452 388.664 319.621C401.522 325.79 414.427 328.412 424.515 327.663L417.136 343.044ZM393.916 308.673C373.096 298.685 365.576 284.976 366.889 282.239C368.202 279.502 383.601 276.789 404.421 286.778C425.241 296.766 432.761 310.475 431.448 313.212C430.135 315.949 414.737 318.662 393.916 308.673Z" fill="white"/>
</svg>
