<svg width="1088" height="719" viewBox="0 0 1088 719" fill="none" xmlns="http://www.w3.org/2000/svg">
<rect width="1087.27" height="719" fill="#0072E5"/>
<path d="M638.702 403.683C638.702 402.884 638.932 402.316 639.393 401.977C639.854 401.639 640.615 401.47 641.675 401.47C642.044 401.47 642.366 401.509 642.643 401.586C642.919 401.663 643.15 401.793 643.334 401.977C643.519 402.147 643.664 402.385 643.772 402.692C643.895 402.984 643.995 403.36 644.072 403.821C644.271 405.189 644.471 406.625 644.671 408.131C644.886 409.621 645.086 411.112 645.27 412.602C645.47 414.077 645.654 415.521 645.823 416.935C645.992 418.333 646.138 419.639 646.261 420.853C646.399 422.051 646.499 423.119 646.561 424.056C646.638 424.978 646.676 425.708 646.676 426.246C646.676 426.799 646.622 427.268 646.515 427.652C646.422 428.036 646.253 428.343 646.008 428.574C645.777 428.804 645.47 428.973 645.086 429.081C644.717 429.173 644.256 429.219 643.703 429.219C643.165 429.219 642.735 429.081 642.412 428.804C642.105 428.527 641.951 428.105 641.951 427.536C641.951 426.953 641.905 426.177 641.813 425.209C641.721 424.225 641.598 423.135 641.444 421.936C641.291 420.738 641.114 419.462 640.914 418.11C640.73 416.758 640.53 415.422 640.315 414.1C640.115 412.779 639.916 411.511 639.716 410.297C639.531 409.068 639.362 407.985 639.209 407.048C639.055 406.095 638.932 405.319 638.84 404.72C638.748 404.105 638.702 403.76 638.702 403.683ZM653.82 406.426C653.375 406.426 652.952 406.364 652.553 406.241C652.169 406.103 651.831 405.919 651.539 405.688C651.262 405.442 651.039 405.158 650.87 404.835C650.701 404.513 650.617 404.159 650.617 403.775C650.617 403.13 650.87 402.607 651.377 402.208C651.9 401.808 652.591 401.609 653.452 401.609C653.851 401.609 654.235 401.686 654.604 401.839C654.973 401.977 655.295 402.17 655.572 402.415C655.864 402.661 656.094 402.953 656.263 403.291C656.432 403.614 656.517 403.952 656.517 404.305C656.517 404.966 656.271 405.488 655.779 405.872C655.303 406.241 654.65 406.426 653.82 406.426ZM650.663 413.455C650.663 412.917 650.894 412.479 651.354 412.141C651.831 411.788 652.453 411.611 653.221 411.611C654.604 411.611 655.342 412.087 655.434 413.04C655.495 413.701 655.557 414.446 655.618 415.276C655.695 416.105 655.764 416.989 655.826 417.926C655.902 418.848 655.964 419.808 656.01 420.807C656.071 421.79 656.125 422.766 656.171 423.734C656.217 424.686 656.256 425.608 656.286 426.499C656.317 427.391 656.333 428.205 656.333 428.942C656.333 429.711 656.056 430.287 655.503 430.671C654.965 431.055 654.174 431.247 653.129 431.247C652.653 431.247 652.276 431.132 652 430.901C651.739 430.686 651.608 430.364 651.608 429.933C651.608 427.813 651.554 425.831 651.447 423.987C651.354 422.128 651.247 420.476 651.124 419.032C651.016 417.588 650.909 416.389 650.801 415.437C650.709 414.469 650.663 413.808 650.663 413.455ZM672.788 411.957C673.526 411.957 674.225 412.018 674.885 412.141C675.546 412.249 676.145 412.372 676.683 412.51C677.221 412.633 677.682 412.756 678.066 412.879C678.45 412.986 678.726 413.04 678.895 413.04C679.034 413.04 679.164 412.971 679.287 412.833C679.41 412.679 679.564 412.518 679.748 412.349C679.933 412.18 680.178 412.026 680.486 411.888C680.793 411.734 681.2 411.657 681.707 411.657C682.291 411.657 682.752 411.811 683.09 412.118C683.428 412.41 683.597 412.779 683.597 413.224C683.597 418.848 683.405 423.626 683.021 427.56C682.637 431.477 682.014 434.666 681.154 437.124C680.294 439.582 679.18 441.365 677.812 442.471C676.445 443.577 674.785 444.13 672.834 444.13C671.943 444.13 671.013 443.93 670.045 443.531C669.093 443.132 668.217 442.617 667.418 441.987C666.619 441.372 665.958 440.689 665.436 439.936C664.929 439.183 664.676 438.461 664.676 437.769C664.676 437.539 664.798 437.27 665.044 436.963C665.29 436.655 665.59 436.356 665.943 436.064C666.297 435.772 666.665 435.526 667.049 435.326C667.433 435.127 667.764 435.027 668.04 435.027C668.332 435.027 668.578 435.142 668.778 435.372C668.978 435.618 669.162 435.918 669.331 436.271C669.515 436.625 669.7 437.009 669.884 437.424C670.069 437.854 670.299 438.246 670.576 438.599C670.852 438.952 671.19 439.244 671.59 439.475C671.989 439.721 672.488 439.844 673.088 439.844C676.437 439.844 678.404 434.727 678.988 424.494C678.988 424.033 678.857 423.803 678.596 423.803C678.381 423.803 678.212 423.91 678.089 424.126C676.645 426.077 674.954 427.544 673.019 428.527C671.098 429.495 668.962 429.979 666.611 429.979C665.521 429.979 664.514 429.818 663.592 429.495C662.67 429.157 661.872 428.697 661.195 428.113C660.535 427.513 660.02 426.807 659.651 425.992C659.283 425.163 659.098 424.256 659.098 423.273C659.098 422.305 659.267 421.352 659.605 420.415C659.959 419.462 660.443 418.571 661.057 417.742C661.687 416.897 662.432 416.121 663.293 415.414C664.153 414.707 665.09 414.1 666.104 413.593C667.119 413.071 668.186 412.671 669.308 412.395C670.445 412.103 671.605 411.957 672.788 411.957ZM667.326 425.739C669.431 425.739 671.359 425.078 673.111 423.757C674.862 422.42 676.36 420.484 677.605 417.949C677.636 417.857 677.659 417.788 677.674 417.742C677.689 417.68 677.697 417.619 677.697 417.557C677.697 417.404 677.536 417.242 677.213 417.073C676.89 416.904 676.468 416.758 675.945 416.635C675.423 416.512 674.824 416.413 674.148 416.336C673.487 416.244 672.819 416.197 672.143 416.197C671.052 416.197 669.999 416.382 668.985 416.751C667.971 417.119 667.072 417.611 666.289 418.226C665.505 418.84 664.875 419.539 664.399 420.323C663.923 421.106 663.685 421.921 663.685 422.766C663.685 423.672 664.015 424.394 664.676 424.932C665.352 425.47 666.235 425.739 667.326 425.739ZM686.824 407.739C686.824 406.08 687.899 405.25 690.05 405.25C690.419 405.25 690.742 405.35 691.018 405.55C691.295 405.749 691.456 406.026 691.502 406.379C691.64 407.317 691.763 408.246 691.871 409.168C691.978 410.09 692.078 411.127 692.17 412.279C692.278 413.416 692.378 414.738 692.47 416.244C692.578 417.734 692.693 419.516 692.816 421.59C692.816 421.805 692.847 421.959 692.908 422.051C692.985 422.144 693.069 422.19 693.161 422.19C693.3 422.19 693.438 422.051 693.576 421.775C694.099 420.622 694.683 419.593 695.328 418.686C695.973 417.765 696.665 416.989 697.402 416.359C698.14 415.713 698.916 415.229 699.73 414.907C700.56 414.569 701.405 414.4 702.265 414.4C703.402 414.4 704.431 414.722 705.353 415.368C706.275 416.013 707.059 416.927 707.704 418.11C708.349 419.293 708.849 420.73 709.202 422.42C709.555 424.095 709.732 425.969 709.732 428.044C709.732 428.612 709.686 429.081 709.594 429.449C709.517 429.803 709.379 430.087 709.179 430.302C708.979 430.517 708.703 430.663 708.349 430.74C707.996 430.832 707.558 430.878 707.036 430.878C706.314 430.878 705.791 430.74 705.469 430.463C705.161 430.187 705.008 429.757 705.008 429.173C705.008 427.729 704.908 426.369 704.708 425.094C704.524 423.803 704.262 422.674 703.924 421.706C703.586 420.738 703.187 419.969 702.726 419.401C702.28 418.832 701.796 418.548 701.274 418.548C700.091 418.548 698.908 419.508 697.725 421.429C696.557 423.35 695.336 426.246 694.06 430.118C693.937 430.471 693.799 430.763 693.645 430.994C693.492 431.224 693.307 431.408 693.092 431.547C692.893 431.685 692.647 431.777 692.355 431.823C692.063 431.885 691.717 431.915 691.318 431.915C690.503 431.915 689.92 431.762 689.566 431.454C689.228 431.147 689.044 430.64 689.013 429.933C688.921 427.26 688.752 424.709 688.506 422.282C688.276 419.839 688.03 417.634 687.769 415.667C687.523 413.685 687.3 412.011 687.1 410.643C686.916 409.26 686.824 408.292 686.824 407.739ZM714.964 403.314C714.964 402.5 715.194 401.931 715.655 401.609C716.116 401.271 716.877 401.102 717.937 401.102C718.321 401.102 718.644 401.14 718.905 401.217C719.181 401.278 719.412 401.401 719.596 401.586C719.796 401.77 719.95 402.016 720.057 402.323C720.18 402.615 720.28 402.992 720.357 403.452C720.541 404.881 720.741 406.356 720.956 407.877C721.186 409.399 721.425 410.927 721.67 412.464C721.763 413.155 722.124 413.501 722.754 413.501C722.923 413.501 723.199 413.486 723.583 413.455C723.983 413.409 724.451 413.363 724.989 413.317C725.527 413.255 726.103 413.194 726.718 413.132C727.348 413.071 727.97 413.017 728.585 412.971C729.214 412.909 729.806 412.863 730.359 412.833C730.928 412.786 731.427 412.763 731.857 412.763C732.195 412.763 732.464 412.833 732.664 412.971C732.864 413.094 733.017 413.263 733.125 413.478C733.248 413.678 733.325 413.908 733.355 414.169C733.401 414.415 733.424 414.669 733.424 414.93C733.424 415.16 733.378 415.398 733.286 415.644C733.209 415.89 733.094 416.113 732.94 416.313C732.802 416.497 732.625 416.651 732.41 416.774C732.195 416.897 731.949 416.958 731.673 416.958C730.336 416.958 728.984 417.004 727.617 417.096C726.264 417.173 724.912 417.281 723.56 417.419C722.869 417.511 722.523 417.857 722.523 418.456C722.523 418.502 722.531 418.564 722.546 418.64C722.562 418.702 722.569 418.756 722.569 418.802C722.754 420.138 722.923 421.391 723.076 422.558C723.245 423.726 723.384 424.771 723.491 425.693C723.614 426.599 723.706 427.36 723.768 427.974C723.845 428.574 723.883 428.973 723.883 429.173C723.883 429.726 723.829 430.187 723.722 430.556C723.614 430.94 723.437 431.247 723.192 431.477C722.946 431.723 722.615 431.892 722.201 431.985C721.801 432.092 721.294 432.146 720.679 432.146C720.096 432.146 719.665 432.008 719.389 431.731C719.112 431.454 718.959 431.032 718.928 430.463C718.836 428.65 718.69 426.83 718.49 425.001C718.29 423.158 718.06 421.322 717.799 419.493C717.66 418.832 717.315 418.502 716.761 418.502C716.715 418.502 716.662 418.51 716.6 418.525C716.539 418.541 716.485 418.548 716.439 418.548C715.486 418.763 714.587 418.978 713.742 419.194C712.897 419.409 712.106 419.639 711.369 419.885C710.954 420.023 710.585 420.123 710.262 420.185C709.94 420.231 709.648 420.254 709.386 420.254C709.033 420.254 708.772 420.1 708.603 419.793C708.434 419.47 708.349 419.071 708.349 418.594C708.349 418.425 708.365 418.233 708.395 418.018C708.426 417.788 708.488 417.565 708.58 417.35C708.657 417.119 708.78 416.912 708.949 416.727C709.102 416.528 709.317 416.366 709.594 416.244C710.239 415.982 711.1 415.713 712.175 415.437C713.251 415.145 714.464 414.876 715.817 414.63C716.124 414.553 716.362 414.43 716.531 414.261C716.715 414.077 716.808 413.808 716.808 413.455C716.808 413.378 716.808 413.301 716.808 413.224C716.808 413.132 716.792 413.04 716.761 412.948C716.516 411.534 716.277 410.251 716.047 409.099C715.832 407.931 715.64 406.933 715.471 406.103C715.317 405.273 715.194 404.62 715.102 404.144C715.01 403.668 714.964 403.391 714.964 403.314ZM751.701 424.886C752.146 424.502 752.584 424.31 753.014 424.31C753.26 424.31 753.483 424.371 753.683 424.494C753.882 424.617 754.105 424.809 754.351 425.07C754.581 425.424 754.743 425.716 754.835 425.946C754.942 426.161 754.996 426.376 754.996 426.592C754.996 427.052 754.766 427.49 754.305 427.905C753.567 428.52 752.768 429.073 751.908 429.565C751.048 430.041 750.149 430.448 749.211 430.786C748.274 431.124 747.306 431.378 746.308 431.547C745.309 431.731 744.318 431.823 743.335 431.823C742.09 431.823 740.922 431.662 739.831 431.339C738.741 431.032 737.765 430.586 736.904 430.002C736.059 429.419 735.345 428.72 734.761 427.905C734.177 427.076 733.762 426.146 733.517 425.117C733.378 424.686 733.248 424.41 733.125 424.287C733.017 424.149 732.833 424.079 732.572 424.079C732.003 424.079 731.565 423.941 731.258 423.665C730.951 423.388 730.797 422.989 730.797 422.466C730.797 422.251 730.812 422.113 730.843 422.051L730.889 421.59C730.966 421.037 731.112 420.638 731.327 420.392C731.558 420.146 731.911 420.023 732.387 420.023H732.733C733.378 420.023 733.832 419.724 734.093 419.124C734.569 418.064 735.176 417.096 735.913 416.22C736.651 415.345 737.481 414.599 738.402 413.985C739.324 413.355 740.308 412.871 741.352 412.533C742.413 412.18 743.488 412.003 744.579 412.003C745.716 412.003 746.776 412.172 747.76 412.51C748.758 412.833 749.626 413.286 750.364 413.87C751.101 414.454 751.677 415.137 752.092 415.921C752.523 416.704 752.738 417.549 752.738 418.456C752.738 419.086 752.615 419.662 752.369 420.185C752.123 420.707 751.77 421.168 751.309 421.567C750.848 421.951 750.287 422.266 749.626 422.512C748.981 422.758 748.244 422.919 747.414 422.996L739.417 423.803C739.109 423.803 738.856 423.88 738.656 424.033C738.472 424.187 738.379 424.394 738.379 424.656C738.379 425.055 738.525 425.439 738.817 425.808C739.125 426.177 739.524 426.507 740.016 426.799C740.523 427.076 741.099 427.298 741.744 427.467C742.405 427.636 743.081 427.721 743.772 427.721C744.433 427.721 745.109 427.659 745.801 427.536C746.507 427.398 747.199 427.206 747.875 426.96C748.566 426.714 749.235 426.423 749.88 426.085C750.525 425.731 751.132 425.332 751.701 424.886ZM746.561 418.94C746.792 418.894 746.991 418.786 747.16 418.617C747.329 418.433 747.414 418.21 747.414 417.949C747.414 417.719 747.329 417.503 747.16 417.304C746.991 417.104 746.761 416.927 746.469 416.774C746.177 416.605 745.839 416.474 745.455 416.382C745.071 416.29 744.664 416.244 744.233 416.244C743.603 416.244 742.958 416.336 742.297 416.52C741.637 416.704 741.038 416.95 740.5 417.258C739.962 417.549 739.524 417.88 739.186 418.249C738.848 418.602 738.679 418.955 738.679 419.309C738.679 419.662 738.894 419.839 739.324 419.839C739.586 419.839 740.008 419.808 740.592 419.747C741.176 419.685 741.821 419.616 742.528 419.539C743.235 419.447 743.949 419.347 744.671 419.24C745.393 419.132 746.023 419.032 746.561 418.94ZM768.963 412.694C768.394 412.694 767.895 412.848 767.465 413.155C767.034 413.447 766.666 413.862 766.358 414.4C766.051 414.922 765.798 415.544 765.598 416.267C765.398 416.973 765.237 417.749 765.114 418.594C764.991 419.439 764.906 420.323 764.86 421.245C764.814 422.167 764.791 423.096 764.791 424.033C764.791 425.263 764.837 426.476 764.929 427.675C765.037 428.858 765.091 429.956 765.091 430.97C765.091 431.631 764.845 432.146 764.353 432.515C763.862 432.899 763.163 433.091 762.256 433.091C762.087 433.091 761.895 433.075 761.68 433.045C761.465 433.014 761.257 432.952 761.058 432.86C760.873 432.768 760.704 432.638 760.551 432.469C760.412 432.315 760.335 432.1 760.32 431.823C760.182 430.471 759.982 429.088 759.721 427.675C759.46 426.261 759.129 424.855 758.73 423.457C758.346 422.044 757.877 420.645 757.324 419.263C756.786 417.88 756.164 416.528 755.457 415.206C755.334 414.976 755.227 414.761 755.135 414.561C755.058 414.361 755.019 414.169 755.019 413.985C755.019 413.754 755.119 413.509 755.319 413.247C755.534 412.971 755.795 412.717 756.102 412.487C756.425 412.256 756.771 412.072 757.14 411.934C757.524 411.78 757.892 411.703 758.246 411.703C758.83 411.703 759.344 412.11 759.79 412.925C760.236 413.724 760.65 415.007 761.035 416.774C761.111 417.081 761.173 417.296 761.219 417.419C761.265 417.542 761.326 417.603 761.403 417.603C761.572 417.603 761.68 417.342 761.726 416.82C761.91 415.36 762.225 414.108 762.671 413.063C763.116 412.003 763.67 411.135 764.33 410.459C765.006 409.767 765.775 409.26 766.635 408.938C767.511 408.615 768.471 408.454 769.516 408.454C770.115 408.454 770.722 408.507 771.336 408.615C771.951 408.723 772.504 408.884 772.996 409.099C773.488 409.314 773.887 409.575 774.194 409.883C774.502 410.19 774.655 410.536 774.655 410.92C774.655 411.196 774.594 411.527 774.471 411.911C774.363 412.279 774.217 412.641 774.033 412.994C773.849 413.332 773.633 413.624 773.388 413.87C773.157 414.1 772.919 414.215 772.673 414.215C772.397 414.215 772.128 414.139 771.867 413.985C771.605 413.816 771.321 413.639 771.014 413.455C770.722 413.27 770.407 413.101 770.069 412.948C769.746 412.779 769.377 412.694 768.963 412.694ZM782.722 427.145C782.722 427.314 782.606 427.713 782.376 428.343C782.145 428.973 781.838 429.711 781.454 430.556C781.085 431.401 780.655 432.292 780.163 433.229C779.672 434.166 779.172 435.027 778.665 435.81C778.158 436.594 777.659 437.239 777.167 437.746C776.691 438.269 776.261 438.53 775.877 438.53C775.692 438.53 775.462 438.476 775.185 438.369C774.909 438.261 774.64 438.123 774.379 437.954C774.133 437.8 773.918 437.623 773.733 437.424C773.549 437.239 773.457 437.055 773.457 436.87C773.457 436.717 773.61 436.333 773.918 435.718C774.24 435.119 774.632 434.335 775.093 433.367C775.554 432.415 776.046 431.316 776.568 430.072C777.091 428.827 777.551 427.49 777.951 426.061C778.043 425.754 778.174 425.516 778.343 425.347C778.512 425.163 778.742 425.07 779.034 425.07C779.311 425.07 779.656 425.132 780.071 425.255C780.486 425.362 780.886 425.516 781.27 425.716C781.669 425.9 782.007 426.115 782.284 426.361C782.576 426.607 782.722 426.868 782.722 427.145ZM797.287 417.235C796.934 417.204 796.65 416.973 796.435 416.543C796.219 416.113 796.112 415.637 796.112 415.114C796.112 414.868 796.135 414.63 796.181 414.4C796.212 414.154 796.273 413.939 796.365 413.754C796.458 413.57 796.573 413.424 796.711 413.317C796.849 413.194 797.011 413.132 797.195 413.132C797.764 413.132 798.417 413.117 799.154 413.086C799.892 413.04 800.683 412.994 801.528 412.948C801.958 412.902 802.196 412.648 802.242 412.187C802.381 409.959 802.573 408.039 802.819 406.426C803.064 404.812 803.364 403.452 803.717 402.346C804.071 401.225 804.47 400.318 804.916 399.627C805.377 398.935 805.884 398.405 806.437 398.036C806.606 397.914 806.806 397.791 807.036 397.668C807.267 397.529 807.482 397.46 807.681 397.46C808.066 397.46 808.465 397.56 808.88 397.76C809.31 397.944 809.702 398.19 810.055 398.497C810.424 398.789 810.724 399.127 810.954 399.511C811.185 399.88 811.3 400.249 811.3 400.618C811.3 400.756 811.269 400.871 811.208 400.963C811.146 401.04 811.069 401.117 810.977 401.194C810.378 401.639 809.848 402.139 809.387 402.692C808.926 403.245 808.534 403.921 808.211 404.72C807.889 405.519 807.62 406.479 807.405 407.601C807.19 408.723 807.028 410.075 806.921 411.657C806.921 411.903 806.959 412.087 807.036 412.21C807.128 412.318 807.29 412.372 807.52 412.372C808.119 412.372 808.719 412.326 809.318 412.233C809.932 412.141 810.516 412.049 811.069 411.957C811.622 411.849 812.145 411.749 812.636 411.657C813.128 411.565 813.566 411.519 813.95 411.519C814.227 411.519 814.426 411.688 814.549 412.026C814.688 412.349 814.757 412.748 814.757 413.224C814.757 413.501 814.734 413.785 814.688 414.077C814.642 414.369 814.565 414.63 814.457 414.861C814.365 415.091 814.242 415.291 814.088 415.46C813.935 415.614 813.743 415.706 813.512 415.736L807.382 416.382C807.059 416.428 806.859 416.558 806.783 416.774C806.721 416.989 806.69 417.288 806.69 417.672C806.69 421.068 806.775 423.987 806.944 426.43C807.113 428.873 807.297 430.924 807.497 432.584C807.712 434.258 807.904 435.572 808.073 436.525C808.242 437.493 808.327 438.192 808.327 438.622C808.327 438.945 808.196 439.237 807.935 439.498C807.689 439.759 807.366 439.982 806.967 440.166C806.583 440.351 806.16 440.489 805.699 440.581C805.238 440.689 804.808 440.742 804.409 440.742C804.025 440.742 803.679 440.673 803.372 440.535C803.08 440.412 802.911 440.197 802.865 439.89C802.711 438.814 802.58 437.631 802.473 436.34C802.365 435.065 802.273 433.644 802.196 432.077C802.135 430.525 802.089 428.827 802.058 426.983C802.027 425.124 802.012 423.088 802.012 420.876C802.012 420.307 802.012 419.754 802.012 419.217C802.012 418.679 802.027 418.141 802.058 417.603C802.058 417.142 801.804 416.912 801.297 416.912L797.287 417.235ZM828.193 409.79C829.038 409.79 829.852 409.921 830.636 410.182C831.42 410.443 832.111 410.804 832.71 411.265C833.31 411.726 833.786 412.279 834.139 412.925C834.508 413.57 834.692 414.285 834.692 415.068C834.692 415.391 834.616 415.706 834.462 416.013C834.324 416.305 834.132 416.566 833.886 416.797C833.64 417.012 833.356 417.188 833.033 417.327C832.726 417.45 832.403 417.511 832.065 417.511C832.034 417.511 832.004 417.519 831.973 417.534C831.957 417.534 831.934 417.534 831.904 417.534C831.873 417.549 831.842 417.557 831.811 417.557L831.904 419.401C831.965 421.598 832.272 423.204 832.826 424.218C833.394 425.232 834.132 425.739 835.038 425.739C835.361 425.739 835.645 425.708 835.891 425.647C836.152 425.585 836.39 425.516 836.605 425.439C836.836 425.347 837.051 425.27 837.251 425.209C837.45 425.147 837.65 425.117 837.85 425.117C838.203 425.117 838.51 425.27 838.772 425.577C839.048 425.885 839.186 426.254 839.186 426.684C839.186 427.114 839.017 427.544 838.679 427.974C838.357 428.405 837.927 428.796 837.389 429.15C836.851 429.488 836.244 429.764 835.568 429.979C834.892 430.195 834.208 430.302 833.517 430.302C832.319 430.302 831.266 429.81 830.36 428.827C829.453 427.828 828.808 426.369 828.424 424.448C828.331 424.141 828.208 423.987 828.055 423.987C827.87 423.987 827.709 424.079 827.571 424.264C826.05 426.184 824.429 427.629 822.708 428.597C820.987 429.549 819.289 430.026 817.615 430.026C816.831 430.026 816.124 429.91 815.494 429.68C814.864 429.449 814.327 429.127 813.881 428.712C813.451 428.282 813.113 427.767 812.867 427.168C812.636 426.553 812.521 425.869 812.521 425.117C812.521 424.056 812.752 422.942 813.213 421.775C813.689 420.607 814.327 419.455 815.126 418.318C815.925 417.181 816.846 416.098 817.891 415.068C818.951 414.039 820.058 413.132 821.21 412.349C822.378 411.565 823.561 410.943 824.759 410.482C825.958 410.021 827.102 409.79 828.193 409.79ZM827.433 417.765C827.709 417.242 827.963 416.866 828.193 416.635C828.424 416.389 828.754 416.228 829.184 416.151C829.522 416.105 829.691 415.998 829.691 415.829C829.691 415.706 829.645 415.575 829.553 415.437C829.261 415.037 828.954 414.692 828.631 414.4C828.308 414.092 827.878 413.939 827.34 413.939C826.757 413.939 826.104 414.108 825.381 414.446C824.659 414.784 823.922 415.237 823.169 415.806C822.431 416.359 821.702 416.996 820.979 417.719C820.273 418.425 819.643 419.155 819.09 419.908C818.536 420.661 818.091 421.406 817.753 422.144C817.415 422.881 817.246 423.542 817.246 424.126C817.246 424.648 817.384 425.055 817.661 425.347C817.953 425.639 818.344 425.785 818.836 425.785C820.096 425.785 821.471 425.117 822.961 423.78C824.452 422.443 825.942 420.438 827.433 417.765ZM845.686 409.929C846.715 409.929 847.775 410.067 848.866 410.344C849.957 410.605 850.956 410.95 851.862 411.381C852.769 411.795 853.514 412.264 854.098 412.786C854.682 413.309 854.974 413.816 854.974 414.308C854.974 414.553 854.866 414.83 854.651 415.137C854.436 415.429 854.175 415.713 853.867 415.99C853.56 416.251 853.222 416.474 852.853 416.658C852.5 416.827 852.185 416.912 851.908 416.912C851.54 416.912 851.125 416.758 850.664 416.451C850.218 416.144 849.719 415.806 849.166 415.437C848.628 415.053 848.036 414.707 847.391 414.4C846.746 414.092 846.047 413.939 845.294 413.939C844.802 413.939 844.395 414.062 844.072 414.308C843.765 414.538 843.611 414.868 843.611 415.299C843.611 415.683 843.796 416.074 844.165 416.474C844.533 416.858 845.017 417.258 845.617 417.672C846.231 418.087 846.923 418.525 847.691 418.986C848.459 419.447 849.243 419.939 850.042 420.461C850.856 420.983 851.647 421.552 852.415 422.167C853.184 422.781 853.867 423.449 854.467 424.172C855.081 424.894 855.573 425.685 855.942 426.545C856.31 427.391 856.495 428.312 856.495 429.311C856.495 430.172 856.341 430.955 856.034 431.662C855.726 432.369 855.289 432.976 854.72 433.483C854.152 433.99 853.476 434.381 852.692 434.658C851.908 434.935 851.048 435.073 850.111 435.073C848.928 435.073 847.837 434.888 846.838 434.52C845.839 434.166 844.979 433.675 844.257 433.045C843.535 432.415 842.966 431.662 842.551 430.786C842.152 429.91 841.952 428.95 841.952 427.905C841.952 426.553 842.19 425.57 842.667 424.955C843.158 424.341 843.926 424.033 844.971 424.033C845.617 424.033 846.131 424.156 846.515 424.402C846.899 424.648 847.092 424.948 847.092 425.301C847.092 425.485 847.061 425.677 846.999 425.877C846.938 426.061 846.869 426.261 846.792 426.476C846.73 426.676 846.669 426.891 846.608 427.122C846.561 427.352 846.538 427.583 846.538 427.813C846.538 428.213 846.631 428.597 846.815 428.965C846.999 429.334 847.245 429.657 847.552 429.933C847.875 430.225 848.244 430.456 848.659 430.625C849.074 430.794 849.511 430.878 849.972 430.878C851.202 430.878 851.816 430.371 851.816 429.357C851.816 428.558 851.501 427.805 850.871 427.099C850.241 426.376 849.45 425.677 848.497 425.001C847.545 424.31 846.515 423.619 845.409 422.927C844.318 422.236 843.297 421.514 842.344 420.761C841.391 420.008 840.6 419.209 839.97 418.364C839.34 417.503 839.025 416.574 839.025 415.575C839.025 414.745 839.194 413.985 839.532 413.294C839.886 412.602 840.362 412.011 840.961 411.519C841.56 411.012 842.259 410.62 843.058 410.344C843.873 410.067 844.748 409.929 845.686 409.929ZM859.468 403.314C859.468 402.5 859.698 401.931 860.159 401.609C860.62 401.271 861.381 401.102 862.441 401.102C862.825 401.102 863.148 401.14 863.409 401.217C863.685 401.278 863.916 401.401 864.1 401.586C864.3 401.77 864.454 402.016 864.561 402.323C864.684 402.615 864.784 402.992 864.861 403.452C865.045 404.881 865.245 406.356 865.46 407.877C865.69 409.399 865.929 410.927 866.174 412.464C866.267 413.155 866.628 413.501 867.258 413.501C867.427 413.501 867.703 413.486 868.087 413.455C868.487 413.409 868.955 413.363 869.493 413.317C870.031 413.255 870.607 413.194 871.222 413.132C871.852 413.071 872.474 413.017 873.088 412.971C873.718 412.909 874.31 412.863 874.863 412.833C875.432 412.786 875.931 412.763 876.361 412.763C876.699 412.763 876.968 412.833 877.168 412.971C877.367 413.094 877.521 413.263 877.629 413.478C877.752 413.678 877.828 413.908 877.859 414.169C877.905 414.415 877.928 414.669 877.928 414.93C877.928 415.16 877.882 415.398 877.79 415.644C877.713 415.89 877.598 416.113 877.444 416.313C877.306 416.497 877.129 416.651 876.914 416.774C876.699 416.897 876.453 416.958 876.177 416.958C874.84 416.958 873.488 417.004 872.12 417.096C870.768 417.173 869.416 417.281 868.064 417.419C867.373 417.511 867.027 417.857 867.027 418.456C867.027 418.502 867.035 418.564 867.05 418.64C867.066 418.702 867.073 418.756 867.073 418.802C867.258 420.138 867.427 421.391 867.58 422.558C867.749 423.726 867.888 424.771 867.995 425.693C868.118 426.599 868.21 427.36 868.272 427.974C868.348 428.574 868.387 428.973 868.387 429.173C868.387 429.726 868.333 430.187 868.226 430.556C868.118 430.94 867.941 431.247 867.695 431.477C867.45 431.723 867.119 431.892 866.704 431.985C866.305 432.092 865.798 432.146 865.183 432.146C864.6 432.146 864.169 432.008 863.893 431.731C863.616 431.454 863.463 431.032 863.432 430.463C863.34 428.65 863.194 426.83 862.994 425.001C862.794 423.158 862.564 421.322 862.302 419.493C862.164 418.832 861.819 418.502 861.265 418.502C861.219 418.502 861.166 418.51 861.104 418.525C861.043 418.541 860.989 418.548 860.943 418.548C859.99 418.763 859.091 418.978 858.246 419.194C857.401 419.409 856.61 419.639 855.872 419.885C855.458 420.023 855.089 420.123 854.766 420.185C854.444 420.231 854.152 420.254 853.89 420.254C853.537 420.254 853.276 420.1 853.107 419.793C852.938 419.47 852.853 419.071 852.853 418.594C852.853 418.425 852.869 418.233 852.899 418.018C852.93 417.788 852.992 417.565 853.084 417.35C853.161 417.119 853.283 416.912 853.452 416.727C853.606 416.528 853.821 416.366 854.098 416.244C854.743 415.982 855.604 415.713 856.679 415.437C857.755 415.145 858.968 414.876 860.32 414.63C860.628 414.553 860.866 414.43 861.035 414.261C861.219 414.077 861.311 413.808 861.311 413.455C861.311 413.378 861.311 413.301 861.311 413.224C861.311 413.132 861.296 413.04 861.265 412.948C861.02 411.534 860.781 410.251 860.551 409.099C860.336 407.931 860.144 406.933 859.975 406.103C859.821 405.273 859.698 404.62 859.606 404.144C859.514 403.668 859.468 403.391 859.468 403.314ZM896.204 424.886C896.65 424.502 897.088 424.31 897.518 424.31C897.764 424.31 897.987 424.371 898.186 424.494C898.386 424.617 898.609 424.809 898.855 425.07C899.085 425.424 899.247 425.716 899.339 425.946C899.446 426.161 899.5 426.376 899.5 426.592C899.5 427.052 899.27 427.49 898.809 427.905C898.071 428.52 897.272 429.073 896.412 429.565C895.551 430.041 894.653 430.448 893.715 430.786C892.778 431.124 891.81 431.378 890.811 431.547C889.813 431.731 888.822 431.823 887.838 431.823C886.594 431.823 885.426 431.662 884.335 431.339C883.244 431.032 882.269 430.586 881.408 430.002C880.563 429.419 879.849 428.72 879.265 427.905C878.681 427.076 878.266 426.146 878.02 425.117C877.882 424.686 877.752 424.41 877.629 424.287C877.521 424.149 877.337 424.079 877.076 424.079C876.507 424.079 876.069 423.941 875.762 423.665C875.455 423.388 875.301 422.989 875.301 422.466C875.301 422.251 875.316 422.113 875.347 422.051L875.393 421.59C875.47 421.037 875.616 420.638 875.831 420.392C876.061 420.146 876.415 420.023 876.891 420.023H877.237C877.882 420.023 878.335 419.724 878.597 419.124C879.073 418.064 879.68 417.096 880.417 416.22C881.155 415.345 881.985 414.599 882.906 413.985C883.828 413.355 884.812 412.871 885.856 412.533C886.917 412.18 887.992 412.003 889.083 412.003C890.22 412.003 891.28 412.172 892.263 412.51C893.262 412.833 894.13 413.286 894.868 413.87C895.605 414.454 896.181 415.137 896.596 415.921C897.026 416.704 897.242 417.549 897.242 418.456C897.242 419.086 897.119 419.662 896.873 420.185C896.627 420.707 896.274 421.168 895.813 421.567C895.352 421.951 894.791 422.266 894.13 422.512C893.485 422.758 892.747 422.919 891.918 422.996L883.92 423.803C883.613 423.803 883.36 423.88 883.16 424.033C882.976 424.187 882.883 424.394 882.883 424.656C882.883 425.055 883.029 425.439 883.321 425.808C883.629 426.177 884.028 426.507 884.52 426.799C885.027 427.076 885.603 427.298 886.248 427.467C886.909 427.636 887.585 427.721 888.276 427.721C888.937 427.721 889.613 427.659 890.304 427.536C891.011 427.398 891.703 427.206 892.379 426.96C893.07 426.714 893.738 426.423 894.384 426.085C895.029 425.731 895.636 425.332 896.204 424.886ZM891.065 418.94C891.295 418.894 891.495 418.786 891.664 418.617C891.833 418.433 891.918 418.21 891.918 417.949C891.918 417.719 891.833 417.503 891.664 417.304C891.495 417.104 891.265 416.927 890.973 416.774C890.681 416.605 890.343 416.474 889.959 416.382C889.575 416.29 889.167 416.244 888.737 416.244C888.107 416.244 887.462 416.336 886.801 416.52C886.141 416.704 885.541 416.95 885.004 417.258C884.466 417.549 884.028 417.88 883.69 418.249C883.352 418.602 883.183 418.955 883.183 419.309C883.183 419.662 883.398 419.839 883.828 419.839C884.089 419.839 884.512 419.808 885.096 419.747C885.68 419.685 886.325 419.616 887.032 419.539C887.739 419.447 888.453 419.347 889.175 419.24C889.897 419.132 890.527 419.032 891.065 418.94ZM913.467 412.694C912.898 412.694 912.399 412.848 911.969 413.155C911.538 413.447 911.17 413.862 910.862 414.4C910.555 414.922 910.301 415.544 910.102 416.267C909.902 416.973 909.741 417.749 909.618 418.594C909.495 419.439 909.41 420.323 909.364 421.245C909.318 422.167 909.295 423.096 909.295 424.033C909.295 425.263 909.341 426.476 909.433 427.675C909.541 428.858 909.595 429.956 909.595 430.97C909.595 431.631 909.349 432.146 908.857 432.515C908.366 432.899 907.666 433.091 906.76 433.091C906.591 433.091 906.399 433.075 906.184 433.045C905.969 433.014 905.761 432.952 905.561 432.86C905.377 432.768 905.208 432.638 905.054 432.469C904.916 432.315 904.839 432.1 904.824 431.823C904.686 430.471 904.486 429.088 904.225 427.675C903.964 426.261 903.633 424.855 903.234 423.457C902.85 422.044 902.381 420.645 901.828 419.263C901.29 417.88 900.668 416.528 899.961 415.206C899.838 414.976 899.731 414.761 899.638 414.561C899.562 414.361 899.523 414.169 899.523 413.985C899.523 413.754 899.623 413.509 899.823 413.247C900.038 412.971 900.299 412.717 900.606 412.487C900.929 412.256 901.275 412.072 901.644 411.934C902.028 411.78 902.396 411.703 902.75 411.703C903.334 411.703 903.848 412.11 904.294 412.925C904.739 413.724 905.154 415.007 905.538 416.774C905.615 417.081 905.677 417.296 905.723 417.419C905.769 417.542 905.83 417.603 905.907 417.603C906.076 417.603 906.184 417.342 906.23 416.82C906.414 415.36 906.729 414.108 907.175 413.063C907.62 412.003 908.173 411.135 908.834 410.459C909.51 409.767 910.278 409.26 911.139 408.938C912.015 408.615 912.975 408.454 914.02 408.454C914.619 408.454 915.226 408.507 915.84 408.615C916.455 408.723 917.008 408.884 917.5 409.099C917.991 409.314 918.391 409.575 918.698 409.883C919.005 410.19 919.159 410.536 919.159 410.92C919.159 411.196 919.098 411.527 918.975 411.911C918.867 412.279 918.721 412.641 918.537 412.994C918.352 413.332 918.137 413.624 917.892 413.87C917.661 414.1 917.423 414.215 917.177 414.215C916.901 414.215 916.632 414.139 916.37 413.985C916.109 413.816 915.825 413.639 915.518 413.455C915.226 413.27 914.911 413.101 914.573 412.948C914.25 412.779 913.881 412.694 913.467 412.694Z" fill="white"/>
<path d="M225.566 402.176C225.435 403.918 224.95 405.612 224.14 407.156C220.264 415.234 207.958 422.328 202.72 425.069C202.439 425.221 202.125 425.304 201.803 425.311C201.482 425.318 201.162 425.249 200.87 425.109C200.579 424.969 200.325 424.763 200.129 424.508C199.933 424.252 199.801 423.955 199.744 423.641C198.604 417.84 196.436 403.802 200.334 395.735C201.031 394.137 202.049 392.699 203.326 391.506C204.603 390.313 206.113 389.39 207.766 388.792C209.42 388.194 211.182 387.933 212.949 388.025C214.716 388.117 216.451 388.56 218.05 389.328C219.65 390.095 221.081 391.171 222.259 392.492C223.436 393.812 224.336 395.35 224.904 397.014C225.472 398.678 225.698 400.433 225.566 402.176Z" fill="white"/>
<path d="M269.557 281.968C246.526 270.918 223.319 271.459 217.697 283.176L192.262 336.193C186.641 347.91 200.794 366.374 223.773 377.399C246.753 388.423 270.012 387.907 275.633 376.191L301.068 323.173C306.69 311.457 292.588 293.017 269.557 281.968ZM265.212 371.191C263.94 373.842 249.026 376.47 228.861 366.795C208.695 357.121 201.412 343.844 202.683 341.193L208.355 329.37C214.761 337.53 224.611 345.19 236.491 350.89C248.371 356.59 260.511 359.479 270.884 359.368L265.212 371.191ZM276.785 347.068C267.594 348.855 254.188 346.336 241.578 340.287C228.968 334.237 218.614 325.356 214.256 317.07L221.404 302.172C226.952 310.247 236.755 318.407 249.209 324.382C261.662 330.356 274.161 332.896 283.932 332.17L276.785 347.068ZM254.296 313.778C234.13 304.104 226.847 290.826 228.119 288.176C229.39 285.525 244.305 282.897 264.47 292.571C284.635 302.246 291.919 315.523 290.647 318.174C289.375 320.825 274.461 323.453 254.296 313.778Z" fill="white"/>
<path d="M357.115 321.081C360.203 321.081 363.384 321.496 366.656 322.325C369.929 323.109 372.925 324.146 375.645 325.437C378.364 326.681 380.6 328.087 382.351 329.654C384.103 331.221 384.979 332.743 384.979 334.218C384.979 334.955 384.656 335.785 384.011 336.707C383.365 337.582 382.582 338.435 381.66 339.265C380.738 340.048 379.724 340.717 378.618 341.27C377.558 341.777 376.613 342.03 375.783 342.03C374.677 342.03 373.432 341.57 372.049 340.648C370.713 339.726 369.215 338.712 367.555 337.605C365.942 336.453 364.167 335.416 362.231 334.494C360.295 333.572 358.198 333.111 355.94 333.111C354.465 333.111 353.243 333.48 352.275 334.218C351.353 334.909 350.892 335.9 350.892 337.191C350.892 338.343 351.445 339.518 352.552 340.717C353.658 341.869 355.11 343.068 356.908 344.312C358.751 345.557 360.826 346.87 363.13 348.253C365.435 349.636 367.786 351.111 370.183 352.678C372.626 354.245 374.999 355.951 377.304 357.795C379.609 359.638 381.66 361.643 383.458 363.81C385.301 365.976 386.776 368.35 387.883 370.931C388.989 373.466 389.542 376.232 389.542 379.228C389.542 381.809 389.081 384.16 388.159 386.28C387.237 388.401 385.924 390.221 384.218 391.743C382.513 393.264 380.485 394.439 378.134 395.269C375.783 396.098 373.202 396.513 370.39 396.513C366.841 396.513 363.568 395.96 360.572 394.854C357.576 393.794 354.995 392.319 352.828 390.429C350.662 388.539 348.956 386.28 347.712 383.653C346.513 381.026 345.914 378.145 345.914 375.011C345.914 370.954 346.629 368.004 348.058 366.161C349.533 364.317 351.837 363.395 354.972 363.395C356.908 363.395 358.452 363.764 359.604 364.501C360.756 365.239 361.333 366.137 361.333 367.198C361.333 367.751 361.24 368.327 361.056 368.926C360.872 369.479 360.664 370.078 360.434 370.724C360.249 371.323 360.065 371.968 359.881 372.66C359.742 373.351 359.673 374.043 359.673 374.734C359.673 375.932 359.95 377.085 360.503 378.191C361.056 379.297 361.793 380.265 362.715 381.095C363.683 381.971 364.79 382.662 366.034 383.169C367.279 383.676 368.592 383.93 369.975 383.93C373.663 383.93 375.506 382.409 375.506 379.366C375.506 376.97 374.561 374.711 372.672 372.591C370.782 370.424 368.408 368.327 365.55 366.299C362.692 364.225 359.604 362.15 356.285 360.076C353.013 358.002 349.947 355.836 347.09 353.577C344.232 351.318 341.858 348.921 339.968 346.386C338.078 343.805 337.133 341.016 337.133 338.02C337.133 335.531 337.64 333.25 338.654 331.175C339.715 329.101 341.143 327.327 342.941 325.852C344.739 324.33 346.836 323.155 349.233 322.325C351.676 321.496 354.303 321.081 357.115 321.081Z" fill="white"/>
<path d="M473.064 302.344C473.064 299.947 473.755 298.241 475.138 297.227C476.521 296.213 478.802 295.706 481.983 295.706C483.089 295.706 484.057 295.821 484.887 296.052C485.717 296.282 486.408 296.674 486.961 297.227C487.514 297.734 487.952 298.449 488.275 299.371C488.643 300.246 488.943 301.376 489.174 302.759C489.773 306.861 490.372 311.171 490.971 315.688C491.617 320.159 492.216 324.63 492.769 329.101C493.368 333.526 493.921 337.859 494.428 342.1C494.935 346.294 495.373 350.212 495.742 353.853C496.157 357.449 496.456 360.652 496.641 363.464C496.871 366.23 496.986 368.419 496.986 370.032C496.986 371.692 496.825 373.098 496.502 374.25C496.226 375.402 495.719 376.324 494.981 377.016C494.29 377.707 493.368 378.214 492.216 378.537C491.11 378.813 489.727 378.952 488.067 378.952C486.454 378.952 485.163 378.537 484.195 377.707C483.274 376.877 482.813 375.61 482.813 373.904C482.813 372.153 482.674 369.825 482.398 366.921C482.121 363.971 481.752 360.698 481.292 357.103C480.831 353.508 480.301 349.682 479.701 345.626C479.148 341.57 478.549 337.559 477.904 333.595C477.304 329.631 476.705 325.828 476.106 322.187C475.553 318.5 475.046 315.25 474.585 312.438C474.124 309.58 473.755 307.253 473.479 305.455C473.202 303.611 473.064 302.574 473.064 302.344Z" fill="white"/>
<path d="M518.42 310.571C517.083 310.571 515.816 310.387 514.617 310.018C513.465 309.603 512.451 309.05 511.575 308.359C510.745 307.621 510.077 306.769 509.57 305.801C509.063 304.833 508.81 303.773 508.81 302.62C508.81 300.684 509.57 299.117 511.091 297.919C512.658 296.72 514.733 296.121 517.314 296.121C518.512 296.121 519.665 296.352 520.771 296.812C521.877 297.227 522.845 297.803 523.675 298.541C524.551 299.278 525.242 300.154 525.749 301.168C526.256 302.136 526.51 303.15 526.51 304.211C526.51 306.193 525.772 307.76 524.297 308.912C522.868 310.018 520.909 310.571 518.42 310.571ZM508.948 331.659C508.948 330.046 509.639 328.732 511.022 327.718C512.451 326.658 514.318 326.128 516.622 326.128C520.771 326.128 522.983 327.557 523.26 330.415C523.444 332.397 523.629 334.632 523.813 337.121C524.043 339.611 524.251 342.261 524.435 345.073C524.666 347.838 524.85 350.719 524.988 353.715C525.173 356.665 525.334 359.592 525.472 362.496C525.611 365.354 525.726 368.12 525.818 370.793C525.91 373.466 525.956 375.909 525.956 378.122C525.956 380.427 525.127 382.155 523.467 383.307C521.854 384.46 519.48 385.036 516.346 385.036C514.917 385.036 513.788 384.69 512.958 383.999C512.174 383.353 511.783 382.386 511.783 381.095C511.783 374.734 511.621 368.788 511.299 363.257C511.022 357.679 510.699 352.724 510.331 348.391C510.008 344.059 509.685 340.463 509.363 337.605C509.086 334.702 508.948 332.72 508.948 331.659Z" fill="white"/>
<path d="M575.323 327.165C577.535 327.165 579.633 327.35 581.615 327.718C583.597 328.041 585.394 328.41 587.008 328.825C588.621 329.193 590.004 329.562 591.156 329.931C592.308 330.253 593.138 330.415 593.645 330.415C594.06 330.415 594.452 330.207 594.82 329.793C595.189 329.332 595.65 328.848 596.203 328.341C596.756 327.834 597.494 327.373 598.416 326.958C599.338 326.497 600.559 326.266 602.08 326.266C603.832 326.266 605.215 326.727 606.229 327.649C607.243 328.525 607.75 329.631 607.75 330.968C607.75 347.838 607.174 362.173 606.021 373.973C604.869 385.727 603.002 395.292 600.421 402.667C597.84 410.042 594.498 415.389 590.395 418.707C586.293 422.026 581.315 423.686 575.461 423.686C572.788 423.686 569.999 423.086 567.095 421.888C564.237 420.689 561.61 419.145 559.213 417.255C556.816 415.412 554.834 413.361 553.267 411.102C551.746 408.843 550.985 406.677 550.985 404.603C550.985 403.911 551.354 403.105 552.092 402.183C552.829 401.261 553.728 400.362 554.788 399.486C555.848 398.611 556.954 397.873 558.107 397.274C559.259 396.675 560.25 396.375 561.08 396.375C561.956 396.375 562.693 396.721 563.292 397.412C563.892 398.15 564.445 399.048 564.952 400.109C565.505 401.169 566.058 402.321 566.611 403.566C567.164 404.856 567.856 406.032 568.685 407.092C569.515 408.152 570.529 409.028 571.727 409.719C572.926 410.457 574.424 410.825 576.222 410.825C586.27 410.825 592.17 395.476 593.922 364.778C593.922 363.395 593.53 362.703 592.746 362.703C592.101 362.703 591.594 363.026 591.225 363.671C586.892 369.525 581.822 373.927 576.014 376.877C570.252 379.781 563.845 381.233 556.793 381.233C553.52 381.233 550.501 380.749 547.736 379.781C544.97 378.767 542.573 377.384 540.545 375.633C538.563 373.835 537.019 371.715 535.913 369.272C534.806 366.783 534.253 364.063 534.253 361.113C534.253 358.209 534.76 355.352 535.774 352.54C536.835 349.682 538.286 347.009 540.13 344.52C542.02 341.984 544.256 339.657 546.837 337.536C549.418 335.416 552.23 333.595 555.272 332.074C558.314 330.507 561.518 329.309 564.883 328.479C568.293 327.603 571.774 327.165 575.323 327.165ZM558.936 368.511C565.251 368.511 571.036 366.529 576.291 362.565C581.545 358.555 586.04 352.747 589.773 345.142C589.865 344.865 589.935 344.658 589.981 344.52C590.027 344.335 590.05 344.151 590.05 343.966C590.05 343.505 589.566 343.021 588.598 342.514C587.63 342.007 586.362 341.57 584.795 341.201C583.228 340.832 581.43 340.532 579.402 340.302C577.42 340.025 575.415 339.887 573.387 339.887C570.114 339.887 566.957 340.44 563.915 341.546C560.872 342.653 558.176 344.128 555.825 345.971C553.474 347.815 551.585 349.912 550.156 352.263C548.727 354.614 548.012 357.057 548.012 359.592C548.012 362.312 549.003 364.478 550.985 366.091C553.013 367.705 555.664 368.511 558.936 368.511Z" fill="white"/>
<path d="M617.429 314.512C617.429 309.534 620.656 307.045 627.109 307.045C628.215 307.045 629.183 307.345 630.013 307.944C630.843 308.543 631.327 309.373 631.465 310.433C631.88 313.245 632.249 316.034 632.571 318.799C632.894 321.565 633.193 324.676 633.47 328.133C633.793 331.544 634.092 335.508 634.369 340.025C634.692 344.496 635.037 349.843 635.406 356.066C635.406 356.711 635.498 357.172 635.683 357.449C635.913 357.725 636.167 357.864 636.443 357.864C636.858 357.864 637.273 357.449 637.688 356.619C639.255 353.162 641.006 350.074 642.942 347.354C644.878 344.589 646.952 342.261 649.165 340.371C651.377 338.435 653.705 336.983 656.148 336.015C658.637 335.001 661.172 334.494 663.754 334.494C667.165 334.494 670.253 335.462 673.018 337.398C675.784 339.334 678.135 342.077 680.071 345.626C682.007 349.175 683.505 353.485 684.565 358.555C685.625 363.579 686.155 369.203 686.155 375.425C686.155 377.131 686.017 378.537 685.74 379.643C685.51 380.703 685.095 381.556 684.496 382.201C683.897 382.846 683.067 383.284 682.007 383.515C680.947 383.791 679.633 383.93 678.066 383.93C675.899 383.93 674.332 383.515 673.364 382.685C672.442 381.855 671.981 380.565 671.981 378.813C671.981 374.48 671.682 370.401 671.083 366.575C670.529 362.703 669.746 359.316 668.732 356.412C667.718 353.508 666.519 351.203 665.136 349.498C663.8 347.792 662.348 346.939 660.781 346.939C657.231 346.939 653.682 349.82 650.133 355.582C646.63 361.344 642.965 370.032 639.14 381.648C638.771 382.708 638.356 383.584 637.895 384.275C637.434 384.967 636.881 385.52 636.236 385.935C635.636 386.35 634.899 386.626 634.023 386.764C633.147 386.949 632.11 387.041 630.912 387.041C628.469 387.041 626.717 386.58 625.657 385.658C624.643 384.736 624.09 383.215 623.998 381.095C623.721 373.075 623.214 365.423 622.477 358.14C621.785 350.811 621.048 344.197 620.264 338.297C619.527 332.351 618.858 327.327 618.259 323.224C617.706 319.076 617.429 316.172 617.429 314.512Z" fill="white"/>
<path d="M701.85 301.237C701.85 298.795 702.542 297.089 703.924 296.121C705.307 295.107 707.589 294.6 710.769 294.6C711.922 294.6 712.89 294.715 713.673 294.946C714.503 295.13 715.194 295.499 715.747 296.052C716.347 296.605 716.808 297.343 717.13 298.264C717.499 299.14 717.799 300.27 718.029 301.652C718.582 305.939 719.181 310.364 719.827 314.927C720.518 319.491 721.233 324.077 721.97 328.686C722.247 330.761 723.33 331.798 725.22 331.798C725.727 331.798 726.556 331.752 727.709 331.659C728.907 331.521 730.313 331.383 731.926 331.245C733.54 331.06 735.268 330.876 737.112 330.691C739.002 330.507 740.868 330.346 742.712 330.207C744.602 330.023 746.377 329.885 748.036 329.793C749.742 329.654 751.24 329.585 752.53 329.585C753.544 329.585 754.351 329.793 754.95 330.207C755.549 330.576 756.01 331.083 756.333 331.728C756.702 332.328 756.932 333.019 757.024 333.803C757.163 334.54 757.232 335.301 757.232 336.084C757.232 336.776 757.093 337.49 756.817 338.228C756.586 338.965 756.241 339.634 755.78 340.233C755.365 340.786 754.835 341.247 754.19 341.616C753.544 341.984 752.807 342.169 751.977 342.169C747.967 342.169 743.911 342.307 739.808 342.584C735.752 342.814 731.696 343.137 727.64 343.552C725.565 343.828 724.528 344.865 724.528 346.663C724.528 346.801 724.551 346.986 724.597 347.216C724.643 347.4 724.667 347.562 724.667 347.7C725.22 351.71 725.727 355.467 726.188 358.97C726.695 362.473 727.11 365.607 727.432 368.373C727.801 371.093 728.077 373.374 728.262 375.218C728.492 377.016 728.608 378.214 728.608 378.813C728.608 380.473 728.446 381.855 728.124 382.962C727.801 384.114 727.271 385.036 726.533 385.727C725.796 386.465 724.805 386.972 723.56 387.248C722.362 387.571 720.841 387.732 718.997 387.732C717.245 387.732 715.955 387.318 715.125 386.488C714.295 385.658 713.835 384.391 713.742 382.685C713.466 377.246 713.028 371.784 712.429 366.299C711.829 360.768 711.138 355.259 710.354 349.774C709.94 347.792 708.902 346.801 707.243 346.801C707.105 346.801 706.943 346.824 706.759 346.87C706.575 346.916 706.413 346.939 706.275 346.939C703.417 347.585 700.721 348.23 698.186 348.875C695.651 349.521 693.277 350.212 691.064 350.95C689.82 351.364 688.713 351.664 687.745 351.848C686.777 351.987 685.902 352.056 685.118 352.056C684.058 352.056 683.274 351.595 682.767 350.673C682.26 349.705 682.007 348.507 682.007 347.078C682.007 346.571 682.053 345.995 682.145 345.349C682.237 344.658 682.422 343.989 682.698 343.344C682.929 342.653 683.297 342.03 683.804 341.477C684.265 340.878 684.911 340.394 685.74 340.025C687.676 339.242 690.258 338.435 693.484 337.605C696.711 336.73 700.352 335.923 704.408 335.186C705.33 334.955 706.045 334.586 706.552 334.079C707.105 333.526 707.381 332.72 707.381 331.659C707.381 331.429 707.381 331.198 707.381 330.968C707.381 330.691 707.335 330.415 707.243 330.138C706.506 325.898 705.791 322.049 705.1 318.592C704.454 315.089 703.878 312.093 703.371 309.603C702.91 307.114 702.542 305.155 702.265 303.727C701.988 302.298 701.85 301.468 701.85 301.237Z" fill="white"/>
<path d="M812.06 365.953C813.397 364.801 814.711 364.225 816.001 364.225C816.739 364.225 817.407 364.409 818.006 364.778C818.606 365.146 819.274 365.723 820.011 366.506C820.703 367.566 821.187 368.442 821.463 369.134C821.786 369.779 821.947 370.424 821.947 371.07C821.947 372.452 821.256 373.766 819.873 375.011C817.661 376.854 815.264 378.514 812.683 379.989C810.101 381.418 807.405 382.639 804.593 383.653C801.781 384.667 798.877 385.428 795.881 385.935C792.885 386.488 789.912 386.764 786.962 386.764C783.229 386.764 779.726 386.28 776.453 385.312C773.18 384.391 770.253 383.054 767.672 381.302C765.137 379.551 762.993 377.453 761.242 375.011C759.49 372.521 758.246 369.733 757.508 366.645C757.093 365.354 756.702 364.524 756.333 364.155C756.01 363.741 755.457 363.533 754.674 363.533C752.968 363.533 751.654 363.118 750.733 362.289C749.811 361.459 749.35 360.261 749.35 358.693C749.35 358.048 749.396 357.633 749.488 357.449L749.626 356.066C749.857 354.407 750.295 353.208 750.94 352.471C751.631 351.733 752.692 351.364 754.12 351.364H755.158C757.093 351.364 758.453 350.466 759.237 348.668C760.666 345.487 762.486 342.584 764.699 339.956C766.911 337.329 769.401 335.093 772.166 333.25C774.932 331.36 777.882 329.908 781.016 328.894C784.197 327.834 787.423 327.303 790.696 327.303C794.107 327.303 797.287 327.811 800.237 328.825C803.233 329.793 805.838 331.152 808.05 332.904C810.263 334.655 811.991 336.707 813.236 339.057C814.526 341.408 815.172 343.943 815.172 346.663C815.172 348.553 814.803 350.281 814.065 351.848C813.328 353.416 812.268 354.798 810.885 355.997C809.502 357.149 807.82 358.094 805.838 358.832C803.902 359.569 801.689 360.053 799.2 360.284L775.208 362.703C774.286 362.703 773.526 362.934 772.927 363.395C772.374 363.856 772.097 364.478 772.097 365.262C772.097 366.46 772.535 367.612 773.411 368.719C774.333 369.825 775.531 370.816 777.006 371.692C778.527 372.521 780.256 373.19 782.192 373.697C784.174 374.204 786.202 374.457 788.276 374.457C790.258 374.457 792.286 374.273 794.36 373.904C796.481 373.489 798.555 372.913 800.583 372.176C802.657 371.438 804.662 370.562 806.598 369.548C808.534 368.488 810.355 367.29 812.06 365.953ZM796.642 348.115C797.333 347.977 797.933 347.654 798.44 347.147C798.947 346.594 799.2 345.925 799.2 345.142C799.2 344.45 798.947 343.805 798.44 343.206C797.933 342.607 797.241 342.077 796.365 341.616C795.49 341.109 794.476 340.717 793.323 340.44C792.171 340.164 790.949 340.025 789.659 340.025C787.769 340.025 785.833 340.302 783.851 340.855C781.869 341.408 780.071 342.146 778.458 343.068C776.845 343.943 775.531 344.934 774.517 346.041C773.503 347.101 772.996 348.161 772.996 349.221C772.996 350.281 773.641 350.811 774.932 350.811C775.715 350.811 776.983 350.719 778.735 350.535C780.486 350.35 782.422 350.143 784.542 349.912C786.663 349.636 788.806 349.336 790.972 349.014C793.139 348.691 795.029 348.391 796.642 348.115Z" fill="white"/>
<path d="M863.847 329.378C862.141 329.378 860.643 329.839 859.352 330.761C858.062 331.636 856.956 332.881 856.034 334.494C855.112 336.061 854.351 337.928 853.752 340.095C853.153 342.215 852.669 344.543 852.3 347.078C851.931 349.613 851.678 352.263 851.54 355.029C851.401 357.795 851.332 360.583 851.332 363.395C851.332 367.082 851.47 370.724 851.747 374.319C852.07 377.868 852.231 381.164 852.231 384.206C852.231 386.188 851.493 387.732 850.018 388.839C848.543 389.991 846.446 390.567 843.727 390.567C843.22 390.567 842.643 390.521 841.998 390.429C841.353 390.337 840.731 390.152 840.131 389.876C839.578 389.599 839.071 389.207 838.61 388.7C838.195 388.239 837.965 387.594 837.919 386.764C837.504 382.708 836.905 378.56 836.121 374.319C835.338 370.078 834.347 365.861 833.148 361.666C831.996 357.426 830.59 353.231 828.931 349.083C827.317 344.934 825.451 340.878 823.33 336.914C822.961 336.223 822.639 335.577 822.362 334.978C822.132 334.379 822.017 333.803 822.017 333.25C822.017 332.558 822.316 331.821 822.915 331.037C823.561 330.207 824.344 329.447 825.266 328.755C826.234 328.064 827.271 327.511 828.377 327.096C829.53 326.635 830.636 326.405 831.696 326.405C833.448 326.405 834.992 327.626 836.329 330.069C837.665 332.466 838.91 336.315 840.062 341.616C840.293 342.537 840.477 343.183 840.615 343.552C840.754 343.92 840.938 344.105 841.168 344.105C841.676 344.105 841.998 343.321 842.136 341.754C842.69 337.375 843.635 333.618 844.971 330.484C846.308 327.303 847.967 324.699 849.949 322.671C851.977 320.597 854.282 319.076 856.863 318.108C859.491 317.14 862.372 316.656 865.506 316.656C867.304 316.656 869.124 316.817 870.968 317.14C872.812 317.462 874.471 317.946 875.946 318.592C877.421 319.237 878.62 320.021 879.542 320.943C880.463 321.864 880.924 322.902 880.924 324.054C880.924 324.884 880.74 325.875 880.371 327.027C880.049 328.133 879.611 329.216 879.058 330.277C878.504 331.291 877.859 332.166 877.122 332.904C876.43 333.595 875.716 333.941 874.978 333.941C874.149 333.941 873.342 333.711 872.558 333.25C871.775 332.743 870.922 332.212 870 331.659C869.124 331.106 868.179 330.599 867.165 330.138C866.197 329.631 865.091 329.378 863.847 329.378Z" fill="white"/>
<path fill-rule="evenodd" clip-rule="evenodd" d="M452.521 373.559L451.553 363.395C451.277 361.597 450.608 360.698 449.548 360.698C448.811 360.698 448.004 361.275 447.128 362.427C442.842 367.958 438.255 372.014 433.369 374.596C428.53 377.131 423.252 378.398 417.536 378.398C414.125 378.398 410.968 377.914 408.064 376.946C405.206 375.978 402.74 374.642 400.666 372.936C398.592 371.231 396.955 369.203 395.757 366.852C394.605 364.455 394.028 361.851 394.028 359.039C394.028 355.905 394.674 352.909 395.964 350.051C397.255 347.193 399.007 344.543 401.219 342.1C403.432 339.657 405.99 337.444 408.894 335.462C411.844 333.434 414.932 331.705 418.158 330.277C421.431 328.848 424.75 327.764 428.115 327.027C431.526 326.243 434.798 325.852 437.933 325.852C441.251 325.852 444.04 326.036 446.299 326.405C448.603 326.773 450.493 327.165 451.968 327.58C452.614 326.796 453.259 326.22 453.904 325.852C454.596 325.483 455.264 325.298 455.909 325.298C456.785 325.298 457.707 325.46 458.675 325.782C459.689 326.059 460.611 326.451 461.44 326.958C462.316 327.465 463.031 328.041 463.584 328.686C464.137 329.332 464.414 330 464.414 330.691C464.414 331.198 464.321 331.682 464.137 332.143C463.953 332.604 463.745 333.065 463.515 333.526C463.33 333.941 463.146 334.402 462.962 334.909C462.823 335.416 462.754 335.946 462.754 336.499C462.754 337.605 462.846 339.288 463.031 341.546C463.261 343.805 463.538 346.386 463.86 349.29C464.229 352.148 464.598 355.167 464.967 358.348C465.382 361.528 465.773 364.57 466.142 367.474L468.355 386.35L471.95 415.527C471.95 416.541 471.627 417.486 470.982 418.362C470.383 419.237 469.599 419.998 468.631 420.643C467.663 421.289 466.58 421.796 465.382 422.164C464.183 422.533 463.008 422.718 461.855 422.718C460.795 422.718 459.919 422.418 459.228 421.819C458.537 421.266 458.145 420.528 458.053 419.606C457.638 415.135 457.154 410.687 456.601 406.262C456.094 401.837 455.587 397.32 455.08 392.711L452.521 373.559ZM427.216 364.57C425.049 365.216 422.814 365.538 420.509 365.538C416.453 365.538 413.365 364.755 411.244 363.187C409.124 361.574 408.064 359.246 408.064 356.204C408.064 353.992 408.94 351.825 410.691 349.705C412.443 347.585 414.748 345.695 417.605 344.036C420.463 342.376 423.713 341.039 427.354 340.025C430.996 339.011 434.706 338.504 438.486 338.504C440.468 338.504 442.219 338.643 443.74 338.919C445.538 339.196 446.437 340.095 446.437 341.616C446.437 341.892 446.368 342.192 446.23 342.514C446.137 342.837 446.022 343.183 445.884 343.552C443.902 347.884 441.897 351.48 439.869 354.337C437.84 357.149 435.766 359.385 433.646 361.044C431.572 362.703 429.428 363.879 427.216 364.57Z" fill="white"/>
</svg>
