<svg width="24" height="24" viewBox="0 0 24 24" fill="none" xmlns="http://www.w3.org/2000/svg">
<path d="M8.65272 20.3299C8.63189 20.6063 8.55492 20.875 8.42642 21.1199C7.81164 22.4013 5.8594 23.5267 5.02848 23.9615C4.98395 23.9856 4.93408 23.9988 4.88304 23.9999C4.832 24.001 4.78126 23.99 4.73507 23.9679C4.68887 23.9457 4.64856 23.913 4.61748 23.8725C4.5864 23.832 4.56547 23.7849 4.55643 23.735C4.37556 22.8148 4.03167 20.5878 4.65001 19.3081C4.76061 19.0546 4.922 18.8265 5.12456 18.6372C5.32712 18.448 5.56668 18.3016 5.82897 18.2067C6.09126 18.1119 6.37089 18.0705 6.6512 18.0851C6.9315 18.0997 7.20672 18.1699 7.46045 18.2917C7.71417 18.4134 7.94121 18.5841 8.128 18.7936C8.3148 19.0031 8.45753 19.2471 8.54768 19.511C8.63783 19.775 8.67356 20.0535 8.65272 20.3299Z" fill="black"/>
<path d="M15.6312 1.2605C11.9776 -0.492325 8.29615 -0.406566 7.40442 1.45214L3.36946 9.8626C2.47774 11.7213 4.72299 14.6505 8.36831 16.3993C12.0136 18.1482 15.7034 18.0664 16.5951 16.2077L20.6301 7.79723C21.5218 5.93852 19.2848 3.01333 15.6312 1.2605ZM14.9419 15.4145C14.7402 15.8351 12.3743 16.2519 9.17531 14.7172C5.97635 13.1825 4.82092 11.0763 5.02267 10.6557L5.92247 8.7802C6.93857 10.0747 8.50114 11.2899 10.3858 12.1941C12.2705 13.0983 14.1962 13.5566 15.8417 13.539L14.9419 15.4145ZM16.7778 11.5878C15.3199 11.8712 13.1932 11.4717 11.1928 10.512C9.1924 9.55231 7.54984 8.14351 6.85858 6.82898L7.9924 4.46564C8.87261 5.74666 10.4277 7.04107 12.4033 7.98887C14.3789 8.93666 16.3616 9.33957 17.9117 9.22445L16.7778 11.5878ZM13.2103 6.30678C10.0113 4.77206 8.85588 2.6658 9.05763 2.24528C9.25938 1.82476 11.6253 1.40788 14.8242 2.9426C18.0232 4.47731 19.1786 6.58357 18.9769 7.00409C18.7751 7.42462 16.4092 7.84149 13.2103 6.30678Z" fill="black"/>
</svg>
