<svg width="24" height="24" viewBox="0 0 24 24" fill="none" xmlns="http://www.w3.org/2000/svg">
<path d="M8.65272 20.3299C8.63188 20.6063 8.55491 20.875 8.42641 21.1199C7.81163 22.4013 5.85939 23.5267 5.02847 23.9615C4.98394 23.9856 4.93407 23.9988 4.88303 23.9999C4.83199 24.001 4.78126 23.99 4.73506 23.9679C4.68886 23.9457 4.64855 23.913 4.61747 23.8725C4.5864 23.832 4.56546 23.7849 4.55642 23.735C4.37555 22.8148 4.03166 20.5878 4.65 19.3081C4.7606 19.0546 4.922 18.8265 5.12455 18.6372C5.32711 18.448 5.56668 18.3016 5.82896 18.2067C6.09125 18.1119 6.37088 18.0705 6.65119 18.0851C6.93149 18.0997 7.20671 18.1699 7.46044 18.2917C7.71417 18.4134 7.9412 18.5841 8.128 18.7936C8.31479 19.0031 8.45752 19.2471 8.54767 19.511C8.63782 19.775 8.67355 20.0535 8.65272 20.3299Z" fill="#0072E5"/>
<path d="M15.6312 1.2605C11.9776 -0.492325 8.29614 -0.406566 7.40441 1.45214L3.36945 9.8626C2.47773 11.7213 4.72298 14.6505 8.36831 16.3993C12.0136 18.1482 15.7034 18.0664 16.5951 16.2077L20.6301 7.79723C21.5218 5.93852 19.2848 3.01333 15.6312 1.2605ZM14.9419 15.4145C14.7402 15.8351 12.3743 16.2519 9.1753 14.7172C5.97634 13.1825 4.82092 11.0763 5.02266 10.6557L5.92246 8.7802C6.93857 10.0747 8.50113 11.2899 10.3858 12.1941C12.2704 13.0983 14.1962 13.5566 15.8417 13.539L14.9419 15.4145ZM16.7778 11.5878C15.3199 11.8712 13.1932 11.4717 11.1928 10.512C9.19239 9.55231 7.54983 8.14351 6.85857 6.82898L7.99239 4.46564C8.8726 5.74666 10.4277 7.04107 12.4033 7.98887C14.3789 8.93666 16.3616 9.33957 17.9116 9.22445L16.7778 11.5878ZM13.2103 6.30678C10.0113 4.77206 8.85587 2.6658 9.05762 2.24528C9.25937 1.82476 11.6253 1.40788 14.8242 2.9426C18.0232 4.47731 19.1786 6.58357 18.9769 7.00409C18.7751 7.42462 16.4092 7.84149 13.2103 6.30678Z" fill="#0072E5"/>
</svg>
