<svg width="357" height="80" viewBox="0 0 357 80" fill="none" xmlns="http://www.w3.org/2000/svg">
<path d="M29.271 66.6996C29.2042 67.5856 28.9575 68.4467 28.5456 69.2317C26.5751 73.3391 20.3176 76.9464 17.6543 78.34C17.5115 78.4173 17.3517 78.4596 17.1881 78.4631C17.0245 78.4667 16.8619 78.4315 16.7138 78.3604C16.5657 78.2894 16.4365 78.1846 16.3369 78.0547C16.2373 77.9249 16.1702 77.7738 16.1412 77.6141C15.5615 74.6646 14.4592 67.5264 16.4412 63.4245C16.7957 62.612 17.313 61.8807 17.9622 61.2742C18.6115 60.6676 19.3794 60.1983 20.2201 59.8943C21.0608 59.5902 21.9571 59.4577 22.8555 59.5045C23.754 59.5512 24.6361 59.7764 25.4494 60.1666C26.2627 60.5567 26.9904 61.1039 27.5891 61.7754C28.1879 62.4469 28.6453 63.229 28.9343 64.075C29.2233 64.921 29.3378 65.8136 29.271 66.6996Z" fill="black"/>
<path d="M51.6391 5.57683C39.9283 -0.0414815 28.1281 0.233401 25.2698 6.1911L12.3366 33.149C9.47841 39.1067 16.6751 48.4954 28.3594 54.1011C40.0437 59.7067 51.8704 59.4445 54.7287 53.4868L67.6619 26.5289C70.5201 20.5712 63.3499 11.1952 51.6391 5.57683ZM49.4297 50.9446C48.783 52.2925 41.1996 53.6287 30.946 48.7095C20.6925 43.7903 16.989 37.0391 17.6356 35.6912L20.5197 29.6796C23.7767 33.8288 28.7851 37.724 34.826 40.6221C40.8668 43.5202 47.0393 44.9892 52.3138 44.933L49.4297 50.9446ZM55.3143 38.6787C50.6413 39.5873 43.8244 38.3066 37.4126 35.2305C31.0008 32.1544 25.7359 27.6388 23.5202 23.4254L27.1545 15.8502C29.9758 19.9562 34.9603 24.1052 41.2926 27.1432C47.6249 30.1811 53.9803 31.4725 58.9485 31.1036L55.3143 38.6787ZM43.8792 21.7516C33.6256 16.8324 29.9222 10.0812 30.5688 8.73332C31.2155 7.38543 38.7989 6.04921 49.0525 10.9684C59.3061 15.8876 63.0095 22.6388 62.3629 23.9867C61.7162 25.3346 54.1328 26.6708 43.8792 21.7516Z" fill="black"/>
<path d="M90.1602 27.4648C91.7305 27.4648 93.3477 27.6758 95.0117 28.0977C96.6758 28.4961 98.1992 29.0234 99.582 29.6797C100.965 30.3125 102.102 31.0273 102.992 31.8242C103.883 32.6211 104.328 33.3945 104.328 34.1445C104.328 34.5195 104.164 34.9414 103.836 35.4102C103.508 35.8555 103.109 36.2891 102.641 36.7109C102.172 37.1094 101.656 37.4492 101.094 37.7305C100.555 37.9883 100.074 38.1172 99.6523 38.1172C99.0898 38.1172 98.457 37.8828 97.7539 37.4141C97.0742 36.9453 96.3125 36.4297 95.4688 35.8672C94.6484 35.2812 93.7461 34.7539 92.7617 34.2852C91.7773 33.8164 90.7109 33.582 89.5625 33.582C88.8125 33.582 88.1914 33.7695 87.6992 34.1445C87.2305 34.4961 86.9961 35 86.9961 35.6562C86.9961 36.2422 87.2773 36.8398 87.8398 37.4492C88.4023 38.0352 89.1406 38.6445 90.0547 39.2773C90.9922 39.9102 92.0469 40.5781 93.2188 41.2812C94.3906 41.9844 95.5859 42.7344 96.8047 43.5312C98.0469 44.3281 99.2539 45.1953 100.426 46.1328C101.598 47.0703 102.641 48.0898 103.555 49.1914C104.492 50.293 105.242 51.5 105.805 52.8125C106.367 54.1016 106.648 55.5078 106.648 57.0312C106.648 58.3438 106.414 59.5391 105.945 60.6172C105.477 61.6953 104.809 62.6211 103.941 63.3945C103.074 64.168 102.043 64.7656 100.848 65.1875C99.6523 65.6094 98.3398 65.8203 96.9102 65.8203C95.1055 65.8203 93.4414 65.5391 91.918 64.9766C90.3945 64.4375 89.082 63.6875 87.9805 62.7266C86.8789 61.7656 86.0117 60.6172 85.3789 59.2812C84.7695 57.9453 84.4648 56.4805 84.4648 54.8867C84.4648 52.8242 84.8281 51.3242 85.5547 50.3867C86.3047 49.4492 87.4766 48.9805 89.0703 48.9805C90.0547 48.9805 90.8398 49.168 91.4258 49.543C92.0117 49.918 92.3047 50.375 92.3047 50.9141C92.3047 51.1953 92.2578 51.4883 92.1641 51.793C92.0703 52.0742 91.9648 52.3789 91.8477 52.707C91.7539 53.0117 91.6602 53.3398 91.5664 53.6914C91.4961 54.043 91.4609 54.3945 91.4609 54.7461C91.4609 55.3555 91.6016 55.9414 91.8828 56.5039C92.1641 57.0664 92.5391 57.5586 93.0078 57.9805C93.5 58.4258 94.0625 58.7773 94.6953 59.0352C95.3281 59.293 95.9961 59.4219 96.6992 59.4219C98.5742 59.4219 99.5117 58.6484 99.5117 57.1016C99.5117 55.8828 99.0312 54.7344 98.0703 53.6562C97.1094 52.5547 95.9023 51.4883 94.4492 50.457C92.9961 49.4023 91.4258 48.3477 89.7383 47.293C88.0742 46.2383 86.5156 45.1367 85.0625 43.9883C83.6094 42.8398 82.4023 41.6211 81.4414 40.332C80.4805 39.0195 80 37.6016 80 36.0781C80 34.8125 80.2578 33.6523 80.7734 32.5977C81.3125 31.543 82.0391 30.6406 82.9531 29.8906C83.8672 29.1172 84.9336 28.5195 86.1523 28.0977C87.3945 27.6758 88.7305 27.4648 90.1602 27.4648Z" fill="black"/>
<path d="M149.117 17.9375C149.117 16.7188 149.469 15.8516 150.172 15.3359C150.875 14.8203 152.035 14.5625 153.652 14.5625C154.215 14.5625 154.707 14.6211 155.129 14.7383C155.551 14.8555 155.902 15.0547 156.184 15.3359C156.465 15.5938 156.688 15.957 156.852 16.4258C157.039 16.8711 157.191 17.4453 157.309 18.1484C157.613 20.2344 157.918 22.4258 158.223 24.7227C158.551 26.9961 158.855 29.2695 159.137 31.543C159.441 33.793 159.723 35.9961 159.98 38.1523C160.238 40.2852 160.461 42.2773 160.648 44.1289C160.859 45.957 161.012 47.5859 161.105 49.0156C161.223 50.4219 161.281 51.5352 161.281 52.3555C161.281 53.1992 161.199 53.9141 161.035 54.5C160.895 55.0859 160.637 55.5547 160.262 55.9062C159.91 56.2578 159.441 56.5156 158.855 56.6797C158.293 56.8203 157.59 56.8906 156.746 56.8906C155.926 56.8906 155.27 56.6797 154.777 56.2578C154.309 55.8359 154.074 55.1914 154.074 54.3242C154.074 53.4336 154.004 52.25 153.863 50.7734C153.723 49.2734 153.535 47.6094 153.301 45.7812C153.066 43.9531 152.797 42.0078 152.492 39.9453C152.211 37.8828 151.906 35.8438 151.578 33.8281C151.273 31.8125 150.969 29.8789 150.664 28.0273C150.383 26.1523 150.125 24.5 149.891 23.0703C149.656 21.6172 149.469 20.4336 149.328 19.5195C149.188 18.582 149.117 18.0547 149.117 17.9375Z" fill="black"/>
<path d="M172.18 22.1211C171.5 22.1211 170.855 22.0273 170.246 21.8398C169.66 21.6289 169.145 21.3477 168.699 20.9961C168.277 20.6211 167.938 20.1875 167.68 19.6953C167.422 19.2031 167.293 18.6641 167.293 18.0781C167.293 17.0938 167.68 16.2969 168.453 15.6875C169.25 15.0781 170.305 14.7734 171.617 14.7734C172.227 14.7734 172.812 14.8906 173.375 15.125C173.938 15.3359 174.43 15.6289 174.852 16.0039C175.297 16.3789 175.648 16.8242 175.906 17.3398C176.164 17.832 176.293 18.3477 176.293 18.8867C176.293 19.8945 175.918 20.6914 175.168 21.2773C174.441 21.8398 173.445 22.1211 172.18 22.1211ZM167.363 32.8438C167.363 32.0234 167.715 31.3555 168.418 30.8398C169.145 30.3008 170.094 30.0312 171.266 30.0312C173.375 30.0312 174.5 30.7578 174.641 32.2109C174.734 33.2188 174.828 34.3555 174.922 35.6211C175.039 36.8867 175.145 38.2344 175.238 39.6641C175.355 41.0703 175.449 42.5352 175.52 44.0586C175.613 45.5586 175.695 47.0469 175.766 48.5234C175.836 49.9766 175.895 51.3828 175.941 52.7422C175.988 54.1016 176.012 55.3438 176.012 56.4688C176.012 57.6406 175.59 58.5195 174.746 59.1055C173.926 59.6914 172.719 59.9844 171.125 59.9844C170.398 59.9844 169.824 59.8086 169.402 59.457C169.004 59.1289 168.805 58.6367 168.805 57.9805C168.805 54.7461 168.723 51.7227 168.559 48.9102C168.418 46.0742 168.254 43.5547 168.066 41.3516C167.902 39.1484 167.738 37.3203 167.574 35.8672C167.434 34.3906 167.363 33.3828 167.363 32.8438Z" fill="black"/>
<path d="M201.113 30.5586C202.238 30.5586 203.305 30.6523 204.312 30.8398C205.32 31.0039 206.234 31.1914 207.055 31.4023C207.875 31.5898 208.578 31.7773 209.164 31.9648C209.75 32.1289 210.172 32.2109 210.43 32.2109C210.641 32.2109 210.84 32.1055 211.027 31.8945C211.215 31.6602 211.449 31.4141 211.73 31.1562C212.012 30.8984 212.387 30.6641 212.855 30.4531C213.324 30.2188 213.945 30.1016 214.719 30.1016C215.609 30.1016 216.312 30.3359 216.828 30.8047C217.344 31.25 217.602 31.8125 217.602 32.4922C217.602 41.0703 217.309 48.3594 216.723 54.3594C216.137 60.3359 215.188 65.1992 213.875 68.9492C212.562 72.6992 210.863 75.418 208.777 77.1055C206.691 78.793 204.16 79.6367 201.184 79.6367C199.824 79.6367 198.406 79.332 196.93 78.7227C195.477 78.1133 194.141 77.3281 192.922 76.3672C191.703 75.4297 190.695 74.3867 189.898 73.2383C189.125 72.0898 188.738 70.9883 188.738 69.9336C188.738 69.582 188.926 69.1719 189.301 68.7031C189.676 68.2344 190.133 67.7773 190.672 67.332C191.211 66.8867 191.773 66.5117 192.359 66.207C192.945 65.9023 193.449 65.75 193.871 65.75C194.316 65.75 194.691 65.9258 194.996 66.2773C195.301 66.6523 195.582 67.1094 195.84 67.6484C196.121 68.1875 196.402 68.7734 196.684 69.4062C196.965 70.0625 197.316 70.6602 197.738 71.1992C198.16 71.7383 198.676 72.1836 199.285 72.5352C199.895 72.9102 200.656 73.0977 201.57 73.0977C206.68 73.0977 209.68 65.293 210.57 49.6836C210.57 48.9805 210.371 48.6289 209.973 48.6289C209.645 48.6289 209.387 48.793 209.199 49.1211C206.996 52.0977 204.418 54.3359 201.465 55.8359C198.535 57.3125 195.277 58.0508 191.691 58.0508C190.027 58.0508 188.492 57.8047 187.086 57.3125C185.68 56.7969 184.461 56.0938 183.43 55.2031C182.422 54.2891 181.637 53.2109 181.074 51.9688C180.512 50.7031 180.23 49.3203 180.23 47.8203C180.23 46.3438 180.488 44.8906 181.004 43.4609C181.543 42.0078 182.281 40.6484 183.219 39.3828C184.18 38.0938 185.316 36.9102 186.629 35.832C187.941 34.7539 189.371 33.8281 190.918 33.0547C192.465 32.2578 194.094 31.6484 195.805 31.2266C197.539 30.7812 199.309 30.5586 201.113 30.5586ZM192.781 51.582C195.992 51.582 198.934 50.5742 201.605 48.5586C204.277 46.5195 206.562 43.5664 208.461 39.6992C208.508 39.5586 208.543 39.4531 208.566 39.3828C208.59 39.2891 208.602 39.1953 208.602 39.1016C208.602 38.8672 208.355 38.6211 207.863 38.3633C207.371 38.1055 206.727 37.8828 205.93 37.6953C205.133 37.5078 204.219 37.3555 203.188 37.2383C202.18 37.0977 201.16 37.0273 200.129 37.0273C198.465 37.0273 196.859 37.3086 195.312 37.8711C193.766 38.4336 192.395 39.1836 191.199 40.1211C190.004 41.0586 189.043 42.125 188.316 43.3203C187.59 44.5156 187.227 45.7578 187.227 47.0469C187.227 48.4297 187.73 49.5312 188.738 50.3516C189.77 51.1719 191.117 51.582 192.781 51.582Z" fill="black"/>
<path d="M222.523 24.125C222.523 21.5938 224.164 20.3281 227.445 20.3281C228.008 20.3281 228.5 20.4805 228.922 20.7852C229.344 21.0898 229.59 21.5117 229.66 22.0508C229.871 23.4805 230.059 24.8984 230.223 26.3047C230.387 27.7109 230.539 29.293 230.68 31.0508C230.844 32.7852 230.996 34.8008 231.137 37.0977C231.301 39.3711 231.477 42.0898 231.664 45.2539C231.664 45.582 231.711 45.8164 231.805 45.957C231.922 46.0977 232.051 46.168 232.191 46.168C232.402 46.168 232.613 45.957 232.824 45.5352C233.621 43.7773 234.512 42.207 235.496 40.8242C236.48 39.418 237.535 38.2344 238.66 37.2734C239.785 36.2891 240.969 35.5508 242.211 35.0586C243.477 34.543 244.766 34.2852 246.078 34.2852C247.812 34.2852 249.383 34.7773 250.789 35.7617C252.195 36.7461 253.391 38.1406 254.375 39.9453C255.359 41.75 256.121 43.9414 256.66 46.5195C257.199 49.0742 257.469 51.9336 257.469 55.0977C257.469 55.9648 257.398 56.6797 257.258 57.2422C257.141 57.7812 256.93 58.2148 256.625 58.543C256.32 58.8711 255.898 59.0938 255.359 59.2109C254.82 59.3516 254.152 59.4219 253.355 59.4219C252.254 59.4219 251.457 59.2109 250.965 58.7891C250.496 58.3672 250.262 57.7109 250.262 56.8203C250.262 54.6172 250.109 52.543 249.805 50.5977C249.523 48.6289 249.125 46.9062 248.609 45.4297C248.094 43.9531 247.484 42.7812 246.781 41.9141C246.102 41.0469 245.363 40.6133 244.566 40.6133C242.762 40.6133 240.957 42.0781 239.152 45.0078C237.371 47.9375 235.508 52.3555 233.562 58.2617C233.375 58.8008 233.164 59.2461 232.93 59.5977C232.695 59.9492 232.414 60.2305 232.086 60.4414C231.781 60.6523 231.406 60.793 230.961 60.8633C230.516 60.957 229.988 61.0039 229.379 61.0039C228.137 61.0039 227.246 60.7695 226.707 60.3008C226.191 59.832 225.91 59.0586 225.863 57.9805C225.723 53.9023 225.465 50.0117 225.09 46.3086C224.738 42.582 224.363 39.2188 223.965 36.2188C223.59 33.1953 223.25 30.6406 222.945 28.5547C222.664 26.4453 222.523 24.9688 222.523 24.125Z" fill="black"/>
<path d="M265.449 17.375C265.449 16.1328 265.801 15.2656 266.504 14.7734C267.207 14.2578 268.367 14 269.984 14C270.57 14 271.062 14.0586 271.461 14.1758C271.883 14.2695 272.234 14.457 272.516 14.7383C272.82 15.0195 273.055 15.3945 273.219 15.8633C273.406 16.3086 273.559 16.8828 273.676 17.5859C273.957 19.7656 274.262 22.0156 274.59 24.3359C274.941 26.6562 275.305 28.9883 275.68 31.332C275.82 32.3867 276.371 32.9141 277.332 32.9141C277.59 32.9141 278.012 32.8906 278.598 32.8438C279.207 32.7734 279.922 32.7031 280.742 32.6328C281.562 32.5391 282.441 32.4453 283.379 32.3516C284.34 32.2578 285.289 32.1758 286.227 32.1055C287.188 32.0117 288.09 31.9414 288.934 31.8945C289.801 31.8242 290.562 31.7891 291.219 31.7891C291.734 31.7891 292.145 31.8945 292.449 32.1055C292.754 32.293 292.988 32.5508 293.152 32.8789C293.34 33.1836 293.457 33.5352 293.504 33.9336C293.574 34.3086 293.609 34.6953 293.609 35.0938C293.609 35.4453 293.539 35.8086 293.398 36.1836C293.281 36.5586 293.105 36.8984 292.871 37.2031C292.66 37.4844 292.391 37.7188 292.062 37.9062C291.734 38.0938 291.359 38.1875 290.938 38.1875C288.898 38.1875 286.836 38.2578 284.75 38.3984C282.688 38.5156 280.625 38.6797 278.562 38.8906C277.508 39.0312 276.98 39.5586 276.98 40.4727C276.98 40.543 276.992 40.6367 277.016 40.7539C277.039 40.8477 277.051 40.9297 277.051 41C277.332 43.0391 277.59 44.9492 277.824 46.7305C278.082 48.5117 278.293 50.1055 278.457 51.5117C278.645 52.8945 278.785 54.0547 278.879 54.9922C278.996 55.9062 279.055 56.5156 279.055 56.8203C279.055 57.6641 278.973 58.3672 278.809 58.9297C278.645 59.5156 278.375 59.9844 278 60.3359C277.625 60.7109 277.121 60.9688 276.488 61.1094C275.879 61.2734 275.105 61.3555 274.168 61.3555C273.277 61.3555 272.621 61.1445 272.199 60.7227C271.777 60.3008 271.543 59.6562 271.496 58.7891C271.355 56.0234 271.133 53.2461 270.828 50.457C270.523 47.6445 270.172 44.8438 269.773 42.0547C269.562 41.0469 269.035 40.543 268.191 40.543C268.121 40.543 268.039 40.5547 267.945 40.5781C267.852 40.6016 267.77 40.6133 267.699 40.6133C266.246 40.9414 264.875 41.2695 263.586 41.5977C262.297 41.9258 261.09 42.2773 259.965 42.6523C259.332 42.8633 258.77 43.0156 258.277 43.1094C257.785 43.1797 257.34 43.2148 256.941 43.2148C256.402 43.2148 256.004 42.9805 255.746 42.5117C255.488 42.0195 255.359 41.4102 255.359 40.6836C255.359 40.4258 255.383 40.1328 255.43 39.8047C255.477 39.4531 255.57 39.1133 255.711 38.7852C255.828 38.4336 256.016 38.1172 256.273 37.8359C256.508 37.5312 256.836 37.2852 257.258 37.0977C258.242 36.6992 259.555 36.2891 261.195 35.8672C262.836 35.4219 264.688 35.0117 266.75 34.6367C267.219 34.5195 267.582 34.332 267.84 34.0742C268.121 33.793 268.262 33.3828 268.262 32.8438C268.262 32.7266 268.262 32.6094 268.262 32.4922C268.262 32.3516 268.238 32.2109 268.191 32.0703C267.816 29.9141 267.453 27.957 267.102 26.1992C266.773 24.418 266.48 22.8945 266.223 21.6289C265.988 20.3633 265.801 19.3672 265.66 18.6406C265.52 17.9141 265.449 17.4922 265.449 17.375Z" fill="black"/>
<path d="M321.488 50.2812C322.168 49.6953 322.836 49.4023 323.492 49.4023C323.867 49.4023 324.207 49.4961 324.512 49.6836C324.816 49.8711 325.156 50.1641 325.531 50.5625C325.883 51.1016 326.129 51.5469 326.27 51.8984C326.434 52.2266 326.516 52.5547 326.516 52.8828C326.516 53.5859 326.164 54.2539 325.461 54.8867C324.336 55.8242 323.117 56.668 321.805 57.418C320.492 58.1445 319.121 58.7656 317.691 59.2812C316.262 59.7969 314.785 60.1836 313.262 60.4414C311.738 60.7227 310.227 60.8633 308.727 60.8633C306.828 60.8633 305.047 60.6172 303.383 60.125C301.719 59.6562 300.23 58.9766 298.918 58.0859C297.629 57.1953 296.539 56.1289 295.648 54.8867C294.758 53.6211 294.125 52.2031 293.75 50.6328C293.539 49.9766 293.34 49.5547 293.152 49.3672C292.988 49.1562 292.707 49.0508 292.309 49.0508C291.441 49.0508 290.773 48.8398 290.305 48.418C289.836 47.9961 289.602 47.3867 289.602 46.5898C289.602 46.2617 289.625 46.0508 289.672 45.957L289.742 45.2539C289.859 44.4102 290.082 43.8008 290.41 43.4258C290.762 43.0508 291.301 42.8633 292.027 42.8633H292.555C293.539 42.8633 294.23 42.4062 294.629 41.4922C295.355 39.875 296.281 38.3984 297.406 37.0625C298.531 35.7266 299.797 34.5898 301.203 33.6523C302.609 32.6914 304.109 31.9531 305.703 31.4375C307.32 30.8984 308.961 30.6289 310.625 30.6289C312.359 30.6289 313.977 30.8867 315.477 31.4023C317 31.8945 318.324 32.5859 319.449 33.4766C320.574 34.3672 321.453 35.4102 322.086 36.6055C322.742 37.8008 323.07 39.0898 323.07 40.4727C323.07 41.4336 322.883 42.3125 322.508 43.1094C322.133 43.9062 321.594 44.6094 320.891 45.2188C320.188 45.8047 319.332 46.2852 318.324 46.6602C317.34 47.0352 316.215 47.2812 314.949 47.3984L302.75 48.6289C302.281 48.6289 301.895 48.7461 301.59 48.9805C301.309 49.2148 301.168 49.5312 301.168 49.9297C301.168 50.5391 301.391 51.125 301.836 51.6875C302.305 52.25 302.914 52.7539 303.664 53.1992C304.438 53.6211 305.316 53.9609 306.301 54.2188C307.309 54.4766 308.34 54.6055 309.395 54.6055C310.402 54.6055 311.434 54.5117 312.488 54.3242C313.566 54.1133 314.621 53.8203 315.652 53.4453C316.707 53.0703 317.727 52.625 318.711 52.1094C319.695 51.5703 320.621 50.9609 321.488 50.2812ZM313.648 41.2109C314 41.1406 314.305 40.9766 314.562 40.7188C314.82 40.4375 314.949 40.0977 314.949 39.6992C314.949 39.3477 314.82 39.0195 314.562 38.7148C314.305 38.4102 313.953 38.1406 313.508 37.9062C313.062 37.6484 312.547 37.4492 311.961 37.3086C311.375 37.168 310.754 37.0977 310.098 37.0977C309.137 37.0977 308.152 37.2383 307.145 37.5195C306.137 37.8008 305.223 38.1758 304.402 38.6445C303.582 39.0898 302.914 39.5938 302.398 40.1562C301.883 40.6953 301.625 41.2344 301.625 41.7734C301.625 42.3125 301.953 42.582 302.609 42.582C303.008 42.582 303.652 42.5352 304.543 42.4414C305.434 42.3477 306.418 42.2422 307.496 42.125C308.574 41.9844 309.664 41.832 310.766 41.668C311.867 41.5039 312.828 41.3516 313.648 41.2109Z" fill="black"/>
<path d="M347.82 31.6836C346.953 31.6836 346.191 31.918 345.535 32.3867C344.879 32.832 344.316 33.4648 343.848 34.2852C343.379 35.082 342.992 36.0312 342.688 37.1328C342.383 38.2109 342.137 39.3945 341.949 40.6836C341.762 41.9727 341.633 43.3203 341.562 44.7266C341.492 46.1328 341.457 47.5508 341.457 48.9805C341.457 50.8555 341.527 52.707 341.668 54.5352C341.832 56.3398 341.914 58.0156 341.914 59.5625C341.914 60.5703 341.539 61.3555 340.789 61.918C340.039 62.5039 338.973 62.7969 337.59 62.7969C337.332 62.7969 337.039 62.7734 336.711 62.7266C336.383 62.6797 336.066 62.5859 335.762 62.4453C335.48 62.3047 335.223 62.1055 334.988 61.8477C334.777 61.6133 334.66 61.2852 334.637 60.8633C334.426 58.8008 334.121 56.6914 333.723 54.5352C333.324 52.3789 332.82 50.2344 332.211 48.1016C331.625 45.9453 330.91 43.8125 330.066 41.7031C329.246 39.5938 328.297 37.5312 327.219 35.5156C327.031 35.1641 326.867 34.8359 326.727 34.5312C326.609 34.2266 326.551 33.9336 326.551 33.6523C326.551 33.3008 326.703 32.9258 327.008 32.5273C327.336 32.1055 327.734 31.7188 328.203 31.3672C328.695 31.0156 329.223 30.7344 329.785 30.5234C330.371 30.2891 330.934 30.1719 331.473 30.1719C332.363 30.1719 333.148 30.793 333.828 32.0352C334.508 33.2539 335.141 35.2109 335.727 37.9062C335.844 38.375 335.938 38.7031 336.008 38.8906C336.078 39.0781 336.172 39.1719 336.289 39.1719C336.547 39.1719 336.711 38.7734 336.781 37.9766C337.062 35.75 337.543 33.8398 338.223 32.2461C338.902 30.6289 339.746 29.3047 340.754 28.2734C341.785 27.2188 342.957 26.4453 344.27 25.9531C345.605 25.4609 347.07 25.2148 348.664 25.2148C349.578 25.2148 350.504 25.2969 351.441 25.4609C352.379 25.625 353.223 25.8711 353.973 26.1992C354.723 26.5273 355.332 26.9258 355.801 27.3945C356.27 27.8633 356.504 28.3906 356.504 28.9766C356.504 29.3984 356.41 29.9023 356.223 30.4883C356.059 31.0508 355.836 31.6016 355.555 32.1406C355.273 32.6562 354.945 33.1016 354.57 33.4766C354.219 33.8281 353.855 34.0039 353.48 34.0039C353.059 34.0039 352.648 33.8867 352.25 33.6523C351.852 33.3945 351.418 33.125 350.949 32.8438C350.504 32.5625 350.023 32.3047 349.508 32.0703C349.016 31.8125 348.453 31.6836 347.82 31.6836Z" fill="black"/>
<path fill-rule="evenodd" clip-rule="evenodd" d="M138.672 54.1484L138.18 48.9805C138.039 48.0664 137.699 47.6094 137.16 47.6094C136.785 47.6094 136.375 47.9023 135.93 48.4883C133.75 51.3008 131.418 53.3633 128.934 54.6758C126.473 55.9648 123.789 56.6094 120.883 56.6094C119.148 56.6094 117.543 56.3633 116.066 55.8711C114.613 55.3789 113.359 54.6992 112.305 53.832C111.25 52.9648 110.418 51.9336 109.809 50.7383C109.223 49.5195 108.93 48.1953 108.93 46.7656C108.93 45.1719 109.258 43.6484 109.914 42.1953C110.57 40.7422 111.461 39.3945 112.586 38.1523C113.711 36.9102 115.012 35.7852 116.488 34.7773C117.988 33.7461 119.559 32.8672 121.199 32.1406C122.863 31.4141 124.551 30.8633 126.262 30.4883C127.996 30.0898 129.66 29.8906 131.254 29.8906C132.941 29.8906 134.359 29.9844 135.508 30.1719C136.68 30.3594 137.641 30.5586 138.391 30.7695C138.719 30.3711 139.047 30.0781 139.375 29.8906C139.727 29.7031 140.066 29.6094 140.395 29.6094C140.84 29.6094 141.309 29.6914 141.801 29.8555C142.316 29.9961 142.785 30.1953 143.207 30.4531C143.652 30.7109 144.016 31.0039 144.297 31.332C144.578 31.6602 144.719 32 144.719 32.3516C144.719 32.6094 144.672 32.8555 144.578 33.0898C144.484 33.3242 144.379 33.5586 144.262 33.793C144.168 34.0039 144.074 34.2383 143.98 34.4961C143.91 34.7539 143.875 35.0234 143.875 35.3047C143.875 35.8672 143.922 36.7227 144.016 37.8711C144.133 39.0195 144.273 40.332 144.438 41.8086C144.625 43.2617 144.812 44.7969 145 46.4141C145.211 48.0312 145.41 49.5781 145.598 51.0547L146.723 60.6523L148.551 75.4883C148.551 76.0039 148.387 76.4844 148.059 76.9297C147.754 77.375 147.355 77.7617 146.863 78.0898C146.371 78.418 145.82 78.6758 145.211 78.8633C144.602 79.0508 144.004 79.1445 143.418 79.1445C142.879 79.1445 142.434 78.9922 142.082 78.6875C141.73 78.4062 141.531 78.0312 141.484 77.5625C141.273 75.2891 141.027 73.0273 140.746 70.7773C140.488 68.5273 140.23 66.2305 139.973 63.8867L138.672 54.1484ZM125.805 49.5781C124.703 49.9062 123.566 50.0703 122.395 50.0703C120.332 50.0703 118.762 49.6719 117.684 48.875C116.605 48.0547 116.066 46.8711 116.066 45.3242C116.066 44.1992 116.512 43.0977 117.402 42.0195C118.293 40.9414 119.465 39.9805 120.918 39.1367C122.371 38.293 124.023 37.6133 125.875 37.0977C127.727 36.582 129.613 36.3242 131.535 36.3242C132.543 36.3242 133.434 36.3945 134.207 36.5352C135.121 36.6758 135.578 37.1328 135.578 37.9062C135.578 38.0469 135.543 38.1992 135.473 38.3633C135.426 38.5273 135.367 38.7031 135.297 38.8906C134.289 41.0938 133.27 42.9219 132.238 44.375C131.207 45.8047 130.152 46.9414 129.074 47.7852C128.02 48.6289 126.93 49.2266 125.805 49.5781Z" fill="black"/>
</svg>
