<svg width="235" height="73" viewBox="0 0 235 73" fill="none" xmlns="http://www.w3.org/2000/svg">
<path d="M16.52 58.672C13.2347 58.672 10.4347 58.0747 8.12 56.88C5.84267 55.6853 3.88267 54.08 2.24 52.064L6.608 47.976C7.98933 49.656 9.50133 50.9253 11.144 51.784C12.824 52.6427 14.728 53.072 16.856 53.072C19.3573 53.072 21.2427 52.512 22.512 51.392C23.7813 50.272 24.416 48.76 24.416 46.856C24.416 45.3253 23.968 44.112 23.072 43.216C22.176 42.32 20.5893 41.648 18.312 41.2L14.84 40.584C11.032 39.8747 8.176 38.624 6.272 36.832C4.368 35.04 3.416 32.576 3.416 29.44C3.416 27.7227 3.73333 26.1733 4.368 24.792C5.04 23.3733 5.95467 22.1973 7.112 21.264C8.30667 20.2933 9.744 19.5467 11.424 19.024C13.104 18.5013 14.9893 18.24 17.08 18.24C20.0293 18.24 22.5867 18.7627 24.752 19.808C26.9173 20.816 28.7653 22.2907 30.296 24.232L25.872 28.152C24.864 26.8453 23.632 25.8 22.176 25.016C20.72 24.232 18.9093 23.84 16.744 23.84C14.504 23.84 12.768 24.288 11.536 25.184C10.304 26.08 9.688 27.3867 9.688 29.104C9.688 30.7467 10.192 31.9787 11.2 32.8C12.208 33.584 13.776 34.1813 15.904 34.592L19.376 35.32C23.296 36.0667 26.152 37.336 27.944 39.128C29.7733 40.92 30.688 43.384 30.688 46.52C30.688 48.3493 30.3707 50.0107 29.736 51.504C29.1013 52.9973 28.168 54.2853 26.936 55.368C25.7413 56.4133 24.2667 57.2347 22.512 57.832C20.7573 58.392 18.76 58.672 16.52 58.672ZM60.5168 67.688H54.9728C52.7701 67.688 51.1461 67.128 50.1008 66.008C49.0928 64.888 48.5888 63.376 48.5888 61.472V58.504C46.3861 58.2427 44.4074 57.608 42.6528 56.6C40.8981 55.592 39.4048 54.248 38.1728 52.568C36.9408 50.888 35.9888 48.872 35.3168 46.52C34.6448 44.1307 34.3088 41.4427 34.3088 38.456C34.3088 35.1707 34.7008 32.2773 35.4848 29.776C36.3061 27.2373 37.4448 25.128 38.9008 23.448C40.3941 21.7307 42.1674 20.4427 44.2208 19.584C46.3114 18.688 48.6261 18.24 51.1648 18.24C53.7034 18.24 55.9994 18.688 58.0528 19.584C60.1434 20.4427 61.9168 21.7307 63.3728 23.448C64.8661 25.128 66.0048 27.2373 66.7888 29.776C67.6101 32.2773 68.0208 35.1707 68.0208 38.456C68.0208 44.28 66.8074 48.8907 64.3808 52.288C61.9541 55.648 58.6688 57.6827 54.5248 58.392V62.424H60.5168V67.688ZM51.1648 53.016C52.6581 53.016 54.0208 52.7547 55.2528 52.232C56.5221 51.7093 57.5861 50.9627 58.4448 49.992C59.3408 48.984 60.0314 47.7707 60.5168 46.352C61.0021 44.9333 61.2448 43.328 61.2448 41.536V35.376C61.2448 33.584 61.0021 31.9787 60.5168 30.56C60.0314 29.1413 59.3408 27.9467 58.4448 26.976C57.5861 25.968 56.5221 25.2027 55.2528 24.68C54.0208 24.1573 52.6581 23.896 51.1648 23.896C49.6341 23.896 48.2528 24.1573 47.0208 24.68C45.7888 25.2027 44.7248 25.968 43.8288 26.976C42.9701 27.9467 42.2981 29.1413 41.8128 30.56C41.3274 31.9787 41.0848 33.584 41.0848 35.376V41.536C41.0848 43.328 41.3274 44.9333 41.8128 46.352C42.2981 47.7707 42.9701 48.984 43.8288 49.992C44.7248 50.9627 45.7888 51.7093 47.0208 52.232C48.2528 52.7547 49.6341 53.016 51.1648 53.016ZM73.6719 58V18.912H79.9999V52.4H95.9039V58H73.6719ZM102.775 23.672C101.506 23.672 100.572 23.3733 99.9749 22.776C99.4149 22.1787 99.1349 21.4133 99.1349 20.48V19.528C99.1349 18.5947 99.4149 17.8293 99.9749 17.232C100.572 16.6347 101.506 16.336 102.775 16.336C104.044 16.336 104.959 16.6347 105.519 17.232C106.079 17.8293 106.359 18.5947 106.359 19.528V20.48C106.359 21.4133 106.079 22.1787 105.519 22.776C104.959 23.3733 104.044 23.672 102.775 23.672ZM99.6949 28.88H105.799V58H99.6949V28.88ZM137.811 60.744C137.811 63.768 136.654 66.0453 134.339 67.576C132.025 69.1067 128.254 69.872 123.027 69.872C120.638 69.872 118.603 69.704 116.923 69.368C115.281 69.0693 113.918 68.6213 112.835 68.024C111.79 67.4267 111.025 66.6987 110.539 65.84C110.054 64.9813 109.811 63.992 109.811 62.872C109.811 61.2667 110.241 60.016 111.099 59.12C111.995 58.224 113.227 57.608 114.795 57.272V56.656C112.593 55.9467 111.491 54.4533 111.491 52.176C111.491 50.6827 111.995 49.544 113.003 48.76C114.011 47.9387 115.225 47.36 116.643 47.024V46.8C114.926 45.9787 113.601 44.84 112.667 43.384C111.771 41.8907 111.323 40.1547 111.323 38.176C111.323 35.1893 112.313 32.7813 114.291 30.952C116.307 29.1227 119.182 28.208 122.915 28.208C124.969 28.208 126.723 28.5067 128.179 29.104V28.32C128.179 27.0133 128.478 26.0053 129.075 25.296C129.71 24.5493 130.681 24.176 131.987 24.176H136.467V29.104H130.531V30.28C131.838 31.1387 132.846 32.2587 133.555 33.64C134.265 34.984 134.619 36.496 134.619 38.176C134.619 41.1253 133.611 43.5147 131.595 45.344C129.579 47.136 126.705 48.032 122.971 48.032C121.553 48.032 120.283 47.8827 119.163 47.584C118.417 47.8453 117.763 48.2187 117.203 48.704C116.643 49.152 116.363 49.7493 116.363 50.496C116.363 51.28 116.718 51.84 117.427 52.176C118.137 52.512 119.145 52.68 120.451 52.68H127.619C131.203 52.68 133.798 53.408 135.403 54.864C137.009 56.2827 137.811 58.2427 137.811 60.744ZM132.099 61.416C132.099 60.408 131.707 59.6053 130.923 59.008C130.177 58.4107 128.795 58.112 126.779 58.112H116.923C115.579 58.896 114.907 60.016 114.907 61.472C114.907 62.6667 115.374 63.6187 116.307 64.328C117.278 65.0747 118.902 65.448 121.179 65.448H124.987C129.729 65.448 132.099 64.104 132.099 61.416ZM122.971 43.608C124.763 43.608 126.145 43.216 127.115 42.432C128.123 41.6107 128.627 40.36 128.627 38.68V37.56C128.627 35.88 128.123 34.648 127.115 33.864C126.145 33.0427 124.763 32.632 122.971 32.632C121.179 32.632 119.779 33.0427 118.771 33.864C117.801 34.648 117.315 35.88 117.315 37.56V38.68C117.315 40.36 117.801 41.6107 118.771 42.432C119.779 43.216 121.179 43.608 122.971 43.608ZM140.113 16.56H146.217V33.696H146.497C147.132 32.128 148.084 30.8213 149.353 29.776C150.66 28.7307 152.433 28.208 154.673 28.208C157.66 28.208 159.975 29.1973 161.617 31.176C163.297 33.1173 164.137 35.8987 164.137 39.52V58H158.033V40.248C158.033 35.7307 156.204 33.472 152.545 33.472C151.761 33.472 150.977 33.584 150.193 33.808C149.447 33.9947 148.775 34.2933 148.177 34.704C147.58 35.1147 147.095 35.6373 146.721 36.272C146.385 36.9067 146.217 37.6347 146.217 38.456V58H140.113V16.56ZM178.422 58C176.294 58 174.688 57.4587 173.606 56.376C172.523 55.256 171.982 53.688 171.982 51.672V33.864H167.446V28.88H169.91C170.918 28.88 171.608 28.656 171.982 28.208C172.392 27.76 172.598 27.032 172.598 26.024V20.928H178.086V28.88H184.19V33.864H178.086V53.016H183.742V58H178.422ZM199.776 58.672C197.685 58.672 195.819 58.3173 194.176 57.608C192.533 56.8987 191.133 55.8907 189.976 54.584C188.819 53.24 187.923 51.6347 187.288 49.768C186.691 47.864 186.392 45.7547 186.392 43.44C186.392 41.1253 186.691 39.0347 187.288 37.168C187.923 35.264 188.819 33.6587 189.976 32.352C191.133 31.008 192.533 29.9813 194.176 29.272C195.819 28.5627 197.685 28.208 199.776 28.208C201.904 28.208 203.771 28.5813 205.376 29.328C207.019 30.0747 208.381 31.12 209.464 32.464C210.547 33.7707 211.349 35.3013 211.872 37.056C212.432 38.8107 212.712 40.696 212.712 42.712V45.008H192.72V45.96C192.72 48.2 193.373 50.048 194.68 51.504C196.024 52.9227 197.928 53.632 200.392 53.632C202.184 53.632 203.696 53.24 204.928 52.456C206.16 51.672 207.205 50.608 208.064 49.264L211.648 52.792C210.565 54.584 208.997 56.0213 206.944 57.104C204.891 58.1493 202.501 58.672 199.776 58.672ZM199.776 32.968C198.731 32.968 197.76 33.1547 196.864 33.528C196.005 33.9013 195.259 34.424 194.624 35.096C194.027 35.768 193.56 36.5707 193.224 37.504C192.888 38.4373 192.72 39.464 192.72 40.584V40.976H206.272V40.416C206.272 38.176 205.693 36.384 204.536 35.04C203.379 33.6587 201.792 32.968 199.776 32.968ZM217.229 58V28.88H223.333V34.48H223.613C224.024 32.9867 224.883 31.68 226.189 30.56C227.496 29.44 229.307 28.88 231.621 28.88H233.245V34.76H230.837C228.411 34.76 226.544 35.152 225.237 35.936C223.968 36.72 223.333 37.8773 223.333 39.408V58H217.229Z" fill="black"/>
</svg>
