<svg width="215" height="109" viewBox="0 0 215 109" fill="none" xmlns="http://www.w3.org/2000/svg">
<path d="M8.34375 65.0234C8.13542 65.8568 7.74479 66.3776 7.17188 66.5859C6.59896 66.7682 6.02604 66.7422 5.45312 66.5078C4.90625 66.2734 4.4375 65.8698 4.04688 65.2969C3.68229 64.724 3.57812 64.099 3.73438 63.4219C4.125 61.651 4.6849 59.6979 5.41406 57.5625C6.16927 55.401 6.91146 53.2526 7.64062 51.1172C7.25 50.5182 6.9375 49.9193 6.70312 49.3203C6.46875 48.6953 6.35156 48.0443 6.35156 47.3672C6.35156 46.6901 6.59896 45.987 7.09375 45.2578C7.61458 44.5026 8.22656 43.8125 8.92969 43.1875C9.65885 42.5625 10.401 42.0547 11.1562 41.6641C11.9375 41.2474 12.6016 41.0391 13.1484 41.0391C14.112 41.0391 14.8281 41.3646 15.2969 42.0156C15.7917 42.6667 16.0391 43.5391 16.0391 44.6328C16.0391 45.2318 15.9349 45.8307 15.7266 46.4297C15.5443 47.0026 15.3359 47.5495 15.1016 48.0703C14.8672 48.5651 14.6458 48.9948 14.4375 49.3594C14.2552 49.724 14.151 49.9583 14.125 50.0625C15.0625 51.7292 16.0391 53.2005 17.0547 54.4766C18.0703 55.7526 18.9948 57.0156 19.8281 58.2656C20.6875 59.5156 21.3906 60.8438 21.9375 62.25C22.4844 63.6562 22.7578 65.3099 22.7578 67.2109C22.7578 67.6797 22.7188 68.1615 22.6406 68.6562C22.5885 69.151 22.4974 69.6198 22.3672 70.0625C23.3047 69.8802 24.125 69.5938 24.8281 69.2031C25.5573 68.8125 26.1823 68.3698 26.7031 67.875C27.25 67.3542 27.6927 66.7943 28.0312 66.1953C28.3958 65.5964 28.6953 64.9714 28.9297 64.3203C29.2161 63.5651 29.5026 63.0182 29.7891 62.6797C30.0755 62.3411 30.401 62.1719 30.7656 62.1719C31.1042 62.1719 31.4427 62.2891 31.7812 62.5234C32.1458 62.7318 32.4583 63.0052 32.7188 63.3438C33.0052 63.6823 33.2266 64.0339 33.3828 64.3984C33.5651 64.763 33.6562 65.0885 33.6562 65.375C33.6562 65.7656 33.5521 66.2344 33.3438 66.7812C33.1354 67.3281 32.849 67.888 32.4844 68.4609C32.1458 69.0339 31.7552 69.5938 31.3125 70.1406C30.8698 70.6615 30.4141 71.1172 29.9453 71.5078C28.6953 72.5234 27.224 73.3828 25.5312 74.0859C23.8385 74.763 21.7422 75.1927 19.2422 75.375C18.2786 76.2083 17.1328 76.8854 15.8047 77.4062C14.5026 77.9531 13.0312 78.2266 11.3906 78.2266C10.5573 78.2266 9.69792 78.1224 8.8125 77.9141C7.95312 77.7057 7.11979 77.4323 6.3125 77.0938C5.53125 76.7812 4.8151 76.4297 4.16406 76.0391C3.51302 75.6484 2.99219 75.2578 2.60156 74.8672C1.61198 73.9297 0.973958 72.9922 0.6875 72.0547C0.401042 71.0911 0.335938 70.2318 0.492188 69.4766C0.622396 68.7214 0.895833 68.1094 1.3125 67.6406C1.72917 67.1458 2.15885 66.8984 2.60156 66.8984C2.86198 66.8984 3.26562 67.0156 3.8125 67.25C4.38542 67.4583 5.03646 67.7448 5.76562 68.1094C6.49479 68.4479 7.28906 68.8125 8.14844 69.2031C9.00781 69.5938 9.86719 69.9714 10.7266 70.3359C11.5859 70.6745 12.4193 70.9609 13.2266 71.1953C14.0599 71.4036 14.8151 71.5078 15.4922 71.5078C15.9349 70.987 16.3385 70.2969 16.7031 69.4375C17.0677 68.5781 17.25 67.6406 17.25 66.625C17.25 65.375 17.0807 64.2161 16.7422 63.1484C16.4036 62.0807 15.9609 61.0911 15.4141 60.1797C14.8672 59.2682 14.2422 58.4219 13.5391 57.6406C12.862 56.8333 12.1719 56.0781 11.4688 55.375C10.8438 56.9115 10.2969 58.4349 9.82812 59.9453C9.35938 61.4297 8.86458 63.1224 8.34375 65.0234ZM37.5234 78.2266C35.9609 78.2266 34.5807 77.9141 33.3828 77.2891C32.2109 76.6641 31.2214 75.8177 30.4141 74.75C29.6068 73.6562 28.9948 72.3802 28.5781 70.9219C28.1875 69.4375 27.9922 67.849 27.9922 66.1562C27.9922 62.8229 28.526 59.8281 29.5938 57.1719C30.6615 54.5156 32.0807 52.263 33.8516 50.4141C35.6224 48.5391 37.6406 47.1068 39.9062 46.1172C42.1979 45.1276 44.5677 44.6328 47.0156 44.6328C48.1094 44.6328 48.9948 44.9323 49.6719 45.5312C50.349 46.1302 50.6875 46.9505 50.6875 47.9922C50.6875 48.6693 50.6094 49.151 50.4531 49.4375C50.3229 49.6979 50.0625 49.8281 49.6719 49.8281C49.3073 49.8281 48.9297 49.8021 48.5391 49.75C48.1484 49.6979 47.7448 49.6719 47.3281 49.6719C45.8177 49.6719 44.2812 50.0104 42.7188 50.6875C41.1562 51.3385 39.737 52.3542 38.4609 53.7344C37.2109 55.0885 36.1823 56.8203 35.375 58.9297C34.5677 61.013 34.1641 63.5 34.1641 66.3906C34.1641 68.5 34.5677 70.1276 35.375 71.2734C36.1823 72.3932 37.2891 72.9531 38.6953 72.9531C39.5026 72.9531 40.2057 72.7188 40.8047 72.25C41.4036 71.7812 41.9245 71.1823 42.3672 70.4531C42.8099 69.724 43.1615 68.9297 43.4219 68.0703C43.7083 67.1849 43.9297 66.3385 44.0859 65.5312V56.4688C44.0859 56.0781 44.0599 55.7526 44.0078 55.4922C43.9818 55.2318 43.9427 55.0104 43.8906 54.8281C43.8646 54.6458 43.8255 54.4896 43.7734 54.3594C43.7474 54.2031 43.7344 54.0599 43.7344 53.9297C43.7344 53.513 43.9427 53.1875 44.3594 52.9531C44.776 52.6927 45.2708 52.5625 45.8438 52.5625C47.1719 52.5625 48.2135 52.9141 48.9688 53.6172C49.75 54.2943 50.1406 55.1146 50.1406 56.0781V78.1484C51.7812 76.4557 53.3047 74.5026 54.7109 72.2891C56.1432 70.0755 57.3151 67.4193 58.2266 64.3203C58.4609 63.487 58.7344 62.888 59.0469 62.5234C59.3854 62.1328 59.75 61.9375 60.1406 61.9375C60.4531 61.9375 60.7786 62.0417 61.1172 62.25C61.4557 62.4323 61.7552 62.6797 62.0156 62.9922C62.3021 63.3047 62.5234 63.6562 62.6797 64.0469C62.862 64.4375 62.9531 64.8281 62.9531 65.2188C62.9531 65.2708 62.9531 65.375 62.9531 65.5312C62.9531 65.6875 62.9271 65.8438 62.875 66C62.25 68.1094 61.5339 70.0104 60.7266 71.7031C59.9193 73.3698 59.0469 74.8802 58.1094 76.2344C57.1979 77.5885 56.2344 78.7995 55.2188 79.8672C54.2292 80.9349 53.2266 81.9115 52.2109 82.7969C53.4089 84.125 54.4896 85.401 55.4531 86.625C56.4167 87.875 57.224 89.125 57.875 90.375C58.5521 91.625 59.0729 92.901 59.4375 94.2031C59.8021 95.5052 59.9844 96.8724 59.9844 98.3047C59.9844 99.8932 59.763 101.339 59.3203 102.641C58.9036 103.943 58.3307 105.062 57.6016 106C56.8984 106.938 56.0651 107.667 55.1016 108.188C54.138 108.708 53.1224 108.969 52.0547 108.969C49.3464 108.969 47.3411 108.018 46.0391 106.117C44.737 104.242 44.0859 101.664 44.0859 98.3828V75.2969C43.2786 76.1302 42.3411 76.8203 41.2734 77.3672C40.2057 77.9401 38.9557 78.2266 37.5234 78.2266ZM54.3203 99.2031C54.3203 98.2396 54.2552 97.276 54.125 96.3125C54.0208 95.349 53.8125 94.3854 53.5 93.4219C53.1875 92.4583 52.7578 91.4688 52.2109 90.4531C51.6641 89.4375 50.974 88.3828 50.1406 87.2891V99.125C50.1406 100.062 50.2057 100.831 50.3359 101.43C50.4922 102.029 50.6745 102.484 50.8828 102.797C51.0911 103.135 51.3125 103.37 51.5469 103.5C51.7812 103.63 52.0026 103.695 52.2109 103.695C52.7318 103.695 53.2135 103.331 53.6562 102.602C54.099 101.898 54.3203 100.766 54.3203 99.2031ZM64.6328 52.3281C64.9193 51.7812 65.1927 51.0521 65.4531 50.1406C65.7396 49.2031 66 48.1745 66.2344 47.0547C66.4948 45.9349 66.7292 44.763 66.9375 43.5391C67.1458 42.3151 67.3281 41.1172 67.4844 39.9453C67.6406 38.7734 67.7578 37.6797 67.8359 36.6641C67.9401 35.6224 67.9922 34.737 67.9922 34.0078C67.9922 31.3516 67.7969 29.4115 67.4062 28.1875C67.0156 26.9375 66.4948 26.3125 65.8438 26.3125C65.6354 26.3125 65.4531 26.4167 65.2969 26.625C65.1406 26.8333 65.0104 27.1068 64.9062 27.4453C64.8021 27.7578 64.724 28.1094 64.6719 28.5C64.6458 28.8646 64.6328 29.2031 64.6328 29.5156V52.3281ZM76 64.3984C76.1562 63.6172 76.3906 63.0573 76.7031 62.7188C77.0417 62.3542 77.3932 62.1589 77.7578 62.1328C78.1484 62.0807 78.5391 62.1719 78.9297 62.4062C79.3203 62.6146 79.6589 62.901 79.9453 63.2656C80.2318 63.6302 80.4401 64.0469 80.5703 64.5156C80.7266 64.9583 80.7526 65.401 80.6484 65.8438C80.2839 66.9115 79.763 68.1615 79.0859 69.5938C78.4089 71.026 77.5495 72.3802 76.5078 73.6562C75.4661 74.9323 74.2422 76.013 72.8359 76.8984C71.4297 77.7839 69.8151 78.2266 67.9922 78.2266C66.4557 78.2266 65.1016 77.9661 63.9297 77.4453C62.7578 76.9505 61.7682 76.2474 60.9609 75.3359C60.1797 74.3984 59.5807 73.2917 59.1641 72.0156C58.7734 70.7135 58.5781 69.2682 58.5781 67.6797V31.2734C58.5781 29.7891 58.7604 28.4219 59.125 27.1719C59.5156 25.8958 60.0365 24.8151 60.6875 23.9297C61.3646 23.0182 62.1458 22.3151 63.0312 21.8203C63.9167 21.2995 64.8542 21.0391 65.8438 21.0391C67.0156 21.0391 68.0052 21.2604 68.8125 21.7031C69.6198 22.1198 70.2839 22.6797 70.8047 23.3828C71.3255 24.0859 71.7292 24.8932 72.0156 25.8047C72.3281 26.7161 72.5495 27.6536 72.6797 28.6172C72.8099 29.5547 72.888 30.4922 72.9141 31.4297C72.9401 32.3411 72.9531 33.1745 72.9531 33.9297C72.9531 35.8828 72.7708 37.9401 72.4062 40.1016C72.0417 42.237 71.5729 44.3464 71 46.4297C70.4531 48.513 69.8411 50.5182 69.1641 52.4453C68.513 54.3464 67.875 56.0391 67.25 57.5234C66.651 59.0078 66.1042 60.2188 65.6094 61.1562C65.1406 62.0938 64.8151 62.6406 64.6328 62.7969V67.4453C64.6328 69.0599 64.9714 70.388 65.6484 71.4297C66.3255 72.4453 67.4062 72.9531 68.8906 72.9531C69.8021 72.9531 70.6484 72.6797 71.4297 72.1328C72.237 71.5599 72.9401 70.8568 73.5391 70.0234C74.1641 69.1641 74.6849 68.2396 75.1016 67.25C75.5182 66.2344 75.8177 65.2839 76 64.3984ZM80.4531 37.5234C79.8021 37.5234 79.1771 37.3932 78.5781 37.1328C78.0052 36.8724 77.4974 36.5208 77.0547 36.0781C76.638 35.6354 76.2995 35.1276 76.0391 34.5547C75.7786 33.9557 75.6484 33.3177 75.6484 32.6406C75.6484 31.9375 75.7786 31.2865 76.0391 30.6875C76.2995 30.0885 76.638 29.5807 77.0547 29.1641C77.4974 28.7214 78.0052 28.3828 78.5781 28.1484C79.1771 27.888 79.8021 27.7578 80.4531 27.7578C81.1562 27.7578 81.8073 27.888 82.4062 28.1484C83.0052 28.3828 83.513 28.7214 83.9297 29.1641C84.3724 29.5807 84.7109 30.0885 84.9453 30.6875C85.2057 31.2865 85.3359 31.9375 85.3359 32.6406C85.3359 33.3177 85.2057 33.9557 84.9453 34.5547C84.7109 35.1276 84.3724 35.6354 83.9297 36.0781C83.513 36.5208 83.0052 36.8724 82.4062 37.1328C81.8073 37.3932 81.1562 37.5234 80.4531 37.5234ZM82.2891 69.2812C82.2891 69.4635 82.3021 69.763 82.3281 70.1797C82.3542 70.5703 82.4323 70.974 82.5625 71.3906C82.6927 71.8073 82.901 72.1719 83.1875 72.4844C83.474 72.7969 83.8776 72.9531 84.3984 72.9531C85.1797 72.9531 85.8568 72.6667 86.4297 72.0938C87.0286 71.5208 87.5365 70.8047 87.9531 69.9453C88.3958 69.0859 88.7604 68.1615 89.0469 67.1719C89.3333 66.1562 89.5677 65.2057 89.75 64.3203C89.9062 63.513 90.1406 62.9271 90.4531 62.5625C90.7917 62.1979 91.1432 62.0026 91.5078 61.9766C91.8984 61.9245 92.276 62.0156 92.6406 62.25C93.0312 62.4844 93.3698 62.7969 93.6562 63.1875C93.9688 63.5521 94.1901 63.9688 94.3203 64.4375C94.4766 64.9062 94.5026 65.349 94.3984 65.7656C94.0339 67.0938 93.5521 68.487 92.9531 69.9453C92.3802 71.4036 91.638 72.7448 90.7266 73.9688C89.8151 75.1927 88.7214 76.2083 87.4453 77.0156C86.1693 77.8229 84.6719 78.2266 82.9531 78.2266C81.8854 78.2266 80.9349 78.0182 80.1016 77.6016C79.2682 77.2109 78.5651 76.6771 77.9922 76C77.4193 75.3229 76.9766 74.5286 76.6641 73.6172C76.3776 72.7057 76.2344 71.7422 76.2344 70.7266V49.3594C76.2344 48.6042 76.1693 48.0573 76.0391 47.7188C75.9349 47.3802 75.8828 47.0677 75.8828 46.7812C75.8828 46.3906 76.0911 46.0781 76.5078 45.8438C76.9245 45.5833 77.4193 45.4531 77.9922 45.4531C79.3203 45.4531 80.362 45.8047 81.1172 46.5078C81.8984 47.1849 82.2891 48.0052 82.2891 48.9688V69.2812ZM94.8672 99.75C94.8672 97.7188 95.1276 95.9219 95.6484 94.3594C96.1953 92.7969 96.9245 91.3646 97.8359 90.0625C98.7474 88.7604 99.8021 87.5365 101 86.3906C102.198 85.2708 103.461 84.125 104.789 82.9531V74.5547C103.982 75.362 103.031 76.0391 101.938 76.5859C100.87 77.1589 99.6328 77.4453 98.2266 77.4453C96.6641 77.4453 95.2839 77.1328 94.0859 76.5078C92.9141 75.8828 91.9245 75.0365 91.1172 73.9688C90.3099 72.875 89.6979 71.599 89.2812 70.1406C88.8906 68.6562 88.6953 67.0677 88.6953 65.375C88.6953 62.0417 89.2292 59.0469 90.2969 56.3906C91.3646 53.7344 92.7839 51.4818 94.5547 49.6328C96.3255 47.7578 98.3438 46.3255 100.609 45.3359C102.901 44.3464 105.271 43.8516 107.719 43.8516C108.812 43.8516 109.698 44.151 110.375 44.75C111.052 45.3229 111.391 46.1432 111.391 47.2109C111.391 47.888 111.312 48.3698 111.156 48.6562C111.026 48.9167 110.766 49.0469 110.375 49.0469C110.01 49.0469 109.633 49.0208 109.242 48.9688C108.852 48.9167 108.448 48.8906 108.031 48.8906C106.521 48.8906 104.984 49.2292 103.422 49.9062C101.859 50.5573 100.44 51.5729 99.1641 52.9531C97.9141 54.3073 96.8854 56.0391 96.0781 58.1484C95.2708 60.2318 94.8672 62.7188 94.8672 65.6094C94.8672 67.6927 95.2708 69.3073 96.0781 70.4531C96.8854 71.599 97.9922 72.1719 99.3984 72.1719C100.206 72.1719 100.909 71.9375 101.508 71.4688C102.107 70.974 102.628 70.362 103.07 69.6328C103.513 68.9036 103.865 68.1094 104.125 67.25C104.411 66.3646 104.633 65.5182 104.789 64.7109V55.6875C104.789 54.9323 104.724 54.3854 104.594 54.0469C104.49 53.7083 104.438 53.3958 104.438 53.1094C104.438 52.7188 104.646 52.3932 105.062 52.1328C105.479 51.8724 105.974 51.7422 106.547 51.7422C107.875 51.7422 108.917 52.0938 109.672 52.7969C110.453 53.474 110.844 54.3073 110.844 55.2969V77.0547C112.302 75.4401 113.63 73.6042 114.828 71.5469C116.052 69.4896 117.068 67.0807 117.875 64.3203C118.135 63.487 118.422 62.888 118.734 62.5234C119.047 62.1328 119.411 61.9375 119.828 61.9375C120.141 61.9375 120.453 62.0417 120.766 62.25C121.104 62.4323 121.404 62.6797 121.664 62.9922C121.951 63.3047 122.172 63.6562 122.328 64.0469C122.51 64.4375 122.602 64.8281 122.602 65.2188C122.602 65.2708 122.602 65.375 122.602 65.5312C122.602 65.6875 122.576 65.8438 122.523 66C121.846 68.3177 121.052 70.375 120.141 72.1719C119.255 73.9427 118.305 75.5312 117.289 76.9375C116.273 78.3438 115.219 79.5938 114.125 80.6875C113.031 81.8073 111.938 82.8359 110.844 83.7734V97.6016C110.844 99.7109 110.596 101.482 110.102 102.914C109.633 104.372 109.008 105.544 108.227 106.43C107.445 107.341 106.547 107.992 105.531 108.383C104.542 108.773 103.539 108.969 102.523 108.969C101.404 108.969 100.375 108.721 99.4375 108.227C98.5 107.758 97.6927 107.107 97.0156 106.273C96.3385 105.44 95.8047 104.464 95.4141 103.344C95.0495 102.224 94.8672 101.026 94.8672 99.75ZM102.523 103.93C103.174 103.93 103.656 103.669 103.969 103.148C104.281 102.628 104.49 102.016 104.594 101.312C104.724 100.635 104.789 99.9453 104.789 99.2422C104.789 98.5391 104.789 97.9922 104.789 97.6016V89.0469C103.487 90.349 102.432 91.8203 101.625 93.4609C100.844 95.1016 100.453 97.1198 100.453 99.5156C100.453 100.766 100.635 101.807 101 102.641C101.365 103.5 101.872 103.93 102.523 103.93ZM118.266 26.7031C118.266 26.1302 118.214 25.6745 118.109 25.3359C118.031 24.9974 117.94 24.737 117.836 24.5547C117.758 24.3464 117.667 24.1901 117.562 24.0859C117.484 23.9557 117.445 23.8255 117.445 23.6953C117.445 23.5391 117.523 23.4089 117.68 23.3047C117.836 23.2005 118.044 23.1094 118.305 23.0312C118.565 22.9531 118.839 22.901 119.125 22.875C119.438 22.8229 119.737 22.7969 120.023 22.7969C121.352 22.7969 122.393 23.1484 123.148 23.8516C123.93 24.5286 124.32 25.349 124.32 26.3125V52.5625C124.867 51.4427 125.453 50.401 126.078 49.4375C126.729 48.474 127.419 47.6406 128.148 46.9375C128.904 46.2083 129.698 45.6484 130.531 45.2578C131.391 44.8411 132.315 44.6328 133.305 44.6328C134.633 44.6328 135.727 44.8802 136.586 45.375C137.445 45.8698 138.122 46.5078 138.617 47.2891C139.112 48.0703 139.451 48.9427 139.633 49.9062C139.841 50.8698 139.945 51.8073 139.945 52.7188V69.2812C139.945 69.4635 139.958 69.763 139.984 70.1797C140.01 70.5703 140.089 70.974 140.219 71.3906C140.349 71.8073 140.544 72.1719 140.805 72.4844C141.091 72.7969 141.495 72.9531 142.016 72.9531C142.823 72.9531 143.513 72.6667 144.086 72.0938C144.685 71.5208 145.193 70.8047 145.609 69.9453C146.052 69.0859 146.404 68.1615 146.664 67.1719C146.951 66.1562 147.185 65.2057 147.367 64.3203C147.523 63.513 147.758 62.9271 148.07 62.5625C148.409 62.1979 148.76 62.0026 149.125 61.9766C149.516 61.9245 149.906 62.0156 150.297 62.25C150.688 62.4844 151.026 62.7969 151.312 63.1875C151.599 63.5521 151.807 63.9688 151.938 64.4375C152.094 64.9062 152.12 65.349 152.016 65.7656C151.651 67.0938 151.169 68.487 150.57 69.9453C149.997 71.4036 149.255 72.7448 148.344 73.9688C147.432 75.1927 146.339 76.2083 145.062 77.0156C143.786 77.8229 142.289 78.2266 140.57 78.2266C139.503 78.2266 138.552 78.0182 137.719 77.6016C136.911 77.2109 136.208 76.6771 135.609 76C135.036 75.3229 134.594 74.5286 134.281 73.6172C133.995 72.7057 133.852 71.7422 133.852 70.7266V54.4766C133.852 53.8516 133.839 53.2656 133.812 52.7188C133.786 52.1719 133.708 51.6901 133.578 51.2734C133.474 50.8568 133.305 50.5312 133.07 50.2969C132.862 50.0365 132.562 49.9062 132.172 49.9062C131.599 49.9062 130.896 50.2969 130.062 51.0781C129.229 51.8594 128.409 52.875 127.602 54.125C126.794 55.375 126.078 56.7943 125.453 58.3828C124.854 59.9453 124.477 61.5208 124.32 63.1094V74.7891C124.32 75.1797 124.307 75.5833 124.281 76C124.281 76.3906 124.203 76.7422 124.047 77.0547C123.917 77.3932 123.695 77.6667 123.383 77.875C123.096 78.1094 122.667 78.2266 122.094 78.2266C121.703 78.2266 121.273 78.1745 120.805 78.0703C120.362 77.9922 119.945 77.8229 119.555 77.5625C119.19 77.3281 118.878 76.9766 118.617 76.5078C118.383 76.0651 118.266 75.4661 118.266 74.7109V26.7031ZM140.492 38.3828C141.091 38.4349 141.755 38.474 142.484 38.5C143.109 38.5521 143.865 38.5911 144.75 38.6172C145.635 38.6172 146.625 38.6302 147.719 38.6562V25.1016C147.719 24.5286 147.667 24.0729 147.562 23.7344C147.484 23.3958 147.393 23.1354 147.289 22.9531C147.211 22.7448 147.12 22.5885 147.016 22.4844C146.938 22.3542 146.898 22.224 146.898 22.0938C146.898 21.9375 146.977 21.8073 147.133 21.7031C147.289 21.599 147.497 21.5078 147.758 21.4297C148.018 21.3516 148.292 21.2995 148.578 21.2734C148.891 21.2214 149.19 21.1953 149.477 21.1953C150.805 21.1953 151.846 21.5469 152.602 22.25C153.383 22.9271 153.773 23.7474 153.773 24.7109V38.7344C156.221 38.7344 158.799 38.7083 161.508 38.6562C164.242 38.6042 166.977 38.513 169.711 38.3828C170.076 37.9922 170.362 37.849 170.57 37.9531C170.805 38.0573 170.948 38.3047 171 38.6953C171.078 39.0859 171.091 39.5677 171.039 40.1406C170.987 40.7135 170.883 41.2734 170.727 41.8203C170.57 42.3411 170.349 42.7969 170.062 43.1875C169.802 43.5781 169.503 43.7734 169.164 43.7734C165.961 43.8516 163.122 43.9036 160.648 43.9297C158.201 43.9297 155.909 43.9297 153.773 43.9297V69.2812C153.773 70.5833 154.021 71.5208 154.516 72.0938C155.01 72.6667 155.674 72.9531 156.508 72.9531C157.315 72.9531 158.005 72.6667 158.578 72.0938C159.177 71.5208 159.685 70.8047 160.102 69.9453C160.544 69.0859 160.896 68.1615 161.156 67.1719C161.443 66.1562 161.677 65.2057 161.859 64.3203C162.016 63.487 162.276 62.888 162.641 62.5234C163.005 62.1328 163.383 61.9375 163.773 61.9375C164.086 61.9375 164.411 62.0417 164.75 62.25C165.089 62.4323 165.388 62.6797 165.648 62.9922C165.935 63.3047 166.156 63.6562 166.312 64.0469C166.495 64.4375 166.586 64.8281 166.586 65.2188C166.586 65.2708 166.586 65.3359 166.586 65.4141C166.586 65.4922 166.56 65.6094 166.508 65.7656C166.169 67.0938 165.701 68.487 165.102 69.9453C164.529 71.4036 163.773 72.7448 162.836 73.9688C161.924 75.1927 160.831 76.2083 159.555 77.0156C158.279 77.8229 156.781 78.2266 155.062 78.2266C153.995 78.2266 153.005 78.0573 152.094 77.7188C151.208 77.4062 150.44 76.8854 149.789 76.1562C149.138 75.4531 148.63 74.5417 148.266 73.4219C147.901 72.3021 147.719 70.9479 147.719 69.3594V43.9297C146.833 43.9297 146.039 43.9297 145.336 43.9297C144.659 43.9036 144.086 43.8776 143.617 43.8516C143.07 43.8255 142.589 43.7995 142.172 43.7734C141.547 43.7734 141 43.5 140.531 42.9531C140.036 42.3802 139.698 41.7552 139.516 41.0781C139.307 40.401 139.281 39.7891 139.438 39.2422C139.568 38.6693 139.919 38.3828 140.492 38.3828ZM180.648 52.7188C180.648 54.2031 180.388 55.7266 179.867 57.2891C179.372 58.8516 178.617 60.3359 177.602 61.7422C176.612 63.1224 175.375 64.3724 173.891 65.4922C172.432 66.5859 170.74 67.4193 168.812 67.9922C169.073 68.6693 169.411 69.3203 169.828 69.9453C170.271 70.5443 170.792 71.0651 171.391 71.5078C171.99 71.9505 172.68 72.3021 173.461 72.5625C174.268 72.8229 175.193 72.9531 176.234 72.9531C177.797 72.9531 179.138 72.6667 180.258 72.0938C181.378 71.4948 182.315 70.7135 183.07 69.75C183.852 68.7865 184.477 67.7057 184.945 66.5078C185.414 65.3099 185.766 64.099 186 62.875C186.182 61.9896 186.547 61.4036 187.094 61.1172C187.667 60.8047 188.24 60.7266 188.812 60.8828C189.411 61.0391 189.919 61.3776 190.336 61.8984C190.779 62.3932 190.961 62.9922 190.883 63.6953C190.779 64.5026 190.596 65.4271 190.336 66.4688C190.102 67.5104 189.737 68.5651 189.242 69.6328C188.747 70.7005 188.109 71.7552 187.328 72.7969C186.573 73.8125 185.635 74.724 184.516 75.5312C183.396 76.3385 182.081 76.9896 180.57 77.4844C179.06 77.9792 177.328 78.2266 175.375 78.2266C173.552 78.2266 171.781 77.862 170.062 77.1328C168.37 76.4297 166.859 75.4141 165.531 74.0859C164.229 72.7318 163.174 71.0781 162.367 69.125C161.586 67.1458 161.195 64.9062 161.195 62.4062C161.195 59.8802 161.547 57.5365 162.25 55.375C162.953 53.1875 163.878 51.2995 165.023 49.7109C166.169 48.1224 167.471 46.8854 168.93 46C170.388 45.0885 171.885 44.6328 173.422 44.6328C174.542 44.6328 175.544 44.8281 176.43 45.2188C177.341 45.6094 178.109 46.1693 178.734 46.8984C179.359 47.6016 179.828 48.4479 180.141 49.4375C180.479 50.4271 180.648 51.5208 180.648 52.7188ZM167.758 62.1719C167.758 62.4062 167.771 62.6406 167.797 62.875C167.823 63.1094 167.836 63.3568 167.836 63.6172C168.826 63.1484 169.724 62.5495 170.531 61.8203C171.339 61.0911 172.029 60.2578 172.602 59.3203C173.174 58.3828 173.617 57.3672 173.93 56.2734C174.242 55.1536 174.398 53.9948 174.398 52.7969C174.398 51.9115 174.242 51.2214 173.93 50.7266C173.643 50.2318 173.24 49.9844 172.719 49.9844C172.068 49.9844 171.482 50.2057 170.961 50.6484C170.466 51.0911 170.023 51.6771 169.633 52.4062C169.268 53.1094 168.956 53.9167 168.695 54.8281C168.461 55.7135 168.266 56.612 168.109 57.5234C167.953 58.4349 167.849 59.3073 167.797 60.1406C167.745 60.9479 167.732 61.625 167.758 62.1719ZM203.422 78.2266C202.484 78.2266 201.521 78.0833 200.531 77.7969C199.568 77.5104 198.682 77.0156 197.875 76.3125C197.094 75.6094 196.443 74.6849 195.922 73.5391C195.427 72.3672 195.18 70.8958 195.18 69.125C195.18 66.5469 195.518 63.8255 196.195 60.9609C196.898 58.0703 197.901 54.8932 199.203 51.4297H193.109H192.211C192.185 52.2109 192.133 53.2005 192.055 54.3984C192.003 55.5964 191.898 56.8724 191.742 58.2266C191.586 59.5807 191.378 60.9479 191.117 62.3281C190.883 63.7083 190.583 64.9844 190.219 66.1562C189.958 66.9896 189.542 67.4714 188.969 67.6016C188.422 67.7318 187.875 67.6406 187.328 67.3281C186.781 66.9896 186.339 66.5078 186 65.8828C185.661 65.2578 185.583 64.6068 185.766 63.9297C185.974 63.1224 186.156 62.1458 186.312 61C186.469 59.8281 186.586 58.6042 186.664 57.3281C186.768 56.026 186.846 54.737 186.898 53.4609C186.951 52.1589 186.99 51 187.016 49.9844C186.026 49.4375 185.206 48.7474 184.555 47.9141C183.904 47.0547 183.578 46.0391 183.578 44.8672C183.578 44.3203 183.682 43.8255 183.891 43.3828C184.125 42.9141 184.424 42.5234 184.789 42.2109C185.154 41.8724 185.583 41.625 186.078 41.4688C186.573 41.2865 187.081 41.1953 187.602 41.1953C188.07 41.1953 188.552 41.2604 189.047 41.3906C189.568 41.5208 190.049 41.7552 190.492 42.0938C190.961 42.4323 191.378 42.875 191.742 43.4219C192.107 43.9688 192.406 44.6458 192.641 45.4531C193.292 45.5312 193.839 45.5964 194.281 45.6484C194.75 45.6745 195.141 45.7005 195.453 45.7266C195.766 45.7526 196.026 45.7656 196.234 45.7656C196.443 45.7656 196.651 45.7656 196.859 45.7656H201.039C201.273 45.7656 201.612 45.9089 202.055 46.1953C202.523 46.4818 202.979 46.8594 203.422 47.3281C203.865 47.7708 204.229 48.2526 204.516 48.7734C204.828 49.2943 204.945 49.7891 204.867 50.2578C204.867 50.4141 204.776 50.7917 204.594 51.3906C204.411 51.9896 204.19 52.7448 203.93 53.6562C203.669 54.5677 203.383 55.6224 203.07 56.8203C202.758 57.9922 202.471 59.2292 202.211 60.5312C201.951 61.8333 201.729 63.1875 201.547 64.5938C201.365 65.974 201.273 67.3281 201.273 68.6562C201.273 69.2031 201.339 69.737 201.469 70.2578C201.599 70.7786 201.794 71.2474 202.055 71.6641C202.315 72.0547 202.641 72.3672 203.031 72.6016C203.448 72.8359 203.93 72.9531 204.477 72.9531C205.388 72.9531 206.169 72.6667 206.82 72.0938C207.471 71.5208 208.018 70.8047 208.461 69.9453C208.904 69.0859 209.255 68.1615 209.516 67.1719C209.802 66.1562 210.036 65.2057 210.219 64.3203C210.375 63.487 210.635 62.888 211 62.5234C211.365 62.1328 211.742 61.9375 212.133 61.9375C212.445 61.9375 212.771 62.0417 213.109 62.25C213.448 62.4323 213.747 62.6797 214.008 62.9922C214.294 63.3047 214.516 63.6562 214.672 64.0469C214.854 64.4375 214.945 64.8281 214.945 65.2188C214.945 65.349 214.932 65.4531 214.906 65.5312C214.88 65.6094 214.867 65.6875 214.867 65.7656C214.503 67.0938 214.021 68.487 213.422 69.9453C212.849 71.4036 212.107 72.7448 211.195 73.9688C210.284 75.1927 209.19 76.2083 207.914 77.0156C206.638 77.8229 205.141 78.2266 203.422 78.2266Z" fill="black"/>
</svg>
