<svg width="277" height="66" viewBox="0 0 277 66" fill="none" xmlns="http://www.w3.org/2000/svg">
<path d="M10.1602 13.4648C11.7305 13.4648 13.3477 13.6758 15.0117 14.0977C16.6758 14.4961 18.1992 15.0234 19.582 15.6797C20.9648 16.3125 22.1016 17.0273 22.9922 17.8242C23.8828 18.6211 24.3281 19.3945 24.3281 20.1445C24.3281 20.5195 24.1641 20.9414 23.8359 21.4102C23.5078 21.8555 23.1094 22.2891 22.6406 22.7109C22.1719 23.1094 21.6562 23.4492 21.0938 23.7305C20.5547 23.9883 20.0742 24.1172 19.6523 24.1172C19.0898 24.1172 18.457 23.8828 17.7539 23.4141C17.0742 22.9453 16.3125 22.4297 15.4688 21.8672C14.6484 21.2812 13.7461 20.7539 12.7617 20.2852C11.7773 19.8164 10.7109 19.582 9.5625 19.582C8.8125 19.582 8.19141 19.7695 7.69922 20.1445C7.23047 20.4961 6.99609 21 6.99609 21.6562C6.99609 22.2422 7.27734 22.8398 7.83984 23.4492C8.40234 24.0352 9.14062 24.6445 10.0547 25.2773C10.9922 25.9102 12.0469 26.5781 13.2188 27.2812C14.3906 27.9844 15.5859 28.7344 16.8047 29.5312C18.0469 30.3281 19.2539 31.1953 20.4258 32.1328C21.5977 33.0703 22.6406 34.0898 23.5547 35.1914C24.4922 36.293 25.2422 37.5 25.8047 38.8125C26.3672 40.1016 26.6484 41.5078 26.6484 43.0312C26.6484 44.3438 26.4141 45.5391 25.9453 46.6172C25.4766 47.6953 24.8086 48.6211 23.9414 49.3945C23.0742 50.168 22.043 50.7656 20.8477 51.1875C19.6523 51.6094 18.3398 51.8203 16.9102 51.8203C15.1055 51.8203 13.4414 51.5391 11.918 50.9766C10.3945 50.4375 9.08203 49.6875 7.98047 48.7266C6.87891 47.7656 6.01172 46.6172 5.37891 45.2812C4.76953 43.9453 4.46484 42.4805 4.46484 40.8867C4.46484 38.8242 4.82812 37.3242 5.55469 36.3867C6.30469 35.4492 7.47656 34.9805 9.07031 34.9805C10.0547 34.9805 10.8398 35.168 11.4258 35.543C12.0117 35.918 12.3047 36.375 12.3047 36.9141C12.3047 37.1953 12.2578 37.4883 12.1641 37.793C12.0703 38.0742 11.9648 38.3789 11.8477 38.707C11.7539 39.0117 11.6602 39.3398 11.5664 39.6914C11.4961 40.043 11.4609 40.3945 11.4609 40.7461C11.4609 41.3555 11.6016 41.9414 11.8828 42.5039C12.1641 43.0664 12.5391 43.5586 13.0078 43.9805C13.5 44.4258 14.0625 44.7773 14.6953 45.0352C15.3281 45.293 15.9961 45.4219 16.6992 45.4219C18.5742 45.4219 19.5117 44.6484 19.5117 43.1016C19.5117 41.8828 19.0312 40.7344 18.0703 39.6562C17.1094 38.5547 15.9023 37.4883 14.4492 36.457C12.9961 35.4023 11.4258 34.3477 9.73828 33.293C8.07422 32.2383 6.51562 31.1367 5.0625 29.9883C3.60938 28.8398 2.40234 27.6211 1.44141 26.332C0.480469 25.0195 0 23.6016 0 22.0781C0 20.8125 0.257812 19.6523 0.773438 18.5977C1.3125 17.543 2.03906 16.6406 2.95312 15.8906C3.86719 15.1172 4.93359 14.5195 6.15234 14.0977C7.39453 13.6758 8.73047 13.4648 10.1602 13.4648Z" fill="black"/>
<path d="M69.1172 3.9375C69.1172 2.71875 69.4688 1.85156 70.1719 1.33594C70.875 0.820312 72.0352 0.5625 73.6523 0.5625C74.2148 0.5625 74.707 0.621094 75.1289 0.738281C75.5508 0.855469 75.9023 1.05469 76.1836 1.33594C76.4648 1.59375 76.6875 1.95703 76.8516 2.42578C77.0391 2.87109 77.1914 3.44531 77.3086 4.14844C77.6133 6.23438 77.918 8.42578 78.2227 10.7227C78.5508 12.9961 78.8555 15.2695 79.1367 17.543C79.4414 19.793 79.7227 21.9961 79.9805 24.1523C80.2383 26.2852 80.4609 28.2773 80.6484 30.1289C80.8594 31.957 81.0117 33.5859 81.1055 35.0156C81.2227 36.4219 81.2812 37.5352 81.2812 38.3555C81.2812 39.1992 81.1992 39.9141 81.0352 40.5C80.8945 41.0859 80.6367 41.5547 80.2617 41.9062C79.9102 42.2578 79.4414 42.5156 78.8555 42.6797C78.293 42.8203 77.5898 42.8906 76.7461 42.8906C75.9258 42.8906 75.2695 42.6797 74.7773 42.2578C74.3086 41.8359 74.0742 41.1914 74.0742 40.3242C74.0742 39.4336 74.0039 38.25 73.8633 36.7734C73.7227 35.2734 73.5352 33.6094 73.3008 31.7812C73.0664 29.9531 72.7969 28.0078 72.4922 25.9453C72.2109 23.8828 71.9062 21.8438 71.5781 19.8281C71.2734 17.8125 70.9688 15.8789 70.6641 14.0273C70.3828 12.1523 70.125 10.5 69.8906 9.07031C69.6562 7.61719 69.4688 6.43359 69.3281 5.51953C69.1875 4.58203 69.1172 4.05469 69.1172 3.9375Z" fill="black"/>
<path d="M92.1797 8.12109C91.5 8.12109 90.8555 8.02734 90.2461 7.83984C89.6602 7.62891 89.1445 7.34766 88.6992 6.99609C88.2773 6.62109 87.9375 6.1875 87.6797 5.69531C87.4219 5.20312 87.293 4.66406 87.293 4.07812C87.293 3.09375 87.6797 2.29688 88.4531 1.6875C89.25 1.07812 90.3047 0.773438 91.6172 0.773438C92.2266 0.773438 92.8125 0.890625 93.375 1.125C93.9375 1.33594 94.4297 1.62891 94.8516 2.00391C95.2969 2.37891 95.6484 2.82422 95.9062 3.33984C96.1641 3.83203 96.293 4.34766 96.293 4.88672C96.293 5.89453 95.918 6.69141 95.168 7.27734C94.4414 7.83984 93.4453 8.12109 92.1797 8.12109ZM87.3633 18.8438C87.3633 18.0234 87.7148 17.3555 88.418 16.8398C89.1445 16.3008 90.0938 16.0312 91.2656 16.0312C93.375 16.0312 94.5 16.7578 94.6406 18.2109C94.7344 19.2188 94.8281 20.3555 94.9219 21.6211C95.0391 22.8867 95.1445 24.2344 95.2383 25.6641C95.3555 27.0703 95.4492 28.5352 95.5195 30.0586C95.6133 31.5586 95.6953 33.0469 95.7656 34.5234C95.8359 35.9766 95.8945 37.3828 95.9414 38.7422C95.9883 40.1016 96.0117 41.3438 96.0117 42.4688C96.0117 43.6406 95.5898 44.5195 94.7461 45.1055C93.9258 45.6914 92.7188 45.9844 91.125 45.9844C90.3984 45.9844 89.8242 45.8086 89.4023 45.457C89.0039 45.1289 88.8047 44.6367 88.8047 43.9805C88.8047 40.7461 88.7227 37.7227 88.5586 34.9102C88.418 32.0742 88.2539 29.5547 88.0664 27.3516C87.9023 25.1484 87.7383 23.3203 87.5742 21.8672C87.4336 20.3906 87.3633 19.3828 87.3633 18.8438Z" fill="black"/>
<path d="M121.113 16.5586C122.238 16.5586 123.305 16.6523 124.312 16.8398C125.32 17.0039 126.234 17.1914 127.055 17.4023C127.875 17.5898 128.578 17.7773 129.164 17.9648C129.75 18.1289 130.172 18.2109 130.43 18.2109C130.641 18.2109 130.84 18.1055 131.027 17.8945C131.215 17.6602 131.449 17.4141 131.73 17.1562C132.012 16.8984 132.387 16.6641 132.855 16.4531C133.324 16.2188 133.945 16.1016 134.719 16.1016C135.609 16.1016 136.312 16.3359 136.828 16.8047C137.344 17.25 137.602 17.8125 137.602 18.4922C137.602 27.0703 137.309 34.3594 136.723 40.3594C136.137 46.3359 135.188 51.1992 133.875 54.9492C132.562 58.6992 130.863 61.418 128.777 63.1055C126.691 64.793 124.16 65.6367 121.184 65.6367C119.824 65.6367 118.406 65.332 116.93 64.7227C115.477 64.1133 114.141 63.3281 112.922 62.3672C111.703 61.4297 110.695 60.3867 109.898 59.2383C109.125 58.0898 108.738 56.9883 108.738 55.9336C108.738 55.582 108.926 55.1719 109.301 54.7031C109.676 54.2344 110.133 53.7773 110.672 53.332C111.211 52.8867 111.773 52.5117 112.359 52.207C112.945 51.9023 113.449 51.75 113.871 51.75C114.316 51.75 114.691 51.9258 114.996 52.2773C115.301 52.6523 115.582 53.1094 115.84 53.6484C116.121 54.1875 116.402 54.7734 116.684 55.4062C116.965 56.0625 117.316 56.6602 117.738 57.1992C118.16 57.7383 118.676 58.1836 119.285 58.5352C119.895 58.9102 120.656 59.0977 121.57 59.0977C126.68 59.0977 129.68 51.293 130.57 35.6836C130.57 34.9805 130.371 34.6289 129.973 34.6289C129.645 34.6289 129.387 34.793 129.199 35.1211C126.996 38.0977 124.418 40.3359 121.465 41.8359C118.535 43.3125 115.277 44.0508 111.691 44.0508C110.027 44.0508 108.492 43.8047 107.086 43.3125C105.68 42.7969 104.461 42.0938 103.43 41.2031C102.422 40.2891 101.637 39.2109 101.074 37.9688C100.512 36.7031 100.23 35.3203 100.23 33.8203C100.23 32.3438 100.488 30.8906 101.004 29.4609C101.543 28.0078 102.281 26.6484 103.219 25.3828C104.18 24.0938 105.316 22.9102 106.629 21.832C107.941 20.7539 109.371 19.8281 110.918 19.0547C112.465 18.2578 114.094 17.6484 115.805 17.2266C117.539 16.7812 119.309 16.5586 121.113 16.5586ZM112.781 37.582C115.992 37.582 118.934 36.5742 121.605 34.5586C124.277 32.5195 126.562 29.5664 128.461 25.6992C128.508 25.5586 128.543 25.4531 128.566 25.3828C128.59 25.2891 128.602 25.1953 128.602 25.1016C128.602 24.8672 128.355 24.6211 127.863 24.3633C127.371 24.1055 126.727 23.8828 125.93 23.6953C125.133 23.5078 124.219 23.3555 123.188 23.2383C122.18 23.0977 121.16 23.0273 120.129 23.0273C118.465 23.0273 116.859 23.3086 115.312 23.8711C113.766 24.4336 112.395 25.1836 111.199 26.1211C110.004 27.0586 109.043 28.125 108.316 29.3203C107.59 30.5156 107.227 31.7578 107.227 33.0469C107.227 34.4297 107.73 35.5312 108.738 36.3516C109.77 37.1719 111.117 37.582 112.781 37.582Z" fill="black"/>
<path d="M142.523 10.125C142.523 7.59375 144.164 6.32812 147.445 6.32812C148.008 6.32812 148.5 6.48047 148.922 6.78516C149.344 7.08984 149.59 7.51172 149.66 8.05078C149.871 9.48047 150.059 10.8984 150.223 12.3047C150.387 13.7109 150.539 15.293 150.68 17.0508C150.844 18.7852 150.996 20.8008 151.137 23.0977C151.301 25.3711 151.477 28.0898 151.664 31.2539C151.664 31.582 151.711 31.8164 151.805 31.957C151.922 32.0977 152.051 32.168 152.191 32.168C152.402 32.168 152.613 31.957 152.824 31.5352C153.621 29.7773 154.512 28.207 155.496 26.8242C156.48 25.418 157.535 24.2344 158.66 23.2734C159.785 22.2891 160.969 21.5508 162.211 21.0586C163.477 20.543 164.766 20.2852 166.078 20.2852C167.812 20.2852 169.383 20.7773 170.789 21.7617C172.195 22.7461 173.391 24.1406 174.375 25.9453C175.359 27.75 176.121 29.9414 176.66 32.5195C177.199 35.0742 177.469 37.9336 177.469 41.0977C177.469 41.9648 177.398 42.6797 177.258 43.2422C177.141 43.7812 176.93 44.2148 176.625 44.543C176.32 44.8711 175.898 45.0938 175.359 45.2109C174.82 45.3516 174.152 45.4219 173.355 45.4219C172.254 45.4219 171.457 45.2109 170.965 44.7891C170.496 44.3672 170.262 43.7109 170.262 42.8203C170.262 40.6172 170.109 38.543 169.805 36.5977C169.523 34.6289 169.125 32.9062 168.609 31.4297C168.094 29.9531 167.484 28.7812 166.781 27.9141C166.102 27.0469 165.363 26.6133 164.566 26.6133C162.762 26.6133 160.957 28.0781 159.152 31.0078C157.371 33.9375 155.508 38.3555 153.562 44.2617C153.375 44.8008 153.164 45.2461 152.93 45.5977C152.695 45.9492 152.414 46.2305 152.086 46.4414C151.781 46.6523 151.406 46.793 150.961 46.8633C150.516 46.957 149.988 47.0039 149.379 47.0039C148.137 47.0039 147.246 46.7695 146.707 46.3008C146.191 45.832 145.91 45.0586 145.863 43.9805C145.723 39.9023 145.465 36.0117 145.09 32.3086C144.738 28.582 144.363 25.2188 143.965 22.2188C143.59 19.1953 143.25 16.6406 142.945 14.5547C142.664 12.4453 142.523 10.9688 142.523 10.125Z" fill="black"/>
<path d="M185.449 3.375C185.449 2.13281 185.801 1.26562 186.504 0.773438C187.207 0.257812 188.367 0 189.984 0C190.57 0 191.062 0.0585938 191.461 0.175781C191.883 0.269531 192.234 0.457031 192.516 0.738281C192.82 1.01953 193.055 1.39453 193.219 1.86328C193.406 2.30859 193.559 2.88281 193.676 3.58594C193.957 5.76562 194.262 8.01562 194.59 10.3359C194.941 12.6562 195.305 14.9883 195.68 17.332C195.82 18.3867 196.371 18.9141 197.332 18.9141C197.59 18.9141 198.012 18.8906 198.598 18.8438C199.207 18.7734 199.922 18.7031 200.742 18.6328C201.562 18.5391 202.441 18.4453 203.379 18.3516C204.34 18.2578 205.289 18.1758 206.227 18.1055C207.188 18.0117 208.09 17.9414 208.934 17.8945C209.801 17.8242 210.562 17.7891 211.219 17.7891C211.734 17.7891 212.145 17.8945 212.449 18.1055C212.754 18.293 212.988 18.5508 213.152 18.8789C213.34 19.1836 213.457 19.5352 213.504 19.9336C213.574 20.3086 213.609 20.6953 213.609 21.0938C213.609 21.4453 213.539 21.8086 213.398 22.1836C213.281 22.5586 213.105 22.8984 212.871 23.2031C212.66 23.4844 212.391 23.7188 212.062 23.9062C211.734 24.0938 211.359 24.1875 210.938 24.1875C208.898 24.1875 206.836 24.2578 204.75 24.3984C202.688 24.5156 200.625 24.6797 198.562 24.8906C197.508 25.0312 196.98 25.5586 196.98 26.4727C196.98 26.543 196.992 26.6367 197.016 26.7539C197.039 26.8477 197.051 26.9297 197.051 27C197.332 29.0391 197.59 30.9492 197.824 32.7305C198.082 34.5117 198.293 36.1055 198.457 37.5117C198.645 38.8945 198.785 40.0547 198.879 40.9922C198.996 41.9062 199.055 42.5156 199.055 42.8203C199.055 43.6641 198.973 44.3672 198.809 44.9297C198.645 45.5156 198.375 45.9844 198 46.3359C197.625 46.7109 197.121 46.9688 196.488 47.1094C195.879 47.2734 195.105 47.3555 194.168 47.3555C193.277 47.3555 192.621 47.1445 192.199 46.7227C191.777 46.3008 191.543 45.6562 191.496 44.7891C191.355 42.0234 191.133 39.2461 190.828 36.457C190.523 33.6445 190.172 30.8438 189.773 28.0547C189.562 27.0469 189.035 26.543 188.191 26.543C188.121 26.543 188.039 26.5547 187.945 26.5781C187.852 26.6016 187.77 26.6133 187.699 26.6133C186.246 26.9414 184.875 27.2695 183.586 27.5977C182.297 27.9258 181.09 28.2773 179.965 28.6523C179.332 28.8633 178.77 29.0156 178.277 29.1094C177.785 29.1797 177.34 29.2148 176.941 29.2148C176.402 29.2148 176.004 28.9805 175.746 28.5117C175.488 28.0195 175.359 27.4102 175.359 26.6836C175.359 26.4258 175.383 26.1328 175.43 25.8047C175.477 25.4531 175.57 25.1133 175.711 24.7852C175.828 24.4336 176.016 24.1172 176.273 23.8359C176.508 23.5312 176.836 23.2852 177.258 23.0977C178.242 22.6992 179.555 22.2891 181.195 21.8672C182.836 21.4219 184.688 21.0117 186.75 20.6367C187.219 20.5195 187.582 20.332 187.84 20.0742C188.121 19.793 188.262 19.3828 188.262 18.8438C188.262 18.7266 188.262 18.6094 188.262 18.4922C188.262 18.3516 188.238 18.2109 188.191 18.0703C187.816 15.9141 187.453 13.957 187.102 12.1992C186.773 10.418 186.48 8.89453 186.223 7.62891C185.988 6.36328 185.801 5.36719 185.66 4.64062C185.52 3.91406 185.449 3.49219 185.449 3.375Z" fill="black"/>
<path d="M241.488 36.2812C242.168 35.6953 242.836 35.4023 243.492 35.4023C243.867 35.4023 244.207 35.4961 244.512 35.6836C244.816 35.8711 245.156 36.1641 245.531 36.5625C245.883 37.1016 246.129 37.5469 246.27 37.8984C246.434 38.2266 246.516 38.5547 246.516 38.8828C246.516 39.5859 246.164 40.2539 245.461 40.8867C244.336 41.8242 243.117 42.668 241.805 43.418C240.492 44.1445 239.121 44.7656 237.691 45.2812C236.262 45.7969 234.785 46.1836 233.262 46.4414C231.738 46.7227 230.227 46.8633 228.727 46.8633C226.828 46.8633 225.047 46.6172 223.383 46.125C221.719 45.6562 220.23 44.9766 218.918 44.0859C217.629 43.1953 216.539 42.1289 215.648 40.8867C214.758 39.6211 214.125 38.2031 213.75 36.6328C213.539 35.9766 213.34 35.5547 213.152 35.3672C212.988 35.1562 212.707 35.0508 212.309 35.0508C211.441 35.0508 210.773 34.8398 210.305 34.418C209.836 33.9961 209.602 33.3867 209.602 32.5898C209.602 32.2617 209.625 32.0508 209.672 31.957L209.742 31.2539C209.859 30.4102 210.082 29.8008 210.41 29.4258C210.762 29.0508 211.301 28.8633 212.027 28.8633H212.555C213.539 28.8633 214.23 28.4062 214.629 27.4922C215.355 25.875 216.281 24.3984 217.406 23.0625C218.531 21.7266 219.797 20.5898 221.203 19.6523C222.609 18.6914 224.109 17.9531 225.703 17.4375C227.32 16.8984 228.961 16.6289 230.625 16.6289C232.359 16.6289 233.977 16.8867 235.477 17.4023C237 17.8945 238.324 18.5859 239.449 19.4766C240.574 20.3672 241.453 21.4102 242.086 22.6055C242.742 23.8008 243.07 25.0898 243.07 26.4727C243.07 27.4336 242.883 28.3125 242.508 29.1094C242.133 29.9062 241.594 30.6094 240.891 31.2188C240.188 31.8047 239.332 32.2852 238.324 32.6602C237.34 33.0352 236.215 33.2812 234.949 33.3984L222.75 34.6289C222.281 34.6289 221.895 34.7461 221.59 34.9805C221.309 35.2148 221.168 35.5312 221.168 35.9297C221.168 36.5391 221.391 37.125 221.836 37.6875C222.305 38.25 222.914 38.7539 223.664 39.1992C224.438 39.6211 225.316 39.9609 226.301 40.2188C227.309 40.4766 228.34 40.6055 229.395 40.6055C230.402 40.6055 231.434 40.5117 232.488 40.3242C233.566 40.1133 234.621 39.8203 235.652 39.4453C236.707 39.0703 237.727 38.625 238.711 38.1094C239.695 37.5703 240.621 36.9609 241.488 36.2812ZM233.648 27.2109C234 27.1406 234.305 26.9766 234.562 26.7188C234.82 26.4375 234.949 26.0977 234.949 25.6992C234.949 25.3477 234.82 25.0195 234.562 24.7148C234.305 24.4102 233.953 24.1406 233.508 23.9062C233.062 23.6484 232.547 23.4492 231.961 23.3086C231.375 23.168 230.754 23.0977 230.098 23.0977C229.137 23.0977 228.152 23.2383 227.145 23.5195C226.137 23.8008 225.223 24.1758 224.402 24.6445C223.582 25.0898 222.914 25.5938 222.398 26.1562C221.883 26.6953 221.625 27.2344 221.625 27.7734C221.625 28.3125 221.953 28.582 222.609 28.582C223.008 28.582 223.652 28.5352 224.543 28.4414C225.434 28.3477 226.418 28.2422 227.496 28.125C228.574 27.9844 229.664 27.832 230.766 27.668C231.867 27.5039 232.828 27.3516 233.648 27.2109Z" fill="black"/>
<path d="M267.82 17.6836C266.953 17.6836 266.191 17.918 265.535 18.3867C264.879 18.832 264.316 19.4648 263.848 20.2852C263.379 21.082 262.992 22.0312 262.688 23.1328C262.383 24.2109 262.137 25.3945 261.949 26.6836C261.762 27.9727 261.633 29.3203 261.562 30.7266C261.492 32.1328 261.457 33.5508 261.457 34.9805C261.457 36.8555 261.527 38.707 261.668 40.5352C261.832 42.3398 261.914 44.0156 261.914 45.5625C261.914 46.5703 261.539 47.3555 260.789 47.918C260.039 48.5039 258.973 48.7969 257.59 48.7969C257.332 48.7969 257.039 48.7734 256.711 48.7266C256.383 48.6797 256.066 48.5859 255.762 48.4453C255.48 48.3047 255.223 48.1055 254.988 47.8477C254.777 47.6133 254.66 47.2852 254.637 46.8633C254.426 44.8008 254.121 42.6914 253.723 40.5352C253.324 38.3789 252.82 36.2344 252.211 34.1016C251.625 31.9453 250.91 29.8125 250.066 27.7031C249.246 25.5938 248.297 23.5312 247.219 21.5156C247.031 21.1641 246.867 20.8359 246.727 20.5312C246.609 20.2266 246.551 19.9336 246.551 19.6523C246.551 19.3008 246.703 18.9258 247.008 18.5273C247.336 18.1055 247.734 17.7188 248.203 17.3672C248.695 17.0156 249.223 16.7344 249.785 16.5234C250.371 16.2891 250.934 16.1719 251.473 16.1719C252.363 16.1719 253.148 16.793 253.828 18.0352C254.508 19.2539 255.141 21.2109 255.727 23.9062C255.844 24.375 255.938 24.7031 256.008 24.8906C256.078 25.0781 256.172 25.1719 256.289 25.1719C256.547 25.1719 256.711 24.7734 256.781 23.9766C257.062 21.75 257.543 19.8398 258.223 18.2461C258.902 16.6289 259.746 15.3047 260.754 14.2734C261.785 13.2188 262.957 12.4453 264.27 11.9531C265.605 11.4609 267.07 11.2148 268.664 11.2148C269.578 11.2148 270.504 11.2969 271.441 11.4609C272.379 11.625 273.223 11.8711 273.973 12.1992C274.723 12.5273 275.332 12.9258 275.801 13.3945C276.27 13.8633 276.504 14.3906 276.504 14.9766C276.504 15.3984 276.41 15.9023 276.223 16.4883C276.059 17.0508 275.836 17.6016 275.555 18.1406C275.273 18.6562 274.945 19.1016 274.57 19.4766C274.219 19.8281 273.855 20.0039 273.48 20.0039C273.059 20.0039 272.648 19.8867 272.25 19.6523C271.852 19.3945 271.418 19.125 270.949 18.8438C270.504 18.5625 270.023 18.3047 269.508 18.0703C269.016 17.8125 268.453 17.6836 267.82 17.6836Z" fill="black"/>
<path fill-rule="evenodd" clip-rule="evenodd" d="M58.6719 40.1484L58.1797 34.9805C58.0391 34.0664 57.6992 33.6094 57.1602 33.6094C56.7852 33.6094 56.375 33.9023 55.9297 34.4883C53.75 37.3008 51.418 39.3633 48.9336 40.6758C46.4727 41.9648 43.7891 42.6094 40.8828 42.6094C39.1484 42.6094 37.543 42.3633 36.0664 41.8711C34.6133 41.3789 33.3594 40.6992 32.3047 39.832C31.25 38.9648 30.418 37.9336 29.8086 36.7383C29.2227 35.5195 28.9297 34.1953 28.9297 32.7656C28.9297 31.1719 29.2578 29.6484 29.9141 28.1953C30.5703 26.7422 31.4609 25.3945 32.5859 24.1523C33.7109 22.9102 35.0117 21.7852 36.4883 20.7773C37.9883 19.7461 39.5586 18.8672 41.1992 18.1406C42.8633 17.4141 44.5508 16.8633 46.2617 16.4883C47.9961 16.0898 49.6602 15.8906 51.2539 15.8906C52.9414 15.8906 54.3594 15.9844 55.5078 16.1719C56.6797 16.3594 57.6406 16.5586 58.3906 16.7695C58.7188 16.3711 59.0469 16.0781 59.375 15.8906C59.7266 15.7031 60.0664 15.6094 60.3945 15.6094C60.8398 15.6094 61.3086 15.6914 61.8008 15.8555C62.3164 15.9961 62.7852 16.1953 63.207 16.4531C63.6523 16.7109 64.0156 17.0039 64.2969 17.332C64.5781 17.6602 64.7188 18 64.7188 18.3516C64.7188 18.6094 64.6719 18.8555 64.5781 19.0898C64.4844 19.3242 64.3789 19.5586 64.2617 19.793C64.168 20.0039 64.0742 20.2383 63.9805 20.4961C63.9102 20.7539 63.875 21.0234 63.875 21.3047C63.875 21.8672 63.9219 22.7227 64.0156 23.8711C64.1328 25.0195 64.2734 26.332 64.4375 27.8086C64.625 29.2617 64.8125 30.7969 65 32.4141C65.2109 34.0312 65.4102 35.5781 65.5977 37.0547L66.7227 46.6523L68.5508 61.4883C68.5508 62.0039 68.3867 62.4844 68.0586 62.9297C67.7539 63.375 67.3555 63.7617 66.8633 64.0898C66.3711 64.418 65.8203 64.6758 65.2109 64.8633C64.6016 65.0508 64.0039 65.1445 63.418 65.1445C62.8789 65.1445 62.4336 64.9922 62.082 64.6875C61.7305 64.4062 61.5312 64.0312 61.4844 63.5625C61.2734 61.2891 61.0273 59.0273 60.7461 56.7773C60.4883 54.5273 60.2305 52.2305 59.9727 49.8867L58.6719 40.1484ZM45.8047 35.5781C44.7031 35.9062 43.5664 36.0703 42.3945 36.0703C40.332 36.0703 38.7617 35.6719 37.6836 34.875C36.6055 34.0547 36.0664 32.8711 36.0664 31.3242C36.0664 30.1992 36.5117 29.0977 37.4023 28.0195C38.293 26.9414 39.4648 25.9805 40.918 25.1367C42.3711 24.293 44.0234 23.6133 45.875 23.0977C47.7266 22.582 49.6133 22.3242 51.5352 22.3242C52.543 22.3242 53.4336 22.3945 54.207 22.5352C55.1211 22.6758 55.5781 23.1328 55.5781 23.9062C55.5781 24.0469 55.543 24.1992 55.4727 24.3633C55.4258 24.5273 55.3672 24.7031 55.2969 24.8906C54.2891 27.0938 53.2695 28.9219 52.2383 30.375C51.207 31.8047 50.1523 32.9414 49.0742 33.7852C48.0195 34.6289 46.9297 35.2266 45.8047 35.5781Z" fill="black"/>
</svg>
