<?xml version="1.0" encoding="UTF-8"?>
<svg width="426px" height="256px" viewBox="0 0 426 256" version="1.1" xmlns="http://www.w3.org/2000/svg" xmlns:xlink="http://www.w3.org/1999/xlink">
    <!-- Generator: Sketch 50.2 (55047) - http://www.bohemiancoding.com/sketch -->
    <title>AHA_Full</title>
    <desc>Created with Sketch.</desc>
    <defs>
        <polygon id="path-1" points="0 0.513109315 186.587641 0.513109315 186.587641 164.942609 0 164.942609"></polygon>
        <path d="M1.89826087,118.6832 C1.89586957,118.6616 1.89347826,118.6352 1.89108696,118.6136 C1.37934783,112.16 0.96326087,106.0016 0.630869565,100.1528 C0.965652174,106.0232 1.38173913,112.2008 1.89826087,118.6808 C26.0456522,99.14 41.8330435,84.3752 53.1797826,68.2328 C41.8330435,84.3752 26.0504348,99.1376 1.89826087,118.6832 M1.89826087,118.6808 L1.89826087,118.6832 L1.89826087,118.6808 M0.630869565,100.1504 C0.628478261,100.1264 0.628478261,100.1 0.626086957,100.076 C0.628478261,100.1024 0.628478261,100.124 0.630869565,100.1504 M0.626086957,100.0712 C0.626086957,100.0568 0.623695652,100.0376 0.623695652,100.0232 C0.623695652,100.04 0.626086957,100.0544 0.626086957,100.0712 M18.2930435,1.9112 C18.25,1.58 18.1471739,1.2512 17.9845652,0.9248 C18.1471739,1.2512 18.25,1.58 18.2930435,1.9112" id="path-3"></path>
        <path d="M2.90014286,118.6808 C2.38328571,112.2008 1.96692857,106.0232 1.63192857,100.1528 C1.63192857,100.1504 1.63192857,100.1528 1.63192857,100.1504 C1.62953571,100.124 1.62953571,100.1024 1.62714286,100.076 C1.62714286,100.0736 1.62714286,100.0736 1.62714286,100.0712 C1.62714286,100.0544 1.62475,100.04 1.62475,100.0232 C-0.275178571,66.5888 0.514464286,43.2896 1.16532143,32.2424 C10.5836071,28.952 16.8552857,24.4064 17.2668571,20.0216 L17.4104286,20.0024 L19.3055714,1.9112 C19.2625,1.58 19.1596071,1.2512 18.9968929,0.9248 L65.3154286,48.8264 C64.0926786,51.6368 62.69525,54.4832 61.0705,57.3704 C58.9695714,61.1 56.69875,64.6976 54.2149643,68.2328 C42.8608571,84.3752 27.0632143,99.14 2.90014286,118.6808" id="path-5"></path>
        <linearGradient x1="95.5857155%" y1="50%" x2="1.96785734%" y2="50%" id="linearGradient-7">
            <stop stop-color="#C0242B" offset="0%"></stop>
            <stop stop-color="#850303" offset="97.1730491%"></stop>
        </linearGradient>
        <path d="M0.67,2.0325 C0.625,1.6825 0.51,1.3375 0.335,0.995 L0.3475,1.005 C0.5175,1.345 0.625,1.6875 0.67,2.0325" id="path-8"></path>
        <path d="M0.53,0.17 C0.5275,0.145 0.525,0.1225 0.5225,0.0975 C0.525,0.12 0.5275,0.1475 0.53,0.17" id="path-10"></path>
    </defs>
    <g id="AHA_Full" stroke="none" stroke-width="1" fill="none" fill-rule="evenodd">
        <g id="FULL" transform="translate(224.000000, 116.000000)" fill="#1A1919">
            <g id="Group-2">
                <path d="M9.30705115,16.6108138 L15.3190159,16.6108138 L12.3121652,9.58613793 L9.30705115,16.6108138 Z M0.592133519,25.9430241 L10.724951,2.18719655 L13.9341106,2.18719655 L24.0677964,25.9430241 L19.3035488,25.9430241 L17.0755445,20.682369 L7.58438536,20.682369 L5.35377627,25.9430241 L0.592133519,25.9430241 Z" id="Fill-21"></path>
                <path d="M26.5875424,25.9430241 L26.5875424,9.48406552 L30.8099838,9.48406552 L30.8099838,10.8066448 C32.0924321,9.65331379 33.6466517,9.14469655 35.2347343,9.14469655 C37.4618702,9.14469655 39.4563074,10.161931 40.739624,11.7235517 C42.0559351,10.3329241 44.1163615,9.14469655 46.5492796,9.14469655 C48.812015,9.14469655 50.9740301,10.161931 52.2903412,11.7907276 C53.3383541,13.0801552 53.9452813,14.777 53.9452813,17.2215034 L53.9452813,25.9430241 L49.5561303,25.9430241 L49.5561303,17.0513828 C49.5561303,15.5578103 49.2496277,14.8101517 48.743421,14.235231 C48.0678998,13.4893172 47.1240804,13.2171241 46.2783765,13.2171241 C44.3881329,13.2171241 42.901639,14.5405759 42.3277065,15.3876897 C42.3954323,15.9312034 42.4614215,16.5418931 42.4614215,17.2215034 L42.4614215,25.9430241 L38.0714022,25.9430241 L38.0714022,17.0513828 C38.0714022,15.5578103 37.7683728,14.8101517 37.2595612,14.235231 C36.5857766,13.4893172 35.6393523,13.2171241 34.7945168,13.2171241 C32.9355311,13.2171241 31.5862254,14.4716552 30.9766934,15.2524655 L30.9766934,25.9430241 L26.5875424,25.9430241" id="Fill-22"></path>
                <path d="M68.5202147,15.5909621 C68.3856315,14.1331586 67.0667155,12.7085069 65.2771922,12.7085069 C63.4546743,12.7085069 61.9664439,14.0982621 61.7632665,15.5909621 L68.5202147,15.5909621 Z M72.6080729,23.3301448 C71.0199904,25.2302621 68.4177578,26.2832655 65.8841193,26.2832655 C60.9896298,26.2832655 57.3063898,22.887831 57.3063898,17.7301207 C57.3063898,13.1499483 60.4148291,9.14469655 65.2771922,9.14469655 C69.802663,9.14469655 73.012691,12.9789552 73.012691,17.56 C73.012691,18.0023138 72.9796964,18.4420103 72.9111023,18.8162759 L61.5609575,18.8162759 C61.798866,21.1229379 63.6569833,22.7203276 65.9865762,22.7203276 C67.8438253,22.7203276 69.3294509,21.6673241 70.107429,20.8175931 L72.6080729,23.3301448 Z" id="Fill-23"></path>
                <path d="M86.6828776,13.3872448 C86.3789799,13.2851724 85.7381899,13.2171241 85.0947951,13.2171241 C83.1698202,13.2171241 81.6503318,14.6068793 81.1093939,15.5909621 L81.1093939,25.9430241 L76.7193746,25.9430241 L76.7193746,9.48406552 L80.9409477,9.48406552 L80.9409477,11.1468862 C81.9212348,9.9255069 83.7107581,9.14469655 85.7034587,9.14469655 C86.3459853,9.14469655 86.718477,9.21187241 87.1890843,9.27904828 L86.6828776,13.3872448" id="Fill-24"></path>
                <path d="M90.5606122,25.9430241 L94.9506315,25.9430241 L94.9506315,9.48406552 L90.5606122,9.48406552 L90.5606122,25.9430241 Z M92.7556218,0.828848276 C94.3428361,0.828848276 95.6261526,2.0511 95.6261526,3.64587241 C95.6261526,5.24238966 94.3428361,6.46289655 92.7556218,6.46289655 C91.1692759,6.46289655 89.885091,5.24238966 89.885091,3.64587241 C89.885091,2.0511 91.1692759,0.828848276 92.7556218,0.828848276 Z" id="Fill-25"></path>
                <path d="M114.874164,22.5833586 C112.948321,25.1622138 110.518008,26.2832655 107.442563,26.2832655 C102.377891,26.2832655 98.6607882,22.4812862 98.6607882,17.7301207 C98.6607882,12.9458034 102.478612,9.14469655 107.478163,9.14469655 C110.315699,9.14469655 112.846733,10.4672759 114.367958,12.4363138 L111.259518,15.1844172 C110.38082,14.0319586 109.065377,13.2171241 107.478163,13.2171241 C104.944524,13.2171241 103.053412,15.2201862 103.053412,17.7301207 C103.053412,20.3089759 104.91153,22.2090931 107.579751,22.2090931 C109.368406,22.2090931 110.786306,21.1229379 111.498295,20.0367828 L114.874164,22.5833586" id="Fill-26"></path>
                <path d="M129.556765,15.2524655 C128.64594,14.0319586 127.19244,13.2171241 125.503638,13.2171241 C122.937004,13.2171241 121.282064,15.3545379 121.282064,17.7301207 C121.282064,20.3089759 123.140182,22.2090931 125.606094,22.2090931 C127.261034,22.2090931 128.711929,21.395131 129.556765,20.1737517 L129.556765,15.2524655 Z M133.94852,25.9430241 L129.726947,25.9430241 L129.726947,24.6195724 C128.375037,25.7746483 126.820817,26.2832655 125.165009,26.2832655 C122.732959,26.2832655 120.437229,25.1971103 118.98373,23.4985207 C117.700413,22.0049483 116.890309,19.9704793 116.890309,17.7301207 C116.890309,12.8777552 120.470223,9.14469655 124.929705,9.14469655 C126.787822,9.14469655 128.442762,9.75538621 129.726947,10.8066448 L129.726947,9.48406552 L133.94852,9.48406552 L133.94852,25.9430241 Z" id="Fill-27"></path>
                <path d="M139.00451,25.9430241 L139.00451,9.48406552 L143.226951,9.48406552 L143.226951,10.8066448 C144.474668,9.78941034 146.028888,9.14469655 147.854011,9.14469655 C150.116746,9.14469655 152.177172,10.161931 153.529083,11.7907276 C154.610091,13.0801552 155.217018,14.7438483 155.217018,17.56 L155.217018,25.9430241 L150.82613,25.9430241 L150.82613,17.2215034 C150.82613,15.5909621 150.453638,14.7438483 149.846711,14.1331586 C149.271042,13.5564931 148.393212,13.2171241 147.380798,13.2171241 C145.522681,13.2171241 144.004061,14.4036069 143.393661,15.2524655 L143.393661,25.9430241 L139.00451,25.9430241" id="Fill-28"></path>
                <polyline id="Fill-29" points="19.4850191 49.1719138 7.66426704 49.1719138 7.66426704 59.8624724 3.10319676 59.8624724 3.10319676 36.1066448 7.66426704 36.1066448 7.66426704 45.1003586 19.4850191 45.1003586 19.4850191 36.1066448 24.0469577 36.1066448 24.0469577 59.8624724 19.4850191 59.8624724 19.4850191 49.1719138"></polyline>
                <path d="M39.1289662,49.5112828 C38.9952512,48.0534793 37.6763352,46.6262103 35.8868119,46.6262103 C34.064294,46.6262103 32.5751953,48.0177103 32.3737545,49.5112828 L39.1289662,49.5112828 Z M43.2168243,57.2504655 C41.6304783,59.1505828 39.0282458,60.2035862 36.4946073,60.2035862 C31.5957764,60.2035862 27.9151412,56.8072793 27.9151412,51.649569 C27.9151412,47.0693966 31.0235805,43.0632724 35.8868119,43.0632724 C40.4122827,43.0632724 43.6223107,46.8992759 43.6223107,51.4794483 C43.6223107,51.9208897 43.5893161,52.3614586 43.5215903,52.7357241 L32.1705772,52.7357241 C32.4084857,55.0432586 34.2657348,56.6397759 36.5953277,56.6397759 C38.453445,56.6397759 39.9399389,55.5867724 40.7161804,54.7370414 L43.2168243,57.2504655 Z" id="Fill-30"></path>
                <path d="M58.9804319,49.1719138 C58.0687388,47.9514069 56.6161079,47.1348276 54.927305,47.1348276 C52.3606718,47.1348276 50.7057318,49.2739862 50.7057318,51.649569 C50.7057318,54.2284241 52.5638492,56.1285414 55.0288936,56.1285414 C56.6847019,56.1285414 58.1355963,55.3145793 58.9804319,54.0940724 L58.9804319,49.1719138 Z M63.3721878,59.8624724 L59.1506146,59.8624724 L59.1506146,58.5390207 C57.798704,59.6940966 56.2444844,60.2035862 54.5886761,60.2035862 C52.1583628,60.2035862 49.8600279,59.1165586 48.4065287,57.417969 C47.1240804,55.9243966 46.3131077,53.8899276 46.3131077,51.649569 C46.3131077,46.796331 49.8930226,43.0632724 54.3533724,43.0632724 C56.2114898,43.0632724 57.8664298,43.6730897 59.1506146,44.7260931 L59.1506146,43.4043862 L63.3721878,43.4043862 L63.3721878,59.8624724 Z" id="Fill-31"></path>
                <path d="M78.3916802,47.3049483 C78.0869142,47.2037483 77.4469925,47.1348276 76.8044659,47.1348276 C74.8777545,47.1348276 73.3591343,48.5263276 72.8173282,49.5112828 L72.8173282,59.8624724 L68.4281772,59.8624724 L68.4281772,43.4043862 L72.6497503,43.4043862 L72.6497503,45.0645897 C73.6291691,43.8440828 75.4195607,43.0632724 77.411393,43.0632724 C78.0547879,43.0632724 78.4264113,43.1313207 78.8978869,43.1976241 L78.3916802,47.3049483" id="Fill-32"></path>
                <path d="M95.6096553,59.8624724 C95.0357228,60.0648724 93.7185434,60.2035862 92.8728395,60.2035862 C90.2402172,60.2035862 88.3143741,59.3207034 87.200372,57.827131 C86.3555364,56.7060793 85.9830446,55.2456586 85.9830446,52.9058448 L85.9830446,47.1348276 L81.4245792,47.1348276 L81.4245792,43.4043862 L85.9830446,43.4043862 L85.9830446,38.8207241 L90.3748005,38.8207241 L90.3748005,43.4043862 L95.7789698,43.4043862 L95.7789698,47.1348276 L90.3748005,47.1348276 L90.3748005,53.4144621 C90.3748005,54.4316966 90.5449832,55.0432586 90.9148701,55.4847 C91.3542193,55.9933172 92.0636034,56.2986621 93.1446109,56.2986621 C93.7871374,56.2986621 94.6302365,56.1974621 94.9332659,56.1285414 L95.6096553,59.8624724" id="Fill-33"></path>
                <path d="M8.92414006,84.4505828 L14.9361048,84.4505828 L11.9283858,77.4250345 L8.92414006,84.4505828 Z M0.208354143,93.7819207 L10.3420399,70.0260931 L13.5511995,70.0260931 L23.684017,93.7819207 L18.9206377,93.7819207 L16.6926334,88.5221379 L7.1997377,88.5221379 L4.96999689,93.7819207 L0.208354143,93.7819207 Z" id="Fill-34"></path>
                <path d="M26.8801525,88.7585621 C27.9932863,89.7784138 29.7168204,90.388231 31.3717604,90.388231 C32.5543566,90.388231 33.4651814,89.8115655 33.4651814,88.996731 C33.4651814,86.5208207 25.5273736,87.402831 25.5273736,82.1072793 C25.5273736,78.9517586 28.5680871,76.9827207 31.8102414,76.9827207 C33.9383935,76.9827207 36.2679864,77.7966828 37.3515988,78.6455414 L35.2903041,81.8350862 C34.4446003,81.225269 33.3314664,80.7157793 32.1497385,80.7157793 C30.9324112,80.7157793 29.9191294,81.1921172 29.9191294,82.039231 C29.9191294,84.1775172 37.8578055,83.3277862 37.8578055,89.0307552 C37.8578055,92.1871483 34.7823608,94.1221621 31.3370293,94.1221621 C29.0742938,94.1221621 26.6769752,93.3413517 24.7502638,91.9149552 L26.8801525,88.7585621" id="Fill-35"></path>
                <path d="M42.2374055,88.7585621 C43.3514076,89.7784138 45.0758099,90.388231 46.73075,90.388231 C47.9124779,90.388231 48.8241709,89.8115655 48.8241709,88.996731 C48.8241709,86.5208207 40.8854949,87.402831 40.8854949,82.1072793 C40.8854949,78.9517586 43.9253401,76.9827207 47.1683626,76.9827207 C49.2973831,76.9827207 51.6261077,77.7966828 52.7097201,78.6455414 L50.6492937,81.8350862 C49.8035898,81.225269 48.690456,80.7157793 47.5069915,80.7157793 C46.2905324,80.7157793 45.2772507,81.1921172 45.2772507,82.039231 C45.2772507,84.1775172 53.2159268,83.3277862 53.2159268,89.0307552 C53.2159268,92.1871483 50.1404821,94.1221621 46.6951505,94.1221621 C44.4315468,94.1221621 42.0350964,93.3413517 40.1092533,91.9149552 L42.2374055,88.7585621" id="Fill-36"></path>
                <path d="M64.6225097,90.0488621 C67.1891428,90.0488621 68.9465398,88.0466724 68.9465398,85.5690172 C68.9465398,83.0922345 67.1891428,81.0551483 64.6225097,81.0551483 C62.0558766,81.0551483 60.2993479,83.0922345 60.2993479,85.5690172 C60.2993479,88.0466724 62.0558766,90.0488621 64.6225097,90.0488621 Z M64.6225097,76.9827207 C69.5864615,76.9827207 73.3348225,80.8178517 73.3348225,85.5690172 C73.3348225,90.3201828 69.5864615,94.1221621 64.6225097,94.1221621 C59.6568214,94.1221621 55.9067238,90.3201828 55.9067238,85.5690172 C55.9067238,80.8178517 59.6568214,76.9827207 64.6225097,76.9827207 Z" id="Fill-37"></path>
                <path d="M92.239864,90.4213828 C90.3131526,93.0002379 87.8828394,94.1221621 84.8073947,94.1221621 C79.7427225,94.1221621 76.0264878,90.3201828 76.0264878,85.5690172 C76.0264878,80.7847 79.8443112,76.9827207 84.8429941,76.9827207 C87.6813986,76.9827207 90.2124323,78.3061724 91.7336573,80.2734655 L88.625218,83.0233138 C87.7465195,81.8717276 86.4302084,81.0551483 84.8429941,81.0551483 C82.3093556,81.0551483 80.4191119,83.0590828 80.4191119,85.5690172 C80.4191119,88.1478724 82.276361,90.0488621 84.9454511,90.0488621 C86.7341061,90.0488621 88.1520059,88.9618345 88.8631265,87.8756793 L92.239864,90.4213828" id="Fill-38"></path>
                <path d="M95.6079188,93.7819207 L99.9962015,93.7819207 L99.9962015,77.3238345 L95.6079188,77.3238345 L95.6079188,93.7819207 Z M97.8020601,68.6686172 C99.3892744,68.6686172 100.672591,69.8891241 100.672591,71.4838966 C100.672591,73.0812862 99.3892744,74.3026655 97.8020601,74.3026655 C96.2148459,74.3026655 94.9315293,73.0812862 94.9315293,71.4838966 C94.9315293,69.8891241 96.2148459,68.6686172 97.8020601,68.6686172 Z" id="Fill-39"></path>
                <path d="M116.374551,83.0922345 C115.462858,81.8717276 114.010227,81.0551483 112.322292,81.0551483 C109.755659,81.0551483 108.099851,83.1934345 108.099851,85.5690172 C108.099851,88.1478724 109.9571,90.0488621 112.423012,90.0488621 C114.078821,90.0488621 115.528847,89.2340276 116.374551,88.0135207 L116.374551,83.0922345 Z M120.766307,93.7819207 L116.543865,93.7819207 L116.543865,92.458469 C115.191955,93.6135448 113.637735,94.1221621 111.982795,94.1221621 C109.549877,94.1221621 107.254147,93.0360069 105.801516,91.3374172 C104.518199,89.8447172 103.708095,87.8093759 103.708095,85.5690172 C103.708095,80.7157793 107.287141,76.9827207 111.747491,76.9827207 C113.60474,76.9827207 115.261417,77.5934103 116.543865,78.6455414 L116.543865,77.3238345 L120.766307,77.3238345 L120.766307,93.7819207 Z" id="Fill-40"></path>
                <path d="M138.147518,93.7819207 C137.572717,93.9851931 136.256406,94.1221621 135.411571,94.1221621 C132.77808,94.1221621 130.852237,93.2401517 129.738235,91.7474517 C128.893399,90.6255276 128.520908,89.1659793 128.520908,86.8252931 L128.520908,81.0551483 L123.961574,81.0551483 L123.961574,77.3238345 L128.520908,77.3238345 L128.520908,72.7410448 L132.912663,72.7410448 L132.912663,77.3238345 L138.316833,77.3238345 L138.316833,81.0551483 L132.912663,81.0551483 L132.912663,87.3339103 C132.912663,88.3511448 133.081978,88.9618345 133.451865,89.4041483 C133.892082,89.9127655 134.600598,90.2181103 135.681605,90.2181103 C136.324132,90.2181103 137.168099,90.1169103 137.471997,90.0488621 L138.147518,93.7819207" id="Fill-41"></path>
                <path d="M142.529723,93.7819207 L146.919742,93.7819207 L146.919742,77.3238345 L142.529723,77.3238345 L142.529723,93.7819207 Z M144.723864,68.6686172 C146.311079,68.6686172 147.595263,69.8891241 147.595263,71.4838966 C147.595263,73.0812862 146.311079,74.3026655 144.723864,74.3026655 C143.137518,74.3026655 141.854202,73.0812862 141.854202,71.4838966 C141.854202,69.8891241 143.137518,68.6686172 144.723864,68.6686172 Z" id="Fill-42"></path>
                <path d="M159.345685,90.0488621 C161.912318,90.0488621 163.669715,88.0466724 163.669715,85.5690172 C163.669715,83.0922345 161.912318,81.0551483 159.345685,81.0551483 C156.779052,81.0551483 155.022523,83.0922345 155.022523,85.5690172 C155.022523,88.0466724 156.779052,90.0488621 159.345685,90.0488621 Z M159.345685,76.9827207 C164.309637,76.9827207 168.057998,80.8178517 168.057998,85.5690172 C168.057998,90.3201828 164.309637,94.1221621 159.345685,94.1221621 C154.379128,94.1221621 150.629899,90.3201828 150.629899,85.5690172 C150.629899,80.8178517 154.379128,76.9827207 159.345685,76.9827207 Z" id="Fill-43"></path>
                <path d="M171.764681,93.7819207 L171.764681,77.3238345 L175.987123,77.3238345 L175.987123,78.6455414 C177.235708,77.6283069 178.789928,76.9827207 180.614182,76.9827207 C182.877786,76.9827207 184.938212,77.9999552 186.289255,79.6304966 C187.370262,80.9199241 187.978058,82.5836172 187.978058,85.3980241 L187.978058,93.7819207 L183.586302,93.7819207 L183.586302,85.0604 C183.586302,83.430731 183.21381,82.5836172 182.606015,81.9729276 C182.032082,81.3953897 181.153384,81.0551483 180.14097,81.0551483 C178.283721,81.0551483 176.764233,82.2425034 176.153832,83.0922345 L176.153832,93.7819207 L171.764681,93.7819207" id="Fill-44"></path>
                <path d="M196.307459,88.2010897 C196.119043,88.1278069 195.852481,88.0911655 195.507774,88.0911655 L195.173487,88.0911655 L195.173487,89.6266138 L195.708347,89.6266138 C196.030478,89.6266138 196.282279,89.5620552 196.462881,89.4320655 C196.642615,89.3029483 196.733784,89.093569 196.733784,88.8039276 C196.733784,88.5151586 196.592255,88.313631 196.307459,88.2010897 Z M193.793791,92.4506172 L193.793791,87.1585552 C194.120264,87.1585552 194.609105,87.1603 195.260315,87.1620448 C195.911524,87.1646621 196.273596,87.1681517 196.346532,87.1725138 C196.763306,87.2021759 197.108881,87.2929069 197.384994,87.4438345 C197.852996,87.7029414 198.086563,88.1234448 198.086563,88.7062172 C198.086563,89.1511483 197.964136,89.4721966 197.715808,89.6702345 C197.469217,89.8682724 197.165319,89.9860483 196.804115,90.0244345 C197.134929,90.0942276 197.384994,90.1963 197.551703,90.3315241 C197.860811,90.5827793 198.016233,90.9779828 198.016233,91.5180069 L198.016233,91.9908552 L198.026652,92.1461448 L198.064856,92.3023069 L198.112612,92.4506172 L196.798037,92.4506172 C196.754623,92.2822414 196.72597,92.0388379 196.710341,91.7186621 C196.69558,91.3984862 196.666059,91.183 196.624381,91.0704586 C196.554919,90.8855069 196.425545,90.7555172 196.23626,90.6822345 C196.133803,90.6386138 195.977513,90.6106966 195.765653,90.5976103 L195.463492,90.5784172 L195.173487,90.5784172 L195.173487,92.4506172 L193.793791,92.4506172 Z M193.084407,87.0294379 C192.328136,87.8067586 191.950435,88.7289 191.950435,89.7958621 C191.950435,90.9003379 192.334214,91.8390552 193.104378,92.6128862 C193.869331,93.3858448 194.79318,93.7714517 195.875924,93.7714517 C196.954327,93.7714517 197.87644,93.3832276 198.641394,92.6059069 C199.406347,91.8250966 199.78839,90.8872517 199.78839,89.7958621 C199.78839,88.7332621 199.408952,87.8111207 198.64834,87.0294379 C197.878176,86.234669 196.954327,85.8377207 195.875924,85.8377207 C194.783629,85.8377207 193.853702,86.234669 193.084407,87.0294379 Z M199.201434,93.2209586 C198.278453,94.1195448 197.16966,94.5688379 195.875924,94.5688379 C194.538775,94.5688379 193.413485,94.1090759 192.498319,93.1886793 C191.583152,92.2691552 191.125569,91.1385069 191.125569,89.7958621 C191.125569,88.4008724 191.61962,87.2414345 192.607722,86.3166759 C193.535912,85.4538586 194.625603,85.0220138 195.875924,85.0220138 C197.187026,85.0220138 198.306238,85.4878828 199.234428,86.4204931 C200.162619,87.3539759 200.627148,88.4785172 200.627148,89.7958621 C200.627148,91.1507207 200.152199,92.2935828 199.201434,93.2209586 Z" id="Fill-45"></path>
            </g>
        </g>
        <g id="icon" transform="translate(6.496552, 3.500000)">
            <g id="Group-3" transform="translate(0.000000, 84.000000)">
                <mask id="mask-2" fill="white">
                    <use xlink:href="#path-1"></use>
                </mask>
                <g id="Clip-2"></g>
                <path d="M158.259538,5.04804348 C136.598705,-4.96434783 111.382474,2.17847826 97.9616282,20.8426087 C117.615808,19.1567391 133.726577,23.956087 134.419436,29.205 L132.520667,47.2306522 L132.376821,47.2497826 C132.407987,46.891087 132.429564,46.5323913 132.381615,46.1784783 C131.465795,39.2221739 115.151244,35.6256522 95.9429872,38.146087 C76.7371282,40.6665217 61.9089872,48.3497826 62.8272051,55.306087 C62.8727564,55.6623913 62.9878333,55.9995652 63.1125,56.3391304 L62.7648718,56.3821739 L56.4596154,39.435 C55.7667564,34.1956522 70.0410897,25.4243478 89.4171667,21.968913 C76.2144872,2.46782609 50.4204744,-5.16521739 28.3257051,5.04804348 C2.19605128,17.1265217 -10.3089744,48.0221739 10.323359,84.4632609 C24.9860769,110.358696 47.9702949,129.912391 93.2938205,164.942609 C96.8516154,162.190217 100.260769,159.545435 103.545256,156.979565 C93.5239744,98.0195652 79.4486282,57.066087 79.4438333,57.0541304 L79.4438333,57.0517391 C78.9499615,53.3165217 86.9094487,49.193913 97.2232179,47.8380435 C107.53459,46.4869565 116.294821,48.4167391 116.786295,52.1519565 C116.786295,52.1519565 113.23809,86.2591304 117.982615,145.551522 C147.490256,121.820217 164.548013,105.16 176.264282,84.4632609 C196.896615,48.0221739 184.393987,17.1265217 158.259538,5.04804348" id="Fill-1" fill="#C0242B" mask="url(#mask-2)"></path>
            </g>
            <polyline id="Fill-4" fill="#C9242C" points="118 230.002 118 230 118 230.002"></polyline>
            <path d="M117.5675,54.6793444 C109.542842,59.4867919 103.190788,71.087683 106.269627,82.7196053 C117.099555,66.8101528 150.045286,81.1680458 161,44.6443348 C153.697657,50.4901337 144.163577,52.1610439 139.352142,51.6168046 C157.306834,44.2242202 167.582427,17.9575111 151.509114,0 C156.246158,21.1704328 129.172537,23.0084341 107.915833,26.9661044 C67.9893216,34.4422342 61.4812858,71.2332909 79.5943589,90 C77.5090037,67.7410885 95.3365104,54.464513 117.5675,54.6793444" id="Fill-6" fill="#C0242B"></path>
            <path d="M93.2951761,105.804868 C71.7617847,108.640438 55.2808272,118.358622 56.0241848,123.998575 L62.3307348,141 L62.6784344,140.956819 C62.5537421,140.616167 62.4386416,140.277913 62.3930809,139.920468 C61.4746746,132.941896 76.3058579,125.234039 95.5156572,122.705536 C114.727855,120.177033 131.045753,123.785068 131.961761,130.763641 C132.00972,131.118687 131.988139,131.47853 131.956966,131.838374 L132.100841,131.819183 L134,113.735827 C133.25904,108.095874 114.82617,102.971697 93.2951761,105.804868" id="Fill-7" fill="#FFFFFE"></path>
            <path d="M118,230.529789 C113.201407,171.003764 116.790047,136.763577 116.790047,136.763577 C116.292972,133.013792 107.432912,131.076484 97.0040355,132.43284 C86.572734,133.793997 78.5225432,137.932683 79.022043,141.682468 L79.022043,141.684868 C79.0268925,141.696871 93.2626366,182.810063 103.398118,242 C108.577397,237.983746 113.436609,234.171545 118,230.529789" id="Fill-8" fill="#FFFFFE"></path>
            <g id="Group-11" transform="translate(116.000000, 112.000000)">
                <mask id="mask-4" fill="white">
                    <use xlink:href="#path-3"></use>
                </mask>
                <g id="Clip-10"></g>
                <path d="M1.89826087,118.6832 C1.89586957,118.6616 1.89347826,118.6352 1.89108696,118.6136 C1.37934783,112.16 0.96326087,106.0016 0.630869565,100.1528 C0.965652174,106.0232 1.38173913,112.2008 1.89826087,118.6808 C26.0456522,99.14 41.8330435,84.3752 53.1797826,68.2328 C41.8330435,84.3752 26.0504348,99.1376 1.89826087,118.6832 M1.89826087,118.6808 L1.89826087,118.6832 L1.89826087,118.6808 M0.630869565,100.1504 C0.628478261,100.1264 0.628478261,100.1 0.626086957,100.076 C0.628478261,100.1024 0.628478261,100.124 0.630869565,100.1504 M0.626086957,100.0712 C0.626086957,100.0568 0.623695652,100.0376 0.623695652,100.0232 C0.623695652,100.04 0.626086957,100.0544 0.626086957,100.0712 M18.2930435,1.9112 C18.25,1.58 18.1471739,1.2512 17.9845652,0.9248 C18.1471739,1.2512 18.25,1.58 18.2930435,1.9112" id="Fill-9" mask="url(#mask-4)"></path>
            </g>
            <g id="shadow" transform="translate(115.000000, 112.000000)">
                <mask id="mask-6" fill="white">
                    <use xlink:href="#path-5"></use>
                </mask>
                <g id="Clip-13" style="mix-blend-mode: multiply;"></g>
                <path d="M2.90014286,118.6808 C2.38328571,112.2008 1.96692857,106.0232 1.63192857,100.1528 C1.63192857,100.1504 1.63192857,100.1528 1.63192857,100.1504 C1.62953571,100.124 1.62953571,100.1024 1.62714286,100.076 C1.62714286,100.0736 1.62714286,100.0736 1.62714286,100.0712 C1.62714286,100.0544 1.62475,100.04 1.62475,100.0232 C-0.275178571,66.5888 0.514464286,43.2896 1.16532143,32.2424 C10.5836071,28.952 16.8552857,24.4064 17.2668571,20.0216 L17.4104286,20.0024 L19.3055714,1.9112 C19.2625,1.58 19.1596071,1.2512 18.9968929,0.9248 L65.3154286,48.8264 C64.0926786,51.6368 62.69525,54.4832 61.0705,57.3704 C58.9695714,61.1 56.69875,64.6976 54.2149643,68.2328 C42.8608571,84.3752 27.0632143,99.14 2.90014286,118.6808" id="Fill-12" fill="url(#linearGradient-7)" mask="url(#mask-6)"></path>
            </g>
            <g id="Group-17" transform="translate(117.000000, 230.000000)">
                <polyline id="Fill-15" points="0.53 0.17 0.53 0.1675 0.53 0.17"></polyline>
            </g>
            <g id="Group-20" transform="translate(134.000000, 112.000000)">
                <mask id="mask-9" fill="white">
                    <use xlink:href="#path-8"></use>
                </mask>
                <g id="Clip-19"></g>
                <path d="M0.67,2.0325 C0.625,1.6825 0.51,1.3375 0.335,0.995 L0.3475,1.005 C0.5175,1.345 0.625,1.6875 0.67,2.0325" id="Fill-18" mask="url(#mask-9)"></path>
            </g>
            <g id="Group-23" transform="translate(117.000000, 230.000000)">
                <mask id="mask-11" fill="white">
                    <use xlink:href="#path-10"></use>
                </mask>
                <g id="Clip-22"></g>
                <path d="M0.53,0.17 C0.5275,0.145 0.525,0.1225 0.5225,0.0975 C0.525,0.12 0.5275,0.1475 0.53,0.17" id="Fill-21" mask="url(#mask-11)"></path>
            </g>
        </g>
    </g>
</svg>