<?xml version="1.0" encoding="utf-8"?>
<!-- Generator: Adobe Illustrator 24.3.0, SVG Export Plug-In . SVG Version: 6.00 Build 0)  -->
<svg version="1.1" id="Layer_1" xmlns="http://www.w3.org/2000/svg" xmlns:xlink="http://www.w3.org/1999/xlink" x="0px" y="0px"
	 viewBox="0 0 300 200" style="enable-background:new 0 0 1600 1200;" xml:space="preserve">
<style type="text/css">
	.st0{fill:#0072E5;}
</style>
<path class="st0" d="M230.1,40.8C222.2,19.1,203.9,7.7,180,9.5c-40.1,3-71.5,62.6-94.5,106.2c-5.2,9.8-10.1,19.1-14.2,26
	c-1,1.7-2,3.3-3,4.8l-0.3-0.2c-7.4-3.6-15.1-7.4-23.3-10.6c-4.1-1.6-7.4-2.7-10.5-3.6c-10-2.9-18.9,0.5-23.7,9.2
	C3.8,153.2,6.7,171.4,17,181c5.5,5.1,12.1,7.8,19.1,7.8c1.4,0,2.7-0.1,4.1-0.3c11-1.6,22.1-9.2,32.9-22.8c4.3,2,8,3.6,11.5,4.9
	c32.7,12.7,70.6,9.9,101.4-7.4C228.6,139.3,247.2,87.8,230.1,40.8z M215.9,46c14.6,40-1.1,83.8-37.2,104
	c-26.9,15.1-60,17.5-88.6,6.4l0,0c-2.5-1-5.2-2.1-8.1-3.4c0.7-1.2,1.5-2.4,2.2-3.6c4.4-7.3,9.3-16.7,14.6-26.8
	c20.1-38.1,50.5-95.7,82.3-98.1C198,23.3,210.4,30.9,215.9,46z M59.1,158.9c-9.8,11.4-17.3,14.1-21,14.6c-4,0.6-7.6-0.6-10.8-3.6
	c-5.5-5.1-6.6-15.9-3.7-21.2c1-1.7,2.1-2.5,3.8-2.5c0.7,0,1.6,0.1,2.6,0.4c2.6,0.8,5.5,1.7,9.1,3.2C46,152.5,52.9,155.8,59.1,158.9z
	"/>
</svg>
