<svg width="350" height="132" viewBox="0 0 350 132" fill="none" xmlns="http://www.w3.org/2000/svg">
<path d="M90.3438 65.0234C90.1354 65.8568 89.7448 66.3776 89.1719 66.5859C88.599 66.7682 88.026 66.7422 87.4531 66.5078C86.9062 66.2734 86.4375 65.8698 86.0469 65.2969C85.6823 64.724 85.5781 64.099 85.7344 63.4219C86.125 61.651 86.6849 59.6979 87.4141 57.5625C88.1693 55.401 88.9115 53.2526 89.6406 51.1172C89.25 50.5182 88.9375 49.9193 88.7031 49.3203C88.4688 48.6953 88.3516 48.0443 88.3516 47.3672C88.3516 46.6901 88.599 45.987 89.0938 45.2578C89.6146 44.5026 90.2266 43.8125 90.9297 43.1875C91.6589 42.5625 92.401 42.0547 93.1562 41.6641C93.9375 41.2474 94.6016 41.0391 95.1484 41.0391C96.112 41.0391 96.8281 41.3646 97.2969 42.0156C97.7917 42.6667 98.0391 43.5391 98.0391 44.6328C98.0391 45.2318 97.9349 45.8307 97.7266 46.4297C97.5443 47.0026 97.3359 47.5495 97.1016 48.0703C96.8672 48.5651 96.6458 48.9948 96.4375 49.3594C96.2552 49.724 96.151 49.9583 96.125 50.0625C97.0625 51.7292 98.0391 53.2005 99.0547 54.4766C100.07 55.7526 100.995 57.0156 101.828 58.2656C102.688 59.5156 103.391 60.8438 103.938 62.25C104.484 63.6562 104.758 65.3099 104.758 67.2109C104.758 67.6797 104.719 68.1615 104.641 68.6562C104.589 69.151 104.497 69.6198 104.367 70.0625C105.305 69.8802 106.125 69.5938 106.828 69.2031C107.557 68.8125 108.182 68.3698 108.703 67.875C109.25 67.3542 109.693 66.7943 110.031 66.1953C110.396 65.5964 110.695 64.9714 110.93 64.3203C111.216 63.5651 111.503 63.0182 111.789 62.6797C112.076 62.3411 112.401 62.1719 112.766 62.1719C113.104 62.1719 113.443 62.2891 113.781 62.5234C114.146 62.7318 114.458 63.0052 114.719 63.3438C115.005 63.6823 115.227 64.0339 115.383 64.3984C115.565 64.763 115.656 65.0885 115.656 65.375C115.656 65.7656 115.552 66.2344 115.344 66.7812C115.135 67.3281 114.849 67.888 114.484 68.4609C114.146 69.0339 113.755 69.5938 113.312 70.1406C112.87 70.6615 112.414 71.1172 111.945 71.5078C110.695 72.5234 109.224 73.3828 107.531 74.0859C105.839 74.763 103.742 75.1927 101.242 75.375C100.279 76.2083 99.1328 76.8854 97.8047 77.4062C96.5026 77.9531 95.0312 78.2266 93.3906 78.2266C92.5573 78.2266 91.6979 78.1224 90.8125 77.9141C89.9531 77.7057 89.1198 77.4323 88.3125 77.0938C87.5312 76.7812 86.8151 76.4297 86.1641 76.0391C85.513 75.6484 84.9922 75.2578 84.6016 74.8672C83.612 73.9297 82.974 72.9922 82.6875 72.0547C82.401 71.0911 82.3359 70.2318 82.4922 69.4766C82.6224 68.7214 82.8958 68.1094 83.3125 67.6406C83.7292 67.1458 84.1589 66.8984 84.6016 66.8984C84.862 66.8984 85.2656 67.0156 85.8125 67.25C86.3854 67.4583 87.0365 67.7448 87.7656 68.1094C88.4948 68.4479 89.2891 68.8125 90.1484 69.2031C91.0078 69.5938 91.8672 69.9714 92.7266 70.3359C93.5859 70.6745 94.4193 70.9609 95.2266 71.1953C96.0599 71.4036 96.8151 71.5078 97.4922 71.5078C97.9349 70.987 98.3385 70.2969 98.7031 69.4375C99.0677 68.5781 99.25 67.6406 99.25 66.625C99.25 65.375 99.0807 64.2161 98.7422 63.1484C98.4036 62.0807 97.9609 61.0911 97.4141 60.1797C96.8672 59.2682 96.2422 58.4219 95.5391 57.6406C94.862 56.8333 94.1719 56.0781 93.4688 55.375C92.8438 56.9115 92.2969 58.4349 91.8281 59.9453C91.3594 61.4297 90.8646 63.1224 90.3438 65.0234ZM119.523 78.2266C117.961 78.2266 116.581 77.9141 115.383 77.2891C114.211 76.6641 113.221 75.8177 112.414 74.75C111.607 73.6562 110.995 72.3802 110.578 70.9219C110.188 69.4375 109.992 67.849 109.992 66.1562C109.992 62.8229 110.526 59.8281 111.594 57.1719C112.661 54.5156 114.081 52.263 115.852 50.4141C117.622 48.5391 119.641 47.1068 121.906 46.1172C124.198 45.1276 126.568 44.6328 129.016 44.6328C130.109 44.6328 130.995 44.9323 131.672 45.5312C132.349 46.1302 132.688 46.9505 132.688 47.9922C132.688 48.6693 132.609 49.151 132.453 49.4375C132.323 49.6979 132.062 49.8281 131.672 49.8281C131.307 49.8281 130.93 49.8021 130.539 49.75C130.148 49.6979 129.745 49.6719 129.328 49.6719C127.818 49.6719 126.281 50.0104 124.719 50.6875C123.156 51.3385 121.737 52.3542 120.461 53.7344C119.211 55.0885 118.182 56.8203 117.375 58.9297C116.568 61.013 116.164 63.5 116.164 66.3906C116.164 68.5 116.568 70.1276 117.375 71.2734C118.182 72.3932 119.289 72.9531 120.695 72.9531C121.503 72.9531 122.206 72.7188 122.805 72.25C123.404 71.7812 123.924 71.1823 124.367 70.4531C124.81 69.724 125.161 68.9297 125.422 68.0703C125.708 67.1849 125.93 66.3385 126.086 65.5312V56.4688C126.086 56.0781 126.06 55.7526 126.008 55.4922C125.982 55.2318 125.943 55.0104 125.891 54.8281C125.865 54.6458 125.826 54.4896 125.773 54.3594C125.747 54.2031 125.734 54.0599 125.734 53.9297C125.734 53.513 125.943 53.1875 126.359 52.9531C126.776 52.6927 127.271 52.5625 127.844 52.5625C129.172 52.5625 130.214 52.9141 130.969 53.6172C131.75 54.2943 132.141 55.1146 132.141 56.0781V78.1484C133.781 76.4557 135.305 74.5026 136.711 72.2891C138.143 70.0755 139.315 67.4193 140.227 64.3203C140.461 63.487 140.734 62.888 141.047 62.5234C141.385 62.1328 141.75 61.9375 142.141 61.9375C142.453 61.9375 142.779 62.0417 143.117 62.25C143.456 62.4323 143.755 62.6797 144.016 62.9922C144.302 63.3047 144.523 63.6562 144.68 64.0469C144.862 64.4375 144.953 64.8281 144.953 65.2188C144.953 65.2708 144.953 65.375 144.953 65.5312C144.953 65.6875 144.927 65.8438 144.875 66C144.25 68.1094 143.534 70.0104 142.727 71.7031C141.919 73.3698 141.047 74.8802 140.109 76.2344C139.198 77.5885 138.234 78.7995 137.219 79.8672C136.229 80.9349 135.227 81.9115 134.211 82.7969C135.409 84.125 136.49 85.401 137.453 86.625C138.417 87.875 139.224 89.125 139.875 90.375C140.552 91.625 141.073 92.901 141.438 94.2031C141.802 95.5052 141.984 96.8724 141.984 98.3047C141.984 99.8932 141.763 101.339 141.32 102.641C140.904 103.943 140.331 105.062 139.602 106C138.898 106.938 138.065 107.667 137.102 108.188C136.138 108.708 135.122 108.969 134.055 108.969C131.346 108.969 129.341 108.018 128.039 106.117C126.737 104.242 126.086 101.664 126.086 98.3828V75.2969C125.279 76.1302 124.341 76.8203 123.273 77.3672C122.206 77.9401 120.956 78.2266 119.523 78.2266ZM136.32 99.2031C136.32 98.2396 136.255 97.276 136.125 96.3125C136.021 95.349 135.812 94.3854 135.5 93.4219C135.188 92.4583 134.758 91.4688 134.211 90.4531C133.664 89.4375 132.974 88.3828 132.141 87.2891V99.125C132.141 100.062 132.206 100.831 132.336 101.43C132.492 102.029 132.674 102.484 132.883 102.797C133.091 103.135 133.312 103.37 133.547 103.5C133.781 103.63 134.003 103.695 134.211 103.695C134.732 103.695 135.214 103.331 135.656 102.602C136.099 101.898 136.32 100.766 136.32 99.2031ZM146.633 52.3281C146.919 51.7812 147.193 51.0521 147.453 50.1406C147.74 49.2031 148 48.1745 148.234 47.0547C148.495 45.9349 148.729 44.763 148.938 43.5391C149.146 42.3151 149.328 41.1172 149.484 39.9453C149.641 38.7734 149.758 37.6797 149.836 36.6641C149.94 35.6224 149.992 34.737 149.992 34.0078C149.992 31.3516 149.797 29.4115 149.406 28.1875C149.016 26.9375 148.495 26.3125 147.844 26.3125C147.635 26.3125 147.453 26.4167 147.297 26.625C147.141 26.8333 147.01 27.1068 146.906 27.4453C146.802 27.7578 146.724 28.1094 146.672 28.5C146.646 28.8646 146.633 29.2031 146.633 29.5156V52.3281ZM158 64.3984C158.156 63.6172 158.391 63.0573 158.703 62.7188C159.042 62.3542 159.393 62.1589 159.758 62.1328C160.148 62.0807 160.539 62.1719 160.93 62.4062C161.32 62.6146 161.659 62.901 161.945 63.2656C162.232 63.6302 162.44 64.0469 162.57 64.5156C162.727 64.9583 162.753 65.401 162.648 65.8438C162.284 66.9115 161.763 68.1615 161.086 69.5938C160.409 71.026 159.549 72.3802 158.508 73.6562C157.466 74.9323 156.242 76.013 154.836 76.8984C153.43 77.7839 151.815 78.2266 149.992 78.2266C148.456 78.2266 147.102 77.9661 145.93 77.4453C144.758 76.9505 143.768 76.2474 142.961 75.3359C142.18 74.3984 141.581 73.2917 141.164 72.0156C140.773 70.7135 140.578 69.2682 140.578 67.6797V31.2734C140.578 29.7891 140.76 28.4219 141.125 27.1719C141.516 25.8958 142.036 24.8151 142.688 23.9297C143.365 23.0182 144.146 22.3151 145.031 21.8203C145.917 21.2995 146.854 21.0391 147.844 21.0391C149.016 21.0391 150.005 21.2604 150.812 21.7031C151.62 22.1198 152.284 22.6797 152.805 23.3828C153.326 24.0859 153.729 24.8932 154.016 25.8047C154.328 26.7161 154.549 27.6536 154.68 28.6172C154.81 29.5547 154.888 30.4922 154.914 31.4297C154.94 32.3411 154.953 33.1745 154.953 33.9297C154.953 35.8828 154.771 37.9401 154.406 40.1016C154.042 42.237 153.573 44.3464 153 46.4297C152.453 48.513 151.841 50.5182 151.164 52.4453C150.513 54.3464 149.875 56.0391 149.25 57.5234C148.651 59.0078 148.104 60.2188 147.609 61.1562C147.141 62.0938 146.815 62.6406 146.633 62.7969V67.4453C146.633 69.0599 146.971 70.388 147.648 71.4297C148.326 72.4453 149.406 72.9531 150.891 72.9531C151.802 72.9531 152.648 72.6797 153.43 72.1328C154.237 71.5599 154.94 70.8568 155.539 70.0234C156.164 69.1641 156.685 68.2396 157.102 67.25C157.518 66.2344 157.818 65.2839 158 64.3984ZM162.453 37.5234C161.802 37.5234 161.177 37.3932 160.578 37.1328C160.005 36.8724 159.497 36.5208 159.055 36.0781C158.638 35.6354 158.299 35.1276 158.039 34.5547C157.779 33.9557 157.648 33.3177 157.648 32.6406C157.648 31.9375 157.779 31.2865 158.039 30.6875C158.299 30.0885 158.638 29.5807 159.055 29.1641C159.497 28.7214 160.005 28.3828 160.578 28.1484C161.177 27.888 161.802 27.7578 162.453 27.7578C163.156 27.7578 163.807 27.888 164.406 28.1484C165.005 28.3828 165.513 28.7214 165.93 29.1641C166.372 29.5807 166.711 30.0885 166.945 30.6875C167.206 31.2865 167.336 31.9375 167.336 32.6406C167.336 33.3177 167.206 33.9557 166.945 34.5547C166.711 35.1276 166.372 35.6354 165.93 36.0781C165.513 36.5208 165.005 36.8724 164.406 37.1328C163.807 37.3932 163.156 37.5234 162.453 37.5234ZM164.289 69.2812C164.289 69.4635 164.302 69.763 164.328 70.1797C164.354 70.5703 164.432 70.974 164.562 71.3906C164.693 71.8073 164.901 72.1719 165.188 72.4844C165.474 72.7969 165.878 72.9531 166.398 72.9531C167.18 72.9531 167.857 72.6667 168.43 72.0938C169.029 71.5208 169.536 70.8047 169.953 69.9453C170.396 69.0859 170.76 68.1615 171.047 67.1719C171.333 66.1562 171.568 65.2057 171.75 64.3203C171.906 63.513 172.141 62.9271 172.453 62.5625C172.792 62.1979 173.143 62.0026 173.508 61.9766C173.898 61.9245 174.276 62.0156 174.641 62.25C175.031 62.4844 175.37 62.7969 175.656 63.1875C175.969 63.5521 176.19 63.9688 176.32 64.4375C176.477 64.9062 176.503 65.349 176.398 65.7656C176.034 67.0938 175.552 68.487 174.953 69.9453C174.38 71.4036 173.638 72.7448 172.727 73.9688C171.815 75.1927 170.721 76.2083 169.445 77.0156C168.169 77.8229 166.672 78.2266 164.953 78.2266C163.885 78.2266 162.935 78.0182 162.102 77.6016C161.268 77.2109 160.565 76.6771 159.992 76C159.419 75.3229 158.977 74.5286 158.664 73.6172C158.378 72.7057 158.234 71.7422 158.234 70.7266V49.3594C158.234 48.6042 158.169 48.0573 158.039 47.7188C157.935 47.3802 157.883 47.0677 157.883 46.7812C157.883 46.3906 158.091 46.0781 158.508 45.8438C158.924 45.5833 159.419 45.4531 159.992 45.4531C161.32 45.4531 162.362 45.8047 163.117 46.5078C163.898 47.1849 164.289 48.0052 164.289 48.9688V69.2812ZM176.867 99.75C176.867 97.7188 177.128 95.9219 177.648 94.3594C178.195 92.7969 178.924 91.3646 179.836 90.0625C180.747 88.7604 181.802 87.5365 183 86.3906C184.198 85.2708 185.461 84.125 186.789 82.9531V74.5547C185.982 75.362 185.031 76.0391 183.938 76.5859C182.87 77.1589 181.633 77.4453 180.227 77.4453C178.664 77.4453 177.284 77.1328 176.086 76.5078C174.914 75.8828 173.924 75.0365 173.117 73.9688C172.31 72.875 171.698 71.599 171.281 70.1406C170.891 68.6562 170.695 67.0677 170.695 65.375C170.695 62.0417 171.229 59.0469 172.297 56.3906C173.365 53.7344 174.784 51.4818 176.555 49.6328C178.326 47.7578 180.344 46.3255 182.609 45.3359C184.901 44.3464 187.271 43.8516 189.719 43.8516C190.812 43.8516 191.698 44.151 192.375 44.75C193.052 45.3229 193.391 46.1432 193.391 47.2109C193.391 47.888 193.312 48.3698 193.156 48.6562C193.026 48.9167 192.766 49.0469 192.375 49.0469C192.01 49.0469 191.633 49.0208 191.242 48.9688C190.852 48.9167 190.448 48.8906 190.031 48.8906C188.521 48.8906 186.984 49.2292 185.422 49.9062C183.859 50.5573 182.44 51.5729 181.164 52.9531C179.914 54.3073 178.885 56.0391 178.078 58.1484C177.271 60.2318 176.867 62.7188 176.867 65.6094C176.867 67.6927 177.271 69.3073 178.078 70.4531C178.885 71.599 179.992 72.1719 181.398 72.1719C182.206 72.1719 182.909 71.9375 183.508 71.4688C184.107 70.974 184.628 70.362 185.07 69.6328C185.513 68.9036 185.865 68.1094 186.125 67.25C186.411 66.3646 186.633 65.5182 186.789 64.7109V55.6875C186.789 54.9323 186.724 54.3854 186.594 54.0469C186.49 53.7083 186.438 53.3958 186.438 53.1094C186.438 52.7188 186.646 52.3932 187.062 52.1328C187.479 51.8724 187.974 51.7422 188.547 51.7422C189.875 51.7422 190.917 52.0938 191.672 52.7969C192.453 53.474 192.844 54.3073 192.844 55.2969V77.0547C194.302 75.4401 195.63 73.6042 196.828 71.5469C198.052 69.4896 199.068 67.0807 199.875 64.3203C200.135 63.487 200.422 62.888 200.734 62.5234C201.047 62.1328 201.411 61.9375 201.828 61.9375C202.141 61.9375 202.453 62.0417 202.766 62.25C203.104 62.4323 203.404 62.6797 203.664 62.9922C203.951 63.3047 204.172 63.6562 204.328 64.0469C204.51 64.4375 204.602 64.8281 204.602 65.2188C204.602 65.2708 204.602 65.375 204.602 65.5312C204.602 65.6875 204.576 65.8438 204.523 66C203.846 68.3177 203.052 70.375 202.141 72.1719C201.255 73.9427 200.305 75.5312 199.289 76.9375C198.273 78.3438 197.219 79.5938 196.125 80.6875C195.031 81.8073 193.938 82.8359 192.844 83.7734V97.6016C192.844 99.7109 192.596 101.482 192.102 102.914C191.633 104.372 191.008 105.544 190.227 106.43C189.445 107.341 188.547 107.992 187.531 108.383C186.542 108.773 185.539 108.969 184.523 108.969C183.404 108.969 182.375 108.721 181.438 108.227C180.5 107.758 179.693 107.107 179.016 106.273C178.339 105.44 177.805 104.464 177.414 103.344C177.049 102.224 176.867 101.026 176.867 99.75ZM184.523 103.93C185.174 103.93 185.656 103.669 185.969 103.148C186.281 102.628 186.49 102.016 186.594 101.312C186.724 100.635 186.789 99.9453 186.789 99.2422C186.789 98.5391 186.789 97.9922 186.789 97.6016V89.0469C185.487 90.349 184.432 91.8203 183.625 93.4609C182.844 95.1016 182.453 97.1198 182.453 99.5156C182.453 100.766 182.635 101.807 183 102.641C183.365 103.5 183.872 103.93 184.523 103.93ZM200.266 26.7031C200.266 26.1302 200.214 25.6745 200.109 25.3359C200.031 24.9974 199.94 24.737 199.836 24.5547C199.758 24.3464 199.667 24.1901 199.562 24.0859C199.484 23.9557 199.445 23.8255 199.445 23.6953C199.445 23.5391 199.523 23.4089 199.68 23.3047C199.836 23.2005 200.044 23.1094 200.305 23.0312C200.565 22.9531 200.839 22.901 201.125 22.875C201.438 22.8229 201.737 22.7969 202.023 22.7969C203.352 22.7969 204.393 23.1484 205.148 23.8516C205.93 24.5286 206.32 25.349 206.32 26.3125V52.5625C206.867 51.4427 207.453 50.401 208.078 49.4375C208.729 48.474 209.419 47.6406 210.148 46.9375C210.904 46.2083 211.698 45.6484 212.531 45.2578C213.391 44.8411 214.315 44.6328 215.305 44.6328C216.633 44.6328 217.727 44.8802 218.586 45.375C219.445 45.8698 220.122 46.5078 220.617 47.2891C221.112 48.0703 221.451 48.9427 221.633 49.9062C221.841 50.8698 221.945 51.8073 221.945 52.7188V69.2812C221.945 69.4635 221.958 69.763 221.984 70.1797C222.01 70.5703 222.089 70.974 222.219 71.3906C222.349 71.8073 222.544 72.1719 222.805 72.4844C223.091 72.7969 223.495 72.9531 224.016 72.9531C224.823 72.9531 225.513 72.6667 226.086 72.0938C226.685 71.5208 227.193 70.8047 227.609 69.9453C228.052 69.0859 228.404 68.1615 228.664 67.1719C228.951 66.1562 229.185 65.2057 229.367 64.3203C229.523 63.513 229.758 62.9271 230.07 62.5625C230.409 62.1979 230.76 62.0026 231.125 61.9766C231.516 61.9245 231.906 62.0156 232.297 62.25C232.688 62.4844 233.026 62.7969 233.312 63.1875C233.599 63.5521 233.807 63.9688 233.938 64.4375C234.094 64.9062 234.12 65.349 234.016 65.7656C233.651 67.0938 233.169 68.487 232.57 69.9453C231.997 71.4036 231.255 72.7448 230.344 73.9688C229.432 75.1927 228.339 76.2083 227.062 77.0156C225.786 77.8229 224.289 78.2266 222.57 78.2266C221.503 78.2266 220.552 78.0182 219.719 77.6016C218.911 77.2109 218.208 76.6771 217.609 76C217.036 75.3229 216.594 74.5286 216.281 73.6172C215.995 72.7057 215.852 71.7422 215.852 70.7266V54.4766C215.852 53.8516 215.839 53.2656 215.812 52.7188C215.786 52.1719 215.708 51.6901 215.578 51.2734C215.474 50.8568 215.305 50.5312 215.07 50.2969C214.862 50.0365 214.562 49.9062 214.172 49.9062C213.599 49.9062 212.896 50.2969 212.062 51.0781C211.229 51.8594 210.409 52.875 209.602 54.125C208.794 55.375 208.078 56.7943 207.453 58.3828C206.854 59.9453 206.477 61.5208 206.32 63.1094V74.7891C206.32 75.1797 206.307 75.5833 206.281 76C206.281 76.3906 206.203 76.7422 206.047 77.0547C205.917 77.3932 205.695 77.6667 205.383 77.875C205.096 78.1094 204.667 78.2266 204.094 78.2266C203.703 78.2266 203.273 78.1745 202.805 78.0703C202.362 77.9922 201.945 77.8229 201.555 77.5625C201.19 77.3281 200.878 76.9766 200.617 76.5078C200.383 76.0651 200.266 75.4661 200.266 74.7109V26.7031ZM222.492 38.3828C223.091 38.4349 223.755 38.474 224.484 38.5C225.109 38.5521 225.865 38.5911 226.75 38.6172C227.635 38.6172 228.625 38.6302 229.719 38.6562V25.1016C229.719 24.5286 229.667 24.0729 229.562 23.7344C229.484 23.3958 229.393 23.1354 229.289 22.9531C229.211 22.7448 229.12 22.5885 229.016 22.4844C228.938 22.3542 228.898 22.224 228.898 22.0938C228.898 21.9375 228.977 21.8073 229.133 21.7031C229.289 21.599 229.497 21.5078 229.758 21.4297C230.018 21.3516 230.292 21.2995 230.578 21.2734C230.891 21.2214 231.19 21.1953 231.477 21.1953C232.805 21.1953 233.846 21.5469 234.602 22.25C235.383 22.9271 235.773 23.7474 235.773 24.7109V38.7344C238.221 38.7344 240.799 38.7083 243.508 38.6562C246.242 38.6042 248.977 38.513 251.711 38.3828C252.076 37.9922 252.362 37.849 252.57 37.9531C252.805 38.0573 252.948 38.3047 253 38.6953C253.078 39.0859 253.091 39.5677 253.039 40.1406C252.987 40.7135 252.883 41.2734 252.727 41.8203C252.57 42.3411 252.349 42.7969 252.062 43.1875C251.802 43.5781 251.503 43.7734 251.164 43.7734C247.961 43.8516 245.122 43.9036 242.648 43.9297C240.201 43.9297 237.909 43.9297 235.773 43.9297V69.2812C235.773 70.5833 236.021 71.5208 236.516 72.0938C237.01 72.6667 237.674 72.9531 238.508 72.9531C239.315 72.9531 240.005 72.6667 240.578 72.0938C241.177 71.5208 241.685 70.8047 242.102 69.9453C242.544 69.0859 242.896 68.1615 243.156 67.1719C243.443 66.1562 243.677 65.2057 243.859 64.3203C244.016 63.487 244.276 62.888 244.641 62.5234C245.005 62.1328 245.383 61.9375 245.773 61.9375C246.086 61.9375 246.411 62.0417 246.75 62.25C247.089 62.4323 247.388 62.6797 247.648 62.9922C247.935 63.3047 248.156 63.6562 248.312 64.0469C248.495 64.4375 248.586 64.8281 248.586 65.2188C248.586 65.2708 248.586 65.3359 248.586 65.4141C248.586 65.4922 248.56 65.6094 248.508 65.7656C248.169 67.0938 247.701 68.487 247.102 69.9453C246.529 71.4036 245.773 72.7448 244.836 73.9688C243.924 75.1927 242.831 76.2083 241.555 77.0156C240.279 77.8229 238.781 78.2266 237.062 78.2266C235.995 78.2266 235.005 78.0573 234.094 77.7188C233.208 77.4062 232.44 76.8854 231.789 76.1562C231.138 75.4531 230.63 74.5417 230.266 73.4219C229.901 72.3021 229.719 70.9479 229.719 69.3594V43.9297C228.833 43.9297 228.039 43.9297 227.336 43.9297C226.659 43.9036 226.086 43.8776 225.617 43.8516C225.07 43.8255 224.589 43.7995 224.172 43.7734C223.547 43.7734 223 43.5 222.531 42.9531C222.036 42.3802 221.698 41.7552 221.516 41.0781C221.307 40.401 221.281 39.7891 221.438 39.2422C221.568 38.6693 221.919 38.3828 222.492 38.3828ZM262.648 52.7188C262.648 54.2031 262.388 55.7266 261.867 57.2891C261.372 58.8516 260.617 60.3359 259.602 61.7422C258.612 63.1224 257.375 64.3724 255.891 65.4922C254.432 66.5859 252.74 67.4193 250.812 67.9922C251.073 68.6693 251.411 69.3203 251.828 69.9453C252.271 70.5443 252.792 71.0651 253.391 71.5078C253.99 71.9505 254.68 72.3021 255.461 72.5625C256.268 72.8229 257.193 72.9531 258.234 72.9531C259.797 72.9531 261.138 72.6667 262.258 72.0938C263.378 71.4948 264.315 70.7135 265.07 69.75C265.852 68.7865 266.477 67.7057 266.945 66.5078C267.414 65.3099 267.766 64.099 268 62.875C268.182 61.9896 268.547 61.4036 269.094 61.1172C269.667 60.8047 270.24 60.7266 270.812 60.8828C271.411 61.0391 271.919 61.3776 272.336 61.8984C272.779 62.3932 272.961 62.9922 272.883 63.6953C272.779 64.5026 272.596 65.4271 272.336 66.4688C272.102 67.5104 271.737 68.5651 271.242 69.6328C270.747 70.7005 270.109 71.7552 269.328 72.7969C268.573 73.8125 267.635 74.724 266.516 75.5312C265.396 76.3385 264.081 76.9896 262.57 77.4844C261.06 77.9792 259.328 78.2266 257.375 78.2266C255.552 78.2266 253.781 77.862 252.062 77.1328C250.37 76.4297 248.859 75.4141 247.531 74.0859C246.229 72.7318 245.174 71.0781 244.367 69.125C243.586 67.1458 243.195 64.9062 243.195 62.4062C243.195 59.8802 243.547 57.5365 244.25 55.375C244.953 53.1875 245.878 51.2995 247.023 49.7109C248.169 48.1224 249.471 46.8854 250.93 46C252.388 45.0885 253.885 44.6328 255.422 44.6328C256.542 44.6328 257.544 44.8281 258.43 45.2188C259.341 45.6094 260.109 46.1693 260.734 46.8984C261.359 47.6016 261.828 48.4479 262.141 49.4375C262.479 50.4271 262.648 51.5208 262.648 52.7188ZM249.758 62.1719C249.758 62.4062 249.771 62.6406 249.797 62.875C249.823 63.1094 249.836 63.3568 249.836 63.6172C250.826 63.1484 251.724 62.5495 252.531 61.8203C253.339 61.0911 254.029 60.2578 254.602 59.3203C255.174 58.3828 255.617 57.3672 255.93 56.2734C256.242 55.1536 256.398 53.9948 256.398 52.7969C256.398 51.9115 256.242 51.2214 255.93 50.7266C255.643 50.2318 255.24 49.9844 254.719 49.9844C254.068 49.9844 253.482 50.2057 252.961 50.6484C252.466 51.0911 252.023 51.6771 251.633 52.4062C251.268 53.1094 250.956 53.9167 250.695 54.8281C250.461 55.7135 250.266 56.612 250.109 57.5234C249.953 58.4349 249.849 59.3073 249.797 60.1406C249.745 60.9479 249.732 61.625 249.758 62.1719ZM285.422 78.2266C284.484 78.2266 283.521 78.0833 282.531 77.7969C281.568 77.5104 280.682 77.0156 279.875 76.3125C279.094 75.6094 278.443 74.6849 277.922 73.5391C277.427 72.3672 277.18 70.8958 277.18 69.125C277.18 66.5469 277.518 63.8255 278.195 60.9609C278.898 58.0703 279.901 54.8932 281.203 51.4297H275.109H274.211C274.185 52.2109 274.133 53.2005 274.055 54.3984C274.003 55.5964 273.898 56.8724 273.742 58.2266C273.586 59.5807 273.378 60.9479 273.117 62.3281C272.883 63.7083 272.583 64.9844 272.219 66.1562C271.958 66.9896 271.542 67.4714 270.969 67.6016C270.422 67.7318 269.875 67.6406 269.328 67.3281C268.781 66.9896 268.339 66.5078 268 65.8828C267.661 65.2578 267.583 64.6068 267.766 63.9297C267.974 63.1224 268.156 62.1458 268.312 61C268.469 59.8281 268.586 58.6042 268.664 57.3281C268.768 56.026 268.846 54.737 268.898 53.4609C268.951 52.1589 268.99 51 269.016 49.9844C268.026 49.4375 267.206 48.7474 266.555 47.9141C265.904 47.0547 265.578 46.0391 265.578 44.8672C265.578 44.3203 265.682 43.8255 265.891 43.3828C266.125 42.9141 266.424 42.5234 266.789 42.2109C267.154 41.8724 267.583 41.625 268.078 41.4688C268.573 41.2865 269.081 41.1953 269.602 41.1953C270.07 41.1953 270.552 41.2604 271.047 41.3906C271.568 41.5208 272.049 41.7552 272.492 42.0938C272.961 42.4323 273.378 42.875 273.742 43.4219C274.107 43.9688 274.406 44.6458 274.641 45.4531C275.292 45.5312 275.839 45.5964 276.281 45.6484C276.75 45.6745 277.141 45.7005 277.453 45.7266C277.766 45.7526 278.026 45.7656 278.234 45.7656C278.443 45.7656 278.651 45.7656 278.859 45.7656H283.039C283.273 45.7656 283.612 45.9089 284.055 46.1953C284.523 46.4818 284.979 46.8594 285.422 47.3281C285.865 47.7708 286.229 48.2526 286.516 48.7734C286.828 49.2943 286.945 49.7891 286.867 50.2578C286.867 50.4141 286.776 50.7917 286.594 51.3906C286.411 51.9896 286.19 52.7448 285.93 53.6562C285.669 54.5677 285.383 55.6224 285.07 56.8203C284.758 57.9922 284.471 59.2292 284.211 60.5312C283.951 61.8333 283.729 63.1875 283.547 64.5938C283.365 65.974 283.273 67.3281 283.273 68.6562C283.273 69.2031 283.339 69.737 283.469 70.2578C283.599 70.7786 283.794 71.2474 284.055 71.6641C284.315 72.0547 284.641 72.3672 285.031 72.6016C285.448 72.8359 285.93 72.9531 286.477 72.9531C287.388 72.9531 288.169 72.6667 288.82 72.0938C289.471 71.5208 290.018 70.8047 290.461 69.9453C290.904 69.0859 291.255 68.1615 291.516 67.1719C291.802 66.1562 292.036 65.2057 292.219 64.3203C292.375 63.487 292.635 62.888 293 62.5234C293.365 62.1328 293.742 61.9375 294.133 61.9375C294.445 61.9375 294.771 62.0417 295.109 62.25C295.448 62.4323 295.747 62.6797 296.008 62.9922C296.294 63.3047 296.516 63.6562 296.672 64.0469C296.854 64.4375 296.945 64.8281 296.945 65.2188C296.945 65.349 296.932 65.4531 296.906 65.5312C296.88 65.6094 296.867 65.6875 296.867 65.7656C296.503 67.0938 296.021 68.487 295.422 69.9453C294.849 71.4036 294.107 72.7448 293.195 73.9688C292.284 75.1927 291.19 76.2083 289.914 77.0156C288.638 77.8229 287.141 78.2266 285.422 78.2266Z" fill="black"/>
<path d="M218.547 108.531C218.661 108.312 218.771 108.021 218.875 107.656C218.99 107.281 219.094 106.87 219.188 106.422C219.292 105.974 219.385 105.505 219.469 105.016C219.552 104.526 219.625 104.047 219.688 103.578C219.75 103.109 219.797 102.672 219.828 102.266C219.87 101.849 219.891 101.495 219.891 101.203C219.891 100.141 219.812 99.3646 219.656 98.875C219.5 98.375 219.292 98.125 219.031 98.125C218.948 98.125 218.875 98.1667 218.812 98.25C218.75 98.3333 218.698 98.4427 218.656 98.5781C218.615 98.7031 218.583 98.8438 218.562 99C218.552 99.1458 218.547 99.2812 218.547 99.4062V108.531ZM223.094 113.359C223.156 113.047 223.25 112.823 223.375 112.688C223.51 112.542 223.651 112.464 223.797 112.453C223.953 112.432 224.109 112.469 224.266 112.562C224.422 112.646 224.557 112.76 224.672 112.906C224.786 113.052 224.87 113.219 224.922 113.406C224.984 113.583 224.995 113.76 224.953 113.938C224.807 114.365 224.599 114.865 224.328 115.438C224.057 116.01 223.714 116.552 223.297 117.062C222.88 117.573 222.391 118.005 221.828 118.359C221.266 118.714 220.62 118.891 219.891 118.891C219.276 118.891 218.734 118.786 218.266 118.578C217.797 118.38 217.401 118.099 217.078 117.734C216.766 117.359 216.526 116.917 216.359 116.406C216.203 115.885 216.125 115.307 216.125 114.672V100.109C216.125 99.5156 216.198 98.9688 216.344 98.4688C216.5 97.9583 216.708 97.526 216.969 97.1719C217.24 96.8073 217.552 96.526 217.906 96.3281C218.26 96.1198 218.635 96.0156 219.031 96.0156C219.5 96.0156 219.896 96.1042 220.219 96.2812C220.542 96.4479 220.807 96.6719 221.016 96.9531C221.224 97.2344 221.385 97.5573 221.5 97.9219C221.625 98.2865 221.714 98.6615 221.766 99.0469C221.818 99.4219 221.849 99.7969 221.859 100.172C221.87 100.536 221.875 100.87 221.875 101.172C221.875 101.953 221.802 102.776 221.656 103.641C221.51 104.495 221.323 105.339 221.094 106.172C220.875 107.005 220.63 107.807 220.359 108.578C220.099 109.339 219.844 110.016 219.594 110.609C219.354 111.203 219.135 111.688 218.938 112.062C218.75 112.438 218.62 112.656 218.547 112.719V114.578C218.547 115.224 218.682 115.755 218.953 116.172C219.224 116.578 219.656 116.781 220.25 116.781C220.615 116.781 220.953 116.672 221.266 116.453C221.589 116.224 221.87 115.943 222.109 115.609C222.359 115.266 222.568 114.896 222.734 114.5C222.901 114.094 223.021 113.714 223.094 113.359ZM224.875 102.609C224.615 102.609 224.365 102.557 224.125 102.453C223.896 102.349 223.693 102.208 223.516 102.031C223.349 101.854 223.214 101.651 223.109 101.422C223.005 101.182 222.953 100.927 222.953 100.656C222.953 100.375 223.005 100.115 223.109 99.875C223.214 99.6354 223.349 99.4323 223.516 99.2656C223.693 99.0885 223.896 98.9531 224.125 98.8594C224.365 98.7552 224.615 98.7031 224.875 98.7031C225.156 98.7031 225.417 98.7552 225.656 98.8594C225.896 98.9531 226.099 99.0885 226.266 99.2656C226.443 99.4323 226.578 99.6354 226.672 99.875C226.776 100.115 226.828 100.375 226.828 100.656C226.828 100.927 226.776 101.182 226.672 101.422C226.578 101.651 226.443 101.854 226.266 102.031C226.099 102.208 225.896 102.349 225.656 102.453C225.417 102.557 225.156 102.609 224.875 102.609ZM225.609 115.312C225.609 115.385 225.615 115.505 225.625 115.672C225.635 115.828 225.667 115.99 225.719 116.156C225.771 116.323 225.854 116.469 225.969 116.594C226.083 116.719 226.245 116.781 226.453 116.781C226.766 116.781 227.036 116.667 227.266 116.438C227.505 116.208 227.708 115.922 227.875 115.578C228.052 115.234 228.198 114.865 228.312 114.469C228.427 114.062 228.521 113.682 228.594 113.328C228.656 113.005 228.75 112.771 228.875 112.625C229.01 112.479 229.151 112.401 229.297 112.391C229.453 112.37 229.604 112.406 229.75 112.5C229.906 112.594 230.042 112.719 230.156 112.875C230.281 113.021 230.37 113.188 230.422 113.375C230.484 113.562 230.495 113.74 230.453 113.906C230.307 114.438 230.115 114.995 229.875 115.578C229.646 116.161 229.349 116.698 228.984 117.188C228.62 117.677 228.182 118.083 227.672 118.406C227.161 118.729 226.562 118.891 225.875 118.891C225.448 118.891 225.068 118.807 224.734 118.641C224.401 118.484 224.12 118.271 223.891 118C223.661 117.729 223.484 117.411 223.359 117.047C223.245 116.682 223.188 116.297 223.188 115.891V107.344C223.188 107.042 223.161 106.823 223.109 106.688C223.068 106.552 223.047 106.427 223.047 106.312C223.047 106.156 223.13 106.031 223.297 105.938C223.464 105.833 223.661 105.781 223.891 105.781C224.422 105.781 224.839 105.922 225.141 106.203C225.453 106.474 225.609 106.802 225.609 107.188V115.312ZM230.641 127.5C230.641 126.688 230.745 125.969 230.953 125.344C231.172 124.719 231.464 124.146 231.828 123.625C232.193 123.104 232.615 122.615 233.094 122.156C233.573 121.708 234.078 121.25 234.609 120.781V117.422C234.286 117.745 233.906 118.016 233.469 118.234C233.042 118.464 232.547 118.578 231.984 118.578C231.359 118.578 230.807 118.453 230.328 118.203C229.859 117.953 229.464 117.615 229.141 117.188C228.818 116.75 228.573 116.24 228.406 115.656C228.25 115.062 228.172 114.427 228.172 113.75C228.172 112.417 228.385 111.219 228.812 110.156C229.24 109.094 229.807 108.193 230.516 107.453C231.224 106.703 232.031 106.13 232.938 105.734C233.854 105.339 234.802 105.141 235.781 105.141C236.219 105.141 236.573 105.26 236.844 105.5C237.115 105.729 237.25 106.057 237.25 106.484C237.25 106.755 237.219 106.948 237.156 107.062C237.104 107.167 237 107.219 236.844 107.219C236.698 107.219 236.547 107.208 236.391 107.188C236.234 107.167 236.073 107.156 235.906 107.156C235.302 107.156 234.688 107.292 234.062 107.562C233.438 107.823 232.87 108.229 232.359 108.781C231.859 109.323 231.448 110.016 231.125 110.859C230.802 111.693 230.641 112.688 230.641 113.844C230.641 114.677 230.802 115.323 231.125 115.781C231.448 116.24 231.891 116.469 232.453 116.469C232.776 116.469 233.057 116.375 233.297 116.188C233.536 115.99 233.745 115.745 233.922 115.453C234.099 115.161 234.24 114.844 234.344 114.5C234.458 114.146 234.547 113.807 234.609 113.484V109.875C234.609 109.573 234.583 109.354 234.531 109.219C234.49 109.083 234.469 108.958 234.469 108.844C234.469 108.688 234.552 108.557 234.719 108.453C234.885 108.349 235.083 108.297 235.312 108.297C235.844 108.297 236.26 108.438 236.562 108.719C236.875 108.99 237.031 109.323 237.031 109.719V118.422C237.615 117.776 238.146 117.042 238.625 116.219C239.115 115.396 239.521 114.432 239.844 113.328C239.948 112.995 240.062 112.755 240.188 112.609C240.312 112.453 240.458 112.375 240.625 112.375C240.75 112.375 240.875 112.417 241 112.5C241.135 112.573 241.255 112.672 241.359 112.797C241.474 112.922 241.562 113.062 241.625 113.219C241.698 113.375 241.734 113.531 241.734 113.688C241.734 113.708 241.734 113.75 241.734 113.812C241.734 113.875 241.724 113.938 241.703 114C241.432 114.927 241.115 115.75 240.75 116.469C240.396 117.177 240.016 117.812 239.609 118.375C239.203 118.938 238.781 119.438 238.344 119.875C237.906 120.323 237.469 120.734 237.031 121.109V126.641C237.031 127.484 236.932 128.193 236.734 128.766C236.547 129.349 236.297 129.818 235.984 130.172C235.672 130.536 235.312 130.797 234.906 130.953C234.51 131.109 234.109 131.188 233.703 131.188C233.255 131.188 232.844 131.089 232.469 130.891C232.094 130.703 231.771 130.443 231.5 130.109C231.229 129.776 231.016 129.385 230.859 128.938C230.714 128.49 230.641 128.01 230.641 127.5ZM233.703 129.172C233.964 129.172 234.156 129.068 234.281 128.859C234.406 128.651 234.49 128.406 234.531 128.125C234.583 127.854 234.609 127.578 234.609 127.297C234.609 127.016 234.609 126.797 234.609 126.641V123.219C234.089 123.74 233.667 124.328 233.344 124.984C233.031 125.641 232.875 126.448 232.875 127.406C232.875 127.906 232.948 128.323 233.094 128.656C233.24 129 233.443 129.172 233.703 129.172ZM240 98.2812C240 98.0521 239.979 97.8698 239.938 97.7344C239.906 97.599 239.87 97.4948 239.828 97.4219C239.797 97.3385 239.76 97.276 239.719 97.2344C239.688 97.1823 239.672 97.1302 239.672 97.0781C239.672 97.0156 239.703 96.9635 239.766 96.9219C239.828 96.8802 239.911 96.8438 240.016 96.8125C240.12 96.7812 240.229 96.7604 240.344 96.75C240.469 96.7292 240.589 96.7188 240.703 96.7188C241.234 96.7188 241.651 96.8594 241.953 97.1406C242.266 97.4115 242.422 97.7396 242.422 98.125V108.625C242.641 108.177 242.875 107.76 243.125 107.375C243.385 106.99 243.661 106.656 243.953 106.375C244.255 106.083 244.573 105.859 244.906 105.703C245.25 105.536 245.62 105.453 246.016 105.453C246.547 105.453 246.984 105.552 247.328 105.75C247.672 105.948 247.943 106.203 248.141 106.516C248.339 106.828 248.474 107.177 248.547 107.562C248.63 107.948 248.672 108.323 248.672 108.688V115.312C248.672 115.385 248.677 115.505 248.688 115.672C248.698 115.828 248.729 115.99 248.781 116.156C248.833 116.323 248.911 116.469 249.016 116.594C249.13 116.719 249.292 116.781 249.5 116.781C249.823 116.781 250.099 116.667 250.328 116.438C250.568 116.208 250.771 115.922 250.938 115.578C251.115 115.234 251.255 114.865 251.359 114.469C251.474 114.062 251.568 113.682 251.641 113.328C251.703 113.005 251.797 112.771 251.922 112.625C252.057 112.479 252.198 112.401 252.344 112.391C252.5 112.37 252.656 112.406 252.812 112.5C252.969 112.594 253.104 112.719 253.219 112.875C253.333 113.021 253.417 113.188 253.469 113.375C253.531 113.562 253.542 113.74 253.5 113.906C253.354 114.438 253.161 114.995 252.922 115.578C252.693 116.161 252.396 116.698 252.031 117.188C251.667 117.677 251.229 118.083 250.719 118.406C250.208 118.729 249.609 118.891 248.922 118.891C248.495 118.891 248.115 118.807 247.781 118.641C247.458 118.484 247.177 118.271 246.938 118C246.708 117.729 246.531 117.411 246.406 117.047C246.292 116.682 246.234 116.297 246.234 115.891V109.391C246.234 109.141 246.229 108.906 246.219 108.688C246.208 108.469 246.177 108.276 246.125 108.109C246.083 107.943 246.016 107.812 245.922 107.719C245.839 107.615 245.719 107.562 245.562 107.562C245.333 107.562 245.052 107.719 244.719 108.031C244.385 108.344 244.057 108.75 243.734 109.25C243.411 109.75 243.125 110.318 242.875 110.953C242.635 111.578 242.484 112.208 242.422 112.844V117.516C242.422 117.672 242.417 117.833 242.406 118C242.406 118.156 242.375 118.297 242.312 118.422C242.26 118.557 242.172 118.667 242.047 118.75C241.932 118.844 241.76 118.891 241.531 118.891C241.375 118.891 241.203 118.87 241.016 118.828C240.839 118.797 240.672 118.729 240.516 118.625C240.37 118.531 240.245 118.391 240.141 118.203C240.047 118.026 240 117.786 240 117.484V98.2812ZM248.891 102.953C249.13 102.974 249.396 102.99 249.688 103C249.938 103.021 250.24 103.036 250.594 103.047C250.948 103.047 251.344 103.052 251.781 103.062V97.6406C251.781 97.4115 251.76 97.2292 251.719 97.0938C251.688 96.9583 251.651 96.8542 251.609 96.7812C251.578 96.6979 251.542 96.6354 251.5 96.5938C251.469 96.5417 251.453 96.4896 251.453 96.4375C251.453 96.375 251.484 96.3229 251.547 96.2812C251.609 96.2396 251.693 96.2031 251.797 96.1719C251.901 96.1406 252.01 96.1198 252.125 96.1094C252.25 96.0885 252.37 96.0781 252.484 96.0781C253.016 96.0781 253.432 96.2188 253.734 96.5C254.047 96.7708 254.203 97.099 254.203 97.4844V103.094C255.182 103.094 256.214 103.083 257.297 103.062C258.391 103.042 259.484 103.005 260.578 102.953C260.724 102.797 260.839 102.74 260.922 102.781C261.016 102.823 261.073 102.922 261.094 103.078C261.125 103.234 261.13 103.427 261.109 103.656C261.089 103.885 261.047 104.109 260.984 104.328C260.922 104.536 260.833 104.719 260.719 104.875C260.615 105.031 260.495 105.109 260.359 105.109C259.078 105.141 257.943 105.161 256.953 105.172C255.974 105.172 255.057 105.172 254.203 105.172V115.312C254.203 115.833 254.302 116.208 254.5 116.438C254.698 116.667 254.964 116.781 255.297 116.781C255.62 116.781 255.896 116.667 256.125 116.438C256.365 116.208 256.568 115.922 256.734 115.578C256.911 115.234 257.052 114.865 257.156 114.469C257.271 114.062 257.365 113.682 257.438 113.328C257.5 112.995 257.604 112.755 257.75 112.609C257.896 112.453 258.047 112.375 258.203 112.375C258.328 112.375 258.458 112.417 258.594 112.5C258.729 112.573 258.849 112.672 258.953 112.797C259.068 112.922 259.156 113.062 259.219 113.219C259.292 113.375 259.328 113.531 259.328 113.688C259.328 113.708 259.328 113.734 259.328 113.766C259.328 113.797 259.318 113.844 259.297 113.906C259.161 114.438 258.974 114.995 258.734 115.578C258.505 116.161 258.203 116.698 257.828 117.188C257.464 117.677 257.026 118.083 256.516 118.406C256.005 118.729 255.406 118.891 254.719 118.891C254.292 118.891 253.896 118.823 253.531 118.688C253.177 118.562 252.87 118.354 252.609 118.062C252.349 117.781 252.146 117.417 252 116.969C251.854 116.521 251.781 115.979 251.781 115.344V105.172C251.427 105.172 251.109 105.172 250.828 105.172C250.557 105.161 250.328 105.151 250.141 105.141C249.922 105.13 249.729 105.12 249.562 105.109C249.312 105.109 249.094 105 248.906 104.781C248.708 104.552 248.573 104.302 248.5 104.031C248.417 103.76 248.406 103.516 248.469 103.297C248.521 103.068 248.661 102.953 248.891 102.953ZM264.953 108.688C264.953 109.281 264.849 109.891 264.641 110.516C264.443 111.141 264.141 111.734 263.734 112.297C263.339 112.849 262.844 113.349 262.25 113.797C261.667 114.234 260.99 114.568 260.219 114.797C260.323 115.068 260.458 115.328 260.625 115.578C260.802 115.818 261.01 116.026 261.25 116.203C261.49 116.38 261.766 116.521 262.078 116.625C262.401 116.729 262.771 116.781 263.188 116.781C263.812 116.781 264.349 116.667 264.797 116.438C265.245 116.198 265.62 115.885 265.922 115.5C266.234 115.115 266.484 114.682 266.672 114.203C266.859 113.724 267 113.24 267.094 112.75C267.167 112.396 267.312 112.161 267.531 112.047C267.76 111.922 267.99 111.891 268.219 111.953C268.458 112.016 268.661 112.151 268.828 112.359C269.005 112.557 269.078 112.797 269.047 113.078C269.005 113.401 268.932 113.771 268.828 114.188C268.734 114.604 268.589 115.026 268.391 115.453C268.193 115.88 267.938 116.302 267.625 116.719C267.323 117.125 266.948 117.49 266.5 117.812C266.052 118.135 265.526 118.396 264.922 118.594C264.318 118.792 263.625 118.891 262.844 118.891C262.115 118.891 261.406 118.745 260.719 118.453C260.042 118.172 259.438 117.766 258.906 117.234C258.385 116.693 257.964 116.031 257.641 115.25C257.328 114.458 257.172 113.562 257.172 112.562C257.172 111.552 257.312 110.615 257.594 109.75C257.875 108.875 258.245 108.12 258.703 107.484C259.161 106.849 259.682 106.354 260.266 106C260.849 105.635 261.448 105.453 262.062 105.453C262.51 105.453 262.911 105.531 263.266 105.688C263.63 105.844 263.938 106.068 264.188 106.359C264.438 106.641 264.625 106.979 264.75 107.375C264.885 107.771 264.953 108.208 264.953 108.688ZM259.797 112.469C259.797 112.562 259.802 112.656 259.812 112.75C259.823 112.844 259.828 112.943 259.828 113.047C260.224 112.859 260.583 112.62 260.906 112.328C261.229 112.036 261.505 111.703 261.734 111.328C261.964 110.953 262.141 110.547 262.266 110.109C262.391 109.661 262.453 109.198 262.453 108.719C262.453 108.365 262.391 108.089 262.266 107.891C262.151 107.693 261.99 107.594 261.781 107.594C261.521 107.594 261.286 107.682 261.078 107.859C260.88 108.036 260.703 108.271 260.547 108.562C260.401 108.844 260.276 109.167 260.172 109.531C260.078 109.885 260 110.245 259.938 110.609C259.875 110.974 259.833 111.323 259.812 111.656C259.792 111.979 259.786 112.25 259.797 112.469ZM274.062 118.891C273.688 118.891 273.302 118.833 272.906 118.719C272.521 118.604 272.167 118.406 271.844 118.125C271.531 117.844 271.271 117.474 271.062 117.016C270.865 116.547 270.766 115.958 270.766 115.25C270.766 114.219 270.901 113.13 271.172 111.984C271.453 110.828 271.854 109.557 272.375 108.172H269.938H269.578C269.568 108.484 269.547 108.88 269.516 109.359C269.495 109.839 269.453 110.349 269.391 110.891C269.328 111.432 269.245 111.979 269.141 112.531C269.047 113.083 268.927 113.594 268.781 114.062C268.677 114.396 268.51 114.589 268.281 114.641C268.062 114.693 267.844 114.656 267.625 114.531C267.406 114.396 267.229 114.203 267.094 113.953C266.958 113.703 266.927 113.443 267 113.172C267.083 112.849 267.156 112.458 267.219 112C267.281 111.531 267.328 111.042 267.359 110.531C267.401 110.01 267.432 109.495 267.453 108.984C267.474 108.464 267.49 108 267.5 107.594C267.104 107.375 266.776 107.099 266.516 106.766C266.255 106.422 266.125 106.016 266.125 105.547C266.125 105.328 266.167 105.13 266.25 104.953C266.344 104.766 266.464 104.609 266.609 104.484C266.755 104.349 266.927 104.25 267.125 104.188C267.323 104.115 267.526 104.078 267.734 104.078C267.922 104.078 268.115 104.104 268.312 104.156C268.521 104.208 268.714 104.302 268.891 104.438C269.078 104.573 269.245 104.75 269.391 104.969C269.536 105.188 269.656 105.458 269.75 105.781C270.01 105.812 270.229 105.839 270.406 105.859C270.594 105.87 270.75 105.88 270.875 105.891C271 105.901 271.104 105.906 271.188 105.906C271.271 105.906 271.354 105.906 271.438 105.906H273.109C273.203 105.906 273.339 105.964 273.516 106.078C273.703 106.193 273.885 106.344 274.062 106.531C274.24 106.708 274.385 106.901 274.5 107.109C274.625 107.318 274.672 107.516 274.641 107.703C274.641 107.766 274.604 107.917 274.531 108.156C274.458 108.396 274.37 108.698 274.266 109.062C274.161 109.427 274.047 109.849 273.922 110.328C273.797 110.797 273.682 111.292 273.578 111.812C273.474 112.333 273.385 112.875 273.312 113.438C273.24 113.99 273.203 114.531 273.203 115.062C273.203 115.281 273.229 115.495 273.281 115.703C273.333 115.911 273.411 116.099 273.516 116.266C273.62 116.422 273.75 116.547 273.906 116.641C274.073 116.734 274.266 116.781 274.484 116.781C274.849 116.781 275.161 116.667 275.422 116.438C275.682 116.208 275.901 115.922 276.078 115.578C276.255 115.234 276.396 114.865 276.5 114.469C276.615 114.062 276.708 113.682 276.781 113.328C276.844 112.995 276.948 112.755 277.094 112.609C277.24 112.453 277.391 112.375 277.547 112.375C277.672 112.375 277.802 112.417 277.938 112.5C278.073 112.573 278.193 112.672 278.297 112.797C278.411 112.922 278.5 113.062 278.562 113.219C278.635 113.375 278.672 113.531 278.672 113.688C278.672 113.74 278.667 113.781 278.656 113.812C278.646 113.844 278.641 113.875 278.641 113.906C278.495 114.438 278.302 114.995 278.062 115.578C277.833 116.161 277.536 116.698 277.172 117.188C276.807 117.677 276.37 118.083 275.859 118.406C275.349 118.729 274.75 118.891 274.062 118.891ZM280.391 115.656C280.807 115.656 281.172 115.812 281.484 116.125C281.797 116.438 281.953 116.911 281.953 117.547C281.953 117.849 281.865 118.198 281.688 118.594C281.521 119 281.312 119.385 281.062 119.75C280.812 120.125 280.547 120.438 280.266 120.688C279.995 120.948 279.76 121.078 279.562 121.078C279.427 121.078 279.302 121.042 279.188 120.969C279.073 120.906 278.974 120.823 278.891 120.719C278.807 120.625 278.74 120.516 278.688 120.391C278.646 120.276 278.625 120.172 278.625 120.078C278.625 119.995 278.646 119.943 278.688 119.922C278.729 119.911 278.786 119.891 278.859 119.859C278.974 119.828 279.135 119.693 279.344 119.453C279.562 119.214 279.781 118.943 280 118.641C279.667 118.557 279.385 118.385 279.156 118.125C278.938 117.865 278.828 117.557 278.828 117.203C278.828 116.984 278.87 116.781 278.953 116.594C279.036 116.406 279.151 116.245 279.297 116.109C279.443 115.964 279.609 115.854 279.797 115.781C279.984 115.698 280.182 115.656 280.391 115.656ZM295.078 108.625V109.328C295.807 110.214 296.464 111.125 297.047 112.062C297.641 112.99 298.141 113.969 298.547 115C298.964 116.031 299.281 117.12 299.5 118.266C299.729 119.411 299.844 120.646 299.844 121.969C299.844 123.302 299.74 124.531 299.531 125.656C299.333 126.792 299.047 127.766 298.672 128.578C298.307 129.401 297.859 130.042 297.328 130.5C296.807 130.958 296.229 131.188 295.594 131.188C295.031 131.188 294.562 131.047 294.188 130.766C293.812 130.495 293.51 130.13 293.281 129.672C293.062 129.224 292.901 128.714 292.797 128.141C292.703 127.568 292.656 126.984 292.656 126.391V109.172C292.625 109.141 292.589 109.104 292.547 109.062C292.516 109.021 292.484 108.979 292.453 108.938C292.203 108.688 291.974 108.458 291.766 108.25C291.568 108.031 291.469 107.792 291.469 107.531C291.469 107.375 291.526 107.219 291.641 107.062C291.755 106.896 291.943 106.797 292.203 106.766C292.255 106.766 292.318 106.76 292.391 106.75C292.464 106.74 292.552 106.734 292.656 106.734V97.6406C292.656 97.4115 292.635 97.2292 292.594 97.0938C292.562 96.9583 292.526 96.8542 292.484 96.7812C292.453 96.6979 292.417 96.6354 292.375 96.5938C292.344 96.5417 292.328 96.4896 292.328 96.4375C292.328 96.375 292.359 96.3229 292.422 96.2812C292.484 96.2396 292.568 96.2031 292.672 96.1719C292.776 96.1406 292.885 96.1198 293 96.1094C293.125 96.0885 293.245 96.0781 293.359 96.0781C293.891 96.0781 294.307 96.2188 294.609 96.5C294.922 96.7708 295.078 97.099 295.078 97.4844V106.547C295.453 106.516 295.828 106.49 296.203 106.469C296.578 106.438 296.943 106.411 297.297 106.391C297.651 106.359 297.974 106.339 298.266 106.328C298.568 106.318 298.828 106.312 299.047 106.312C299.401 106.312 299.708 106.38 299.969 106.516C300.229 106.651 300.359 106.885 300.359 107.219C300.359 107.333 300.344 107.5 300.312 107.719C300.292 107.938 300.255 108.161 300.203 108.391C300.161 108.62 300.099 108.818 300.016 108.984C299.943 109.151 299.854 109.234 299.75 109.234C299.698 109.234 299.656 109.219 299.625 109.188C299.604 109.146 299.562 109.104 299.5 109.062C299.448 109.021 299.365 108.979 299.25 108.938C299.146 108.896 298.984 108.865 298.766 108.844L295.078 108.625ZM297.422 121.969C297.422 121.24 297.37 120.484 297.266 119.703C297.172 118.932 297.026 118.151 296.828 117.359C296.63 116.557 296.385 115.766 296.094 114.984C295.802 114.193 295.464 113.427 295.078 112.688V126.391C295.078 126.641 295.089 126.911 295.109 127.203C295.13 127.495 295.167 127.76 295.219 128C295.281 128.24 295.359 128.438 295.453 128.594C295.557 128.76 295.688 128.844 295.844 128.844C296.073 128.844 296.286 128.677 296.484 128.344C296.682 128.01 296.849 127.536 296.984 126.922C297.12 126.318 297.224 125.594 297.297 124.75C297.38 123.917 297.422 122.99 297.422 121.969ZM310.297 116.781C310.62 116.781 310.896 116.667 311.125 116.438C311.365 116.208 311.568 115.922 311.734 115.578C311.911 115.234 312.052 114.865 312.156 114.469C312.271 114.062 312.365 113.682 312.438 113.328C312.51 112.995 312.615 112.755 312.75 112.609C312.896 112.453 313.052 112.375 313.219 112.375C313.344 112.375 313.469 112.417 313.594 112.5C313.729 112.573 313.849 112.672 313.953 112.797C314.068 112.922 314.156 113.062 314.219 113.219C314.292 113.375 314.328 113.531 314.328 113.688C314.328 113.708 314.328 113.734 314.328 113.766C314.328 113.797 314.318 113.844 314.297 113.906C314.161 114.438 313.974 114.995 313.734 115.578C313.505 116.161 313.208 116.698 312.844 117.188C312.479 117.677 312.036 118.083 311.516 118.406C311.005 118.729 310.406 118.891 309.719 118.891C309.156 118.891 308.667 118.771 308.25 118.531C307.833 118.292 307.505 117.974 307.266 117.578C306.943 117.943 306.552 118.25 306.094 118.5C305.646 118.76 305.12 118.891 304.516 118.891C303.891 118.891 303.339 118.766 302.859 118.516C302.391 118.266 301.995 117.927 301.672 117.5C301.349 117.062 301.104 116.552 300.938 115.969C300.781 115.375 300.703 114.74 300.703 114.062C300.703 112.729 300.917 111.531 301.344 110.469C301.771 109.406 302.339 108.505 303.047 107.766C303.755 107.016 304.562 106.443 305.469 106.047C306.385 105.651 307.333 105.453 308.312 105.453C308.75 105.453 309.104 105.573 309.375 105.812C309.646 106.052 309.781 106.38 309.781 106.797C309.781 107.068 309.75 107.26 309.688 107.375C309.635 107.479 309.531 107.531 309.375 107.531C309.229 107.531 309.078 107.521 308.922 107.5C308.766 107.479 308.604 107.469 308.438 107.469C307.833 107.469 307.219 107.604 306.594 107.875C305.969 108.135 305.401 108.542 304.891 109.094C304.391 109.635 303.979 110.328 303.656 111.172C303.333 112.005 303.172 113 303.172 114.156C303.172 115 303.333 115.651 303.656 116.109C303.979 116.557 304.422 116.781 304.984 116.781C305.422 116.781 305.786 116.62 306.078 116.297C306.37 115.964 306.604 115.573 306.781 115.125V110.188C306.781 110.031 306.771 109.901 306.75 109.797C306.74 109.693 306.724 109.604 306.703 109.531C306.693 109.458 306.682 109.396 306.672 109.344C306.661 109.281 306.656 109.224 306.656 109.172C306.656 109.005 306.734 108.875 306.891 108.781C307.057 108.677 307.255 108.625 307.484 108.625C308.016 108.625 308.438 108.766 308.75 109.047C309.062 109.318 309.219 109.646 309.219 110.031V115.312C309.219 115.49 309.24 115.667 309.281 115.844C309.323 116.01 309.385 116.167 309.469 116.312C309.552 116.448 309.661 116.562 309.797 116.656C309.943 116.74 310.109 116.781 310.297 116.781ZM314.406 113.609C314.323 113.943 314.167 114.151 313.938 114.234C313.708 114.307 313.479 114.297 313.25 114.203C313.031 114.109 312.844 113.948 312.688 113.719C312.542 113.49 312.5 113.24 312.562 112.969C312.719 112.26 312.943 111.479 313.234 110.625C313.536 109.76 313.833 108.901 314.125 108.047C313.969 107.807 313.844 107.568 313.75 107.328C313.656 107.078 313.609 106.818 313.609 106.547C313.609 106.276 313.708 105.995 313.906 105.703C314.115 105.401 314.359 105.125 314.641 104.875C314.932 104.625 315.229 104.422 315.531 104.266C315.844 104.099 316.109 104.016 316.328 104.016C316.714 104.016 317 104.146 317.188 104.406C317.385 104.667 317.484 105.016 317.484 105.453C317.484 105.693 317.443 105.932 317.359 106.172C317.286 106.401 317.203 106.62 317.109 106.828C317.016 107.026 316.927 107.198 316.844 107.344C316.771 107.49 316.729 107.583 316.719 107.625C317.094 108.292 317.484 108.88 317.891 109.391C318.297 109.901 318.667 110.406 319 110.906C319.344 111.406 319.625 111.938 319.844 112.5C320.062 113.062 320.172 113.724 320.172 114.484C320.172 114.672 320.156 114.865 320.125 115.062C320.104 115.26 320.068 115.448 320.016 115.625C320.391 115.552 320.719 115.438 321 115.281C321.292 115.125 321.542 114.948 321.75 114.75C321.969 114.542 322.146 114.318 322.281 114.078C322.427 113.839 322.547 113.589 322.641 113.328C322.755 113.026 322.87 112.807 322.984 112.672C323.099 112.536 323.229 112.469 323.375 112.469C323.51 112.469 323.646 112.516 323.781 112.609C323.927 112.693 324.052 112.802 324.156 112.938C324.271 113.073 324.359 113.214 324.422 113.359C324.495 113.505 324.531 113.635 324.531 113.75C324.531 113.906 324.49 114.094 324.406 114.312C324.323 114.531 324.208 114.755 324.062 114.984C323.927 115.214 323.771 115.438 323.594 115.656C323.417 115.865 323.234 116.047 323.047 116.203C322.547 116.609 321.958 116.953 321.281 117.234C320.604 117.505 319.766 117.677 318.766 117.75C318.38 118.083 317.922 118.354 317.391 118.562C316.87 118.781 316.281 118.891 315.625 118.891C315.292 118.891 314.948 118.849 314.594 118.766C314.25 118.682 313.917 118.573 313.594 118.438C313.281 118.312 312.995 118.172 312.734 118.016C312.474 117.859 312.266 117.703 312.109 117.547C311.714 117.172 311.458 116.797 311.344 116.422C311.229 116.036 311.203 115.693 311.266 115.391C311.318 115.089 311.427 114.844 311.594 114.656C311.76 114.458 311.932 114.359 312.109 114.359C312.214 114.359 312.375 114.406 312.594 114.5C312.823 114.583 313.083 114.698 313.375 114.844C313.667 114.979 313.984 115.125 314.328 115.281C314.672 115.438 315.016 115.589 315.359 115.734C315.703 115.87 316.036 115.984 316.359 116.078C316.693 116.161 316.995 116.203 317.266 116.203C317.443 115.995 317.604 115.719 317.75 115.375C317.896 115.031 317.969 114.656 317.969 114.25C317.969 113.75 317.901 113.286 317.766 112.859C317.63 112.432 317.453 112.036 317.234 111.672C317.016 111.307 316.766 110.969 316.484 110.656C316.214 110.333 315.938 110.031 315.656 109.75C315.406 110.365 315.188 110.974 315 111.578C314.812 112.172 314.615 112.849 314.406 113.609ZM319.922 102.953C320.161 102.974 320.427 102.99 320.719 103C320.969 103.021 321.271 103.036 321.625 103.047C321.979 103.047 322.375 103.052 322.812 103.062V97.6406C322.812 97.4115 322.792 97.2292 322.75 97.0938C322.719 96.9583 322.682 96.8542 322.641 96.7812C322.609 96.6979 322.573 96.6354 322.531 96.5938C322.5 96.5417 322.484 96.4896 322.484 96.4375C322.484 96.375 322.516 96.3229 322.578 96.2812C322.641 96.2396 322.724 96.2031 322.828 96.1719C322.932 96.1406 323.042 96.1198 323.156 96.1094C323.281 96.0885 323.401 96.0781 323.516 96.0781C324.047 96.0781 324.464 96.2188 324.766 96.5C325.078 96.7708 325.234 97.099 325.234 97.4844V103.094C326.214 103.094 327.245 103.083 328.328 103.062C329.422 103.042 330.516 103.005 331.609 102.953C331.755 102.797 331.87 102.74 331.953 102.781C332.047 102.823 332.104 102.922 332.125 103.078C332.156 103.234 332.161 103.427 332.141 103.656C332.12 103.885 332.078 104.109 332.016 104.328C331.953 104.536 331.865 104.719 331.75 104.875C331.646 105.031 331.526 105.109 331.391 105.109C330.109 105.141 328.974 105.161 327.984 105.172C327.005 105.172 326.089 105.172 325.234 105.172V115.312C325.234 115.833 325.333 116.208 325.531 116.438C325.729 116.667 325.995 116.781 326.328 116.781C326.651 116.781 326.927 116.667 327.156 116.438C327.396 116.208 327.599 115.922 327.766 115.578C327.943 115.234 328.083 114.865 328.188 114.469C328.302 114.062 328.396 113.682 328.469 113.328C328.531 112.995 328.635 112.755 328.781 112.609C328.927 112.453 329.078 112.375 329.234 112.375C329.359 112.375 329.49 112.417 329.625 112.5C329.76 112.573 329.88 112.672 329.984 112.797C330.099 112.922 330.188 113.062 330.25 113.219C330.323 113.375 330.359 113.531 330.359 113.688C330.359 113.708 330.359 113.734 330.359 113.766C330.359 113.797 330.349 113.844 330.328 113.906C330.193 114.438 330.005 114.995 329.766 115.578C329.536 116.161 329.234 116.698 328.859 117.188C328.495 117.677 328.057 118.083 327.547 118.406C327.036 118.729 326.438 118.891 325.75 118.891C325.323 118.891 324.927 118.823 324.562 118.688C324.208 118.562 323.901 118.354 323.641 118.062C323.38 117.781 323.177 117.417 323.031 116.969C322.885 116.521 322.812 115.979 322.812 115.344V105.172C322.458 105.172 322.141 105.172 321.859 105.172C321.589 105.161 321.359 105.151 321.172 105.141C320.953 105.13 320.76 105.12 320.594 105.109C320.344 105.109 320.125 105 319.938 104.781C319.74 104.552 319.604 104.302 319.531 104.031C319.448 103.76 319.438 103.516 319.5 103.297C319.552 103.068 319.693 102.953 319.922 102.953ZM335.984 108.688C335.984 109.281 335.88 109.891 335.672 110.516C335.474 111.141 335.172 111.734 334.766 112.297C334.37 112.849 333.875 113.349 333.281 113.797C332.698 114.234 332.021 114.568 331.25 114.797C331.354 115.068 331.49 115.328 331.656 115.578C331.833 115.818 332.042 116.026 332.281 116.203C332.521 116.38 332.797 116.521 333.109 116.625C333.432 116.729 333.802 116.781 334.219 116.781C334.844 116.781 335.38 116.667 335.828 116.438C336.276 116.198 336.651 115.885 336.953 115.5C337.266 115.115 337.516 114.682 337.703 114.203C337.891 113.724 338.031 113.24 338.125 112.75C338.198 112.396 338.344 112.161 338.562 112.047C338.792 111.922 339.021 111.891 339.25 111.953C339.49 112.016 339.693 112.151 339.859 112.359C340.036 112.557 340.109 112.797 340.078 113.078C340.036 113.401 339.964 113.771 339.859 114.188C339.766 114.604 339.62 115.026 339.422 115.453C339.224 115.88 338.969 116.302 338.656 116.719C338.354 117.125 337.979 117.49 337.531 117.812C337.083 118.135 336.557 118.396 335.953 118.594C335.349 118.792 334.656 118.891 333.875 118.891C333.146 118.891 332.438 118.745 331.75 118.453C331.073 118.172 330.469 117.766 329.938 117.234C329.417 116.693 328.995 116.031 328.672 115.25C328.359 114.458 328.203 113.562 328.203 112.562C328.203 111.552 328.344 110.615 328.625 109.75C328.906 108.875 329.276 108.12 329.734 107.484C330.193 106.849 330.714 106.354 331.297 106C331.88 105.635 332.479 105.453 333.094 105.453C333.542 105.453 333.943 105.531 334.297 105.688C334.661 105.844 334.969 106.068 335.219 106.359C335.469 106.641 335.656 106.979 335.781 107.375C335.917 107.771 335.984 108.208 335.984 108.688ZM330.828 112.469C330.828 112.562 330.833 112.656 330.844 112.75C330.854 112.844 330.859 112.943 330.859 113.047C331.255 112.859 331.615 112.62 331.938 112.328C332.26 112.036 332.536 111.703 332.766 111.328C332.995 110.953 333.172 110.547 333.297 110.109C333.422 109.661 333.484 109.198 333.484 108.719C333.484 108.365 333.422 108.089 333.297 107.891C333.182 107.693 333.021 107.594 332.812 107.594C332.552 107.594 332.318 107.682 332.109 107.859C331.911 108.036 331.734 108.271 331.578 108.562C331.432 108.844 331.307 109.167 331.203 109.531C331.109 109.885 331.031 110.245 330.969 110.609C330.906 110.974 330.865 111.323 330.844 111.656C330.823 111.979 330.818 112.25 330.828 112.469ZM345.094 118.891C344.719 118.891 344.333 118.833 343.938 118.719C343.552 118.604 343.198 118.406 342.875 118.125C342.562 117.844 342.302 117.474 342.094 117.016C341.896 116.547 341.797 115.958 341.797 115.25C341.797 114.219 341.932 113.13 342.203 111.984C342.484 110.828 342.885 109.557 343.406 108.172H340.969H340.609C340.599 108.484 340.578 108.88 340.547 109.359C340.526 109.839 340.484 110.349 340.422 110.891C340.359 111.432 340.276 111.979 340.172 112.531C340.078 113.083 339.958 113.594 339.812 114.062C339.708 114.396 339.542 114.589 339.312 114.641C339.094 114.693 338.875 114.656 338.656 114.531C338.438 114.396 338.26 114.203 338.125 113.953C337.99 113.703 337.958 113.443 338.031 113.172C338.115 112.849 338.188 112.458 338.25 112C338.312 111.531 338.359 111.042 338.391 110.531C338.432 110.01 338.464 109.495 338.484 108.984C338.505 108.464 338.521 108 338.531 107.594C338.135 107.375 337.807 107.099 337.547 106.766C337.286 106.422 337.156 106.016 337.156 105.547C337.156 105.328 337.198 105.13 337.281 104.953C337.375 104.766 337.495 104.609 337.641 104.484C337.786 104.349 337.958 104.25 338.156 104.188C338.354 104.115 338.557 104.078 338.766 104.078C338.953 104.078 339.146 104.104 339.344 104.156C339.552 104.208 339.745 104.302 339.922 104.438C340.109 104.573 340.276 104.75 340.422 104.969C340.568 105.188 340.688 105.458 340.781 105.781C341.042 105.812 341.26 105.839 341.438 105.859C341.625 105.87 341.781 105.88 341.906 105.891C342.031 105.901 342.135 105.906 342.219 105.906C342.302 105.906 342.385 105.906 342.469 105.906H344.141C344.234 105.906 344.37 105.964 344.547 106.078C344.734 106.193 344.917 106.344 345.094 106.531C345.271 106.708 345.417 106.901 345.531 107.109C345.656 107.318 345.703 107.516 345.672 107.703C345.672 107.766 345.635 107.917 345.562 108.156C345.49 108.396 345.401 108.698 345.297 109.062C345.193 109.427 345.078 109.849 344.953 110.328C344.828 110.797 344.714 111.292 344.609 111.812C344.505 112.333 344.417 112.875 344.344 113.438C344.271 113.99 344.234 114.531 344.234 115.062C344.234 115.281 344.26 115.495 344.312 115.703C344.365 115.911 344.443 116.099 344.547 116.266C344.651 116.422 344.781 116.547 344.938 116.641C345.104 116.734 345.297 116.781 345.516 116.781C345.88 116.781 346.193 116.667 346.453 116.438C346.714 116.208 346.932 115.922 347.109 115.578C347.286 115.234 347.427 114.865 347.531 114.469C347.646 114.062 347.74 113.682 347.812 113.328C347.875 112.995 347.979 112.755 348.125 112.609C348.271 112.453 348.422 112.375 348.578 112.375C348.703 112.375 348.833 112.417 348.969 112.5C349.104 112.573 349.224 112.672 349.328 112.797C349.443 112.922 349.531 113.062 349.594 113.219C349.667 113.375 349.703 113.531 349.703 113.688C349.703 113.74 349.698 113.781 349.688 113.812C349.677 113.844 349.672 113.875 349.672 113.906C349.526 114.438 349.333 114.995 349.094 115.578C348.865 116.161 348.568 116.698 348.203 117.188C347.839 117.677 347.401 118.083 346.891 118.406C346.38 118.729 345.781 118.891 345.094 118.891Z" fill="black"/>
<path d="M29.271 87.6996C29.2042 88.5856 28.9575 89.4468 28.5456 90.2317C26.5751 94.3391 20.3176 97.9464 17.6543 99.34C17.5115 99.4174 17.3517 99.4596 17.1881 99.4632C17.0245 99.4667 16.8619 99.4315 16.7138 99.3605C16.5657 99.2894 16.4365 99.1846 16.3369 99.0548C16.2373 98.9249 16.1702 98.7738 16.1412 98.6141C15.5615 95.6646 14.4592 88.5265 16.4412 84.4246C16.7957 83.6121 17.313 82.8807 17.9622 82.2742C18.6115 81.6677 19.3794 81.1984 20.2201 80.8943C21.0608 80.5903 21.9571 80.4577 22.8555 80.5045C23.754 80.5513 24.6361 80.7764 25.4494 81.1666C26.2627 81.5568 26.9904 82.1039 27.5891 82.7754C28.1879 83.447 28.6453 84.229 28.9343 85.075C29.2233 85.921 29.3378 86.8137 29.271 87.6996Z" fill="black"/>
<path d="M51.6391 26.5769C39.9283 20.9585 28.1281 21.2334 25.2698 27.1911L12.3366 54.149C9.47841 60.1067 16.6751 69.4955 28.3594 75.1011C40.0437 80.7067 51.8704 80.4445 54.7287 74.4868L67.6619 47.5289C70.5201 41.5712 63.3499 32.1952 51.6391 26.5769ZM49.4297 71.9446C48.783 73.2925 41.1996 74.6287 30.946 69.7095C20.6925 64.7903 16.989 58.0391 17.6356 56.6912L20.5197 50.6796C23.7767 54.8288 28.7851 58.724 34.826 61.6221C40.8668 64.5203 47.0393 65.9892 52.3138 65.933L49.4297 71.9446ZM55.3143 59.6788C50.6413 60.5873 43.8244 59.3066 37.4126 56.2306C31.0008 53.1545 25.7359 48.6389 23.5202 44.4254L27.1545 36.8502C29.9758 40.9563 34.9603 45.1052 41.2926 48.1432C47.6249 51.1811 53.9803 52.4726 58.9485 52.1036L55.3143 59.6788ZM43.8792 42.7516C33.6256 37.8324 29.9222 31.0812 30.5688 29.7334C31.2155 28.3855 38.7989 27.0492 49.0525 31.9684C59.3061 36.8876 63.0095 43.6388 62.3629 44.9867C61.7162 46.3346 54.1328 47.6708 43.8792 42.7516Z" fill="black"/>
</svg>
