<svg width="285" height="109" viewBox="0 0 285 109" xmlns="http://www.w3.org/2000/svg">
<path d="M17.5607 81.163C17.4939 82.049 17.2472 82.9102 16.8354 83.6952C14.8648 87.8025 8.60734 91.4098 5.94399 92.8034C5.80126 92.8808 5.64142 92.923 5.47783 92.9266C5.31423 92.9301 5.1516 92.8949 5.00353 92.8239C4.85546 92.7528 4.72624 92.648 4.62663 92.5182C4.52702 92.3883 4.45992 92.2373 4.43093 92.0775C3.8512 89.128 2.74893 81.9899 4.73089 77.888C5.0854 77.0755 5.60272 76.3441 6.25197 75.7376C6.90122 75.1311 7.66909 74.6618 8.5098 74.3577C9.35051 74.0537 10.2468 73.9211 11.1453 73.9679C12.0437 74.0147 12.9259 74.2398 13.7391 74.63C14.5524 75.0202 15.2801 75.5673 15.8789 76.2389C16.4776 76.9104 16.9351 77.6924 17.224 78.5384C17.513 79.3844 17.6275 80.2771 17.5607 81.163Z" />
<path d="M39.9289 20.0403C28.2181 14.422 16.4178 14.6968 13.5596 20.6545L0.626377 47.6124C-2.23186 53.5701 4.96482 62.9589 16.6491 68.5645C28.3334 74.1701 40.1602 73.9079 43.0184 67.9502L55.9516 40.9923C58.8098 35.0346 51.6397 25.6586 39.9289 20.0403ZM37.7194 65.408C37.0728 66.7559 29.4893 68.0921 19.2358 63.1729C8.98218 58.2537 5.27872 51.5026 5.92538 50.1547L8.80948 44.143C12.0664 48.2923 17.0748 52.1874 23.1157 55.0855C29.1566 57.9837 35.329 59.4526 40.6035 59.3964L37.7194 65.408ZM43.604 53.1422C38.931 54.0507 32.1141 52.7701 25.7024 49.694C19.2906 46.6179 14.0257 42.1023 11.81 37.8888L15.4442 30.3136C18.2655 34.4197 23.25 38.5686 29.5823 41.6066C35.9146 44.6446 42.27 45.936 47.2382 45.567L43.604 53.1422ZM32.1689 36.215C21.9154 31.2958 18.2119 24.5447 18.8586 23.1968C19.5052 21.8489 27.0886 20.5127 37.3422 25.4319C47.5958 30.3511 51.2993 37.1022 50.6526 38.4501C50.0059 39.798 42.4225 41.1342 32.1689 36.215Z" />
<path d="M78.3438 65.0234C78.1354 65.8568 77.7448 66.3776 77.1719 66.5859C76.599 66.7682 76.026 66.7422 75.4531 66.5078C74.9062 66.2734 74.4375 65.8698 74.0469 65.2969C73.6823 64.724 73.5781 64.099 73.7344 63.4219C74.125 61.651 74.6849 59.6979 75.4141 57.5625C76.1693 55.401 76.9115 53.2526 77.6406 51.1172C77.25 50.5182 76.9375 49.9193 76.7031 49.3203C76.4688 48.6953 76.3516 48.0443 76.3516 47.3672C76.3516 46.6901 76.599 45.987 77.0938 45.2578C77.6146 44.5026 78.2266 43.8125 78.9297 43.1875C79.6589 42.5625 80.401 42.0547 81.1562 41.6641C81.9375 41.2474 82.6016 41.0391 83.1484 41.0391C84.112 41.0391 84.8281 41.3646 85.2969 42.0156C85.7917 42.6667 86.0391 43.5391 86.0391 44.6328C86.0391 45.2318 85.9349 45.8307 85.7266 46.4297C85.5443 47.0026 85.3359 47.5495 85.1016 48.0703C84.8672 48.5651 84.6458 48.9948 84.4375 49.3594C84.2552 49.724 84.151 49.9583 84.125 50.0625C85.0625 51.7292 86.0391 53.2005 87.0547 54.4766C88.0703 55.7526 88.9948 57.0156 89.8281 58.2656C90.6875 59.5156 91.3906 60.8438 91.9375 62.25C92.4844 63.6562 92.7578 65.3099 92.7578 67.2109C92.7578 67.6797 92.7188 68.1615 92.6406 68.6562C92.5885 69.151 92.4974 69.6198 92.3672 70.0625C93.3047 69.8802 94.125 69.5938 94.8281 69.2031C95.5573 68.8125 96.1823 68.3698 96.7031 67.875C97.25 67.3542 97.6927 66.7943 98.0312 66.1953C98.3958 65.5964 98.6953 64.9714 98.9297 64.3203C99.2161 63.5651 99.5026 63.0182 99.7891 62.6797C100.076 62.3411 100.401 62.1719 100.766 62.1719C101.104 62.1719 101.443 62.2891 101.781 62.5234C102.146 62.7318 102.458 63.0052 102.719 63.3438C103.005 63.6823 103.227 64.0339 103.383 64.3984C103.565 64.763 103.656 65.0885 103.656 65.375C103.656 65.7656 103.552 66.2344 103.344 66.7812C103.135 67.3281 102.849 67.888 102.484 68.4609C102.146 69.0339 101.755 69.5938 101.312 70.1406C100.87 70.6615 100.414 71.1172 99.9453 71.5078C98.6953 72.5234 97.224 73.3828 95.5312 74.0859C93.8385 74.763 91.7422 75.1927 89.2422 75.375C88.2786 76.2083 87.1328 76.8854 85.8047 77.4062C84.5026 77.9531 83.0312 78.2266 81.3906 78.2266C80.5573 78.2266 79.6979 78.1224 78.8125 77.9141C77.9531 77.7057 77.1198 77.4323 76.3125 77.0938C75.5312 76.7812 74.8151 76.4297 74.1641 76.0391C73.513 75.6484 72.9922 75.2578 72.6016 74.8672C71.612 73.9297 70.974 72.9922 70.6875 72.0547C70.401 71.0911 70.3359 70.2318 70.4922 69.4766C70.6224 68.7214 70.8958 68.1094 71.3125 67.6406C71.7292 67.1458 72.1589 66.8984 72.6016 66.8984C72.862 66.8984 73.2656 67.0156 73.8125 67.25C74.3854 67.4583 75.0365 67.7448 75.7656 68.1094C76.4948 68.4479 77.2891 68.8125 78.1484 69.2031C79.0078 69.5938 79.8672 69.9714 80.7266 70.3359C81.5859 70.6745 82.4193 70.9609 83.2266 71.1953C84.0599 71.4036 84.8151 71.5078 85.4922 71.5078C85.9349 70.987 86.3385 70.2969 86.7031 69.4375C87.0677 68.5781 87.25 67.6406 87.25 66.625C87.25 65.375 87.0807 64.2161 86.7422 63.1484C86.4036 62.0807 85.9609 61.0911 85.4141 60.1797C84.8672 59.2682 84.2422 58.4219 83.5391 57.6406C82.862 56.8333 82.1719 56.0781 81.4688 55.375C80.8438 56.9115 80.2969 58.4349 79.8281 59.9453C79.3594 61.4297 78.8646 63.1224 78.3438 65.0234ZM107.523 78.2266C105.961 78.2266 104.581 77.9141 103.383 77.2891C102.211 76.6641 101.221 75.8177 100.414 74.75C99.6068 73.6562 98.9948 72.3802 98.5781 70.9219C98.1875 69.4375 97.9922 67.849 97.9922 66.1562C97.9922 62.8229 98.526 59.8281 99.5938 57.1719C100.661 54.5156 102.081 52.263 103.852 50.4141C105.622 48.5391 107.641 47.1068 109.906 46.1172C112.198 45.1276 114.568 44.6328 117.016 44.6328C118.109 44.6328 118.995 44.9323 119.672 45.5312C120.349 46.1302 120.688 46.9505 120.688 47.9922C120.688 48.6693 120.609 49.151 120.453 49.4375C120.323 49.6979 120.062 49.8281 119.672 49.8281C119.307 49.8281 118.93 49.8021 118.539 49.75C118.148 49.6979 117.745 49.6719 117.328 49.6719C115.818 49.6719 114.281 50.0104 112.719 50.6875C111.156 51.3385 109.737 52.3542 108.461 53.7344C107.211 55.0885 106.182 56.8203 105.375 58.9297C104.568 61.013 104.164 63.5 104.164 66.3906C104.164 68.5 104.568 70.1276 105.375 71.2734C106.182 72.3932 107.289 72.9531 108.695 72.9531C109.503 72.9531 110.206 72.7188 110.805 72.25C111.404 71.7812 111.924 71.1823 112.367 70.4531C112.81 69.724 113.161 68.9297 113.422 68.0703C113.708 67.1849 113.93 66.3385 114.086 65.5312V56.4688C114.086 56.0781 114.06 55.7526 114.008 55.4922C113.982 55.2318 113.943 55.0104 113.891 54.8281C113.865 54.6458 113.826 54.4896 113.773 54.3594C113.747 54.2031 113.734 54.0599 113.734 53.9297C113.734 53.513 113.943 53.1875 114.359 52.9531C114.776 52.6927 115.271 52.5625 115.844 52.5625C117.172 52.5625 118.214 52.9141 118.969 53.6172C119.75 54.2943 120.141 55.1146 120.141 56.0781V78.1484C121.781 76.4557 123.305 74.5026 124.711 72.2891C126.143 70.0755 127.315 67.4193 128.227 64.3203C128.461 63.487 128.734 62.888 129.047 62.5234C129.385 62.1328 129.75 61.9375 130.141 61.9375C130.453 61.9375 130.779 62.0417 131.117 62.25C131.456 62.4323 131.755 62.6797 132.016 62.9922C132.302 63.3047 132.523 63.6562 132.68 64.0469C132.862 64.4375 132.953 64.8281 132.953 65.2188C132.953 65.2708 132.953 65.375 132.953 65.5312C132.953 65.6875 132.927 65.8438 132.875 66C132.25 68.1094 131.534 70.0104 130.727 71.7031C129.919 73.3698 129.047 74.8802 128.109 76.2344C127.198 77.5885 126.234 78.7995 125.219 79.8672C124.229 80.9349 123.227 81.9115 122.211 82.7969C123.409 84.125 124.49 85.401 125.453 86.625C126.417 87.875 127.224 89.125 127.875 90.375C128.552 91.625 129.073 92.901 129.438 94.2031C129.802 95.5052 129.984 96.8724 129.984 98.3047C129.984 99.8932 129.763 101.339 129.32 102.641C128.904 103.943 128.331 105.062 127.602 106C126.898 106.938 126.065 107.667 125.102 108.188C124.138 108.708 123.122 108.969 122.055 108.969C119.346 108.969 117.341 108.018 116.039 106.117C114.737 104.242 114.086 101.664 114.086 98.3828V75.2969C113.279 76.1302 112.341 76.8203 111.273 77.3672C110.206 77.9401 108.956 78.2266 107.523 78.2266ZM124.32 99.2031C124.32 98.2396 124.255 97.276 124.125 96.3125C124.021 95.349 123.812 94.3854 123.5 93.4219C123.188 92.4583 122.758 91.4688 122.211 90.4531C121.664 89.4375 120.974 88.3828 120.141 87.2891V99.125C120.141 100.062 120.206 100.831 120.336 101.43C120.492 102.029 120.674 102.484 120.883 102.797C121.091 103.135 121.312 103.37 121.547 103.5C121.781 103.63 122.003 103.695 122.211 103.695C122.732 103.695 123.214 103.331 123.656 102.602C124.099 101.898 124.32 100.766 124.32 99.2031ZM134.633 52.3281C134.919 51.7812 135.193 51.0521 135.453 50.1406C135.74 49.2031 136 48.1745 136.234 47.0547C136.495 45.9349 136.729 44.763 136.938 43.5391C137.146 42.3151 137.328 41.1172 137.484 39.9453C137.641 38.7734 137.758 37.6797 137.836 36.6641C137.94 35.6224 137.992 34.737 137.992 34.0078C137.992 31.3516 137.797 29.4115 137.406 28.1875C137.016 26.9375 136.495 26.3125 135.844 26.3125C135.635 26.3125 135.453 26.4167 135.297 26.625C135.141 26.8333 135.01 27.1068 134.906 27.4453C134.802 27.7578 134.724 28.1094 134.672 28.5C134.646 28.8646 134.633 29.2031 134.633 29.5156V52.3281ZM146 64.3984C146.156 63.6172 146.391 63.0573 146.703 62.7188C147.042 62.3542 147.393 62.1589 147.758 62.1328C148.148 62.0807 148.539 62.1719 148.93 62.4062C149.32 62.6146 149.659 62.901 149.945 63.2656C150.232 63.6302 150.44 64.0469 150.57 64.5156C150.727 64.9583 150.753 65.401 150.648 65.8438C150.284 66.9115 149.763 68.1615 149.086 69.5938C148.409 71.026 147.549 72.3802 146.508 73.6562C145.466 74.9323 144.242 76.013 142.836 76.8984C141.43 77.7839 139.815 78.2266 137.992 78.2266C136.456 78.2266 135.102 77.9661 133.93 77.4453C132.758 76.9505 131.768 76.2474 130.961 75.3359C130.18 74.3984 129.581 73.2917 129.164 72.0156C128.773 70.7135 128.578 69.2682 128.578 67.6797V31.2734C128.578 29.7891 128.76 28.4219 129.125 27.1719C129.516 25.8958 130.036 24.8151 130.688 23.9297C131.365 23.0182 132.146 22.3151 133.031 21.8203C133.917 21.2995 134.854 21.0391 135.844 21.0391C137.016 21.0391 138.005 21.2604 138.812 21.7031C139.62 22.1198 140.284 22.6797 140.805 23.3828C141.326 24.0859 141.729 24.8932 142.016 25.8047C142.328 26.7161 142.549 27.6536 142.68 28.6172C142.81 29.5547 142.888 30.4922 142.914 31.4297C142.94 32.3411 142.953 33.1745 142.953 33.9297C142.953 35.8828 142.771 37.9401 142.406 40.1016C142.042 42.237 141.573 44.3464 141 46.4297C140.453 48.513 139.841 50.5182 139.164 52.4453C138.513 54.3464 137.875 56.0391 137.25 57.5234C136.651 59.0078 136.104 60.2188 135.609 61.1562C135.141 62.0938 134.815 62.6406 134.633 62.7969V67.4453C134.633 69.0599 134.971 70.388 135.648 71.4297C136.326 72.4453 137.406 72.9531 138.891 72.9531C139.802 72.9531 140.648 72.6797 141.43 72.1328C142.237 71.5599 142.94 70.8568 143.539 70.0234C144.164 69.1641 144.685 68.2396 145.102 67.25C145.518 66.2344 145.818 65.2839 146 64.3984ZM150.453 37.5234C149.802 37.5234 149.177 37.3932 148.578 37.1328C148.005 36.8724 147.497 36.5208 147.055 36.0781C146.638 35.6354 146.299 35.1276 146.039 34.5547C145.779 33.9557 145.648 33.3177 145.648 32.6406C145.648 31.9375 145.779 31.2865 146.039 30.6875C146.299 30.0885 146.638 29.5807 147.055 29.1641C147.497 28.7214 148.005 28.3828 148.578 28.1484C149.177 27.888 149.802 27.7578 150.453 27.7578C151.156 27.7578 151.807 27.888 152.406 28.1484C153.005 28.3828 153.513 28.7214 153.93 29.1641C154.372 29.5807 154.711 30.0885 154.945 30.6875C155.206 31.2865 155.336 31.9375 155.336 32.6406C155.336 33.3177 155.206 33.9557 154.945 34.5547C154.711 35.1276 154.372 35.6354 153.93 36.0781C153.513 36.5208 153.005 36.8724 152.406 37.1328C151.807 37.3932 151.156 37.5234 150.453 37.5234ZM152.289 69.2812C152.289 69.4635 152.302 69.763 152.328 70.1797C152.354 70.5703 152.432 70.974 152.562 71.3906C152.693 71.8073 152.901 72.1719 153.188 72.4844C153.474 72.7969 153.878 72.9531 154.398 72.9531C155.18 72.9531 155.857 72.6667 156.43 72.0938C157.029 71.5208 157.536 70.8047 157.953 69.9453C158.396 69.0859 158.76 68.1615 159.047 67.1719C159.333 66.1562 159.568 65.2057 159.75 64.3203C159.906 63.513 160.141 62.9271 160.453 62.5625C160.792 62.1979 161.143 62.0026 161.508 61.9766C161.898 61.9245 162.276 62.0156 162.641 62.25C163.031 62.4844 163.37 62.7969 163.656 63.1875C163.969 63.5521 164.19 63.9688 164.32 64.4375C164.477 64.9062 164.503 65.349 164.398 65.7656C164.034 67.0938 163.552 68.487 162.953 69.9453C162.38 71.4036 161.638 72.7448 160.727 73.9688C159.815 75.1927 158.721 76.2083 157.445 77.0156C156.169 77.8229 154.672 78.2266 152.953 78.2266C151.885 78.2266 150.935 78.0182 150.102 77.6016C149.268 77.2109 148.565 76.6771 147.992 76C147.419 75.3229 146.977 74.5286 146.664 73.6172C146.378 72.7057 146.234 71.7422 146.234 70.7266V49.3594C146.234 48.6042 146.169 48.0573 146.039 47.7188C145.935 47.3802 145.883 47.0677 145.883 46.7812C145.883 46.3906 146.091 46.0781 146.508 45.8438C146.924 45.5833 147.419 45.4531 147.992 45.4531C149.32 45.4531 150.362 45.8047 151.117 46.5078C151.898 47.1849 152.289 48.0052 152.289 48.9688V69.2812ZM164.867 99.75C164.867 97.7188 165.128 95.9219 165.648 94.3594C166.195 92.7969 166.924 91.3646 167.836 90.0625C168.747 88.7604 169.802 87.5365 171 86.3906C172.198 85.2708 173.461 84.125 174.789 82.9531V74.5547C173.982 75.362 173.031 76.0391 171.938 76.5859C170.87 77.1589 169.633 77.4453 168.227 77.4453C166.664 77.4453 165.284 77.1328 164.086 76.5078C162.914 75.8828 161.924 75.0365 161.117 73.9688C160.31 72.875 159.698 71.599 159.281 70.1406C158.891 68.6562 158.695 67.0677 158.695 65.375C158.695 62.0417 159.229 59.0469 160.297 56.3906C161.365 53.7344 162.784 51.4818 164.555 49.6328C166.326 47.7578 168.344 46.3255 170.609 45.3359C172.901 44.3464 175.271 43.8516 177.719 43.8516C178.812 43.8516 179.698 44.151 180.375 44.75C181.052 45.3229 181.391 46.1432 181.391 47.2109C181.391 47.888 181.312 48.3698 181.156 48.6562C181.026 48.9167 180.766 49.0469 180.375 49.0469C180.01 49.0469 179.633 49.0208 179.242 48.9688C178.852 48.9167 178.448 48.8906 178.031 48.8906C176.521 48.8906 174.984 49.2292 173.422 49.9062C171.859 50.5573 170.44 51.5729 169.164 52.9531C167.914 54.3073 166.885 56.0391 166.078 58.1484C165.271 60.2318 164.867 62.7188 164.867 65.6094C164.867 67.6927 165.271 69.3073 166.078 70.4531C166.885 71.599 167.992 72.1719 169.398 72.1719C170.206 72.1719 170.909 71.9375 171.508 71.4688C172.107 70.974 172.628 70.362 173.07 69.6328C173.513 68.9036 173.865 68.1094 174.125 67.25C174.411 66.3646 174.633 65.5182 174.789 64.7109V55.6875C174.789 54.9323 174.724 54.3854 174.594 54.0469C174.49 53.7083 174.438 53.3958 174.438 53.1094C174.438 52.7188 174.646 52.3932 175.062 52.1328C175.479 51.8724 175.974 51.7422 176.547 51.7422C177.875 51.7422 178.917 52.0938 179.672 52.7969C180.453 53.474 180.844 54.3073 180.844 55.2969V77.0547C182.302 75.4401 183.63 73.6042 184.828 71.5469C186.052 69.4896 187.068 67.0807 187.875 64.3203C188.135 63.487 188.422 62.888 188.734 62.5234C189.047 62.1328 189.411 61.9375 189.828 61.9375C190.141 61.9375 190.453 62.0417 190.766 62.25C191.104 62.4323 191.404 62.6797 191.664 62.9922C191.951 63.3047 192.172 63.6562 192.328 64.0469C192.51 64.4375 192.602 64.8281 192.602 65.2188C192.602 65.2708 192.602 65.375 192.602 65.5312C192.602 65.6875 192.576 65.8438 192.523 66C191.846 68.3177 191.052 70.375 190.141 72.1719C189.255 73.9427 188.305 75.5312 187.289 76.9375C186.273 78.3438 185.219 79.5938 184.125 80.6875C183.031 81.8073 181.938 82.8359 180.844 83.7734V97.6016C180.844 99.7109 180.596 101.482 180.102 102.914C179.633 104.372 179.008 105.544 178.227 106.43C177.445 107.341 176.547 107.992 175.531 108.383C174.542 108.773 173.539 108.969 172.523 108.969C171.404 108.969 170.375 108.721 169.438 108.227C168.5 107.758 167.693 107.107 167.016 106.273C166.339 105.44 165.805 104.464 165.414 103.344C165.049 102.224 164.867 101.026 164.867 99.75ZM172.523 103.93C173.174 103.93 173.656 103.669 173.969 103.148C174.281 102.628 174.49 102.016 174.594 101.312C174.724 100.635 174.789 99.9453 174.789 99.2422C174.789 98.5391 174.789 97.9922 174.789 97.6016V89.0469C173.487 90.349 172.432 91.8203 171.625 93.4609C170.844 95.1016 170.453 97.1198 170.453 99.5156C170.453 100.766 170.635 101.807 171 102.641C171.365 103.5 171.872 103.93 172.523 103.93ZM188.266 26.7031C188.266 26.1302 188.214 25.6745 188.109 25.3359C188.031 24.9974 187.94 24.737 187.836 24.5547C187.758 24.3464 187.667 24.1901 187.562 24.0859C187.484 23.9557 187.445 23.8255 187.445 23.6953C187.445 23.5391 187.523 23.4089 187.68 23.3047C187.836 23.2005 188.044 23.1094 188.305 23.0312C188.565 22.9531 188.839 22.901 189.125 22.875C189.438 22.8229 189.737 22.7969 190.023 22.7969C191.352 22.7969 192.393 23.1484 193.148 23.8516C193.93 24.5286 194.32 25.349 194.32 26.3125V52.5625C194.867 51.4427 195.453 50.401 196.078 49.4375C196.729 48.474 197.419 47.6406 198.148 46.9375C198.904 46.2083 199.698 45.6484 200.531 45.2578C201.391 44.8411 202.315 44.6328 203.305 44.6328C204.633 44.6328 205.727 44.8802 206.586 45.375C207.445 45.8698 208.122 46.5078 208.617 47.2891C209.112 48.0703 209.451 48.9427 209.633 49.9062C209.841 50.8698 209.945 51.8073 209.945 52.7188V69.2812C209.945 69.4635 209.958 69.763 209.984 70.1797C210.01 70.5703 210.089 70.974 210.219 71.3906C210.349 71.8073 210.544 72.1719 210.805 72.4844C211.091 72.7969 211.495 72.9531 212.016 72.9531C212.823 72.9531 213.513 72.6667 214.086 72.0938C214.685 71.5208 215.193 70.8047 215.609 69.9453C216.052 69.0859 216.404 68.1615 216.664 67.1719C216.951 66.1562 217.185 65.2057 217.367 64.3203C217.523 63.513 217.758 62.9271 218.07 62.5625C218.409 62.1979 218.76 62.0026 219.125 61.9766C219.516 61.9245 219.906 62.0156 220.297 62.25C220.688 62.4844 221.026 62.7969 221.312 63.1875C221.599 63.5521 221.807 63.9688 221.938 64.4375C222.094 64.9062 222.12 65.349 222.016 65.7656C221.651 67.0938 221.169 68.487 220.57 69.9453C219.997 71.4036 219.255 72.7448 218.344 73.9688C217.432 75.1927 216.339 76.2083 215.062 77.0156C213.786 77.8229 212.289 78.2266 210.57 78.2266C209.503 78.2266 208.552 78.0182 207.719 77.6016C206.911 77.2109 206.208 76.6771 205.609 76C205.036 75.3229 204.594 74.5286 204.281 73.6172C203.995 72.7057 203.852 71.7422 203.852 70.7266V54.4766C203.852 53.8516 203.839 53.2656 203.812 52.7188C203.786 52.1719 203.708 51.6901 203.578 51.2734C203.474 50.8568 203.305 50.5312 203.07 50.2969C202.862 50.0365 202.562 49.9062 202.172 49.9062C201.599 49.9062 200.896 50.2969 200.062 51.0781C199.229 51.8594 198.409 52.875 197.602 54.125C196.794 55.375 196.078 56.7943 195.453 58.3828C194.854 59.9453 194.477 61.5208 194.32 63.1094V74.7891C194.32 75.1797 194.307 75.5833 194.281 76C194.281 76.3906 194.203 76.7422 194.047 77.0547C193.917 77.3932 193.695 77.6667 193.383 77.875C193.096 78.1094 192.667 78.2266 192.094 78.2266C191.703 78.2266 191.273 78.1745 190.805 78.0703C190.362 77.9922 189.945 77.8229 189.555 77.5625C189.19 77.3281 188.878 76.9766 188.617 76.5078C188.383 76.0651 188.266 75.4661 188.266 74.7109V26.7031ZM210.492 38.3828C211.091 38.4349 211.755 38.474 212.484 38.5C213.109 38.5521 213.865 38.5911 214.75 38.6172C215.635 38.6172 216.625 38.6302 217.719 38.6562V25.1016C217.719 24.5286 217.667 24.0729 217.562 23.7344C217.484 23.3958 217.393 23.1354 217.289 22.9531C217.211 22.7448 217.12 22.5885 217.016 22.4844C216.938 22.3542 216.898 22.224 216.898 22.0938C216.898 21.9375 216.977 21.8073 217.133 21.7031C217.289 21.599 217.497 21.5078 217.758 21.4297C218.018 21.3516 218.292 21.2995 218.578 21.2734C218.891 21.2214 219.19 21.1953 219.477 21.1953C220.805 21.1953 221.846 21.5469 222.602 22.25C223.383 22.9271 223.773 23.7474 223.773 24.7109V38.7344C226.221 38.7344 228.799 38.7083 231.508 38.6562C234.242 38.6042 236.977 38.513 239.711 38.3828C240.076 37.9922 240.362 37.849 240.57 37.9531C240.805 38.0573 240.948 38.3047 241 38.6953C241.078 39.0859 241.091 39.5677 241.039 40.1406C240.987 40.7135 240.883 41.2734 240.727 41.8203C240.57 42.3411 240.349 42.7969 240.062 43.1875C239.802 43.5781 239.503 43.7734 239.164 43.7734C235.961 43.8516 233.122 43.9036 230.648 43.9297C228.201 43.9297 225.909 43.9297 223.773 43.9297V69.2812C223.773 70.5833 224.021 71.5208 224.516 72.0938C225.01 72.6667 225.674 72.9531 226.508 72.9531C227.315 72.9531 228.005 72.6667 228.578 72.0938C229.177 71.5208 229.685 70.8047 230.102 69.9453C230.544 69.0859 230.896 68.1615 231.156 67.1719C231.443 66.1562 231.677 65.2057 231.859 64.3203C232.016 63.487 232.276 62.888 232.641 62.5234C233.005 62.1328 233.383 61.9375 233.773 61.9375C234.086 61.9375 234.411 62.0417 234.75 62.25C235.089 62.4323 235.388 62.6797 235.648 62.9922C235.935 63.3047 236.156 63.6562 236.312 64.0469C236.495 64.4375 236.586 64.8281 236.586 65.2188C236.586 65.2708 236.586 65.3359 236.586 65.4141C236.586 65.4922 236.56 65.6094 236.508 65.7656C236.169 67.0938 235.701 68.487 235.102 69.9453C234.529 71.4036 233.773 72.7448 232.836 73.9688C231.924 75.1927 230.831 76.2083 229.555 77.0156C228.279 77.8229 226.781 78.2266 225.062 78.2266C223.995 78.2266 223.005 78.0573 222.094 77.7188C221.208 77.4062 220.44 76.8854 219.789 76.1562C219.138 75.4531 218.63 74.5417 218.266 73.4219C217.901 72.3021 217.719 70.9479 217.719 69.3594V43.9297C216.833 43.9297 216.039 43.9297 215.336 43.9297C214.659 43.9036 214.086 43.8776 213.617 43.8516C213.07 43.8255 212.589 43.7995 212.172 43.7734C211.547 43.7734 211 43.5 210.531 42.9531C210.036 42.3802 209.698 41.7552 209.516 41.0781C209.307 40.401 209.281 39.7891 209.438 39.2422C209.568 38.6693 209.919 38.3828 210.492 38.3828ZM250.648 52.7188C250.648 54.2031 250.388 55.7266 249.867 57.2891C249.372 58.8516 248.617 60.3359 247.602 61.7422C246.612 63.1224 245.375 64.3724 243.891 65.4922C242.432 66.5859 240.74 67.4193 238.812 67.9922C239.073 68.6693 239.411 69.3203 239.828 69.9453C240.271 70.5443 240.792 71.0651 241.391 71.5078C241.99 71.9505 242.68 72.3021 243.461 72.5625C244.268 72.8229 245.193 72.9531 246.234 72.9531C247.797 72.9531 249.138 72.6667 250.258 72.0938C251.378 71.4948 252.315 70.7135 253.07 69.75C253.852 68.7865 254.477 67.7057 254.945 66.5078C255.414 65.3099 255.766 64.099 256 62.875C256.182 61.9896 256.547 61.4036 257.094 61.1172C257.667 60.8047 258.24 60.7266 258.812 60.8828C259.411 61.0391 259.919 61.3776 260.336 61.8984C260.779 62.3932 260.961 62.9922 260.883 63.6953C260.779 64.5026 260.596 65.4271 260.336 66.4688C260.102 67.5104 259.737 68.5651 259.242 69.6328C258.747 70.7005 258.109 71.7552 257.328 72.7969C256.573 73.8125 255.635 74.724 254.516 75.5312C253.396 76.3385 252.081 76.9896 250.57 77.4844C249.06 77.9792 247.328 78.2266 245.375 78.2266C243.552 78.2266 241.781 77.862 240.062 77.1328C238.37 76.4297 236.859 75.4141 235.531 74.0859C234.229 72.7318 233.174 71.0781 232.367 69.125C231.586 67.1458 231.195 64.9062 231.195 62.4062C231.195 59.8802 231.547 57.5365 232.25 55.375C232.953 53.1875 233.878 51.2995 235.023 49.7109C236.169 48.1224 237.471 46.8854 238.93 46C240.388 45.0885 241.885 44.6328 243.422 44.6328C244.542 44.6328 245.544 44.8281 246.43 45.2188C247.341 45.6094 248.109 46.1693 248.734 46.8984C249.359 47.6016 249.828 48.4479 250.141 49.4375C250.479 50.4271 250.648 51.5208 250.648 52.7188ZM237.758 62.1719C237.758 62.4062 237.771 62.6406 237.797 62.875C237.823 63.1094 237.836 63.3568 237.836 63.6172C238.826 63.1484 239.724 62.5495 240.531 61.8203C241.339 61.0911 242.029 60.2578 242.602 59.3203C243.174 58.3828 243.617 57.3672 243.93 56.2734C244.242 55.1536 244.398 53.9948 244.398 52.7969C244.398 51.9115 244.242 51.2214 243.93 50.7266C243.643 50.2318 243.24 49.9844 242.719 49.9844C242.068 49.9844 241.482 50.2057 240.961 50.6484C240.466 51.0911 240.023 51.6771 239.633 52.4062C239.268 53.1094 238.956 53.9167 238.695 54.8281C238.461 55.7135 238.266 56.612 238.109 57.5234C237.953 58.4349 237.849 59.3073 237.797 60.1406C237.745 60.9479 237.732 61.625 237.758 62.1719ZM273.422 78.2266C272.484 78.2266 271.521 78.0833 270.531 77.7969C269.568 77.5104 268.682 77.0156 267.875 76.3125C267.094 75.6094 266.443 74.6849 265.922 73.5391C265.427 72.3672 265.18 70.8958 265.18 69.125C265.18 66.5469 265.518 63.8255 266.195 60.9609C266.898 58.0703 267.901 54.8932 269.203 51.4297H263.109H262.211C262.185 52.2109 262.133 53.2005 262.055 54.3984C262.003 55.5964 261.898 56.8724 261.742 58.2266C261.586 59.5807 261.378 60.9479 261.117 62.3281C260.883 63.7083 260.583 64.9844 260.219 66.1562C259.958 66.9896 259.542 67.4714 258.969 67.6016C258.422 67.7318 257.875 67.6406 257.328 67.3281C256.781 66.9896 256.339 66.5078 256 65.8828C255.661 65.2578 255.583 64.6068 255.766 63.9297C255.974 63.1224 256.156 62.1458 256.312 61C256.469 59.8281 256.586 58.6042 256.664 57.3281C256.768 56.026 256.846 54.737 256.898 53.4609C256.951 52.1589 256.99 51 257.016 49.9844C256.026 49.4375 255.206 48.7474 254.555 47.9141C253.904 47.0547 253.578 46.0391 253.578 44.8672C253.578 44.3203 253.682 43.8255 253.891 43.3828C254.125 42.9141 254.424 42.5234 254.789 42.2109C255.154 41.8724 255.583 41.625 256.078 41.4688C256.573 41.2865 257.081 41.1953 257.602 41.1953C258.07 41.1953 258.552 41.2604 259.047 41.3906C259.568 41.5208 260.049 41.7552 260.492 42.0938C260.961 42.4323 261.378 42.875 261.742 43.4219C262.107 43.9688 262.406 44.6458 262.641 45.4531C263.292 45.5312 263.839 45.5964 264.281 45.6484C264.75 45.6745 265.141 45.7005 265.453 45.7266C265.766 45.7526 266.026 45.7656 266.234 45.7656C266.443 45.7656 266.651 45.7656 266.859 45.7656H271.039C271.273 45.7656 271.612 45.9089 272.055 46.1953C272.523 46.4818 272.979 46.8594 273.422 47.3281C273.865 47.7708 274.229 48.2526 274.516 48.7734C274.828 49.2943 274.945 49.7891 274.867 50.2578C274.867 50.4141 274.776 50.7917 274.594 51.3906C274.411 51.9896 274.19 52.7448 273.93 53.6562C273.669 54.5677 273.383 55.6224 273.07 56.8203C272.758 57.9922 272.471 59.2292 272.211 60.5312C271.951 61.8333 271.729 63.1875 271.547 64.5938C271.365 65.974 271.273 67.3281 271.273 68.6562C271.273 69.2031 271.339 69.737 271.469 70.2578C271.599 70.7786 271.794 71.2474 272.055 71.6641C272.315 72.0547 272.641 72.3672 273.031 72.6016C273.448 72.8359 273.93 72.9531 274.477 72.9531C275.388 72.9531 276.169 72.6667 276.82 72.0938C277.471 71.5208 278.018 70.8047 278.461 69.9453C278.904 69.0859 279.255 68.1615 279.516 67.1719C279.802 66.1562 280.036 65.2057 280.219 64.3203C280.375 63.487 280.635 62.888 281 62.5234C281.365 62.1328 281.742 61.9375 282.133 61.9375C282.445 61.9375 282.771 62.0417 283.109 62.25C283.448 62.4323 283.747 62.6797 284.008 62.9922C284.294 63.3047 284.516 63.6562 284.672 64.0469C284.854 64.4375 284.945 64.8281 284.945 65.2188C284.945 65.349 284.932 65.4531 284.906 65.5312C284.88 65.6094 284.867 65.6875 284.867 65.7656C284.503 67.0938 284.021 68.487 283.422 69.9453C282.849 71.4036 282.107 72.7448 281.195 73.9688C280.284 75.1927 279.19 76.2083 277.914 77.0156C276.638 77.8229 275.141 78.2266 273.422 78.2266Z" />
</svg>
